<?xml version="1.0" encoding="utf-8"?>
<svg viewBox="0 0 200 500" xmlns="http://www.w3.org/2000/svg">
  <defs/>
  <path style="fill: rgb(51, 51, 51); white-space: pre;"/>
  <path style="fill: rgb(51, 51, 51); white-space: pre;"/>
  <path style="fill: rgb(51, 51, 51); white-space: pre;"/>
  <path style="fill: rgb(51, 51, 51); white-space: pre;"/>
  <path d="M 15.037 18.363 L 51.624 18.363 L 51.624 18.465 L 33.648 31.749 L 15.037 18.407 L 15.037 18.363 Z M 51.624 44.646 L 15.037 44.646 L 15.037 22.235 L 32.723 34.913 L 33.678 35.598 L 34.623 34.9 L 51.624 22.337 L 51.624 44.646 Z" style="fill: rgb(240, 240, 240);"/>
  <polyline style="fill: none; stroke-width: 3px;" points="0 0 18.571 13.7 36.587 0"/>
  <path d="M 129.009 73.717 L 165.596 73.717 L 165.596 73.819 L 147.62 87.103 L 129.009 73.761 L 129.009 73.717 Z M 165.596 100 L 129.009 100 L 129.009 77.589 L 146.695 90.267 L 147.65 90.952 L 148.595 90.254 L 165.596 77.691 L 165.596 100 Z" style="fill: rgb(240, 240, 240); transform-box: fill-box; transform-origin: 50% 50%;" transform="matrix(0.750798, -0.660532, 0.660532, 0.750798, 0.000003, 0.000001)"/>
  <path d="M 36.587 153.199 L 73.174 153.199 L 73.174 153.301 L 55.198 166.585 L 36.587 153.243 L 36.587 153.199 Z M 73.174 179.482 L 36.587 179.482 L 36.587 157.071 L 54.273 169.749 L 55.228 170.434 L 56.173 169.736 L 73.174 157.173 L 73.174 179.482 Z" style="fill: rgb(240, 240, 240); transform-box: fill-box; transform-origin: 50% 50%;" transform="matrix(0.989274, -0.146071, 0.146071, 0.989274, 0, 0.000001)"/>
  <path d="M 129.673 341.831 L 166.26 341.831 L 166.26 341.933 L 148.284 355.217 L 129.673 341.875 L 129.673 341.831 Z M 166.26 368.114 L 129.673 368.114 L 129.673 345.703 L 147.359 358.381 L 148.314 359.066 L 149.259 358.368 L 166.26 345.805 L 166.26 368.114 Z" style="fill: rgb(240, 240, 240); transform-box: fill-box; transform-origin: 50% 50%;" transform="matrix(0.935873, 0.352338, -0.352338, 0.935873, 0.000002, -0.000001)"/>
  <path d="M 76.621 285.142 L 113.208 285.142 L 113.208 285.244 L 95.232 298.528 L 76.621 285.186 L 76.621 285.142 Z M 113.208 311.425 L 76.621 311.425 L 76.621 289.014 L 94.307 301.692 L 95.262 302.377 L 96.207 301.679 L 113.208 289.116 L 113.208 311.425 Z" style="fill: rgb(240, 240, 240); transform-origin: 94.915px 298.284px;" transform="matrix(0.989274, -0.146071, 0.146071, 0.989274, 0, 0.000001)"/>
  <path d="M 22.257 228.217 L 58.844 228.217 L 58.844 228.319 L 40.868 241.603 L 22.257 228.261 L 22.257 228.217 Z M 58.844 254.5 L 22.257 254.5 L 22.257 232.089 L 39.943 244.767 L 40.898 245.452 L 41.843 244.754 L 58.844 232.191 L 58.844 254.5 Z" style="fill: rgb(240, 240, 240);"/>
  <path d="M 62.301 88.398 L 98.888 88.398 L 98.888 88.5 L 80.912 101.784 L 62.301 88.442 L 62.301 88.398 Z M 98.888 114.681 L 62.301 114.681 L 62.301 92.27 L 79.987 104.948 L 80.942 105.633 L 81.887 104.935 L 98.888 92.372 L 98.888 114.681 Z" style="fill: rgb(240, 240, 240); transform-origin: 80.594px 101.539px;" transform="matrix(0.935873, 0.352338, -0.352338, 0.935873, 0.000001, 0.000001)"/>
  <path d="M 76.621 427.272 L 113.208 427.272 L 113.208 427.374 L 95.232 440.658 L 76.621 427.316 L 76.621 427.272 Z M 113.208 453.555 L 76.621 453.555 L 76.621 431.144 L 94.307 443.822 L 95.262 444.507 L 96.207 443.809 L 113.208 431.246 L 113.208 453.555 Z" style="fill: rgb(240, 240, 240); transform-origin: 94.915px 440.414px;" transform="matrix(0.989274, -0.146071, 0.146071, 0.989274, 0.000001, 0)"/>
  <path d="M 34.864 373.717 L 71.451 373.717 L 71.451 373.819 L 53.475 387.103 L 34.864 373.761 L 34.864 373.717 Z M 71.451 400 L 34.864 400 L 34.864 377.589 L 52.55 390.267 L 53.505 390.952 L 54.45 390.254 L 71.451 377.691 L 71.451 400 Z" style="fill: rgb(240, 240, 240);"/>
  <path d="M 122.367 168.114 L 158.954 168.114 L 158.954 168.216 L 140.978 181.5 L 122.367 168.158 L 122.367 168.114 Z M 158.954 194.397 L 122.367 194.397 L 122.367 171.986 L 140.053 184.664 L 141.008 185.349 L 141.953 184.651 L 158.954 172.088 L 158.954 194.397 Z" style="fill: rgb(240, 240, 240); transform-origin: 140.66px 181.255px;" transform="matrix(0.935873, 0.352338, -0.352338, 0.935873, 0.000002, -0.000001)"/>
  <path d="M 146.464 455.703 L 183.051 455.703 L 183.051 455.805 L 165.075 469.089 L 146.464 455.747 L 146.464 455.703 Z M 183.051 481.986 L 146.464 481.986 L 146.464 459.575 L 164.15 472.253 L 165.105 472.938 L 166.05 472.24 L 183.051 459.677 L 183.051 481.986 Z" style="fill: rgb(240, 240, 240); transform-origin: 164.757px 468.844px;" transform="matrix(0.6507, 0.759335, -0.759335, 0.6507, 0.000013, 0.000007)"/>
</svg>