<?xml version="1.0" encoding="utf-8"?>
<svg viewBox="0 0 200 500" xmlns="http://www.w3.org/2000/svg">
  <defs/>
  <path style="fill: rgb(51, 51, 51); white-space: pre;"/>
  <path style="fill: rgb(51, 51, 51); white-space: pre;"/>
  <path style="fill: rgb(51, 51, 51); white-space: pre;"/>
  <path style="fill: rgb(51, 51, 51); white-space: pre;"/>
  <path d="M 111.917 190.398 L 144.889 190.398 L 144.889 190.49 L 128.689 202.461 L 111.917 190.438 L 111.917 190.398 Z M 144.889 214.084 L 111.917 214.084 L 111.917 193.888 L 127.856 205.313 L 128.716 205.93 L 129.568 205.301 L 144.889 193.979 L 144.889 214.084 Z" style="fill: rgb(240, 240, 240);"/>
  <polyline style="fill: none; stroke-width: 3px;" points="0 0 18.571 13.7 36.587 0"/>
  <path d="M 41.817 441.133 L 74.789 441.133 L 74.789 441.041 L 58.589 429.07 L 41.817 441.093 L 41.817 441.133 Z M 74.789 417.447 L 41.817 417.447 L 41.817 437.644 L 57.755 426.218 L 58.616 425.601 L 59.468 426.23 L 74.789 437.552 L 74.789 417.447 Z" style="fill: rgb(240, 240, 240); transform-origin: 58.303px 429.29px;" transform="matrix(-0.750798, -0.660532, 0.660532, -0.750798, 0, -0.00002)"/>
  <path d="M 131.338 311.91 L 164.31 311.91 L 164.31 312.002 L 148.11 323.973 L 131.338 311.95 L 131.338 311.91 Z M 164.31 335.596 L 131.338 335.596 L 131.338 315.4 L 147.276 326.825 L 148.137 327.442 L 148.989 326.813 L 164.31 315.492 L 164.31 335.596 Z" style="fill: rgb(240, 240, 240); transform-box: fill-box; transform-origin: 50% 50%;" transform="matrix(0.989274, -0.146071, 0.146071, 0.989274, -0.000001, 0)"/>
  <path d="M 115.308 444.026 L 148.279 444.026 L 148.279 443.934 L 132.08 431.962 L 115.308 443.986 L 115.308 444.026 Z M 148.279 420.34 L 115.308 420.34 L 115.308 440.536 L 131.246 429.111 L 132.107 428.494 L 132.958 429.123 L 148.279 440.444 L 148.279 420.34 Z" style="fill: rgb(240, 240, 240); transform-origin: 131.794px 432.181px;" transform="matrix(-0.935873, 0.352338, -0.352338, -0.935873, 0.000011, -0.000029)"/>
  <path d="M 85.938 267.127 L 118.91 267.127 L 118.91 267.219 L 102.71 279.19 L 85.938 267.166 L 85.938 267.127 Z M 118.91 290.813 L 85.938 290.813 L 85.938 270.616 L 101.876 282.041 L 102.737 282.659 L 103.589 282.03 L 118.91 270.708 L 118.91 290.813 Z" style="fill: rgb(240, 240, 240); transform-origin: 102.424px 278.97px;" transform="matrix(0.989274, -0.146071, 0.146071, 0.989274, 0.000001, 0.000001)"/>
  <path d="M 36.946 215.827 L 69.918 215.827 L 69.918 215.919 L 53.718 227.89 L 36.946 215.867 L 36.946 215.827 Z M 69.918 239.513 L 36.946 239.513 L 36.946 219.316 L 52.884 230.741 L 53.745 231.359 L 54.597 230.73 L 69.918 219.408 L 69.918 239.513 Z" style="fill: rgb(240, 240, 240);"/>
  <path d="M 154.511 253.513 L 187.483 253.513 L 187.483 253.605 L 171.283 265.576 L 154.511 253.552 L 154.511 253.513 Z M 187.483 277.198 L 154.511 277.198 L 154.511 257.002 L 170.449 268.427 L 171.31 269.045 L 172.162 268.415 L 187.483 257.094 L 187.483 277.198 Z" style="fill: rgb(240, 240, 240); transform-origin: 170.996px 265.355px;" transform="matrix(0.935873, 0.352338, -0.352338, 0.935873, -0.000005, -0.000006)"/>
  <path d="M 58.097 139.455 L 91.068 139.455 L 91.068 139.547 L 74.869 151.518 L 58.097 139.495 L 58.097 139.455 Z M 91.068 163.141 L 58.097 163.141 L 58.097 142.944 L 74.035 154.37 L 74.896 154.987 L 75.747 154.358 L 91.068 143.036 L 91.068 163.141 Z" style="fill: rgb(240, 240, 240); transform-origin: 74.583px 151.298px;" transform="matrix(0.989274, -0.146071, 0.146071, 0.989274, 0.000001, 0.000002)"/>
  <path d="M 132.891 72.4 L 165.862 72.4 L 165.862 72.492 L 149.663 84.463 L 132.891 72.439 L 132.891 72.4 Z M 165.862 96.086 L 132.891 96.086 L 132.891 75.889 L 148.829 87.314 L 149.69 87.932 L 150.541 87.303 L 165.862 75.981 L 165.862 96.086 Z" style="fill: rgb(240, 240, 240);"/>
  <path d="M 20.457 386.199 L 53.429 386.199 L 53.429 386.107 L 37.229 374.135 L 20.457 386.159 L 20.457 386.199 Z M 53.429 362.513 L 20.457 362.513 L 20.457 382.709 L 36.395 371.284 L 37.256 370.667 L 38.108 371.296 L 53.429 382.617 L 53.429 362.513 Z" style="fill: rgb(240, 240, 240); transform-origin: 36.942px 374.356px;" transform="matrix(-0.935873, 0.352338, -0.352338, -0.935873, -0.000007, 0.000012)"/>
  <path d="M 33.713 40.332 L 66.684 40.332 L 66.684 40.424 L 50.485 52.395 L 33.713 40.372 L 33.713 40.332 Z M 66.684 64.018 L 33.713 64.018 L 33.713 43.821 L 49.651 55.247 L 50.512 55.864 L 51.363 55.235 L 66.684 43.913 L 66.684 64.018 Z" style="fill: rgb(240, 240, 240); transform-origin: 50.198px 52.174px;" transform="matrix(0.6507, 0.759335, -0.759335, 0.6507, 0.000005, -0.000003)"/>
</svg>