<?xml version="1.0" encoding="utf-8"?>
<svg viewBox="0 0 200 500" xmlns="http://www.w3.org/2000/svg">
  <defs/>
  <path style="fill: rgb(51, 51, 51); white-space: pre;"/>
  <path style="fill: rgb(51, 51, 51); white-space: pre;"/>
  <path style="fill: rgb(51, 51, 51); white-space: pre;"/>
  <path style="fill: rgb(51, 51, 51); white-space: pre;"/>
  <path d="M 105.452 250.875 L 136.17 250.875 L 136.17 250.961 L 121.078 262.114 L 105.452 250.912 L 105.452 250.875 Z M 136.17 272.942 L 105.452 272.942 L 105.452 254.127 L 120.302 264.771 L 121.103 265.345 L 121.897 264.759 L 136.17 254.211 L 136.17 272.942 Z" style="fill: rgb(240, 240, 240); transform-origin: 120.811px 261.909px;"/>
  <polyline style="fill: none; stroke-width: 3px;" points="0 0 18.571 13.7 36.587 0"/>
  <path d="M 69.786 39.778 L 100.504 39.778 L 100.504 39.864 L 85.411 51.017 L 69.786 39.815 L 69.786 39.778 Z M 100.504 61.845 L 69.786 61.845 L 69.786 43.029 L 84.635 53.674 L 85.437 54.248 L 86.23 53.662 L 100.504 43.114 L 100.504 61.845 Z" style="fill: rgb(240, 240, 240); transform-origin: 85.145px 50.812px;" transform="matrix(0.750798, -0.660532, 0.660532, 0.750798, -0.000001, -0.000004)"/>
  <path d="M 127.192 163.166 L 157.91 163.166 L 157.91 163.08 L 142.817 151.928 L 127.192 163.129 L 127.192 163.166 Z M 157.91 141.099 L 127.192 141.099 L 127.192 159.915 L 142.04 149.271 L 142.842 148.696 L 143.636 149.282 L 157.91 159.829 L 157.91 141.099 Z" style="fill: rgb(240, 240, 240); transform-origin: 142.551px 152.133px;" transform="matrix(-0.146071, 0.989274, -0.989274, -0.146071, 0.000021, 0.000003)"/>
  <path d="M 138.253 37.083 L 168.971 37.083 L 168.971 37.169 L 153.879 48.322 L 138.253 37.12 L 138.253 37.083 Z M 168.971 59.15 L 138.253 59.15 L 138.253 40.334 L 153.102 50.978 L 153.904 51.553 L 154.697 50.967 L 168.971 40.42 L 168.971 59.15 Z" style="fill: rgb(240, 240, 240); transform-origin: 153.613px 48.118px;" transform="matrix(0.935873, 0.352338, -0.352338, 0.935873, -0.000001, 0.000003)"/>
  <path d="M 88.923 447.494 L 119.641 447.494 L 119.641 447.58 L 104.549 458.732 L 88.923 447.53 L 88.923 447.494 Z M 119.641 469.561 L 88.923 469.561 L 88.923 450.744 L 103.772 461.388 L 104.574 461.964 L 105.368 461.378 L 119.641 450.83 L 119.641 469.561 Z" style="fill: rgb(240, 240, 240); transform-origin: 104.282px 458.527px;" transform="matrix(0.989274, -0.146071, 0.146071, 0.989274, -0.000001, 0)"/>
  <path d="M 35.606 227.184 L 66.324 227.184 L 66.324 227.27 L 51.231 238.423 L 35.606 227.222 L 35.606 227.184 Z M 66.324 249.251 L 35.606 249.251 L 35.606 230.435 L 50.454 241.079 L 51.257 241.655 L 52.05 241.069 L 66.324 230.521 L 66.324 249.251 Z" style="fill: rgb(240, 240, 240); transform-origin: 50.965px 238.218px;"/>
  <path d="M 152.809 482.244 L 183.527 482.244 L 183.527 482.159 L 168.434 471.006 L 152.809 482.208 L 152.809 482.244 Z M 183.527 460.178 L 152.809 460.178 L 152.809 478.994 L 167.657 468.35 L 168.459 467.774 L 169.253 468.361 L 183.527 478.908 L 183.527 460.178 Z" style="fill: rgb(240, 240, 240); transform-origin: 168.167px 471.212px;" transform="matrix(-0.352338, -0.935873, 0.935873, -0.352338, -0.000008, -0.000038)"/>
  <path d="M 55.311 320.403 L 86.028 320.403 L 86.028 320.317 L 70.937 309.164 L 55.311 320.366 L 55.311 320.403 Z M 86.028 298.336 L 55.311 298.336 L 55.311 317.152 L 70.16 306.507 L 70.962 305.933 L 71.755 306.519 L 86.028 317.067 L 86.028 298.336 Z" style="fill: rgb(240, 240, 240); transform-origin: 70.67px 309.369px;" transform="matrix(-0.989274, -0.146071, 0.146071, -0.989274, -0.000015, -0.000009)"/>
  <path d="M 124.993 360.807 L 155.71 360.807 L 155.71 360.893 L 140.618 372.046 L 124.993 360.844 L 124.993 360.807 Z M 155.71 382.874 L 124.993 382.874 L 124.993 364.058 L 139.841 374.702 L 140.643 375.278 L 141.436 374.692 L 155.71 364.144 L 155.71 382.874 Z" style="fill: rgb(240, 240, 240); transform-origin: 140.352px 371.841px;"/>
  <path d="M 20.244 90.525 L 50.962 90.525 L 50.962 90.611 L 35.87 101.764 L 20.244 90.562 L 20.244 90.525 Z M 50.962 112.592 L 20.244 112.592 L 20.244 93.777 L 35.093 104.421 L 35.895 104.995 L 36.688 104.409 L 50.962 93.862 L 50.962 112.592 Z" style="fill: rgb(240, 240, 240); transform-origin: 35.602px 101.559px;" transform="matrix(0.935873, 0.352338, -0.352338, 0.935873, 0.000001, 0.000002)"/>
  <path d="M 32.594 412.75 L 63.311 412.75 L 63.311 412.664 L 48.219 401.512 L 32.594 412.713 L 32.594 412.75 Z M 63.311 390.683 L 32.594 390.683 L 32.594 409.5 L 47.442 398.855 L 48.245 398.28 L 49.037 398.866 L 63.311 409.414 L 63.311 390.683 Z" style="fill: rgb(240, 240, 240); transform-origin: 47.952px 401.718px;" transform="matrix(-0.6507, 0.759335, -0.759335, -0.6507, -0.000006, 0.00002)"/>
</svg>