<?xml version="1.0" encoding="utf-8"?>
<svg viewBox="0 0 200 500" xmlns="http://www.w3.org/2000/svg">
  <path style="fill: rgb(51, 51, 51); white-space: pre;"/>
  <path d="M 76.615 52.276 L 79.475 52.276 L 79.475 45.002 C 79.475 44.702 79.486 44.389 79.508 44.063 L 77.583 45.52 C 77.457 45.611 77.331 45.666 77.205 45.686 C 77.078 45.706 76.96 45.706 76.848 45.686 C 76.737 45.666 76.639 45.632 76.554 45.583 C 76.468 45.534 76.404 45.484 76.359 45.432 L 75.513 44.415 L 79.953 41.032 L 82.157 41.032 L 82.157 52.276 L 84.683 52.276 L 84.683 54.036 L 76.615 54.036 L 76.615 52.276 Z" style="white-space: pre; fill: rgb(240, 240, 240);"/>
  <path d="M 32.56 72.594 L 35.42 72.594 L 35.42 65.319 C 35.42 65.02 35.431 64.707 35.453 64.381 L 33.528 65.838 C 33.402 65.929 33.276 65.984 33.15 66.004 C 33.024 66.023 32.905 66.023 32.793 66.004 C 32.683 65.984 32.584 65.95 32.499 65.901 C 32.413 65.852 32.349 65.802 32.304 65.75 L 31.458 64.733 L 35.899 61.35 L 38.102 61.35 L 38.102 72.594 L 40.628 72.594 L 40.628 74.354 L 32.56 74.354 L 32.56 72.594 Z" style="white-space: pre; fill: rgb(240, 240, 240);"/>
  <path d="M 54.562 29.717 L 57.422 29.717 L 57.422 22.443 C 57.422 22.143 57.433 21.83 57.455 21.504 L 55.53 22.961 C 55.404 23.052 55.278 23.107 55.152 23.127 C 55.025 23.147 54.906 23.147 54.795 23.127 C 54.684 23.107 54.586 23.073 54.501 23.024 C 54.415 22.976 54.351 22.925 54.306 22.873 L 53.46 21.856 L 57.9 18.473 L 60.104 18.473 L 60.104 29.717 L 62.63 29.717 L 62.63 31.477 L 54.562 31.477 L 54.562 29.717 Z" style="white-space: pre; fill: rgb(240, 240, 240);"/>
  <path d="M 22.657 207.554 L 25.517 207.554 L 25.517 200.28 C 25.517 199.98 25.528 199.667 25.55 199.341 L 23.625 200.798 C 23.499 200.89 23.373 200.945 23.247 200.965 C 23.121 200.984 23.002 200.984 22.89 200.965 C 22.78 200.945 22.681 200.91 22.596 200.862 C 22.51 200.813 22.446 200.762 22.401 200.71 L 21.555 199.694 L 25.996 196.31 L 28.199 196.31 L 28.199 207.554 L 30.725 207.554 L 30.725 209.314 L 22.657 209.314 L 22.657 207.554 Z" style="white-space: pre; fill: rgb(240, 240, 240);"/>
  <path d="M 23.921 98.352 L 26.781 98.352 L 26.781 91.078 C 26.781 90.778 26.792 90.465 26.815 90.139 L 24.889 91.596 C 24.763 91.687 24.637 91.742 24.511 91.762 C 24.385 91.782 24.266 91.782 24.155 91.762 C 24.044 91.742 23.945 91.708 23.86 91.659 C 23.775 91.61 23.71 91.56 23.665 91.508 L 22.819 90.491 L 27.26 87.108 L 29.463 87.108 L 29.463 98.352 L 31.989 98.352 L 31.989 100.112 L 23.921 100.112 L 23.921 98.352 Z" style="white-space: pre; fill: rgb(240, 240, 240);"/>
  <path d="M 40.444 167.309 L 43.304 167.309 L 43.304 160.034 C 43.304 159.735 43.315 159.422 43.337 159.096 L 41.412 160.553 C 41.286 160.644 41.16 160.699 41.034 160.719 C 40.908 160.738 40.789 160.738 40.678 160.719 C 40.567 160.699 40.468 160.665 40.383 160.616 C 40.297 160.567 40.233 160.517 40.188 160.465 L 39.342 159.448 L 43.783 156.065 L 45.986 156.065 L 45.986 167.309 L 48.512 167.309 L 48.512 169.069 L 40.444 169.069 L 40.444 167.309 Z" style="white-space: pre; fill: rgb(240, 240, 240);"/>
  <path d="M 60.44 197.941 C 60.44 198.312 60.319 198.633 60.077 198.904 C 59.835 199.175 59.519 199.31 59.128 199.31 C 58.722 199.31 58.394 199.175 58.145 198.904 C 57.895 198.633 57.77 198.312 57.77 197.941 C 57.77 197.571 57.895 197.242 58.145 196.957 C 58.394 196.672 58.722 196.529 59.128 196.529 C 59.519 196.529 59.835 196.672 60.077 196.957 C 60.319 197.242 60.44 197.571 60.44 197.941 Z M 54.304 198.176 C 54.304 195.951 54.721 194.244 55.557 193.053 C 56.393 191.862 57.567 191.267 59.082 191.267 C 60.612 191.267 61.79 191.862 62.618 193.053 C 63.445 194.244 63.859 195.951 63.859 198.176 C 63.859 200.401 63.445 202.109 62.618 203.3 C 61.79 204.491 60.612 205.086 59.082 205.086 C 57.567 205.086 56.393 204.491 55.557 203.3 C 54.721 202.109 54.304 200.401 54.304 198.176 Z M 61.892 198.176 C 61.892 197.449 61.845 196.761 61.751 196.112 C 61.658 195.463 61.502 194.896 61.283 194.411 C 61.064 193.926 60.776 193.541 60.416 193.256 C 60.058 192.971 59.613 192.828 59.082 192.828 C 58.551 192.828 58.106 192.971 57.747 193.256 C 57.388 193.541 57.099 193.926 56.88 194.411 C 56.662 194.896 56.506 195.463 56.412 196.112 C 56.318 196.761 56.272 197.449 56.272 198.176 C 56.272 198.904 56.318 199.592 56.412 200.241 C 56.506 200.89 56.662 201.457 56.88 201.942 C 57.099 202.426 57.388 202.811 57.747 203.097 C 58.106 203.382 58.551 203.525 59.082 203.525 C 59.613 203.525 60.058 203.382 60.416 203.097 C 60.776 202.811 61.064 202.426 61.283 201.942 C 61.502 201.457 61.658 200.89 61.751 200.241 C 61.845 199.592 61.892 198.904 61.892 198.176 Z" style="white-space: pre; fill: rgb(240, 240, 240);"/>
  <path d="M 89.453 165.422 C 89.453 165.794 89.332 166.114 89.09 166.385 C 88.848 166.656 88.531 166.792 88.141 166.792 C 87.735 166.792 87.407 166.656 87.158 166.385 C 86.908 166.114 86.783 165.794 86.783 165.422 C 86.783 165.052 86.908 164.724 87.158 164.438 C 87.407 164.153 87.735 164.011 88.141 164.011 C 88.531 164.011 88.848 164.153 89.09 164.438 C 89.332 164.724 89.453 165.052 89.453 165.422 Z M 83.317 165.658 C 83.317 163.433 83.734 161.725 84.57 160.534 C 85.405 159.343 86.58 158.748 88.094 158.748 C 89.624 158.748 90.803 159.343 91.631 160.534 C 92.458 161.725 92.872 163.433 92.872 165.658 C 92.872 167.883 92.458 169.591 91.631 170.781 C 90.803 171.973 89.624 172.568 88.094 172.568 C 86.58 172.568 85.405 171.973 84.57 170.781 C 83.734 169.591 83.317 167.883 83.317 165.658 Z M 90.905 165.658 C 90.905 164.93 90.858 164.242 90.764 163.593 C 90.67 162.944 90.515 162.377 90.296 161.893 C 90.077 161.408 89.789 161.023 89.429 160.737 C 89.07 160.452 88.625 160.309 88.094 160.309 C 87.564 160.309 87.119 160.452 86.76 160.737 C 86.401 161.023 86.112 161.408 85.893 161.893 C 85.675 162.377 85.518 162.944 85.425 163.593 C 85.331 164.242 85.285 164.93 85.285 165.658 C 85.285 166.385 85.331 167.073 85.425 167.722 C 85.518 168.371 85.675 168.938 85.893 169.423 C 86.112 169.908 86.401 170.293 86.76 170.579 C 87.119 170.864 87.564 171.006 88.094 171.006 C 88.625 171.006 89.07 170.864 89.429 170.579 C 89.789 170.293 90.077 169.908 90.296 169.423 C 90.515 168.938 90.67 168.371 90.764 167.722 C 90.858 167.073 90.905 166.385 90.905 165.658 Z" style="white-space: pre; fill: rgb(240, 240, 240);"/>
  <path d="M 48.358 116.514 C 48.358 116.885 48.237 117.206 47.996 117.476 C 47.753 117.747 47.437 117.883 47.047 117.883 C 46.641 117.883 46.313 117.747 46.063 117.476 C 45.814 117.206 45.689 116.885 45.689 116.514 C 45.689 116.143 45.814 115.815 46.063 115.53 C 46.313 115.244 46.641 115.102 47.047 115.102 C 47.437 115.102 47.753 115.244 47.996 115.53 C 48.237 115.815 48.358 116.143 48.358 116.514 Z M 42.223 116.749 C 42.223 114.524 42.64 112.816 43.475 111.626 C 44.311 110.435 45.486 109.839 47 109.839 C 48.53 109.839 49.709 110.435 50.537 111.626 C 51.364 112.816 51.778 114.524 51.778 116.749 C 51.778 118.974 51.364 120.682 50.537 121.872 C 49.709 123.064 48.53 123.659 47 123.659 C 45.486 123.659 44.311 123.064 43.475 121.872 C 42.64 120.682 42.223 118.974 42.223 116.749 Z M 49.81 116.749 C 49.81 116.022 49.764 115.334 49.67 114.685 C 49.576 114.036 49.42 113.469 49.201 112.984 C 48.983 112.499 48.694 112.114 48.335 111.829 C 47.976 111.544 47.531 111.401 47 111.401 C 46.47 111.401 46.025 111.544 45.665 111.829 C 45.306 112.114 45.017 112.499 44.799 112.984 C 44.58 113.469 44.424 114.036 44.331 114.685 C 44.237 115.334 44.19 116.022 44.19 116.749 C 44.19 117.476 44.237 118.165 44.331 118.814 C 44.424 119.462 44.58 120.03 44.799 120.514 C 45.017 120.999 45.306 121.384 45.665 121.67 C 46.025 121.955 46.47 122.097 47 122.097 C 47.531 122.097 47.976 121.955 48.335 121.67 C 48.694 121.384 48.983 120.999 49.201 120.514 C 49.42 120.03 49.576 119.462 49.67 118.814 C 49.764 118.165 49.81 117.476 49.81 116.749 Z" style="white-space: pre; fill: rgb(240, 240, 240);"/>
  <path d="M 68.344 84.697 C 68.344 85.068 68.223 85.389 67.981 85.659 C 67.739 85.93 67.423 86.066 67.032 86.066 C 66.626 86.066 66.299 85.93 66.049 85.659 C 65.8 85.389 65.674 85.068 65.674 84.697 C 65.674 84.326 65.8 83.998 66.049 83.713 C 66.299 83.428 66.626 83.285 67.032 83.285 C 67.423 83.285 67.739 83.428 67.981 83.713 C 68.223 83.998 68.344 84.326 68.344 84.697 Z M 62.208 84.932 C 62.208 82.707 62.626 80.999 63.461 79.809 C 64.297 78.618 65.471 78.022 66.986 78.022 C 68.516 78.022 69.694 78.618 70.522 79.809 C 71.349 80.999 71.763 82.707 71.763 84.932 C 71.763 87.157 71.349 88.865 70.522 90.055 C 69.694 91.247 68.516 91.842 66.986 91.842 C 65.471 91.842 64.297 91.247 63.461 90.055 C 62.626 88.865 62.208 87.157 62.208 84.932 Z M 69.796 84.932 C 69.796 84.205 69.749 83.517 69.655 82.868 C 69.562 82.219 69.406 81.652 69.187 81.167 C 68.968 80.682 68.68 80.297 68.32 80.012 C 67.962 79.727 67.517 79.584 66.986 79.584 C 66.455 79.584 66.01 79.727 65.651 80.012 C 65.292 80.297 65.003 80.682 64.784 81.167 C 64.566 81.652 64.41 82.219 64.316 82.868 C 64.222 83.517 64.176 84.205 64.176 84.932 C 64.176 85.659 64.222 86.348 64.316 86.997 C 64.41 87.645 64.566 88.213 64.784 88.698 C 65.003 89.182 65.292 89.567 65.651 89.853 C 66.01 90.138 66.455 90.28 66.986 90.28 C 67.517 90.28 67.962 90.138 68.32 89.853 C 68.68 89.567 68.968 89.182 69.187 88.698 C 69.406 88.213 69.562 87.645 69.655 86.997 C 69.749 86.348 69.796 85.659 69.796 84.932 Z" style="white-space: pre; fill: rgb(240, 240, 240);"/>
  <path d="M 34.03 40.337 C 34.03 40.708 33.909 41.029 33.667 41.299 C 33.425 41.57 33.109 41.706 32.718 41.706 C 32.313 41.706 31.985 41.57 31.735 41.299 C 31.486 41.029 31.361 40.708 31.361 40.337 C 31.361 39.966 31.486 39.638 31.735 39.353 C 31.985 39.068 32.313 38.925 32.718 38.925 C 33.109 38.925 33.425 39.068 33.667 39.353 C 33.909 39.638 34.03 39.966 34.03 40.337 Z M 27.894 40.572 C 27.894 38.347 28.312 36.639 29.147 35.449 C 29.983 34.258 31.157 33.662 32.672 33.662 C 34.202 33.662 35.38 34.258 36.208 35.449 C 37.036 36.639 37.449 38.347 37.449 40.572 C 37.449 42.797 37.036 44.505 36.208 45.695 C 35.38 46.887 34.202 47.482 32.672 47.482 C 31.157 47.482 29.983 46.887 29.147 45.695 C 28.312 44.505 27.894 42.797 27.894 40.572 Z M 35.482 40.572 C 35.482 39.845 35.435 39.157 35.341 38.508 C 35.248 37.859 35.092 37.292 34.873 36.807 C 34.654 36.322 34.366 35.937 34.007 35.652 C 33.648 35.367 33.203 35.224 32.672 35.224 C 32.141 35.224 31.696 35.367 31.337 35.652 C 30.978 35.937 30.689 36.322 30.47 36.807 C 30.252 37.292 30.096 37.859 30.002 38.508 C 29.908 39.157 29.862 39.845 29.862 40.572 C 29.862 41.299 29.908 41.988 30.002 42.637 C 30.096 43.285 30.252 43.853 30.47 44.338 C 30.689 44.822 30.978 45.207 31.337 45.493 C 31.696 45.778 32.141 45.92 32.672 45.92 C 33.203 45.92 33.648 45.778 34.007 45.493 C 34.366 45.207 34.654 44.822 34.873 44.338 C 35.092 43.853 35.248 43.285 35.341 42.637 C 35.435 41.988 35.482 41.299 35.482 40.572 Z" style="white-space: pre; fill: rgb(240, 240, 240);"/>
  <path d="M 19.281 149.267 C 19.281 149.639 19.16 149.959 18.918 150.23 C 18.676 150.501 18.36 150.637 17.969 150.637 C 17.563 150.637 17.235 150.501 16.986 150.23 C 16.736 149.959 16.611 149.639 16.611 149.267 C 16.611 148.897 16.736 148.569 16.986 148.283 C 17.235 147.998 17.563 147.856 17.969 147.856 C 18.36 147.856 18.676 147.998 18.918 148.283 C 19.16 148.569 19.281 148.897 19.281 149.267 Z M 13.145 149.503 C 13.145 147.278 13.562 145.57 14.398 144.379 C 15.233 143.188 16.408 142.593 17.923 142.593 C 19.453 142.593 20.631 143.188 21.459 144.379 C 22.286 145.57 22.7 147.278 22.7 149.503 C 22.7 151.728 22.286 153.436 21.459 154.626 C 20.631 155.818 19.453 156.413 17.923 156.413 C 16.408 156.413 15.233 155.818 14.398 154.626 C 13.562 153.436 13.145 151.728 13.145 149.503 Z M 20.733 149.503 C 20.733 148.775 20.686 148.087 20.592 147.438 C 20.499 146.789 20.343 146.222 20.124 145.738 C 19.905 145.253 19.617 144.868 19.257 144.582 C 18.898 144.297 18.454 144.154 17.923 144.154 C 17.392 144.154 16.947 144.297 16.588 144.582 C 16.229 144.868 15.94 145.253 15.721 145.738 C 15.503 146.222 15.347 146.789 15.253 147.438 C 15.159 148.087 15.113 148.775 15.113 149.503 C 15.113 150.23 15.159 150.918 15.253 151.567 C 15.347 152.216 15.503 152.783 15.721 153.268 C 15.94 153.753 16.229 154.138 16.588 154.424 C 16.947 154.709 17.392 154.851 17.923 154.851 C 18.454 154.851 18.898 154.709 19.257 154.424 C 19.617 154.138 19.905 153.753 20.124 153.268 C 20.343 152.783 20.499 152.216 20.592 151.567 C 20.686 150.918 20.733 150.23 20.733 149.503 Z" style="white-space: pre; fill: rgb(240, 240, 240);"/>
  <path d="M 84.811 122.297 C 84.811 122.668 84.69 122.989 84.448 123.259 C 84.206 123.53 83.89 123.666 83.499 123.666 C 83.093 123.666 82.765 123.53 82.516 123.259 C 82.266 122.989 82.141 122.668 82.141 122.297 C 82.141 121.926 82.266 121.598 82.516 121.313 C 82.765 121.028 83.093 120.885 83.499 120.885 C 83.89 120.885 84.206 121.028 84.448 121.313 C 84.69 121.598 84.811 121.926 84.811 122.297 Z M 78.675 122.532 C 78.675 120.307 79.092 118.599 79.928 117.409 C 80.763 116.218 81.938 115.622 83.453 115.622 C 84.983 115.622 86.161 116.218 86.989 117.409 C 87.816 118.599 88.23 120.307 88.23 122.532 C 88.23 124.757 87.816 126.465 86.989 127.656 C 86.161 128.847 84.983 129.442 83.453 129.442 C 81.938 129.442 80.763 128.847 79.928 127.656 C 79.092 126.465 78.675 124.757 78.675 122.532 Z M 86.263 122.532 C 86.263 121.805 86.216 121.117 86.122 120.468 C 86.029 119.819 85.873 119.252 85.654 118.767 C 85.435 118.282 85.147 117.897 84.787 117.612 C 84.429 117.327 83.984 117.184 83.453 117.184 C 82.922 117.184 82.477 117.327 82.118 117.612 C 81.759 117.897 81.47 118.282 81.251 118.767 C 81.033 119.252 80.877 119.819 80.783 120.468 C 80.689 121.117 80.643 121.805 80.643 122.532 C 80.643 123.259 80.689 123.948 80.783 124.597 C 80.877 125.245 81.033 125.813 81.251 126.298 C 81.47 126.782 81.759 127.167 82.118 127.453 C 82.477 127.738 82.922 127.88 83.453 127.88 C 83.984 127.88 84.429 127.738 84.787 127.453 C 85.147 127.167 85.435 126.782 85.654 126.298 C 85.873 125.813 86.029 125.245 86.122 124.597 C 86.216 123.948 86.263 123.259 86.263 122.532 Z" style="white-space: pre; fill: rgb(240, 240, 240);"/>
  <path d="M 15.914 31.403 L 18.774 31.403 L 18.774 24.128 C 18.774 23.829 18.785 23.516 18.808 23.19 L 16.882 24.647 C 16.756 24.738 16.63 24.793 16.504 24.813 C 16.378 24.832 16.259 24.832 16.148 24.813 C 16.037 24.793 15.938 24.759 15.853 24.71 C 15.768 24.661 15.703 24.611 15.658 24.559 L 14.812 23.542 L 19.253 20.159 L 21.456 20.159 L 21.456 31.403 L 23.982 31.403 L 23.982 33.163 L 15.914 33.163 L 15.914 31.403 Z" style="white-space: pre; fill: rgb(240, 240, 240);"/>
  <path style="fill: rgb(51, 51, 51); white-space: pre;"/>
  <path d="M 98.796 316.392 L 102.09 316.392 L 102.09 308.015 C 102.09 307.67 102.102 307.31 102.128 306.934 L 99.911 308.612 C 99.766 308.717 99.621 308.781 99.476 308.804 C 99.33 308.826 99.193 308.826 99.065 308.804 C 98.937 308.781 98.824 308.741 98.726 308.685 C 98.627 308.629 98.553 308.571 98.501 308.511 L 97.527 307.34 L 102.641 303.444 L 105.178 303.444 L 105.178 316.392 L 108.087 316.392 L 108.087 318.419 L 98.796 318.419 L 98.796 316.392 Z" style="white-space: pre; fill: rgb(240, 240, 240);"/>
  <path d="M 22.83 281.426 L 26.123 281.426 L 26.123 273.05 C 26.123 272.704 26.136 272.344 26.161 271.969 L 23.944 273.646 C 23.799 273.752 23.654 273.815 23.509 273.838 C 23.363 273.86 23.227 273.86 23.098 273.838 C 22.971 273.815 22.857 273.776 22.759 273.719 C 22.661 273.663 22.586 273.605 22.535 273.545 L 21.561 272.374 L 26.674 268.478 L 29.211 268.478 L 29.211 281.426 L 32.12 281.426 L 32.12 283.453 L 22.83 283.453 L 22.83 281.426 Z" style="white-space: pre; fill: rgb(240, 240, 240);"/>
  <path d="M 55.687 249.65 L 58.981 249.65 L 58.981 241.273 C 58.981 240.928 58.994 240.568 59.019 240.192 L 56.802 241.87 C 56.657 241.975 56.512 242.039 56.367 242.062 C 56.221 242.084 56.084 242.084 55.956 242.062 C 55.828 242.039 55.715 241.999 55.617 241.943 C 55.518 241.887 55.444 241.829 55.393 241.769 L 54.419 240.598 L 59.532 236.702 L 62.069 236.702 L 62.069 249.65 L 64.978 249.65 L 64.978 251.677 L 55.687 251.677 L 55.687 249.65 Z" style="white-space: pre; fill: rgb(240, 240, 240);"/>
  <path d="M 74.27 441.096 L 77.563 441.096 L 77.563 432.719 C 77.563 432.374 77.576 432.014 77.602 431.638 L 75.385 433.316 C 75.24 433.421 75.095 433.484 74.949 433.507 C 74.804 433.53 74.667 433.53 74.539 433.507 C 74.411 433.484 74.298 433.445 74.2 433.389 C 74.101 433.333 74.027 433.274 73.975 433.215 L 73.001 432.044 L 78.115 428.148 L 80.652 428.148 L 80.652 441.096 L 83.561 441.096 L 83.561 443.123 L 74.27 443.123 L 74.27 441.096 Z" style="white-space: pre; fill: rgb(240, 240, 240);"/>
  <path d="M 47.579 303.695 L 50.873 303.695 L 50.873 295.319 C 50.873 294.973 50.886 294.613 50.911 294.238 L 48.694 295.915 C 48.549 296.02 48.404 296.084 48.259 296.107 C 48.113 296.129 47.976 296.129 47.848 296.107 C 47.72 296.084 47.607 296.044 47.509 295.988 C 47.41 295.932 47.336 295.874 47.285 295.814 L 46.311 294.643 L 51.424 290.747 L 53.961 290.747 L 53.961 303.695 L 56.87 303.695 L 56.87 305.722 L 47.579 305.722 L 47.579 303.695 Z" style="white-space: pre; fill: rgb(240, 240, 240);"/>
  <path d="M 66.247 374.125 L 69.54 374.125 L 69.54 365.749 C 69.54 365.403 69.553 365.043 69.579 364.668 L 67.362 366.345 C 67.216 366.451 67.071 366.514 66.926 366.537 C 66.781 366.559 66.644 366.559 66.516 366.537 C 66.388 366.514 66.274 366.475 66.176 366.418 C 66.078 366.362 66.004 366.304 65.952 366.244 L 64.978 365.073 L 70.091 361.177 L 72.629 361.177 L 72.629 374.125 L 75.537 374.125 L 75.537 376.152 L 66.247 376.152 L 66.247 374.125 Z" style="white-space: pre; fill: rgb(240, 240, 240);"/>
  <path d="M 61.04 471.275 C 61.04 471.702 60.901 472.072 60.623 472.383 C 60.344 472.695 59.979 472.852 59.53 472.852 C 59.063 472.852 58.685 472.695 58.397 472.383 C 58.11 472.072 57.966 471.702 57.966 471.275 C 57.966 470.848 58.11 470.47 58.397 470.142 C 58.685 469.813 59.063 469.649 59.53 469.649 C 59.979 469.649 60.344 469.813 60.623 470.142 C 60.901 470.47 61.04 470.848 61.04 471.275 Z M 53.975 471.546 C 53.975 468.984 54.455 467.017 55.417 465.646 C 56.38 464.274 57.732 463.589 59.476 463.589 C 61.238 463.589 62.595 464.274 63.549 465.646 C 64.501 467.017 64.978 468.984 64.978 471.546 C 64.978 474.108 64.501 476.075 63.549 477.446 C 62.595 478.818 61.238 479.503 59.476 479.503 C 57.732 479.503 56.38 478.818 55.417 477.446 C 54.455 476.075 53.975 474.108 53.975 471.546 Z M 62.712 471.546 C 62.712 470.708 62.659 469.916 62.55 469.169 C 62.443 468.421 62.263 467.768 62.011 467.21 C 61.759 466.652 61.427 466.208 61.013 465.88 C 60.6 465.551 60.088 465.387 59.476 465.387 C 58.865 465.387 58.353 465.551 57.939 465.88 C 57.526 466.208 57.193 466.652 56.941 467.21 C 56.69 467.768 56.51 468.421 56.402 469.169 C 56.294 469.916 56.241 470.708 56.241 471.546 C 56.241 472.383 56.294 473.176 56.402 473.923 C 56.51 474.67 56.69 475.324 56.941 475.882 C 57.193 476.44 57.526 476.883 57.939 477.213 C 58.353 477.541 58.865 477.705 59.476 477.705 C 60.088 477.705 60.6 477.541 61.013 477.213 C 61.427 476.883 61.759 476.44 62.011 475.882 C 62.263 475.324 62.443 474.67 62.55 473.923 C 62.659 473.176 62.712 472.383 62.712 471.546 Z" style="white-space: pre; fill: rgb(240, 240, 240);"/>
  <path d="M 72.044 401.799 C 72.044 402.226 71.904 402.596 71.626 402.907 C 71.347 403.219 70.983 403.376 70.533 403.376 C 70.066 403.376 69.688 403.219 69.401 402.907 C 69.114 402.596 68.97 402.226 68.97 401.799 C 68.97 401.372 69.114 400.994 69.401 400.666 C 69.688 400.337 70.066 400.173 70.533 400.173 C 70.983 400.173 71.347 400.337 71.626 400.666 C 71.904 400.994 72.044 401.372 72.044 401.799 Z M 64.978 402.07 C 64.978 399.508 65.459 397.541 66.421 396.17 C 67.383 394.798 68.736 394.113 70.48 394.113 C 72.242 394.113 73.599 394.798 74.552 396.17 C 75.505 397.541 75.981 399.508 75.981 402.07 C 75.981 404.632 75.505 406.599 74.552 407.97 C 73.599 409.342 72.242 410.027 70.48 410.027 C 68.736 410.027 67.383 409.342 66.421 407.97 C 65.459 406.599 64.978 404.632 64.978 402.07 Z M 73.716 402.07 C 73.716 401.232 73.662 400.44 73.554 399.693 C 73.446 398.945 73.267 398.292 73.014 397.734 C 72.763 397.176 72.431 396.732 72.017 396.404 C 71.603 396.075 71.091 395.911 70.48 395.911 C 69.869 395.911 69.356 396.075 68.943 396.404 C 68.529 396.732 68.196 397.176 67.944 397.734 C 67.693 398.292 67.513 398.945 67.405 399.693 C 67.297 400.44 67.244 401.232 67.244 402.07 C 67.244 402.907 67.297 403.7 67.405 404.447 C 67.513 405.194 67.693 405.848 67.944 406.406 C 68.196 406.964 68.529 407.407 68.943 407.737 C 69.356 408.065 69.869 408.229 70.48 408.229 C 71.091 408.229 71.603 408.065 72.017 407.737 C 72.431 407.407 72.763 406.964 73.014 406.406 C 73.267 405.848 73.446 405.194 73.554 404.447 C 73.662 403.7 73.716 402.907 73.716 402.07 Z" style="white-space: pre; fill: rgb(240, 240, 240);"/>
  <path d="M 28.647 355.668 C 28.647 356.095 28.508 356.465 28.23 356.776 C 27.951 357.089 27.586 357.245 27.137 357.245 C 26.67 357.245 26.292 357.089 26.004 356.776 C 25.717 356.465 25.573 356.095 25.573 355.668 C 25.573 355.241 25.717 354.863 26.004 354.535 C 26.292 354.206 26.67 354.042 27.137 354.042 C 27.586 354.042 27.951 354.206 28.23 354.535 C 28.508 354.863 28.647 355.241 28.647 355.668 Z M 21.582 355.939 C 21.582 353.377 22.062 351.41 23.024 350.039 C 23.987 348.667 25.339 347.982 27.083 347.982 C 28.845 347.982 30.202 348.667 31.156 350.039 C 32.108 351.41 32.585 353.377 32.585 355.939 C 32.585 358.501 32.108 360.468 31.156 361.839 C 30.202 363.211 28.845 363.896 27.083 363.896 C 25.339 363.896 23.987 363.211 23.024 361.839 C 22.062 360.468 21.582 358.501 21.582 355.939 Z M 30.319 355.939 C 30.319 355.101 30.266 354.309 30.158 353.562 C 30.05 352.814 29.87 352.162 29.618 351.603 C 29.366 351.045 29.034 350.601 28.62 350.273 C 28.207 349.945 27.695 349.78 27.083 349.78 C 26.472 349.78 25.96 349.945 25.546 350.273 C 25.133 350.601 24.8 351.045 24.548 351.603 C 24.297 352.162 24.117 352.814 24.009 353.562 C 23.901 354.309 23.848 355.101 23.848 355.939 C 23.848 356.776 23.901 357.569 24.009 358.317 C 24.117 359.063 24.297 359.717 24.548 360.275 C 24.8 360.833 25.133 361.276 25.546 361.606 C 25.96 361.934 26.472 362.098 27.083 362.098 C 27.695 362.098 28.207 361.934 28.62 361.606 C 29.034 361.276 29.366 360.833 29.618 360.275 C 29.87 359.717 30.05 359.063 30.158 358.317 C 30.266 357.569 30.319 356.776 30.319 355.939 Z" style="white-space: pre; fill: rgb(240, 240, 240);"/>
  <path d="M 93.154 268.317 C 93.154 268.744 93.015 269.114 92.736 269.425 C 92.457 269.737 92.093 269.894 91.644 269.894 C 91.176 269.894 90.799 269.737 90.511 269.425 C 90.224 269.114 90.08 268.744 90.08 268.317 C 90.08 267.89 90.224 267.512 90.511 267.184 C 90.799 266.855 91.176 266.691 91.644 266.691 C 92.093 266.691 92.457 266.855 92.736 267.184 C 93.015 267.512 93.154 267.89 93.154 268.317 Z M 86.088 268.588 C 86.088 266.026 86.569 264.059 87.531 262.688 C 88.493 261.316 89.846 260.631 91.59 260.631 C 93.352 260.631 94.709 261.316 95.662 262.688 C 96.615 264.059 97.092 266.026 97.092 268.588 C 97.092 271.15 96.615 273.117 95.662 274.488 C 94.709 275.86 93.352 276.545 91.59 276.545 C 89.846 276.545 88.493 275.86 87.531 274.488 C 86.569 273.117 86.088 271.15 86.088 268.588 Z M 94.826 268.588 C 94.826 267.75 94.772 266.958 94.664 266.211 C 94.556 265.463 94.377 264.811 94.125 264.252 C 93.873 263.694 93.541 263.25 93.127 262.922 C 92.714 262.593 92.201 262.429 91.59 262.429 C 90.979 262.429 90.467 262.593 90.053 262.922 C 89.64 263.25 89.306 263.694 89.055 264.252 C 88.803 264.811 88.623 265.463 88.516 266.211 C 88.407 266.958 88.354 267.75 88.354 268.588 C 88.354 269.425 88.407 270.218 88.516 270.966 C 88.623 271.712 88.803 272.366 89.055 272.924 C 89.306 273.482 89.64 273.925 90.053 274.255 C 90.467 274.583 90.979 274.747 91.59 274.747 C 92.201 274.747 92.714 274.583 93.127 274.255 C 93.541 273.925 93.873 273.482 94.125 272.924 C 94.377 272.366 94.556 271.712 94.664 270.966 C 94.772 270.218 94.826 269.425 94.826 268.588 Z" style="white-space: pre; fill: rgb(240, 240, 240);"/>
  <path d="M 72.044 310.408 C 72.044 310.836 71.904 311.205 71.626 311.517 C 71.347 311.829 70.983 311.985 70.533 311.985 C 70.066 311.985 69.688 311.829 69.401 311.517 C 69.114 311.205 68.97 310.836 68.97 310.408 C 68.97 309.981 69.114 309.603 69.401 309.275 C 69.688 308.947 70.066 308.783 70.533 308.783 C 70.983 308.783 71.347 308.947 71.626 309.275 C 71.904 309.603 72.044 309.981 72.044 310.408 Z M 64.978 310.679 C 64.978 308.117 65.459 306.15 66.421 304.779 C 67.383 303.408 68.736 302.722 70.48 302.722 C 72.242 302.722 73.599 303.408 74.552 304.779 C 75.505 306.15 75.981 308.117 75.981 310.679 C 75.981 313.241 75.505 315.208 74.552 316.579 C 73.599 317.951 72.242 318.637 70.48 318.637 C 68.736 318.637 67.383 317.951 66.421 316.579 C 65.459 315.208 64.978 313.241 64.978 310.679 Z M 73.716 310.679 C 73.716 309.842 73.662 309.049 73.554 308.302 C 73.446 307.555 73.267 306.902 73.014 306.343 C 72.763 305.785 72.431 305.342 72.017 305.013 C 71.603 304.685 71.091 304.52 70.48 304.52 C 69.869 304.52 69.356 304.685 68.943 305.013 C 68.529 305.342 68.196 305.785 67.944 306.343 C 67.693 306.902 67.513 307.555 67.405 308.302 C 67.297 309.049 67.244 309.842 67.244 310.679 C 67.244 311.517 67.297 312.309 67.405 313.057 C 67.513 313.804 67.693 314.457 67.944 315.015 C 68.196 315.573 68.529 316.016 68.943 316.346 C 69.356 316.674 69.869 316.838 70.48 316.838 C 71.091 316.838 71.603 316.674 72.017 316.346 C 72.431 316.016 72.763 315.573 73.014 315.015 C 73.267 314.457 73.446 313.804 73.554 313.057 C 73.662 312.309 73.716 311.517 73.716 310.679 Z" style="white-space: pre; fill: rgb(240, 240, 240);"/>
  <path d="M 37.383 393.306 C 37.383 393.734 37.243 394.103 36.965 394.415 C 36.686 394.727 36.322 394.883 35.872 394.883 C 35.405 394.883 35.027 394.727 34.74 394.415 C 34.453 394.103 34.309 393.734 34.309 393.306 C 34.309 392.88 34.453 392.502 34.74 392.173 C 35.027 391.845 35.405 391.681 35.872 391.681 C 36.322 391.681 36.686 391.845 36.965 392.173 C 37.243 392.502 37.383 392.88 37.383 393.306 Z M 30.317 393.577 C 30.317 391.015 30.798 389.048 31.759 387.677 C 32.722 386.306 34.075 385.62 35.819 385.62 C 37.58 385.62 38.938 386.306 39.891 387.677 C 40.844 389.048 41.32 391.015 41.32 393.577 C 41.32 396.139 40.844 398.106 39.891 399.477 C 38.938 400.849 37.58 401.535 35.819 401.535 C 34.075 401.535 32.722 400.849 31.759 399.477 C 30.798 398.106 30.317 396.139 30.317 393.577 Z M 39.055 393.577 C 39.055 392.74 39.001 391.947 38.893 391.2 C 38.785 390.453 38.606 389.8 38.353 389.241 C 38.101 388.683 37.769 388.24 37.356 387.911 C 36.942 387.583 36.43 387.418 35.819 387.418 C 35.208 387.418 34.695 387.583 34.281 387.911 C 33.868 388.24 33.535 388.683 33.283 389.241 C 33.032 389.8 32.852 390.453 32.744 391.2 C 32.636 391.947 32.583 392.74 32.583 393.577 C 32.583 394.415 32.636 395.207 32.744 395.955 C 32.852 396.702 33.032 397.355 33.283 397.913 C 33.535 398.471 33.868 398.915 34.281 399.244 C 34.695 399.572 35.208 399.736 35.819 399.736 C 36.43 399.736 36.942 399.572 37.356 399.244 C 37.769 398.915 38.101 398.471 38.353 397.913 C 38.606 397.355 38.785 396.702 38.893 395.955 C 39.001 395.207 39.055 394.415 39.055 393.577 Z" style="white-space: pre; fill: rgb(240, 240, 240);"/>
  <path d="M 102.276 391.771 C 102.276 392.199 102.137 392.568 101.859 392.88 C 101.58 393.192 101.215 393.348 100.766 393.348 C 100.299 393.348 99.921 393.192 99.633 392.88 C 99.346 392.568 99.202 392.199 99.202 391.771 C 99.202 391.344 99.346 390.966 99.633 390.638 C 99.921 390.31 100.299 390.146 100.766 390.146 C 101.215 390.146 101.58 390.31 101.859 390.638 C 102.137 390.966 102.276 391.344 102.276 391.771 Z M 95.211 392.042 C 95.211 389.48 95.691 387.513 96.653 386.142 C 97.616 384.771 98.968 384.085 100.712 384.085 C 102.474 384.085 103.831 384.771 104.785 386.142 C 105.737 387.513 106.214 389.48 106.214 392.042 C 106.214 394.604 105.737 396.571 104.785 397.942 C 103.831 399.314 102.474 400 100.712 400 C 98.968 400 97.616 399.314 96.653 397.942 C 95.691 396.571 95.211 394.604 95.211 392.042 Z M 103.948 392.042 C 103.948 391.205 103.895 390.412 103.787 389.665 C 103.679 388.918 103.499 388.265 103.247 387.706 C 102.995 387.148 102.663 386.705 102.249 386.376 C 101.836 386.048 101.324 385.883 100.712 385.883 C 100.101 385.883 99.589 386.048 99.175 386.376 C 98.762 386.705 98.429 387.148 98.177 387.706 C 97.926 388.265 97.746 388.918 97.638 389.665 C 97.53 390.412 97.477 391.205 97.477 392.042 C 97.477 392.88 97.53 393.672 97.638 394.42 C 97.746 395.167 97.926 395.82 98.177 396.378 C 98.429 396.936 98.762 397.379 99.175 397.709 C 99.589 398.037 100.101 398.201 100.712 398.201 C 101.324 398.201 101.836 398.037 102.249 397.709 C 102.663 397.379 102.995 396.936 103.247 396.378 C 103.499 395.82 103.679 395.167 103.787 394.42 C 103.895 393.672 103.948 392.88 103.948 392.042 Z" style="white-space: pre; fill: rgb(240, 240, 240);"/>
  <path d="M 80.093 245.318 L 83.386 245.318 L 83.386 236.941 C 83.386 236.596 83.399 236.236 83.425 235.861 L 81.208 237.538 C 81.063 237.643 80.918 237.707 80.772 237.73 C 80.627 237.752 80.49 237.752 80.362 237.73 C 80.234 237.707 80.121 237.667 80.023 237.611 C 79.924 237.555 79.85 237.497 79.798 237.437 L 78.824 236.266 L 83.938 232.37 L 86.475 232.37 L 86.475 245.318 L 89.384 245.318 L 89.384 247.345 L 80.093 247.345 L 80.093 245.318 Z" style="white-space: pre; fill: rgb(240, 240, 240);"/>
  <path d="M 104.352 461.569 C 104.352 461.996 104.213 462.366 103.934 462.677 C 103.655 462.989 103.291 463.146 102.841 463.146 C 102.374 463.146 101.997 462.989 101.709 462.677 C 101.422 462.366 101.278 461.996 101.278 461.569 C 101.278 461.142 101.422 460.764 101.709 460.436 C 101.997 460.107 102.374 459.943 102.841 459.943 C 103.291 459.943 103.655 460.107 103.934 460.436 C 104.213 460.764 104.352 461.142 104.352 461.569 Z M 97.286 461.84 C 97.286 459.278 97.767 457.311 98.729 455.94 C 99.691 454.568 101.044 453.883 102.788 453.883 C 104.55 453.883 105.907 454.568 106.86 455.94 C 107.813 457.311 108.29 459.278 108.29 461.84 C 108.29 464.402 107.813 466.369 106.86 467.74 C 105.907 469.112 104.55 469.797 102.788 469.797 C 101.044 469.797 99.691 469.112 98.729 467.74 C 97.767 466.369 97.286 464.402 97.286 461.84 Z M 106.024 461.84 C 106.024 461.002 105.97 460.21 105.862 459.463 C 105.754 458.715 105.575 458.063 105.323 457.504 C 105.071 456.946 104.739 456.502 104.325 456.174 C 103.912 455.845 103.399 455.681 102.788 455.681 C 102.177 455.681 101.665 455.845 101.251 456.174 C 100.837 456.502 100.504 456.946 100.253 457.504 C 100.001 458.063 99.821 458.715 99.714 459.463 C 99.605 460.21 99.552 461.002 99.552 461.84 C 99.552 462.677 99.605 463.47 99.714 464.218 C 99.821 464.964 100.001 465.618 100.253 466.176 C 100.504 466.734 100.837 467.177 101.251 467.507 C 101.665 467.835 102.177 467.999 102.788 467.999 C 103.399 467.999 103.912 467.835 104.325 467.507 C 104.739 467.177 105.071 466.734 105.323 466.176 C 105.575 465.618 105.754 464.964 105.862 464.218 C 105.97 463.47 106.024 462.677 106.024 461.84 Z" style="white-space: pre; fill: rgb(240, 240, 240);"/>
  <path d="M 24.28 444.39 C 24.28 444.817 24.14 445.186 23.862 445.498 C 23.583 445.81 23.219 445.966 22.769 445.966 C 22.302 445.966 21.924 445.81 21.637 445.498 C 21.35 445.186 21.206 444.817 21.206 444.39 C 21.206 443.963 21.35 443.585 21.637 443.256 C 21.924 442.928 22.302 442.764 22.769 442.764 C 23.219 442.764 23.583 442.928 23.862 443.256 C 24.14 443.585 24.28 443.963 24.28 444.39 Z M 17.214 444.661 C 17.214 442.098 17.695 440.132 18.657 438.761 C 19.619 437.389 20.972 436.704 22.716 436.704 C 24.478 436.704 25.835 437.389 26.788 438.761 C 27.741 440.132 28.217 442.098 28.217 444.661 C 28.217 447.223 27.741 449.19 26.788 450.56 C 25.835 451.932 24.478 452.618 22.716 452.618 C 20.972 452.618 19.619 451.932 18.657 450.56 C 17.695 449.19 17.214 447.223 17.214 444.661 Z M 25.952 444.661 C 25.952 443.823 25.898 443.031 25.79 442.283 C 25.682 441.536 25.503 440.883 25.25 440.325 C 24.999 439.766 24.667 439.323 24.253 438.995 C 23.84 438.666 23.327 438.502 22.716 438.502 C 22.105 438.502 21.592 438.666 21.179 438.995 C 20.765 439.323 20.432 439.766 20.18 440.325 C 19.929 440.883 19.749 441.536 19.641 442.283 C 19.533 443.031 19.48 443.823 19.48 444.661 C 19.48 445.498 19.533 446.291 19.641 447.038 C 19.749 447.785 19.929 448.438 20.18 448.997 C 20.432 449.555 20.765 449.998 21.179 450.327 C 21.592 450.655 22.105 450.819 22.716 450.819 C 23.327 450.819 23.84 450.655 24.253 450.327 C 24.667 449.998 24.999 449.555 25.25 448.997 C 25.503 448.438 25.682 447.785 25.79 447.038 C 25.898 446.291 25.952 445.498 25.952 444.661 Z" style="white-space: pre; fill: rgb(240, 240, 240);"/>
  <path style="fill: rgb(51, 51, 51); white-space: pre;"/>
  <path d="M 188.08 84.022 L 191.374 84.022 L 191.374 75.645 C 191.374 75.3 191.386 74.94 191.412 74.564 L 189.195 76.242 C 189.05 76.347 188.905 76.411 188.76 76.434 C 188.614 76.456 188.477 76.456 188.349 76.434 C 188.221 76.411 188.108 76.371 188.01 76.315 C 187.911 76.259 187.837 76.201 187.785 76.141 L 186.811 74.97 L 191.925 71.074 L 194.462 71.074 L 194.462 84.022 L 197.371 84.022 L 197.371 86.049 L 188.08 86.049 L 188.08 84.022 Z" style="white-space: pre; fill: rgb(240, 240, 240);"/>
  <path d="M 112.114 49.056 L 115.407 49.056 L 115.407 40.68 C 115.407 40.334 115.42 39.974 115.445 39.599 L 113.228 41.276 C 113.083 41.382 112.938 41.445 112.793 41.468 C 112.647 41.49 112.511 41.49 112.382 41.468 C 112.255 41.445 112.141 41.406 112.043 41.349 C 111.945 41.293 111.87 41.235 111.819 41.175 L 110.845 40.004 L 115.958 36.108 L 118.495 36.108 L 118.495 49.056 L 121.404 49.056 L 121.404 51.083 L 112.114 51.083 L 112.114 49.056 Z" style="white-space: pre; fill: rgb(240, 240, 240);"/>
  <path d="M 144.971 17.28 L 148.265 17.28 L 148.265 8.903 C 148.265 8.558 148.278 8.198 148.303 7.822 L 146.086 9.5 C 145.941 9.605 145.796 9.669 145.651 9.692 C 145.505 9.714 145.368 9.714 145.24 9.692 C 145.112 9.669 144.999 9.629 144.901 9.573 C 144.802 9.517 144.728 9.459 144.677 9.399 L 143.703 8.228 L 148.816 4.332 L 151.353 4.332 L 151.353 17.28 L 154.262 17.28 L 154.262 19.307 L 144.971 19.307 L 144.971 17.28 Z" style="white-space: pre; fill: rgb(240, 240, 240);"/>
  <path d="M 163.554 208.726 L 166.847 208.726 L 166.847 200.349 C 166.847 200.004 166.86 199.644 166.886 199.268 L 164.669 200.946 C 164.524 201.051 164.379 201.114 164.233 201.137 C 164.088 201.16 163.951 201.16 163.823 201.137 C 163.695 201.114 163.582 201.075 163.484 201.019 C 163.385 200.963 163.311 200.904 163.259 200.845 L 162.285 199.674 L 167.399 195.778 L 169.936 195.778 L 169.936 208.726 L 172.845 208.726 L 172.845 210.753 L 163.554 210.753 L 163.554 208.726 Z" style="white-space: pre; fill: rgb(240, 240, 240);"/>
  <path d="M 136.863 71.325 L 140.157 71.325 L 140.157 62.949 C 140.157 62.603 140.17 62.243 140.195 61.868 L 137.978 63.545 C 137.833 63.65 137.688 63.714 137.543 63.737 C 137.397 63.759 137.26 63.759 137.132 63.737 C 137.004 63.714 136.891 63.674 136.793 63.618 C 136.694 63.562 136.62 63.504 136.569 63.444 L 135.595 62.273 L 140.708 58.377 L 143.245 58.377 L 143.245 71.325 L 146.154 71.325 L 146.154 73.352 L 136.863 73.352 L 136.863 71.325 Z" style="white-space: pre; fill: rgb(240, 240, 240);"/>
  <path d="M 155.531 141.755 L 158.824 141.755 L 158.824 133.379 C 158.824 133.033 158.837 132.673 158.863 132.298 L 156.646 133.975 C 156.5 134.081 156.355 134.144 156.21 134.167 C 156.065 134.189 155.928 134.189 155.8 134.167 C 155.672 134.144 155.558 134.105 155.46 134.048 C 155.362 133.992 155.288 133.934 155.236 133.874 L 154.262 132.703 L 159.375 128.807 L 161.913 128.807 L 161.913 141.755 L 164.821 141.755 L 164.821 143.782 L 155.531 143.782 L 155.531 141.755 Z" style="white-space: pre; fill: rgb(240, 240, 240);"/>
  <path d="M 150.324 238.905 C 150.324 239.332 150.185 239.702 149.907 240.013 C 149.628 240.325 149.263 240.482 148.814 240.482 C 148.347 240.482 147.969 240.325 147.681 240.013 C 147.394 239.702 147.25 239.332 147.25 238.905 C 147.25 238.478 147.394 238.1 147.681 237.772 C 147.969 237.443 148.347 237.279 148.814 237.279 C 149.263 237.279 149.628 237.443 149.907 237.772 C 150.185 238.1 150.324 238.478 150.324 238.905 Z M 143.259 239.176 C 143.259 236.614 143.739 234.647 144.701 233.276 C 145.664 231.904 147.016 231.219 148.76 231.219 C 150.522 231.219 151.879 231.904 152.833 233.276 C 153.785 234.647 154.262 236.614 154.262 239.176 C 154.262 241.738 153.785 243.705 152.833 245.076 C 151.879 246.448 150.522 247.133 148.76 247.133 C 147.016 247.133 145.664 246.448 144.701 245.076 C 143.739 243.705 143.259 241.738 143.259 239.176 Z M 151.996 239.176 C 151.996 238.338 151.943 237.546 151.834 236.799 C 151.727 236.051 151.547 235.398 151.295 234.84 C 151.043 234.282 150.711 233.838 150.297 233.51 C 149.884 233.181 149.372 233.017 148.76 233.017 C 148.149 233.017 147.637 233.181 147.223 233.51 C 146.81 233.838 146.477 234.282 146.225 234.84 C 145.974 235.398 145.794 236.051 145.686 236.799 C 145.578 237.546 145.525 238.338 145.525 239.176 C 145.525 240.013 145.578 240.806 145.686 241.553 C 145.794 242.3 145.974 242.954 146.225 243.512 C 146.477 244.07 146.81 244.513 147.223 244.843 C 147.637 245.171 148.149 245.335 148.76 245.335 C 149.372 245.335 149.884 245.171 150.297 244.843 C 150.711 244.513 151.043 244.07 151.295 243.512 C 151.547 242.954 151.727 242.3 151.834 241.553 C 151.943 240.806 151.996 240.013 151.996 239.176 Z" style="white-space: pre; fill: rgb(240, 240, 240);"/>
  <path d="M 161.328 169.429 C 161.328 169.856 161.188 170.226 160.91 170.537 C 160.631 170.849 160.267 171.006 159.817 171.006 C 159.35 171.006 158.972 170.849 158.685 170.537 C 158.398 170.226 158.254 169.856 158.254 169.429 C 158.254 169.002 158.398 168.624 158.685 168.296 C 158.972 167.967 159.35 167.803 159.817 167.803 C 160.267 167.803 160.631 167.967 160.91 168.296 C 161.188 168.624 161.328 169.002 161.328 169.429 Z M 154.262 169.7 C 154.262 167.138 154.743 165.171 155.705 163.8 C 156.667 162.428 158.02 161.743 159.764 161.743 C 161.526 161.743 162.883 162.428 163.836 163.8 C 164.789 165.171 165.265 167.138 165.265 169.7 C 165.265 172.262 164.789 174.229 163.836 175.6 C 162.883 176.972 161.526 177.657 159.764 177.657 C 158.02 177.657 156.667 176.972 155.705 175.6 C 154.743 174.229 154.262 172.262 154.262 169.7 Z M 163 169.7 C 163 168.862 162.946 168.07 162.838 167.323 C 162.73 166.575 162.551 165.922 162.298 165.364 C 162.047 164.806 161.715 164.362 161.301 164.034 C 160.887 163.705 160.375 163.541 159.764 163.541 C 159.153 163.541 158.64 163.705 158.227 164.034 C 157.813 164.362 157.48 164.806 157.228 165.364 C 156.977 165.922 156.797 166.575 156.689 167.323 C 156.581 168.07 156.528 168.862 156.528 169.7 C 156.528 170.537 156.581 171.33 156.689 172.077 C 156.797 172.824 156.977 173.478 157.228 174.036 C 157.48 174.594 157.813 175.037 158.227 175.367 C 158.64 175.695 159.153 175.859 159.764 175.859 C 160.375 175.859 160.887 175.695 161.301 175.367 C 161.715 175.037 162.047 174.594 162.298 174.036 C 162.551 173.478 162.73 172.824 162.838 172.077 C 162.946 171.33 163 170.537 163 169.7 Z" style="white-space: pre; fill: rgb(240, 240, 240);"/>
  <path d="M 117.931 123.298 C 117.931 123.725 117.792 124.095 117.514 124.406 C 117.235 124.719 116.87 124.875 116.421 124.875 C 115.954 124.875 115.576 124.719 115.288 124.406 C 115.001 124.095 114.857 123.725 114.857 123.298 C 114.857 122.871 115.001 122.493 115.288 122.165 C 115.576 121.836 115.954 121.672 116.421 121.672 C 116.87 121.672 117.235 121.836 117.514 122.165 C 117.792 122.493 117.931 122.871 117.931 123.298 Z M 110.866 123.569 C 110.866 121.007 111.346 119.04 112.308 117.669 C 113.271 116.297 114.623 115.612 116.367 115.612 C 118.129 115.612 119.486 116.297 120.44 117.669 C 121.392 119.04 121.869 121.007 121.869 123.569 C 121.869 126.131 121.392 128.098 120.44 129.469 C 119.486 130.841 118.129 131.526 116.367 131.526 C 114.623 131.526 113.271 130.841 112.308 129.469 C 111.346 128.098 110.866 126.131 110.866 123.569 Z M 119.603 123.569 C 119.603 122.731 119.55 121.939 119.442 121.192 C 119.334 120.444 119.154 119.792 118.902 119.233 C 118.65 118.675 118.318 118.231 117.904 117.903 C 117.491 117.575 116.979 117.41 116.367 117.41 C 115.756 117.41 115.244 117.575 114.83 117.903 C 114.417 118.231 114.084 118.675 113.832 119.233 C 113.581 119.792 113.401 120.444 113.293 121.192 C 113.185 121.939 113.132 122.731 113.132 123.569 C 113.132 124.406 113.185 125.199 113.293 125.947 C 113.401 126.693 113.581 127.347 113.832 127.905 C 114.084 128.463 114.417 128.906 114.83 129.236 C 115.244 129.564 115.756 129.728 116.367 129.728 C 116.979 129.728 117.491 129.564 117.904 129.236 C 118.318 128.906 118.65 128.463 118.902 127.905 C 119.154 127.347 119.334 126.693 119.442 125.947 C 119.55 125.199 119.603 124.406 119.603 123.569 Z" style="white-space: pre; fill: rgb(240, 240, 240);"/>
  <path d="M 182.438 35.947 C 182.438 36.374 182.299 36.744 182.02 37.055 C 181.741 37.367 181.377 37.524 180.928 37.524 C 180.46 37.524 180.083 37.367 179.795 37.055 C 179.508 36.744 179.364 36.374 179.364 35.947 C 179.364 35.52 179.508 35.142 179.795 34.814 C 180.083 34.485 180.46 34.321 180.928 34.321 C 181.377 34.321 181.741 34.485 182.02 34.814 C 182.299 35.142 182.438 35.52 182.438 35.947 Z M 175.372 36.218 C 175.372 33.656 175.853 31.689 176.815 30.318 C 177.777 28.946 179.13 28.261 180.874 28.261 C 182.636 28.261 183.993 28.946 184.946 30.318 C 185.899 31.689 186.376 33.656 186.376 36.218 C 186.376 38.78 185.899 40.747 184.946 42.118 C 183.993 43.49 182.636 44.175 180.874 44.175 C 179.13 44.175 177.777 43.49 176.815 42.118 C 175.853 40.747 175.372 38.78 175.372 36.218 Z M 184.11 36.218 C 184.11 35.38 184.056 34.588 183.948 33.841 C 183.84 33.093 183.661 32.441 183.409 31.882 C 183.157 31.324 182.825 30.88 182.411 30.552 C 181.998 30.223 181.485 30.059 180.874 30.059 C 180.263 30.059 179.751 30.223 179.337 30.552 C 178.924 30.88 178.59 31.324 178.339 31.882 C 178.087 32.441 177.907 33.093 177.8 33.841 C 177.691 34.588 177.638 35.38 177.638 36.218 C 177.638 37.055 177.691 37.848 177.8 38.596 C 177.907 39.342 178.087 39.996 178.339 40.554 C 178.59 41.112 178.924 41.555 179.337 41.885 C 179.751 42.213 180.263 42.377 180.874 42.377 C 181.485 42.377 181.998 42.213 182.411 41.885 C 182.825 41.555 183.157 41.112 183.409 40.554 C 183.661 39.996 183.84 39.342 183.948 38.596 C 184.056 37.848 184.11 37.055 184.11 36.218 Z" style="white-space: pre; fill: rgb(240, 240, 240);"/>
  <path d="M 161.328 78.038 C 161.328 78.466 161.188 78.835 160.91 79.147 C 160.631 79.459 160.267 79.615 159.817 79.615 C 159.35 79.615 158.972 79.459 158.685 79.147 C 158.398 78.835 158.254 78.466 158.254 78.038 C 158.254 77.611 158.398 77.233 158.685 76.905 C 158.972 76.577 159.35 76.413 159.817 76.413 C 160.267 76.413 160.631 76.577 160.91 76.905 C 161.188 77.233 161.328 77.611 161.328 78.038 Z M 154.262 78.309 C 154.262 75.747 154.743 73.78 155.705 72.409 C 156.667 71.038 158.02 70.352 159.764 70.352 C 161.526 70.352 162.883 71.038 163.836 72.409 C 164.789 73.78 165.265 75.747 165.265 78.309 C 165.265 80.871 164.789 82.838 163.836 84.209 C 162.883 85.581 161.526 86.267 159.764 86.267 C 158.02 86.267 156.667 85.581 155.705 84.209 C 154.743 82.838 154.262 80.871 154.262 78.309 Z M 163 78.309 C 163 77.472 162.946 76.679 162.838 75.932 C 162.73 75.185 162.551 74.532 162.298 73.973 C 162.047 73.415 161.715 72.972 161.301 72.643 C 160.887 72.315 160.375 72.15 159.764 72.15 C 159.153 72.15 158.64 72.315 158.227 72.643 C 157.813 72.972 157.48 73.415 157.228 73.973 C 156.977 74.532 156.797 75.185 156.689 75.932 C 156.581 76.679 156.528 77.472 156.528 78.309 C 156.528 79.147 156.581 79.939 156.689 80.687 C 156.797 81.434 156.977 82.087 157.228 82.645 C 157.48 83.203 157.813 83.646 158.227 83.976 C 158.64 84.304 159.153 84.468 159.764 84.468 C 160.375 84.468 160.887 84.304 161.301 83.976 C 161.715 83.646 162.047 83.203 162.298 82.645 C 162.551 82.087 162.73 81.434 162.838 80.687 C 162.946 79.939 163 79.147 163 78.309 Z" style="white-space: pre; fill: rgb(240, 240, 240);"/>
  <path d="M 126.667 160.936 C 126.667 161.364 126.527 161.733 126.249 162.045 C 125.97 162.357 125.606 162.513 125.156 162.513 C 124.689 162.513 124.311 162.357 124.024 162.045 C 123.737 161.733 123.593 161.364 123.593 160.936 C 123.593 160.51 123.737 160.132 124.024 159.803 C 124.311 159.475 124.689 159.311 125.156 159.311 C 125.606 159.311 125.97 159.475 126.249 159.803 C 126.527 160.132 126.667 160.51 126.667 160.936 Z M 119.601 161.207 C 119.601 158.645 120.082 156.678 121.043 155.307 C 122.006 153.936 123.359 153.25 125.103 153.25 C 126.864 153.25 128.222 153.936 129.175 155.307 C 130.128 156.678 130.604 158.645 130.604 161.207 C 130.604 163.769 130.128 165.736 129.175 167.107 C 128.222 168.479 126.864 169.165 125.103 169.165 C 123.359 169.165 122.006 168.479 121.043 167.107 C 120.082 165.736 119.601 163.769 119.601 161.207 Z M 128.339 161.207 C 128.339 160.37 128.285 159.577 128.177 158.83 C 128.069 158.083 127.89 157.43 127.637 156.871 C 127.385 156.313 127.053 155.87 126.64 155.541 C 126.226 155.213 125.714 155.048 125.103 155.048 C 124.492 155.048 123.979 155.213 123.565 155.541 C 123.152 155.87 122.819 156.313 122.567 156.871 C 122.316 157.43 122.136 158.083 122.028 158.83 C 121.92 159.577 121.867 160.37 121.867 161.207 C 121.867 162.045 121.92 162.837 122.028 163.585 C 122.136 164.332 122.316 164.985 122.567 165.543 C 122.819 166.101 123.152 166.545 123.565 166.874 C 123.979 167.202 124.492 167.366 125.103 167.366 C 125.714 167.366 126.226 167.202 126.64 166.874 C 127.053 166.545 127.385 166.101 127.637 165.543 C 127.89 164.985 128.069 164.332 128.177 163.585 C 128.285 162.837 128.339 162.045 128.339 161.207 Z" style="white-space: pre; fill: rgb(240, 240, 240);"/>
  <path d="M 196.062 137.237 C 196.062 137.665 195.923 138.034 195.645 138.346 C 195.366 138.658 195.001 138.814 194.552 138.814 C 194.085 138.814 193.707 138.658 193.419 138.346 C 193.132 138.034 192.988 137.665 192.988 137.237 C 192.988 136.81 193.132 136.432 193.419 136.104 C 193.707 135.776 194.085 135.612 194.552 135.612 C 195.001 135.612 195.366 135.776 195.645 136.104 C 195.923 136.432 196.062 136.81 196.062 137.237 Z M 188.997 137.508 C 188.997 134.946 189.477 132.979 190.439 131.608 C 191.402 130.237 192.754 129.551 194.498 129.551 C 196.26 129.551 197.617 130.237 198.571 131.608 C 199.523 132.979 200 134.946 200 137.508 C 200 140.07 199.523 142.037 198.571 143.408 C 197.617 144.78 196.26 145.466 194.498 145.466 C 192.754 145.466 191.402 144.78 190.439 143.408 C 189.477 142.037 188.997 140.07 188.997 137.508 Z M 197.734 137.508 C 197.734 136.671 197.681 135.878 197.573 135.131 C 197.465 134.384 197.285 133.731 197.033 133.172 C 196.781 132.614 196.449 132.171 196.035 131.842 C 195.622 131.514 195.11 131.349 194.498 131.349 C 193.887 131.349 193.375 131.514 192.961 131.842 C 192.548 132.171 192.215 132.614 191.963 133.172 C 191.712 133.731 191.532 134.384 191.424 135.131 C 191.316 135.878 191.263 136.671 191.263 137.508 C 191.263 138.346 191.316 139.138 191.424 139.886 C 191.532 140.633 191.712 141.286 191.963 141.844 C 192.215 142.402 192.548 142.845 192.961 143.175 C 193.375 143.503 193.887 143.667 194.498 143.667 C 195.11 143.667 195.622 143.503 196.035 143.175 C 196.449 142.845 196.781 142.402 197.033 141.844 C 197.285 141.286 197.465 140.633 197.573 139.886 C 197.681 139.138 197.734 138.346 197.734 137.508 Z" style="white-space: pre; fill: rgb(240, 240, 240);"/>
  <path d="M 169.377 12.948 L 172.67 12.948 L 172.67 4.571 C 172.67 4.226 172.683 3.866 172.709 3.491 L 170.492 5.168 C 170.347 5.273 170.202 5.337 170.056 5.36 C 169.911 5.382 169.774 5.382 169.646 5.36 C 169.518 5.337 169.405 5.297 169.307 5.241 C 169.208 5.185 169.134 5.127 169.082 5.067 L 168.108 3.896 L 173.222 0 L 175.759 0 L 175.759 12.948 L 178.668 12.948 L 178.668 14.975 L 169.377 14.975 L 169.377 12.948 Z" style="white-space: pre; fill: rgb(240, 240, 240);"/>
  <path d="M 193.636 229.199 C 193.636 229.626 193.497 229.996 193.218 230.307 C 192.939 230.619 192.575 230.776 192.125 230.776 C 191.658 230.776 191.281 230.619 190.993 230.307 C 190.706 229.996 190.562 229.626 190.562 229.199 C 190.562 228.772 190.706 228.394 190.993 228.066 C 191.281 227.737 191.658 227.573 192.125 227.573 C 192.575 227.573 192.939 227.737 193.218 228.066 C 193.497 228.394 193.636 228.772 193.636 229.199 Z M 186.57 229.47 C 186.57 226.908 187.051 224.941 188.013 223.57 C 188.975 222.198 190.328 221.513 192.072 221.513 C 193.834 221.513 195.191 222.198 196.144 223.57 C 197.097 224.941 197.574 226.908 197.574 229.47 C 197.574 232.032 197.097 233.999 196.144 235.37 C 195.191 236.742 193.834 237.427 192.072 237.427 C 190.328 237.427 188.975 236.742 188.013 235.37 C 187.051 233.999 186.57 232.032 186.57 229.47 Z M 195.308 229.47 C 195.308 228.632 195.254 227.84 195.146 227.093 C 195.038 226.345 194.859 225.693 194.607 225.134 C 194.355 224.576 194.023 224.132 193.609 223.804 C 193.196 223.475 192.683 223.311 192.072 223.311 C 191.461 223.311 190.949 223.475 190.535 223.804 C 190.121 224.132 189.788 224.576 189.537 225.134 C 189.285 225.693 189.105 226.345 188.998 227.093 C 188.889 227.84 188.836 228.632 188.836 229.47 C 188.836 230.307 188.889 231.1 188.998 231.848 C 189.105 232.594 189.285 233.248 189.537 233.806 C 189.788 234.364 190.121 234.807 190.535 235.137 C 190.949 235.465 191.461 235.629 192.072 235.629 C 192.683 235.629 193.196 235.465 193.609 235.137 C 194.023 234.807 194.355 234.364 194.607 233.806 C 194.859 233.248 195.038 232.594 195.146 231.848 C 195.254 231.1 195.308 230.307 195.308 229.47 Z" style="white-space: pre; fill: rgb(240, 240, 240);"/>
  <path d="M 113.564 212.02 C 113.564 212.447 113.424 212.816 113.146 213.128 C 112.867 213.44 112.503 213.596 112.053 213.596 C 111.586 213.596 111.208 213.44 110.921 213.128 C 110.634 212.816 110.49 212.447 110.49 212.02 C 110.49 211.593 110.634 211.215 110.921 210.886 C 111.208 210.558 111.586 210.394 112.053 210.394 C 112.503 210.394 112.867 210.558 113.146 210.886 C 113.424 211.215 113.564 211.593 113.564 212.02 Z M 106.498 212.291 C 106.498 209.728 106.979 207.762 107.941 206.391 C 108.903 205.019 110.256 204.334 112 204.334 C 113.762 204.334 115.119 205.019 116.072 206.391 C 117.025 207.762 117.501 209.728 117.501 212.291 C 117.501 214.853 117.025 216.82 116.072 218.19 C 115.119 219.562 113.762 220.248 112 220.248 C 110.256 220.248 108.903 219.562 107.941 218.19 C 106.979 216.82 106.498 214.853 106.498 212.291 Z M 115.236 212.291 C 115.236 211.453 115.182 210.661 115.074 209.913 C 114.966 209.166 114.787 208.513 114.534 207.955 C 114.283 207.396 113.951 206.953 113.537 206.625 C 113.124 206.296 112.611 206.132 112 206.132 C 111.389 206.132 110.876 206.296 110.463 206.625 C 110.049 206.953 109.716 207.396 109.464 207.955 C 109.213 208.513 109.033 209.166 108.925 209.913 C 108.817 210.661 108.764 211.453 108.764 212.291 C 108.764 213.128 108.817 213.921 108.925 214.668 C 109.033 215.415 109.213 216.068 109.464 216.627 C 109.716 217.185 110.049 217.628 110.463 217.957 C 110.876 218.285 111.389 218.449 112 218.449 C 112.611 218.449 113.124 218.285 113.537 217.957 C 113.951 217.628 114.283 217.185 114.534 216.627 C 114.787 216.068 114.966 215.415 115.074 214.668 C 115.182 213.921 115.236 213.128 115.236 212.291 Z" style="white-space: pre; fill: rgb(240, 240, 240);"/>
  <path d="M 102.903 294.552 L 106 294.552 L 106 286.675 C 106 286.35 106.012 286.012 106.036 285.659 L 103.951 287.236 C 103.815 287.335 103.678 287.395 103.542 287.416 C 103.405 287.437 103.276 287.437 103.156 287.416 C 103.036 287.395 102.929 287.358 102.837 287.305 C 102.744 287.252 102.674 287.197 102.626 287.141 L 101.71 286.04 L 106.518 282.376 L 108.905 282.376 L 108.905 294.552 L 111.64 294.552 L 111.64 296.459 L 102.903 296.459 L 102.903 294.552 Z" style="white-space: pre; fill: rgb(240, 240, 240);"/>
  <path d="M 169.286 367.212 L 172.383 367.212 L 172.383 359.334 C 172.383 359.009 172.395 358.671 172.419 358.318 L 170.334 359.895 C 170.198 359.994 170.061 360.054 169.925 360.075 C 169.788 360.097 169.659 360.097 169.539 360.075 C 169.418 360.054 169.312 360.017 169.22 359.964 C 169.127 359.911 169.057 359.856 169.009 359.8 L 168.093 358.699 L 172.901 355.035 L 175.287 355.035 L 175.287 367.212 L 178.023 367.212 L 178.023 369.118 L 169.286 369.118 L 169.286 367.212 Z" style="white-space: pre; fill: rgb(240, 240, 240);"/>
  <path d="M 130.818 377.825 L 133.915 377.825 L 133.915 369.947 C 133.915 369.623 133.927 369.284 133.951 368.931 L 131.866 370.509 C 131.73 370.607 131.593 370.667 131.457 370.689 C 131.32 370.71 131.191 370.71 131.071 370.689 C 130.951 370.667 130.844 370.63 130.752 370.577 C 130.659 370.524 130.589 370.47 130.541 370.413 L 129.625 369.312 L 134.433 365.648 L 136.82 365.648 L 136.82 377.825 L 139.555 377.825 L 139.555 379.731 L 130.818 379.731 L 130.818 377.825 Z" style="white-space: pre; fill: rgb(240, 240, 240);"/>
  <path d="M 158.333 449.931 L 161.43 449.931 L 161.43 442.053 C 161.43 441.728 161.442 441.39 161.466 441.037 L 159.382 442.614 C 159.245 442.713 159.109 442.773 158.972 442.794 C 158.835 442.816 158.707 442.816 158.586 442.794 C 158.466 442.773 158.359 442.736 158.267 442.683 C 158.174 442.63 158.105 442.575 158.056 442.519 L 157.14 441.418 L 161.949 437.754 L 164.335 437.754 L 164.335 449.931 L 167.07 449.931 L 167.07 451.837 L 158.333 451.837 L 158.333 449.931 Z" style="white-space: pre; fill: rgb(240, 240, 240);"/>
  <path d="M 111.099 429.333 L 114.197 429.333 L 114.197 421.456 C 114.197 421.131 114.209 420.792 114.233 420.439 L 112.148 422.017 C 112.011 422.116 111.875 422.176 111.738 422.197 C 111.601 422.218 111.473 422.218 111.352 422.197 C 111.232 422.176 111.125 422.139 111.033 422.086 C 110.94 422.033 110.871 421.978 110.822 421.922 L 109.906 420.821 L 114.715 417.157 L 117.101 417.157 L 117.101 429.333 L 119.836 429.333 L 119.836 431.24 L 111.099 431.24 L 111.099 429.333 Z" style="white-space: pre; fill: rgb(240, 240, 240);"/>
  <path d="M 140.748 486.668 L 143.845 486.668 L 143.845 478.79 C 143.845 478.465 143.857 478.127 143.881 477.774 L 141.796 479.351 C 141.66 479.45 141.524 479.51 141.387 479.531 C 141.25 479.552 141.121 479.552 141.001 479.531 C 140.881 479.51 140.774 479.473 140.682 479.42 C 140.589 479.367 140.52 479.312 140.471 479.256 L 139.555 478.155 L 144.364 474.491 L 146.75 474.491 L 146.75 486.668 L 149.485 486.668 L 149.485 488.574 L 140.748 488.574 L 140.748 486.668 Z" style="white-space: pre; fill: rgb(240, 240, 240);"/>
  <path d="M 120.527 481.278 C 120.527 481.68 120.395 482.027 120.134 482.32 C 119.871 482.613 119.529 482.76 119.106 482.76 C 118.667 482.76 118.312 482.613 118.041 482.32 C 117.771 482.027 117.636 481.68 117.636 481.278 C 117.636 480.876 117.771 480.521 118.041 480.212 C 118.312 479.903 118.667 479.749 119.106 479.749 C 119.529 479.749 119.871 479.903 120.134 480.212 C 120.395 480.521 120.527 480.876 120.527 481.278 Z M 113.882 481.533 C 113.882 479.123 114.334 477.273 115.238 475.984 C 116.144 474.694 117.416 474.05 119.056 474.05 C 120.713 474.05 121.989 474.694 122.885 475.984 C 123.781 477.273 124.229 479.123 124.229 481.533 C 124.229 483.942 123.781 485.792 122.885 487.081 C 121.989 488.371 120.713 489.016 119.056 489.016 C 117.416 489.016 116.144 488.371 115.238 487.081 C 114.334 485.792 113.882 483.942 113.882 481.533 Z M 122.099 481.533 C 122.099 480.745 122.049 480 121.947 479.297 C 121.845 478.594 121.677 477.98 121.439 477.455 C 121.203 476.93 120.89 476.513 120.501 476.204 C 120.113 475.895 119.631 475.741 119.056 475.741 C 118.481 475.741 117.999 475.895 117.61 476.204 C 117.222 476.513 116.908 476.93 116.671 477.455 C 116.435 477.98 116.266 478.594 116.165 479.297 C 116.063 480 116.013 480.745 116.013 481.533 C 116.013 482.32 116.063 483.066 116.165 483.768 C 116.266 484.471 116.435 485.085 116.671 485.61 C 116.908 486.135 117.222 486.552 117.61 486.862 C 117.999 487.17 118.481 487.324 119.056 487.324 C 119.631 487.324 120.113 487.17 120.501 486.862 C 120.89 486.552 121.203 486.135 121.439 485.61 C 121.677 485.085 121.845 484.471 121.947 483.768 C 122.049 483.066 122.099 482.32 122.099 481.533 Z" style="white-space: pre; fill: rgb(240, 240, 240);"/>
  <path d="M 106.645 441.346 C 106.645 441.748 106.514 442.095 106.252 442.388 C 105.99 442.681 105.647 442.828 105.224 442.828 C 104.785 442.828 104.43 442.681 104.159 442.388 C 103.889 442.095 103.754 441.748 103.754 441.346 C 103.754 440.944 103.889 440.589 104.159 440.28 C 104.43 439.971 104.785 439.817 105.224 439.817 C 105.647 439.817 105.99 439.971 106.252 440.28 C 106.514 440.589 106.645 440.944 106.645 441.346 Z M 100 441.601 C 100 439.191 100.452 437.341 101.357 436.052 C 102.262 434.762 103.534 434.118 105.174 434.118 C 106.831 434.118 108.107 434.762 109.003 436.052 C 109.899 437.341 110.348 439.191 110.348 441.601 C 110.348 444.01 109.899 445.86 109.003 447.149 C 108.107 448.439 106.831 449.084 105.174 449.084 C 103.534 449.084 102.262 448.439 101.357 447.149 C 100.452 445.86 100 444.01 100 441.601 Z M 108.217 441.601 C 108.217 440.813 108.167 440.068 108.065 439.365 C 107.963 438.662 107.795 438.048 107.558 437.523 C 107.321 436.998 107.008 436.581 106.619 436.272 C 106.231 435.963 105.749 435.809 105.174 435.809 C 104.599 435.809 104.117 435.963 103.728 436.272 C 103.34 436.581 103.026 436.998 102.79 437.523 C 102.553 438.048 102.384 438.662 102.283 439.365 C 102.181 440.068 102.131 440.813 102.131 441.601 C 102.131 442.388 102.181 443.134 102.283 443.836 C 102.384 444.539 102.553 445.153 102.79 445.678 C 103.026 446.203 103.34 446.62 103.728 446.93 C 104.117 447.238 104.599 447.392 105.174 447.392 C 105.749 447.392 106.231 447.238 106.619 446.93 C 107.008 446.62 107.321 446.203 107.558 445.678 C 107.795 445.153 107.963 444.539 108.065 443.836 C 108.167 443.134 108.217 442.388 108.217 441.601 Z" style="white-space: pre; fill: rgb(240, 240, 240);"/>
  <path d="M 109.269 361.38 C 109.269 361.782 109.138 362.129 108.876 362.422 C 108.613 362.716 108.271 362.863 107.848 362.863 C 107.409 362.863 107.054 362.716 106.783 362.422 C 106.513 362.129 106.378 361.782 106.378 361.38 C 106.378 360.979 106.513 360.623 106.783 360.314 C 107.054 360.005 107.409 359.851 107.848 359.851 C 108.271 359.851 108.613 360.005 108.876 360.314 C 109.138 360.623 109.269 360.979 109.269 361.38 Z M 102.624 361.635 C 102.624 359.225 103.076 357.376 103.981 356.086 C 104.886 354.796 106.158 354.152 107.798 354.152 C 109.455 354.152 110.731 354.796 111.627 356.086 C 112.523 357.376 112.972 359.225 112.972 361.635 C 112.972 364.044 112.523 365.894 111.627 367.183 C 110.731 368.473 109.455 369.118 107.798 369.118 C 106.158 369.118 104.886 368.473 103.981 367.183 C 103.076 365.894 102.624 364.044 102.624 361.635 Z M 110.841 361.635 C 110.841 360.847 110.791 360.102 110.689 359.399 C 110.587 358.696 110.419 358.082 110.181 357.557 C 109.945 357.032 109.632 356.615 109.243 356.306 C 108.855 355.997 108.373 355.843 107.798 355.843 C 107.223 355.843 106.741 355.997 106.352 356.306 C 105.964 356.615 105.65 357.032 105.414 357.557 C 105.177 358.082 105.008 358.696 104.907 359.399 C 104.805 360.102 104.755 360.847 104.755 361.635 C 104.755 362.422 104.805 363.168 104.907 363.87 C 105.008 364.573 105.177 365.187 105.414 365.712 C 105.65 366.237 105.964 366.654 106.352 366.964 C 106.741 367.272 107.223 367.426 107.798 367.426 C 108.373 367.426 108.855 367.272 109.243 366.964 C 109.632 366.654 109.945 366.237 110.181 365.712 C 110.419 365.187 110.587 364.573 110.689 363.87 C 110.791 363.168 110.841 362.422 110.841 361.635 Z" style="white-space: pre; fill: rgb(240, 240, 240);"/>
  <path d="M 135.852 316.53 C 135.852 316.932 135.721 317.279 135.459 317.572 C 135.197 317.866 134.854 318.013 134.432 318.013 C 133.992 318.013 133.637 317.866 133.367 317.572 C 133.097 317.279 132.961 316.932 132.961 316.53 C 132.961 316.129 133.097 315.773 133.367 315.464 C 133.637 315.155 133.992 315.001 134.432 315.001 C 134.854 315.001 135.197 315.155 135.459 315.464 C 135.721 315.773 135.852 316.129 135.852 316.53 Z M 129.207 316.785 C 129.207 314.375 129.659 312.526 130.564 311.236 C 131.469 309.947 132.741 309.302 134.381 309.302 C 136.038 309.302 137.314 309.947 138.211 311.236 C 139.107 312.526 139.555 314.375 139.555 316.785 C 139.555 319.194 139.107 321.044 138.211 322.333 C 137.314 323.623 136.038 324.268 134.381 324.268 C 132.741 324.268 131.469 323.623 130.564 322.333 C 129.659 321.044 129.207 319.194 129.207 316.785 Z M 137.424 316.785 C 137.424 315.997 137.374 315.252 137.272 314.549 C 137.171 313.846 137.002 313.232 136.765 312.707 C 136.528 312.182 136.216 311.765 135.827 311.456 C 135.438 311.148 134.956 310.993 134.381 310.993 C 133.807 310.993 133.325 311.148 132.936 311.456 C 132.547 311.765 132.234 312.182 131.997 312.707 C 131.761 313.232 131.591 313.846 131.49 314.549 C 131.388 315.252 131.338 315.997 131.338 316.785 C 131.338 317.572 131.388 318.318 131.49 319.021 C 131.591 319.723 131.761 320.337 131.997 320.863 C 132.234 321.387 132.547 321.804 132.936 322.114 C 133.325 322.422 133.807 322.577 134.381 322.577 C 134.956 322.577 135.438 322.422 135.827 322.114 C 136.216 321.804 136.528 321.387 136.765 320.863 C 137.002 320.337 137.171 319.723 137.272 319.021 C 137.374 318.318 137.424 317.572 137.424 316.785 Z" style="white-space: pre; fill: rgb(240, 240, 240);"/>
  <path d="M 169.281 292.114 C 169.281 292.517 169.149 292.864 168.888 293.157 C 168.625 293.45 168.283 293.597 167.86 293.597 C 167.42 293.597 167.065 293.45 166.795 293.157 C 166.525 292.864 166.39 292.517 166.39 292.114 C 166.39 291.713 166.525 291.358 166.795 291.049 C 167.065 290.74 167.42 290.586 167.86 290.586 C 168.283 290.586 168.625 290.74 168.888 291.049 C 169.149 291.358 169.281 291.713 169.281 292.114 Z M 162.636 292.37 C 162.636 289.96 163.088 288.11 163.992 286.821 C 164.897 285.531 166.17 284.887 167.81 284.887 C 169.466 284.887 170.743 285.531 171.639 286.821 C 172.535 288.11 172.983 289.96 172.983 292.37 C 172.983 294.779 172.535 296.629 171.639 297.918 C 170.743 299.208 169.466 299.853 167.81 299.853 C 166.17 299.853 164.897 299.208 163.992 297.918 C 163.088 296.629 162.636 294.779 162.636 292.37 Z M 170.853 292.37 C 170.853 291.582 170.802 290.837 170.701 290.134 C 170.599 289.431 170.431 288.817 170.193 288.292 C 169.956 287.767 169.644 287.35 169.255 287.041 C 168.866 286.732 168.385 286.577 167.81 286.577 C 167.235 286.577 166.753 286.732 166.364 287.041 C 165.975 287.35 165.662 287.767 165.425 288.292 C 165.189 288.817 165.02 289.431 164.919 290.134 C 164.817 290.837 164.767 291.582 164.767 292.37 C 164.767 293.157 164.817 293.902 164.919 294.605 C 165.02 295.308 165.189 295.922 165.425 296.447 C 165.662 296.972 165.975 297.389 166.364 297.699 C 166.753 298.007 167.235 298.161 167.81 298.161 C 168.385 298.161 168.866 298.007 169.255 297.699 C 169.644 297.389 169.956 296.972 170.193 296.447 C 170.431 295.922 170.599 295.308 170.701 294.605 C 170.802 293.902 170.853 293.157 170.853 292.37 Z" style="white-space: pre; fill: rgb(240, 240, 240);"/>
  <path d="M 166.77 402.326 C 166.77 402.728 166.639 403.076 166.378 403.369 C 166.115 403.662 165.773 403.809 165.35 403.809 C 164.91 403.809 164.555 403.662 164.285 403.369 C 164.015 403.076 163.88 402.728 163.88 402.326 C 163.88 401.925 164.015 401.57 164.285 401.261 C 164.555 400.952 164.91 400.798 165.35 400.798 C 165.773 400.798 166.115 400.952 166.378 401.261 C 166.639 401.57 166.77 401.925 166.77 402.326 Z M 160.126 402.581 C 160.126 400.172 160.578 398.322 161.482 397.033 C 162.387 395.743 163.659 395.098 165.3 395.098 C 166.956 395.098 168.233 395.743 169.129 397.033 C 170.025 398.322 170.473 400.172 170.473 402.581 C 170.473 404.99 170.025 406.84 169.129 408.129 C 168.233 409.42 166.956 410.064 165.3 410.064 C 163.659 410.064 162.387 409.42 161.482 408.129 C 160.578 406.84 160.126 404.99 160.126 402.581 Z M 168.343 402.581 C 168.343 401.793 168.292 401.048 168.191 400.346 C 168.089 399.643 167.921 399.029 167.683 398.504 C 167.446 397.979 167.134 397.562 166.745 397.253 C 166.356 396.944 165.875 396.789 165.3 396.789 C 164.725 396.789 164.243 396.944 163.854 397.253 C 163.465 397.562 163.152 397.979 162.915 398.504 C 162.679 399.029 162.51 399.643 162.409 400.346 C 162.307 401.048 162.257 401.793 162.257 402.581 C 162.257 403.369 162.307 404.114 162.409 404.817 C 162.51 405.519 162.679 406.134 162.915 406.659 C 163.152 407.183 163.465 407.6 163.854 407.91 C 164.243 408.219 164.725 408.373 165.3 408.373 C 165.875 408.373 166.356 408.219 166.745 407.91 C 167.134 407.6 167.446 407.183 167.683 406.659 C 167.921 406.134 168.089 405.519 168.191 404.817 C 168.292 404.114 168.343 403.369 168.343 402.581 Z" style="white-space: pre; fill: rgb(240, 240, 240);"/>
  <path d="M 182.388 473.661 C 182.388 474.063 182.257 474.41 181.995 474.703 C 181.733 474.997 181.39 475.144 180.968 475.144 C 180.528 475.144 180.173 474.997 179.903 474.703 C 179.633 474.41 179.497 474.063 179.497 473.661 C 179.497 473.26 179.633 472.904 179.903 472.595 C 180.173 472.286 180.528 472.132 180.968 472.132 C 181.39 472.132 181.733 472.286 181.995 472.595 C 182.257 472.904 182.388 473.26 182.388 473.661 Z M 175.743 473.916 C 175.743 471.506 176.195 469.657 177.1 468.367 C 178.005 467.078 179.277 466.433 180.917 466.433 C 182.574 466.433 183.85 467.078 184.747 468.367 C 185.643 469.657 186.091 471.506 186.091 473.916 C 186.091 476.325 185.643 478.175 184.747 479.464 C 183.85 480.754 182.574 481.399 180.917 481.399 C 179.277 481.399 178.005 480.754 177.1 479.464 C 176.195 478.175 175.743 476.325 175.743 473.916 Z M 183.96 473.916 C 183.96 473.128 183.91 472.383 183.808 471.68 C 183.707 470.977 183.538 470.363 183.301 469.838 C 183.064 469.313 182.752 468.896 182.363 468.587 C 181.974 468.279 181.492 468.124 180.917 468.124 C 180.343 468.124 179.861 468.279 179.472 468.587 C 179.083 468.896 178.77 469.313 178.533 469.838 C 178.297 470.363 178.128 470.977 178.026 471.68 C 177.924 472.383 177.874 473.128 177.874 473.916 C 177.874 474.703 177.924 475.449 178.026 476.152 C 178.128 476.854 178.297 477.468 178.533 477.993 C 178.77 478.518 179.083 478.935 179.472 479.245 C 179.861 479.553 180.343 479.708 180.917 479.708 C 181.492 479.708 181.974 479.553 182.363 479.245 C 182.752 478.935 183.064 478.518 183.301 477.993 C 183.538 477.468 183.707 476.854 183.808 476.152 C 183.91 475.449 183.96 474.703 183.96 473.916 Z" style="white-space: pre; fill: rgb(240, 240, 240);"/>
  <path d="M 147.449 262.32 L 150.546 262.32 L 150.546 254.442 C 150.546 254.117 150.558 253.779 150.582 253.426 L 148.497 255.003 C 148.361 255.102 148.225 255.162 148.088 255.183 C 147.951 255.204 147.822 255.204 147.702 255.183 C 147.582 255.162 147.475 255.125 147.383 255.072 C 147.29 255.019 147.221 254.964 147.172 254.908 L 146.256 253.807 L 151.065 250.143 L 153.451 250.143 L 153.451 262.32 L 156.186 262.32 L 156.186 264.226 L 147.449 264.226 L 147.449 262.32 Z" style="white-space: pre; fill: rgb(240, 240, 240);"/>
  <path d="M 127.228 256.93 C 127.228 257.332 127.096 257.679 126.835 257.972 C 126.572 258.265 126.23 258.412 125.807 258.412 C 125.368 258.412 125.013 258.265 124.742 257.972 C 124.472 257.679 124.337 257.332 124.337 256.93 C 124.337 256.528 124.472 256.173 124.742 255.864 C 125.013 255.555 125.368 255.401 125.807 255.401 C 126.23 255.401 126.572 255.555 126.835 255.864 C 127.096 256.173 127.228 256.528 127.228 256.93 Z M 120.583 257.185 C 120.583 254.775 121.035 252.925 121.939 251.636 C 122.845 250.346 124.117 249.702 125.757 249.702 C 127.414 249.702 128.69 250.346 129.586 251.636 C 130.482 252.925 130.93 254.775 130.93 257.185 C 130.93 259.594 130.482 261.444 129.586 262.733 C 128.69 264.023 127.414 264.668 125.757 264.668 C 124.117 264.668 122.845 264.023 121.939 262.733 C 121.035 261.444 120.583 259.594 120.583 257.185 Z M 128.8 257.185 C 128.8 256.397 128.75 255.652 128.648 254.949 C 128.546 254.246 128.378 253.632 128.14 253.107 C 127.904 252.582 127.591 252.165 127.202 251.856 C 126.814 251.547 126.332 251.393 125.757 251.393 C 125.182 251.393 124.7 251.547 124.311 251.856 C 123.923 252.165 123.609 252.582 123.372 253.107 C 123.136 253.632 122.967 254.246 122.866 254.949 C 122.764 255.652 122.714 256.397 122.714 257.185 C 122.714 257.972 122.764 258.718 122.866 259.42 C 122.967 260.123 123.136 260.737 123.372 261.262 C 123.609 261.787 123.923 262.204 124.311 262.514 C 124.7 262.822 125.182 262.976 125.757 262.976 C 126.332 262.976 126.814 262.822 127.202 262.514 C 127.591 262.204 127.904 261.787 128.14 261.262 C 128.378 260.737 128.546 260.123 128.648 259.42 C 128.75 258.718 128.8 257.972 128.8 257.185 Z" style="white-space: pre; fill: rgb(240, 240, 240);"/>
  <path d="M 185.337 276.325 C 185.337 276.727 185.206 277.074 184.944 277.367 C 184.682 277.661 184.339 277.808 183.917 277.808 C 183.477 277.808 183.122 277.661 182.852 277.367 C 182.582 277.074 182.446 276.727 182.446 276.325 C 182.446 275.924 182.582 275.568 182.852 275.259 C 183.122 274.95 183.477 274.796 183.917 274.796 C 184.339 274.796 184.682 274.95 184.944 275.259 C 185.206 275.568 185.337 275.924 185.337 276.325 Z M 178.692 276.58 C 178.692 274.17 179.144 272.321 180.049 271.031 C 180.954 269.742 182.226 269.097 183.866 269.097 C 185.523 269.097 186.799 269.742 187.696 271.031 C 188.592 272.321 189.04 274.17 189.04 276.58 C 189.04 278.989 188.592 280.839 187.696 282.128 C 186.799 283.418 185.523 284.063 183.866 284.063 C 182.226 284.063 180.954 283.418 180.049 282.128 C 179.144 280.839 178.692 278.989 178.692 276.58 Z M 186.909 276.58 C 186.909 275.792 186.859 275.047 186.757 274.344 C 186.656 273.641 186.487 273.027 186.25 272.502 C 186.013 271.977 185.701 271.56 185.312 271.251 C 184.923 270.943 184.441 270.788 183.866 270.788 C 183.292 270.788 182.81 270.943 182.421 271.251 C 182.032 271.56 181.719 271.977 181.482 272.502 C 181.246 273.027 181.077 273.641 180.975 274.344 C 180.873 275.047 180.823 275.792 180.823 276.58 C 180.823 277.367 180.873 278.113 180.975 278.816 C 181.077 279.518 181.246 280.132 181.482 280.657 C 181.719 281.182 182.032 281.599 182.421 281.909 C 182.81 282.217 183.292 282.372 183.866 282.372 C 184.441 282.372 184.923 282.217 185.312 281.909 C 185.701 281.599 186.013 281.182 186.25 280.657 C 186.487 280.132 186.656 279.518 186.757 278.816 C 186.859 278.113 186.909 277.367 186.909 276.58 Z" style="white-space: pre; fill: rgb(240, 240, 240);"/>
</svg>