<?xml version="1.0" encoding="utf-8"?>
<svg viewBox="0 0 200 500" xmlns="http://www.w3.org/2000/svg">
  <path d="M 90.54 78.193 C 90.54 83.951 85.873 88.618 80.116 88.618 C 74.358 88.618 69.691 83.951 69.691 78.193 C 69.691 72.435 74.358 67.768 80.116 67.768 C 85.873 67.768 90.54 72.435 90.54 78.193 Z M 81.348 72.241 L 78.932 72.241 L 74.522 83.562 L 76.947 83.562 L 77.882 80.99 L 82.407 80.99 L 83.395 83.562 L 85.882 83.562 L 81.348 72.241 Z M 78.584 79.083 L 80.113 74.882 L 81.674 79.083 L 78.584 79.083 Z" style="stroke: rgb(0, 0, 0); fill: rgb(240, 240, 240); stroke-width: 0px;"/>
  <path d="M 89.489 245.303 C 89.489 251.06 84.821 255.728 79.064 255.728 C 73.307 255.728 68.64 251.06 68.64 245.303 C 68.64 239.545 73.307 234.878 79.064 234.878 C 84.821 234.878 89.489 239.545 89.489 245.303 Z M 74.52 250.527 L 78.519 250.527 C 80.031 250.517 80.985 250.495 81.38 250.456 C 82.01 250.395 82.54 250.231 82.97 249.963 C 83.401 249.695 83.74 249.338 83.988 248.89 C 84.237 248.443 84.361 247.983 84.361 247.509 C 84.361 246.909 84.168 246.385 83.784 245.94 C 83.399 245.495 82.849 245.18 82.133 244.996 C 82.64 244.793 83.042 244.487 83.338 244.08 C 83.635 243.673 83.784 243.226 83.784 242.738 C 83.784 242.289 83.664 241.883 83.423 241.52 C 83.183 241.158 82.882 240.869 82.521 240.651 C 82.161 240.433 81.752 240.29 81.296 240.221 C 80.839 240.154 80.146 240.118 79.216 240.118 L 74.52 240.118 L 74.52 250.527 Z M 78.255 241.851 C 79.371 241.851 80.046 241.862 80.282 241.887 C 80.677 241.929 80.975 242.051 81.175 242.252 C 81.376 242.453 81.475 242.715 81.475 243.036 C 81.475 243.373 81.36 243.644 81.127 243.849 C 80.895 244.055 80.576 244.18 80.17 244.223 C 79.945 244.246 79.371 244.258 78.447 244.258 L 76.892 244.258 L 76.892 241.851 L 78.255 241.851 Z M 78.807 245.99 C 79.886 245.99 80.588 246.04 80.911 246.139 C 81.234 246.239 81.481 246.397 81.652 246.615 C 81.823 246.833 81.909 247.098 81.909 247.41 C 81.909 247.779 81.798 248.074 81.576 248.294 C 81.354 248.515 81.067 248.653 80.715 248.71 C 80.485 248.752 79.942 248.773 79.088 248.773 L 76.892 248.773 L 76.892 245.99 L 78.807 245.99 Z" style="stroke: rgb(0, 0, 0); fill: rgb(240, 240, 240); stroke-width: 0px;"/>
  <path d="M 51.317 25.224 C 51.317 30.982 46.65 35.65 40.892 35.65 C 35.134 35.65 30.467 30.982 30.467 25.224 C 30.467 19.467 35.134 14.8 40.892 14.8 C 46.65 14.8 51.317 19.467 51.317 25.224 Z M 38.469 30.75 L 40.883 26.997 L 43.288 30.75 L 45.931 30.75 L 42.222 25.169 L 45.598 19.898 L 43.058 19.898 L 40.927 23.385 L 38.751 19.898 L 36.189 19.898 L 39.551 25.087 L 35.841 30.75 L 38.469 30.75 Z" style="stroke: rgb(0, 0, 0); fill: rgb(240, 240, 240); stroke-width: 0px;"/>
  <path d="M 55.211 208.094 C 55.211 213.851 50.543 218.519 44.786 218.519 C 39.029 218.519 34.362 213.851 34.362 208.094 C 34.362 202.337 39.029 197.67 44.786 197.67 C 50.543 197.67 55.211 202.337 55.211 208.094 Z M 45.874 213.863 L 45.874 209.308 L 49.877 203.003 L 47.345 203.003 L 44.834 207.3 L 42.272 203.003 L 39.696 203.003 L 43.683 209.292 L 43.683 213.863 L 45.874 213.863 Z" style="stroke: rgb(0, 0, 0); fill: rgb(240, 240, 240); stroke-width: 0px;"/>
  <path d="M 10.52 146.988 C 10.52 141.036 15.377 136.211 21.37 136.211 C 25.996 136.211 29.945 139.086 31.506 143.136 C 31.491 143.136 31.476 143.136 31.46 143.136 C 23.75 143.136 17.5 149.337 17.5 156.986 C 17.5 157.011 17.5 157.035 17.5 157.06 C 13.418 155.512 10.52 151.586 10.52 146.988 Z M 20.969 146.42 L 20.969 145.168 L 17.207 145.168 L 17.207 139.046 L 15.693 139.046 L 15.693 146.42 L 20.969 146.42 Z" style="stroke: rgb(0, 0, 0); fill: rgb(240, 240, 240); stroke-width: 0px;"/>
  <path d="M 96.525 218.337 C 96.525 218.312 96.525 218.288 96.525 218.264 C 96.525 210.614 90.275 204.413 82.565 204.413 C 82.55 204.413 82.535 204.413 82.519 204.413 C 84.08 200.363 88.03 197.488 92.656 197.488 C 98.648 197.488 103.505 202.313 103.505 208.265 C 103.505 212.864 100.607 216.789 96.525 218.337 Z M 95.105 208.148 L 95.105 205.043 L 95.412 205.043 C 95.759 205.043 96.013 205.072 96.174 205.127 C 96.334 205.183 96.485 205.286 96.628 205.437 C 96.772 205.587 97.037 205.952 97.426 206.529 L 98.52 208.148 L 100.33 208.148 L 99.415 206.697 C 99.054 206.119 98.766 205.716 98.553 205.49 C 98.34 205.263 98.07 205.055 97.743 204.866 C 98.401 204.771 98.895 204.542 99.225 204.179 C 99.556 203.815 99.721 203.354 99.721 202.797 C 99.721 202.357 99.612 201.966 99.395 201.625 C 99.176 201.283 98.885 201.046 98.523 200.912 C 98.159 200.778 97.577 200.712 96.777 200.712 L 93.592 200.712 L 93.592 208.148 L 95.105 208.148 Z M 95.105 201.969 L 96.286 201.969 C 96.9 201.969 97.268 201.978 97.39 201.995 C 97.636 202.036 97.826 202.133 97.96 202.287 C 98.095 202.44 98.162 202.643 98.162 202.893 C 98.162 203.116 98.111 203.302 98.009 203.451 C 97.907 203.6 97.765 203.704 97.585 203.765 C 97.403 203.826 96.95 203.856 96.224 203.856 L 95.105 203.856 L 95.105 201.969 Z" style="stroke: rgb(0, 0, 0); fill: rgb(240, 240, 240); stroke-width: 0px;"/>
  <path style="fill: rgb(51, 51, 51); white-space: pre;"/>
  <path style="fill: rgb(51, 51, 51); white-space: pre;"/>
  <path d="M 16.628 98.341 L 25.436 89.533 L 25.436 89.52 L 26.444 88.513 L 27.662 88.513 L 28.638 89.49 L 28.638 89.502 L 37.477 98.341 L 35.38 100.439 L 28.638 93.696 L 28.638 109.362 L 25.436 109.362 L 25.436 93.728 L 18.725 100.439 L 16.628 98.341 Z" style="stroke: rgb(0, 0, 0); stroke-width: 0px; fill: rgb(240, 240, 240);" transform="matrix(0, -1, 1, 0, -71.884999, 125.990001)"/>
  <path style="fill: rgb(51, 51, 51); white-space: pre;"/>
  <path d="M 76.088 136.587 L 84.896 127.779 L 84.896 127.766 L 85.903 126.759 L 87.121 126.759 L 88.098 127.735 L 88.098 127.748 L 96.937 136.587 L 94.84 138.685 L 88.098 131.943 L 88.098 147.608 L 84.896 147.608 L 84.896 131.974 L 78.185 138.685 L 76.088 136.587 Z" style="stroke: rgb(0, 0, 0); stroke-width: 0px; fill: rgb(240, 240, 240);"/>
  <path style="fill: rgb(51, 51, 51); white-space: pre;"/>
  <path d="M 17.225 254.987 L 26.033 246.179 L 26.033 246.166 L 27.041 245.158 L 28.259 245.158 L 29.235 246.135 L 29.235 246.148 L 38.074 254.987 L 35.978 257.084 L 29.235 250.342 L 29.235 266.008 L 26.033 266.008 L 26.033 250.373 L 19.322 257.084 L 17.225 254.987 Z" style="stroke: rgb(0, 0, 0); stroke-width: 0px; fill: rgb(240, 240, 240);" transform="matrix(0, 1, -1, 0, 283.232501, 227.933499)"/>
  <path style="fill: rgb(51, 51, 51); white-space: pre;"/>
  <path d="M 81.098 40.7 L 89.907 31.892 L 89.907 31.879 L 90.914 30.871 L 92.132 30.871 L 93.109 31.848 L 93.109 31.861 L 101.948 40.7 L 99.851 42.797 L 93.109 36.055 L 93.109 51.721 L 89.907 51.721 L 89.907 36.086 L 83.196 42.797 L 81.098 40.7 Z" style="stroke: rgb(0, 0, 0); stroke-width: 0px; fill: rgb(240, 240, 240);" transform="matrix(-1, 0, 0, -1, 183.045998, 82.592001)"/>
  <path d="M 179.346 291.702 C 179.346 297.46 174.679 302.127 168.922 302.127 C 163.164 302.127 158.497 297.46 158.497 291.702 C 158.497 285.944 163.164 281.277 168.922 281.277 C 174.679 281.277 179.346 285.944 179.346 291.702 Z M 170.154 285.75 L 167.738 285.75 L 163.328 297.071 L 165.753 297.071 L 166.688 294.499 L 171.213 294.499 L 172.201 297.071 L 174.688 297.071 L 170.154 285.75 Z M 167.39 292.592 L 168.919 288.391 L 170.48 292.592 L 167.39 292.592 Z" style="stroke: rgb(0, 0, 0); fill: rgb(240, 240, 240); stroke-width: 0px;"/>
  <path d="M 194.052 484.698 C 194.052 490.455 189.384 495.123 183.627 495.123 C 177.87 495.123 173.203 490.455 173.203 484.698 C 173.203 478.94 177.87 474.273 183.627 474.273 C 189.384 474.273 194.052 478.94 194.052 484.698 Z M 179.083 489.922 L 183.082 489.922 C 184.594 489.912 185.548 489.89 185.943 489.851 C 186.573 489.79 187.103 489.626 187.533 489.358 C 187.964 489.09 188.303 488.733 188.551 488.285 C 188.8 487.838 188.924 487.378 188.924 486.904 C 188.924 486.304 188.731 485.78 188.347 485.335 C 187.962 484.89 187.412 484.575 186.696 484.391 C 187.203 484.188 187.605 483.882 187.901 483.475 C 188.198 483.068 188.347 482.621 188.347 482.133 C 188.347 481.684 188.227 481.278 187.986 480.915 C 187.746 480.553 187.445 480.264 187.084 480.046 C 186.724 479.828 186.315 479.685 185.859 479.616 C 185.402 479.549 184.709 479.513 183.779 479.513 L 179.083 479.513 L 179.083 489.922 Z M 182.818 481.246 C 183.934 481.246 184.609 481.257 184.845 481.282 C 185.24 481.324 185.538 481.446 185.738 481.647 C 185.939 481.848 186.038 482.11 186.038 482.431 C 186.038 482.768 185.923 483.039 185.69 483.244 C 185.458 483.45 185.139 483.575 184.733 483.618 C 184.508 483.641 183.934 483.653 183.01 483.653 L 181.455 483.653 L 181.455 481.246 L 182.818 481.246 Z M 183.37 485.385 C 184.449 485.385 185.151 485.435 185.474 485.534 C 185.797 485.634 186.044 485.792 186.215 486.01 C 186.386 486.228 186.472 486.493 186.472 486.805 C 186.472 487.174 186.361 487.469 186.139 487.689 C 185.917 487.91 185.63 488.048 185.278 488.105 C 185.048 488.147 184.505 488.168 183.651 488.168 L 181.455 488.168 L 181.455 485.385 L 183.37 485.385 Z" style="stroke: rgb(0, 0, 0); fill: rgb(240, 240, 240); stroke-width: 0px;"/>
  <path d="M 140.123 238.733 C 140.123 244.491 135.456 249.159 129.698 249.159 C 123.94 249.159 119.273 244.491 119.273 238.733 C 119.273 232.976 123.94 228.309 129.698 228.309 C 135.456 228.309 140.123 232.976 140.123 238.733 Z M 127.275 244.259 L 129.689 240.506 L 132.094 244.259 L 134.737 244.259 L 131.028 238.678 L 134.404 233.407 L 131.864 233.407 L 129.733 236.894 L 127.557 233.407 L 124.995 233.407 L 128.357 238.596 L 124.647 244.259 L 127.275 244.259 Z" style="stroke: rgb(0, 0, 0); fill: rgb(240, 240, 240); stroke-width: 0px;"/>
  <path d="M 144.017 421.603 C 144.017 427.36 139.349 432.028 133.592 432.028 C 127.835 432.028 123.168 427.36 123.168 421.603 C 123.168 415.846 127.835 411.179 133.592 411.179 C 139.349 411.179 144.017 415.846 144.017 421.603 Z M 134.68 427.372 L 134.68 422.817 L 138.683 416.512 L 136.151 416.512 L 133.64 420.809 L 131.078 416.512 L 128.502 416.512 L 132.489 422.801 L 132.489 427.372 L 134.68 427.372 Z" style="stroke: rgb(0, 0, 0); fill: rgb(240, 240, 240); stroke-width: 0px;"/>
  <path d="M 107.58 361.623 C 107.58 355.671 112.437 350.846 118.43 350.846 C 123.056 350.846 127.005 353.721 128.566 357.771 C 128.551 357.771 128.536 357.771 128.52 357.771 C 120.81 357.771 114.56 363.972 114.56 371.621 C 114.56 371.646 114.56 371.67 114.56 371.695 C 110.478 370.147 107.58 366.221 107.58 361.623 Z M 118.029 361.055 L 118.029 359.803 L 114.267 359.803 L 114.267 353.681 L 112.753 353.681 L 112.753 361.055 L 118.029 361.055 Z" style="stroke: rgb(0, 0, 0); fill: rgb(240, 240, 240); stroke-width: 0px;"/>
  <path d="M 185.331 431.846 C 185.331 431.821 185.331 431.797 185.331 431.773 C 185.331 424.123 179.081 417.922 171.371 417.922 C 171.356 417.922 171.341 417.922 171.325 417.922 C 172.886 413.872 176.836 410.997 181.462 410.997 C 187.454 410.997 192.311 415.822 192.311 421.774 C 192.311 426.373 189.413 430.298 185.331 431.846 Z M 183.911 421.657 L 183.911 418.552 L 184.218 418.552 C 184.565 418.552 184.819 418.581 184.98 418.636 C 185.14 418.692 185.291 418.795 185.434 418.946 C 185.578 419.096 185.843 419.461 186.232 420.038 L 187.326 421.657 L 189.136 421.657 L 188.221 420.206 C 187.86 419.628 187.572 419.225 187.359 418.999 C 187.146 418.772 186.876 418.564 186.549 418.375 C 187.207 418.28 187.701 418.051 188.031 417.688 C 188.362 417.324 188.527 416.863 188.527 416.306 C 188.527 415.866 188.418 415.475 188.201 415.134 C 187.982 414.792 187.691 414.555 187.329 414.421 C 186.965 414.287 186.383 414.221 185.583 414.221 L 182.398 414.221 L 182.398 421.657 L 183.911 421.657 Z M 183.911 415.478 L 185.092 415.478 C 185.706 415.478 186.074 415.487 186.196 415.504 C 186.442 415.545 186.632 415.642 186.766 415.796 C 186.901 415.949 186.968 416.152 186.968 416.402 C 186.968 416.625 186.917 416.811 186.815 416.96 C 186.713 417.109 186.571 417.213 186.391 417.274 C 186.209 417.335 185.756 417.365 185.03 417.365 L 183.911 417.365 L 183.911 415.478 Z" style="stroke: rgb(0, 0, 0); fill: rgb(240, 240, 240); stroke-width: 0px;"/>
  <path style="fill: rgb(51, 51, 51); white-space: pre;"/>
  <path style="fill: rgb(51, 51, 51); white-space: pre;"/>
  <path d="M 105.434 311.85 L 114.242 303.042 L 114.242 303.029 L 115.25 302.022 L 116.468 302.022 L 117.444 302.999 L 117.444 303.011 L 126.283 311.85 L 124.186 313.948 L 117.444 307.205 L 117.444 322.871 L 114.242 322.871 L 114.242 307.237 L 107.531 313.948 L 105.434 311.85 Z" style="stroke: rgb(0, 0, 0); stroke-width: 0px; fill: rgb(240, 240, 240);" transform="matrix(0, -1, 1, 0, -196.588005, 428.305)"/>
  <path style="fill: rgb(51, 51, 51); white-space: pre;"/>
  <path d="M 164.894 350.096 L 173.702 341.288 L 173.702 341.275 L 174.709 340.268 L 175.927 340.268 L 176.904 341.244 L 176.904 341.257 L 185.743 350.096 L 183.646 352.194 L 176.904 345.452 L 176.904 361.117 L 173.702 361.117 L 173.702 345.483 L 166.991 352.194 L 164.894 350.096 Z" style="stroke: rgb(0, 0, 0); stroke-width: 0px; fill: rgb(240, 240, 240);"/>
  <path style="fill: rgb(51, 51, 51); white-space: pre;"/>
  <path d="M 106.031 468.496 L 114.839 459.688 L 114.839 459.675 L 115.847 458.667 L 117.065 458.667 L 118.041 459.644 L 118.041 459.657 L 126.88 468.496 L 124.784 470.593 L 118.041 463.851 L 118.041 479.517 L 114.839 479.517 L 114.839 463.882 L 108.128 470.593 L 106.031 468.496 Z" style="stroke: rgb(0, 0, 0); stroke-width: 0px; fill: rgb(240, 240, 240);" transform="matrix(0, 1, -1, 0, 585.547493, 352.636497)"/>
  <path style="fill: rgb(51, 51, 51); white-space: pre;"/>
  <path d="M 169.904 254.209 L 178.713 245.401 L 178.713 245.388 L 179.72 244.38 L 180.938 244.38 L 181.915 245.357 L 181.915 245.37 L 190.754 254.209 L 188.657 256.306 L 181.915 249.564 L 181.915 265.23 L 178.713 265.23 L 178.713 249.595 L 172.002 256.306 L 169.904 254.209 Z" style="stroke: rgb(0, 0, 0); stroke-width: 0px; fill: rgb(240, 240, 240);" transform="matrix(-1, 0, 0, -1, 360.658005, 509.610016)"/>
  <path d="M 84.832 438.48 C 84.832 443.66 80.633 447.857 75.454 447.857 C 70.274 447.857 66.077 443.66 66.077 438.48 C 66.077 433.3 70.274 429.102 75.454 429.102 C 80.633 429.102 84.832 433.3 84.832 438.48 Z M 76.563 433.125 L 74.389 433.125 L 70.421 443.31 L 72.603 443.31 L 73.445 440.996 L 77.515 440.996 L 78.405 443.31 L 80.641 443.31 L 76.563 433.125 Z M 74.076 439.28 L 75.451 435.501 L 76.855 439.28 L 74.076 439.28 Z" style="stroke: rgb(0, 0, 0); fill: rgb(240, 240, 240); stroke-width: 0px;"/>
  <path d="M 91.286 368.477 C 91.286 373.656 87.088 377.854 81.908 377.854 C 76.729 377.854 72.531 373.656 72.531 368.477 C 72.531 363.297 76.729 359.098 81.908 359.098 C 87.088 359.098 91.286 363.297 91.286 368.477 Z M 77.821 373.176 L 81.418 373.176 C 82.778 373.168 83.636 373.147 83.992 373.113 C 84.56 373.057 85.036 372.909 85.423 372.668 C 85.81 372.428 86.115 372.106 86.339 371.704 C 86.562 371.302 86.673 370.888 86.673 370.462 C 86.673 369.921 86.501 369.451 86.154 369.05 C 85.809 368.649 85.313 368.366 84.669 368.201 C 85.126 368.018 85.487 367.743 85.754 367.376 C 86.021 367.011 86.154 366.607 86.154 366.17 C 86.154 365.766 86.047 365.4 85.83 365.074 C 85.614 364.748 85.343 364.488 85.019 364.292 C 84.695 364.096 84.327 363.967 83.916 363.905 C 83.505 363.845 82.882 363.813 82.046 363.813 L 77.821 363.813 L 77.821 373.176 Z M 81.18 365.371 C 82.185 365.371 82.792 365.382 83.004 365.403 C 83.359 365.442 83.628 365.551 83.808 365.732 C 83.989 365.914 84.078 366.148 84.078 366.438 C 84.078 366.74 83.974 366.984 83.765 367.169 C 83.556 367.354 83.269 367.466 82.904 367.505 C 82.701 367.525 82.185 367.536 81.354 367.536 L 79.955 367.536 L 79.955 365.371 L 81.18 365.371 Z M 81.678 369.094 C 82.648 369.094 83.279 369.14 83.571 369.229 C 83.86 369.319 84.083 369.461 84.237 369.656 C 84.39 369.853 84.467 370.091 84.467 370.372 C 84.467 370.704 84.368 370.969 84.168 371.168 C 83.969 371.366 83.71 371.49 83.394 371.542 C 83.187 371.579 82.699 371.599 81.93 371.599 L 79.955 371.599 L 79.955 369.094 L 81.678 369.094 Z" style="stroke: rgb(0, 0, 0); fill: rgb(240, 240, 240); stroke-width: 0px;"/>
  <path d="M 63.286 478.113 C 63.286 483.292 59.088 487.491 53.908 487.491 C 48.728 487.491 44.53 483.292 44.53 478.113 C 44.53 472.933 48.728 468.736 53.908 468.736 C 59.088 468.736 63.286 472.933 63.286 478.113 Z M 51.729 483.084 L 53.899 479.708 L 56.064 483.084 L 58.441 483.084 L 55.105 478.063 L 58.141 473.322 L 55.857 473.322 L 53.939 476.459 L 51.982 473.322 L 49.677 473.322 L 52.701 477.99 L 49.364 483.084 L 51.729 483.084 Z" style="stroke: rgb(0, 0, 0); fill: rgb(240, 240, 240); stroke-width: 0px;"/>
  <path d="M 52.583 322.14 C 52.583 327.319 48.384 331.519 43.205 331.519 C 38.026 331.519 33.828 327.319 33.828 322.14 C 33.828 316.961 38.026 312.762 43.205 312.762 C 48.384 312.762 52.583 316.961 52.583 322.14 Z M 44.183 327.33 L 44.183 323.232 L 47.785 317.56 L 45.507 317.56 L 43.248 321.425 L 40.944 317.56 L 38.626 317.56 L 42.213 323.218 L 42.213 327.33 L 44.183 327.33 Z" style="stroke: rgb(0, 0, 0); fill: rgb(240, 240, 240); stroke-width: 0px;"/>
  <path d="M 6.378 359.054 C 6.378 353.699 10.747 349.359 16.139 349.359 C 20.3 349.359 23.853 351.945 25.257 355.588 C 25.243 355.588 25.23 355.588 25.215 355.588 C 18.279 355.588 12.657 361.166 12.657 368.048 C 12.657 368.07 12.657 368.092 12.657 368.114 C 8.985 366.721 6.378 363.191 6.378 359.054 Z M 15.777 358.542 L 15.777 357.415 L 12.394 357.415 L 12.394 351.908 L 11.032 351.908 L 11.032 358.542 L 15.777 358.542 Z" style="stroke: rgb(0, 0, 0); fill: rgb(240, 240, 240); stroke-width: 0px;"/>
  <path d="M 78.303 298.627 C 78.303 298.606 78.303 298.583 78.303 298.562 C 78.303 291.68 72.681 286.102 65.745 286.102 C 65.731 286.102 65.717 286.102 65.703 286.102 C 67.108 282.459 70.661 279.872 74.823 279.872 C 80.213 279.872 84.582 284.213 84.582 289.567 C 84.582 293.704 81.975 297.235 78.303 298.627 Z M 77.025 289.462 L 77.025 286.669 L 77.301 286.669 C 77.614 286.669 77.843 286.694 77.987 286.744 C 78.131 286.794 78.267 286.887 78.396 287.022 C 78.525 287.158 78.764 287.485 79.114 288.006 L 80.097 289.462 L 81.726 289.462 L 80.902 288.157 C 80.577 287.636 80.319 287.274 80.128 287.07 C 79.936 286.867 79.693 286.679 79.399 286.509 C 79.991 286.424 80.435 286.218 80.732 285.891 C 81.03 285.564 81.178 285.15 81.178 284.648 C 81.178 284.252 81.08 283.901 80.884 283.593 C 80.688 283.287 80.426 283.072 80.1 282.953 C 79.773 282.832 79.25 282.772 78.529 282.772 L 75.665 282.772 L 75.665 289.462 L 77.025 289.462 Z M 77.025 283.903 L 78.088 283.903 C 78.641 283.903 78.971 283.912 79.081 283.926 C 79.302 283.963 79.473 284.05 79.594 284.189 C 79.715 284.327 79.775 284.509 79.775 284.735 C 79.775 284.935 79.73 285.102 79.638 285.236 C 79.546 285.369 79.418 285.464 79.256 285.52 C 79.093 285.573 78.686 285.601 78.033 285.601 L 77.025 285.601 L 77.025 283.903 Z" style="stroke: rgb(0, 0, 0); fill: rgb(240, 240, 240); stroke-width: 0px;"/>
  <path d="M 56.648 411.524 L 64.571 403.601 L 64.571 403.589 L 65.477 402.683 L 66.573 402.683 L 67.452 403.562 L 67.452 403.573 L 75.403 411.524 L 73.516 413.411 L 67.452 407.346 L 67.452 421.439 L 64.571 421.439 L 64.571 407.374 L 58.534 413.411 L 56.648 411.524 Z" style="stroke: rgb(0, 0, 0); stroke-width: 0px; fill: rgb(240, 240, 240);" transform="matrix(0, -1, 1, 0, -346.035505, 478.086504)"/>
  <path d="M 9.233 289.902 L 17.156 281.978 L 17.156 281.967 L 18.063 281.06 L 19.159 281.06 L 20.037 281.939 L 20.037 281.95 L 27.988 289.902 L 26.102 291.789 L 20.037 285.723 L 20.037 299.817 L 17.156 299.817 L 17.156 285.752 L 11.118 291.789 L 9.233 289.902 Z" style="stroke: rgb(0, 0, 0); stroke-width: 0px; fill: rgb(240, 240, 240);"/>
  <path d="M 13.039 458.076 L 20.962 450.152 L 20.962 450.14 L 21.87 449.234 L 22.965 449.234 L 23.843 450.113 L 23.843 450.124 L 31.795 458.076 L 29.909 459.963 L 23.843 453.897 L 23.843 467.991 L 20.962 467.991 L 20.962 453.926 L 14.926 459.963 L 13.039 458.076 Z" style="stroke: rgb(0, 0, 0); stroke-width: 0px; fill: rgb(240, 240, 240);" transform="matrix(0, 1, -1, 0, 481.029503, 436.195503)"/>
  <path d="M 10.003 394.007 L 17.926 386.083 L 17.926 386.072 L 18.833 385.165 L 19.929 385.165 L 20.807 386.045 L 20.807 386.055 L 28.758 394.007 L 26.872 395.894 L 20.807 389.828 L 20.807 403.922 L 17.926 403.922 L 17.926 389.856 L 11.889 395.894 L 10.003 394.007 Z" style="stroke: rgb(0, 0, 0); stroke-width: 0px; fill: rgb(240, 240, 240);" transform="matrix(-1, 0, 0, -1, 38.761, 789.087006)"/>
  <path d="M 174.538 117.476 C 174.538 124.161 169.118 129.578 162.434 129.578 C 155.749 129.578 150.332 124.161 150.332 117.476 C 150.332 110.791 155.749 105.373 162.434 105.373 C 169.118 105.373 174.538 110.791 174.538 117.476 Z M 163.865 110.565 L 161.06 110.565 L 155.939 123.71 L 158.755 123.71 L 159.841 120.723 L 165.094 120.723 L 166.243 123.71 L 169.129 123.71 L 163.865 110.565 Z M 160.656 118.508 L 162.43 113.631 L 164.242 118.508 L 160.656 118.508 Z" style="stroke: rgb(0, 0, 0); fill: rgb(240, 240, 240); stroke-width: 0px;"/>
  <path d="M 183.242 33.506 C 183.242 40.19 177.824 45.608 171.139 45.608 C 164.455 45.608 159.037 40.19 159.037 33.506 C 159.037 26.821 164.455 21.402 171.139 21.402 C 177.824 21.402 183.242 26.821 183.242 33.506 Z M 165.864 39.571 L 170.506 39.571 C 172.262 39.561 173.369 39.533 173.828 39.49 C 174.561 39.417 175.176 39.226 175.675 38.915 C 176.175 38.606 176.568 38.19 176.857 37.671 C 177.145 37.152 177.289 36.618 177.289 36.068 C 177.289 35.37 177.067 34.763 176.619 34.246 C 176.173 33.728 175.533 33.363 174.702 33.15 C 175.292 32.914 175.758 32.559 176.102 32.085 C 176.447 31.614 176.619 31.093 176.619 30.529 C 176.619 30.007 176.481 29.535 176.201 29.114 C 175.922 28.694 175.572 28.358 175.154 28.105 C 174.736 27.852 174.261 27.686 173.73 27.606 C 173.2 27.528 172.396 27.487 171.317 27.487 L 165.864 27.487 L 165.864 39.571 Z M 170.199 29.498 C 171.496 29.498 172.28 29.512 172.553 29.539 C 173.011 29.589 173.359 29.73 173.591 29.964 C 173.825 30.198 173.939 30.501 173.939 30.875 C 173.939 31.265 173.805 31.579 173.535 31.818 C 173.266 32.057 172.895 32.202 172.424 32.252 C 172.162 32.278 171.496 32.292 170.424 32.292 L 168.618 32.292 L 168.618 29.498 L 170.199 29.498 Z M 170.842 34.303 C 172.094 34.303 172.908 34.362 173.285 34.477 C 173.658 34.593 173.946 34.776 174.145 35.028 C 174.342 35.282 174.441 35.589 174.441 35.952 C 174.441 36.381 174.314 36.723 174.056 36.979 C 173.799 37.235 173.464 37.395 173.057 37.462 C 172.789 37.51 172.16 37.536 171.167 37.536 L 168.618 37.536 L 168.618 34.303 L 170.842 34.303 Z" style="stroke: rgb(0, 0, 0); fill: rgb(240, 240, 240); stroke-width: 0px;"/>
  <path d="M 180.87 173.879 C 180.87 180.563 175.452 185.982 168.767 185.982 C 162.081 185.982 156.663 180.563 156.663 173.879 C 156.663 167.193 162.081 161.777 168.767 161.777 C 175.452 161.777 180.87 167.193 180.87 173.879 Z M 165.954 180.294 L 168.755 175.937 L 171.549 180.294 L 174.617 180.294 L 170.312 173.814 L 174.23 167.695 L 171.282 167.695 L 168.807 171.744 L 166.281 167.695 L 163.306 167.695 L 167.209 173.72 L 162.902 180.294 L 165.954 180.294 Z" style="stroke: rgb(0, 0, 0); fill: rgb(240, 240, 240); stroke-width: 0px;"/>
  <path d="M 107.424 20.22 C 107.424 13.309 113.063 7.707 120.022 7.707 C 125.392 7.707 129.977 11.045 131.789 15.747 C 131.771 15.747 131.755 15.747 131.735 15.747 C 122.784 15.747 115.528 22.946 115.528 31.828 C 115.528 31.856 115.528 31.884 115.528 31.913 C 110.789 30.115 107.424 25.559 107.424 20.22 Z M 119.554 19.559 L 119.554 18.105 L 115.188 18.105 L 115.188 10.997 L 113.431 10.997 L 113.431 19.559 L 119.554 19.559 Z" style="stroke: rgb(0, 0, 0); fill: rgb(240, 240, 240); stroke-width: 0px;"/>
  <path d="M 172.303 87.938 L 182.528 77.713 L 182.528 77.697 L 183.698 76.528 L 185.112 76.528 L 186.247 77.662 L 186.247 77.677 L 196.508 87.938 L 194.073 90.374 L 186.247 82.546 L 186.247 100.735 L 182.528 100.735 L 182.528 82.582 L 174.737 90.374 L 172.303 87.938 Z" style="stroke: rgb(0, 0, 0); stroke-width: 0px; fill: rgb(240, 240, 240);" transform="matrix(0, -1, 1, 0, 95.773994, 273.036995)"/>
  <path d="M 116.021 148.019 L 126.246 137.792 L 126.246 137.776 L 127.418 136.607 L 128.831 136.607 L 129.964 137.742 L 129.964 137.756 L 140.227 148.019 L 137.793 150.454 L 129.964 142.625 L 129.964 160.815 L 126.246 160.815 L 126.246 142.663 L 118.456 150.454 L 116.021 148.019 Z" style="stroke: rgb(0, 0, 0); stroke-width: 0px; fill: rgb(240, 240, 240);" transform="matrix(0, 1, -1, 0, 276.835003, 20.586994)"/>
  <path d="M 112.102 65.331 L 122.328 55.104 L 122.328 55.09 L 123.499 53.919 L 124.913 53.919 L 126.046 55.055 L 126.046 55.068 L 136.308 65.331 L 133.874 67.766 L 126.046 59.937 L 126.046 78.127 L 122.328 78.127 L 122.328 59.973 L 114.537 67.766 L 112.102 65.331 Z" style="stroke: rgb(0, 0, 0); stroke-width: 0px; fill: rgb(240, 240, 240);" transform="matrix(-1, 0, 0, -1, 248.409996, 132.045998)"/>
</svg>