<?xml version="1.0" encoding="utf-8"?>
<svg viewBox="0 0 200 500" xmlns="http://www.w3.org/2000/svg">
  <path d="M 154.017 133.013 C 154.017 142.808 146.078 150.747 136.284 150.747 C 126.49 150.747 118.551 142.808 118.551 133.013 C 118.551 123.219 126.49 115.28 136.284 115.28 C 146.078 115.28 154.017 123.219 154.017 133.013 Z M 138.381 122.888 L 134.27 122.888 L 126.768 142.147 L 130.893 142.147 L 132.484 137.772 L 140.181 137.772 L 141.863 142.147 L 146.093 142.147 L 138.381 122.888 Z M 133.678 134.527 L 136.279 127.381 L 138.934 134.527 L 133.678 134.527 Z" style="stroke: rgb(0, 0, 0); fill: rgb(240, 240, 240); stroke-width: 0px;"/>
  <path d="M 179.032 461.317 C 179.032 471.11 171.093 479.05 161.299 479.05 C 151.505 479.05 143.566 471.11 143.566 461.317 C 143.566 451.522 151.505 443.583 161.299 443.583 C 171.093 443.583 179.032 451.522 179.032 461.317 Z M 153.569 470.203 L 160.372 470.203 C 162.944 470.187 164.566 470.148 165.238 470.083 C 166.311 469.978 167.212 469.699 167.944 469.243 C 168.676 468.788 169.253 468.18 169.676 467.419 C 170.098 466.658 170.309 465.876 170.309 465.07 C 170.309 464.048 169.982 463.158 169.328 462.401 C 168.674 461.644 167.737 461.108 166.519 460.795 C 167.382 460.449 168.066 459.929 168.57 459.237 C 169.075 458.544 169.328 457.783 169.328 456.954 C 169.328 456.19 169.124 455.499 168.714 454.882 C 168.305 454.266 167.794 453.774 167.18 453.403 C 166.567 453.033 165.872 452.789 165.095 452.672 C 164.319 452.557 163.139 452.497 161.557 452.497 L 153.569 452.497 L 153.569 470.203 Z M 159.922 455.444 C 161.821 455.444 162.97 455.464 163.371 455.505 C 164.043 455.578 164.55 455.785 164.89 456.127 C 165.232 456.469 165.401 456.914 165.401 457.461 C 165.401 458.033 165.204 458.494 164.809 458.844 C 164.413 459.194 163.871 459.406 163.18 459.479 C 162.798 459.518 161.821 459.539 160.249 459.539 L 157.605 459.539 L 157.605 455.444 L 159.922 455.444 Z M 160.862 462.485 C 162.698 462.485 163.891 462.571 164.441 462.739 C 164.99 462.909 165.411 463.178 165.702 463.548 C 165.992 463.919 166.138 464.37 166.138 464.901 C 166.138 465.529 165.949 466.031 165.572 466.405 C 165.194 466.78 164.706 467.015 164.107 467.112 C 163.716 467.184 162.793 467.22 161.339 467.22 L 157.605 467.22 L 157.605 462.485 L 160.862 462.485 Z" style="stroke: rgb(0, 0, 0); fill: rgb(240, 240, 240); stroke-width: 0px;"/>
  <path d="M 87.294 42.909 C 87.294 52.703 79.356 60.643 69.561 60.643 C 59.766 60.643 51.827 52.703 51.827 42.909 C 51.827 33.115 59.766 25.176 69.561 25.176 C 79.356 25.176 87.294 33.115 87.294 42.909 Z M 65.44 52.309 L 69.545 45.925 L 73.636 52.309 L 78.133 52.309 L 71.824 42.814 L 77.566 33.849 L 73.246 33.849 L 69.62 39.78 L 65.919 33.849 L 61.56 33.849 L 67.279 42.676 L 60.968 52.309 L 65.44 52.309 Z" style="stroke: rgb(0, 0, 0); fill: rgb(240, 240, 240); stroke-width: 0px;"/>
  <path d="M 93.919 353.987 C 93.919 363.78 85.979 371.721 76.185 371.721 C 66.392 371.721 58.452 363.78 58.452 353.987 C 58.452 344.193 66.392 336.254 76.185 336.254 C 85.979 336.254 93.919 344.193 93.919 353.987 Z M 78.036 363.8 L 78.036 356.051 L 84.846 345.327 L 80.538 345.327 L 76.267 352.635 L 71.909 345.327 L 67.526 345.327 L 74.309 356.025 L 74.309 363.8 L 78.036 363.8 Z" style="stroke: rgb(0, 0, 0); fill: rgb(240, 240, 240); stroke-width: 0px;"/>
  <path d="M 17.895 250.04 C 17.895 239.915 26.158 231.707 36.352 231.707 C 44.221 231.707 50.939 236.598 53.594 243.487 C 53.569 243.487 53.543 243.487 53.516 243.487 C 40.401 243.487 29.769 254.035 29.769 267.048 C 29.769 267.09 29.769 267.131 29.769 267.173 C 22.826 264.54 17.895 257.862 17.895 250.04 Z M 35.67 249.074 L 35.67 246.943 L 29.27 246.943 L 29.27 236.529 L 26.695 236.529 L 26.695 249.074 L 35.67 249.074 Z" style="stroke: rgb(0, 0, 0); fill: rgb(240, 240, 240); stroke-width: 0px;"/>
  <path d="M 164.198 371.411 C 164.198 371.369 164.198 371.328 164.198 371.286 C 164.198 358.273 153.566 347.725 140.451 347.725 C 140.425 347.725 140.399 347.725 140.373 347.725 C 143.028 340.836 149.747 335.945 157.616 335.945 C 167.809 335.945 176.072 344.153 176.072 354.278 C 176.072 362.1 171.141 368.778 164.198 371.411 Z M 161.782 354.078 L 161.782 348.797 L 162.304 348.797 C 162.895 348.797 163.327 348.845 163.6 348.94 C 163.872 349.034 164.13 349.21 164.373 349.466 C 164.617 349.722 165.069 350.342 165.73 351.325 L 167.591 354.078 L 170.67 354.078 L 169.113 351.61 C 168.499 350.626 168.01 349.942 167.648 349.556 C 167.285 349.171 166.826 348.817 166.27 348.495 C 167.389 348.334 168.229 347.944 168.791 347.326 C 169.354 346.708 169.635 345.924 169.635 344.975 C 169.635 344.227 169.449 343.563 169.079 342.982 C 168.708 342.401 168.213 341.997 167.596 341.77 C 166.978 341.542 165.988 341.429 164.626 341.429 L 159.208 341.429 L 159.208 354.078 L 161.782 354.078 Z M 161.782 343.568 L 163.791 343.568 C 164.835 343.568 165.461 343.583 165.669 343.611 C 166.087 343.681 166.41 343.846 166.639 344.108 C 166.868 344.369 166.982 344.713 166.982 345.139 C 166.982 345.518 166.896 345.835 166.722 346.088 C 166.548 346.341 166.307 346.519 166 346.623 C 165.692 346.726 164.921 346.778 163.686 346.778 L 161.782 346.778 L 161.782 343.568 Z" style="stroke: rgb(0, 0, 0); fill: rgb(240, 240, 240); stroke-width: 0px;"/>
  <path style="fill: rgb(51, 51, 51); white-space: pre;"/>
  <path style="fill: rgb(51, 51, 51); white-space: pre;"/>
  <path d="M 28.286 167.287 L 43.269 152.304 L 43.269 152.282 L 44.983 150.568 L 47.055 150.568 L 48.716 152.23 L 48.716 152.251 L 63.752 167.287 L 60.185 170.855 L 48.716 159.386 L 48.716 186.035 L 43.269 186.035 L 43.269 159.439 L 31.853 170.855 L 28.286 167.287 Z" style="stroke: rgb(0, 0, 0); stroke-width: 0px; fill: rgb(240, 240, 240);" transform="matrix(0, -1, 1, 0, -122.282499, 214.320498)"/>
  <path transform="matrix(1, 0, 0, 1, 249.416761, 61.018861)" style="fill: rgb(51, 51, 51); white-space: pre;"/>
  <path d="M 129.432 232.347 L 144.415 217.364 L 144.415 217.342 L 146.129 215.628 L 148.201 215.628 L 149.862 217.289 L 149.862 217.311 L 164.898 232.347 L 161.331 235.915 L 149.862 224.446 L 149.862 251.095 L 144.415 251.095 L 144.415 224.499 L 132.999 235.915 L 129.432 232.347 Z" style="stroke: rgb(0, 0, 0); stroke-width: 0px; fill: rgb(240, 240, 240);"/>
  <path transform="matrix(1, 0, 0, 1, 249.416754, 122.82914)" style="fill: rgb(51, 51, 51); white-space: pre;"/>
  <path d="M 29.301 433.755 L 44.285 418.772 L 44.285 418.75 L 45.999 417.036 L 48.071 417.036 L 49.732 418.697 L 49.732 418.719 L 64.768 433.755 L 61.201 437.323 L 49.732 425.854 L 49.732 452.503 L 44.285 452.503 L 44.285 425.907 L 32.869 437.323 L 29.301 433.755 Z" style="stroke: rgb(0, 0, 0); stroke-width: 0px; fill: rgb(240, 240, 240);" transform="matrix(0, 1, -1, 0, 481.803999, 387.735003)"/>
  <path transform="matrix(1, 0, 0, 1, 249.416754, 122.829132)" style="fill: rgb(51, 51, 51); white-space: pre;"/>
  <path d="M 137.955 69.234 L 152.939 54.251 L 152.939 54.229 L 154.653 52.515 L 156.725 52.515 L 158.386 54.177 L 158.386 54.198 L 173.422 69.234 L 169.855 72.802 L 158.386 61.333 L 158.386 87.982 L 152.939 87.982 L 152.939 61.386 L 141.523 72.802 L 137.955 69.234 Z" style="stroke: rgb(0, 0, 0); stroke-width: 0px; fill: rgb(240, 240, 240);" transform="matrix(-1, 0, 0, -1, 311.376999, 140.497002)"/>
</svg>