<?xml version="1.0" encoding="utf-8"?>
<svg viewBox="0 0 200 500" xmlns="http://www.w3.org/2000/svg">
  <path d="M 47.954 200.228 C 47.954 205.662 43.549 210.066 38.116 210.066 C 32.682 210.066 28.278 205.662 28.278 200.228 C 28.278 194.794 32.682 190.39 38.116 190.39 C 43.549 190.39 47.954 194.794 47.954 200.228 Z M 39.279 194.611 L 36.999 194.611 L 32.837 205.295 L 35.125 205.295 L 36.008 202.868 L 40.278 202.868 L 41.211 205.295 L 43.558 205.295 L 39.279 194.611 Z M 36.67 201.068 L 38.113 197.103 L 39.586 201.068 L 36.67 201.068 Z" style="stroke: rgb(0, 0, 0); fill: rgb(240, 240, 240); stroke-width: 0px;"/>
  <path d="M 68.937 24.613 C 68.937 30.046 64.533 34.451 59.099 34.451 C 53.666 34.451 49.262 30.046 49.262 24.613 C 49.262 19.179 53.666 14.775 59.099 14.775 C 64.533 14.775 68.937 19.179 68.937 24.613 Z M 54.811 29.543 L 58.585 29.543 C 60.012 29.534 60.912 29.512 61.285 29.476 C 61.88 29.418 62.38 29.263 62.786 29.01 C 63.192 28.758 63.512 28.421 63.747 27.999 C 63.981 27.576 64.098 27.143 64.098 26.695 C 64.098 26.128 63.916 25.635 63.554 25.215 C 63.191 24.795 62.671 24.497 61.995 24.324 C 62.474 24.132 62.853 23.843 63.133 23.459 C 63.413 23.075 63.554 22.653 63.554 22.193 C 63.554 21.769 63.44 21.386 63.213 21.043 C 62.986 20.702 62.703 20.429 62.362 20.223 C 62.022 20.018 61.636 19.882 61.205 19.817 C 60.775 19.754 60.12 19.72 59.242 19.72 L 54.811 19.72 L 54.811 29.543 Z M 58.335 21.355 C 59.389 21.355 60.026 21.366 60.249 21.389 C 60.622 21.43 60.903 21.544 61.092 21.734 C 61.281 21.924 61.375 22.171 61.375 22.474 C 61.375 22.791 61.266 23.047 61.047 23.241 C 60.827 23.436 60.526 23.553 60.143 23.594 C 59.931 23.615 59.389 23.627 58.517 23.627 L 57.05 23.627 L 57.05 21.355 L 58.335 21.355 Z M 58.857 25.261 C 59.875 25.261 60.537 25.309 60.842 25.402 C 61.147 25.497 61.381 25.646 61.542 25.851 C 61.703 26.057 61.784 26.307 61.784 26.602 C 61.784 26.95 61.679 27.229 61.47 27.436 C 61.26 27.644 60.989 27.774 60.657 27.828 C 60.44 27.868 59.928 27.888 59.122 27.888 L 57.05 27.888 L 57.05 25.261 L 58.857 25.261 Z" style="stroke: rgb(0, 0, 0); fill: rgb(240, 240, 240); stroke-width: 0px;"/>
  <path d="M 51.368 90.453 C 51.368 95.886 46.964 100.291 41.53 100.291 C 36.096 100.291 31.692 95.886 31.692 90.453 C 31.692 85.02 36.096 80.615 41.53 80.615 C 46.964 80.615 51.368 85.02 51.368 90.453 Z M 39.244 95.668 L 41.522 92.126 L 43.791 95.668 L 46.286 95.668 L 42.786 90.4 L 45.971 85.427 L 43.575 85.427 L 41.563 88.717 L 39.51 85.427 L 37.092 85.427 L 40.264 90.324 L 36.763 95.668 L 39.244 95.668 Z" style="stroke: rgb(0, 0, 0); fill: rgb(240, 240, 240); stroke-width: 0px;"/>
  <path d="M 82.242 156.592 C 82.242 162.025 77.837 166.43 72.404 166.43 C 66.971 166.43 62.566 162.025 62.566 156.592 C 62.566 151.158 66.971 146.754 72.404 146.754 C 77.837 146.754 82.242 151.158 82.242 156.592 Z M 73.431 162.036 L 73.431 157.737 L 77.209 151.788 L 74.819 151.788 L 72.449 155.842 L 70.032 151.788 L 67.6 151.788 L 71.363 157.722 L 71.363 162.036 L 73.431 162.036 Z" style="stroke: rgb(0, 0, 0); fill: rgb(240, 240, 240); stroke-width: 0px;"/>
  <path d="M 12.623 239.912 C 12.623 234.295 17.207 229.741 22.863 229.741 C 27.228 229.741 30.955 232.455 32.428 236.276 C 32.414 236.276 32.4 236.276 32.385 236.276 C 25.109 236.276 19.21 242.128 19.21 249.347 C 19.21 249.371 19.21 249.393 19.21 249.417 C 15.359 247.956 12.623 244.251 12.623 239.912 Z M 22.484 239.376 L 22.484 238.194 L 18.934 238.194 L 18.934 232.416 L 17.505 232.416 L 17.505 239.376 L 22.484 239.376 Z" style="stroke: rgb(0, 0, 0); fill: rgb(240, 240, 240); stroke-width: 0px;"/>
  <path d="M 98.688 55.477 C 98.688 55.453 98.688 55.431 98.688 55.407 C 98.688 48.188 92.789 42.336 85.513 42.336 C 85.499 42.336 85.485 42.336 85.47 42.336 C 86.943 38.515 90.671 35.801 95.036 35.801 C 100.691 35.801 105.275 40.355 105.275 45.972 C 105.275 50.311 102.539 54.016 98.688 55.477 Z M 97.347 45.861 L 97.347 42.931 L 97.637 42.931 C 97.965 42.931 98.204 42.958 98.356 43.011 C 98.507 43.063 98.65 43.16 98.785 43.302 C 98.92 43.444 99.171 43.788 99.537 44.334 L 100.57 45.861 L 102.278 45.861 L 101.414 44.492 C 101.074 43.946 100.802 43.566 100.601 43.352 C 100.4 43.139 100.145 42.942 99.837 42.764 C 100.458 42.674 100.924 42.458 101.236 42.115 C 101.548 41.772 101.704 41.337 101.704 40.811 C 101.704 40.396 101.601 40.028 101.395 39.705 C 101.19 39.383 100.915 39.159 100.573 39.033 C 100.23 38.906 99.681 38.844 98.925 38.844 L 95.919 38.844 L 95.919 45.861 L 97.347 45.861 Z M 97.347 40.03 L 98.462 40.03 C 99.041 40.03 99.388 40.039 99.504 40.054 C 99.735 40.093 99.915 40.185 100.042 40.33 C 100.169 40.475 100.232 40.666 100.232 40.902 C 100.232 41.112 100.184 41.288 100.088 41.428 C 99.991 41.569 99.858 41.667 99.687 41.725 C 99.516 41.782 99.089 41.811 98.403 41.811 L 97.347 41.811 L 97.347 40.03 Z" style="stroke: rgb(0, 0, 0); fill: rgb(240, 240, 240); stroke-width: 0px;"/>
  <path style="fill: rgb(51, 51, 51); white-space: pre;"/>
  <path style="fill: rgb(51, 51, 51); white-space: pre;"/>
  <path d="M 14.222 40.859 L 22.534 32.547 L 22.534 32.534 L 23.485 31.583 L 24.634 31.583 L 25.556 32.505 L 25.556 32.517 L 33.897 40.859 L 31.919 42.838 L 25.556 36.475 L 25.556 51.259 L 22.534 51.259 L 22.534 36.505 L 16.201 42.838 L 14.222 40.859 Z" style="stroke: rgb(0, 0, 0); stroke-width: 0px; fill: rgb(240, 240, 240);" transform="matrix(0, -1, 1, 0, -17.3615, 65.480499)"/>
  <path style="fill: rgb(51, 51, 51); white-space: pre;"/>
  <path d="M 26.229 141.885 L 34.541 133.573 L 34.541 133.561 L 35.492 132.61 L 36.641 132.61 L 37.563 133.531 L 37.563 133.544 L 45.904 141.885 L 43.925 143.864 L 37.563 137.502 L 37.563 152.286 L 34.541 152.286 L 34.541 137.531 L 28.208 143.864 L 26.229 141.885 Z" style="stroke: rgb(0, 0, 0); stroke-width: 0px; fill: rgb(240, 240, 240);"/>
  <path style="fill: rgb(51, 51, 51); white-space: pre;"/>
  <path d="M 69.182 90.429 L 77.495 82.117 L 77.495 82.104 L 78.446 81.154 L 79.595 81.154 L 80.517 82.075 L 80.517 82.087 L 88.858 90.429 L 86.879 92.408 L 80.517 86.045 L 80.517 100.829 L 77.495 100.829 L 77.495 86.075 L 71.162 92.408 L 69.182 90.429 Z" style="stroke: rgb(0, 0, 0); stroke-width: 0px; fill: rgb(240, 240, 240);" transform="matrix(0, 1, -1, 0, 170.011501, 11.9715)"/>
  <path style="fill: rgb(51, 51, 51); white-space: pre;"/>
  <path d="M 75.308 241.785 L 83.621 233.473 L 83.621 233.461 L 84.571 232.51 L 85.721 232.51 L 86.642 233.432 L 86.642 233.444 L 94.984 241.785 L 93.005 243.765 L 86.642 237.402 L 86.642 252.186 L 83.621 252.186 L 83.621 237.431 L 77.287 243.765 L 75.308 241.785 Z" style="stroke: rgb(0, 0, 0); stroke-width: 0px; fill: rgb(240, 240, 240);" transform="matrix(-1, 0, 0, -1, 170.292, 484.695999)"/>
  <path d="M 177.846 285.407 C 177.846 291.165 173.179 295.832 167.422 295.832 C 161.664 295.832 156.997 291.165 156.997 285.407 C 156.997 279.649 161.664 274.982 167.422 274.982 C 173.179 274.982 177.846 279.649 177.846 285.407 Z M 168.654 279.455 L 166.238 279.455 L 161.828 290.776 L 164.253 290.776 L 165.188 288.204 L 169.713 288.204 L 170.701 290.776 L 173.188 290.776 L 168.654 279.455 Z M 165.89 286.297 L 167.419 282.096 L 168.98 286.297 L 165.89 286.297 Z" style="stroke: rgb(0, 0, 0); fill: rgb(240, 240, 240); stroke-width: 0px;"/>
  <path d="M 192.552 478.403 C 192.552 484.16 187.884 488.828 182.127 488.828 C 176.37 488.828 171.703 484.16 171.703 478.403 C 171.703 472.645 176.37 467.978 182.127 467.978 C 187.884 467.978 192.552 472.645 192.552 478.403 Z M 177.583 483.627 L 181.582 483.627 C 183.094 483.617 184.048 483.595 184.443 483.556 C 185.073 483.495 185.603 483.331 186.033 483.063 C 186.464 482.795 186.803 482.438 187.051 481.99 C 187.3 481.543 187.424 481.083 187.424 480.609 C 187.424 480.009 187.231 479.485 186.847 479.04 C 186.462 478.595 185.912 478.28 185.196 478.096 C 185.703 477.893 186.105 477.587 186.401 477.18 C 186.698 476.773 186.847 476.326 186.847 475.838 C 186.847 475.389 186.727 474.983 186.486 474.62 C 186.246 474.258 185.945 473.969 185.584 473.751 C 185.224 473.533 184.815 473.39 184.359 473.321 C 183.902 473.254 183.209 473.218 182.279 473.218 L 177.583 473.218 L 177.583 483.627 Z M 181.318 474.951 C 182.434 474.951 183.109 474.962 183.345 474.987 C 183.74 475.029 184.038 475.151 184.238 475.352 C 184.439 475.553 184.538 475.815 184.538 476.136 C 184.538 476.473 184.423 476.744 184.19 476.949 C 183.958 477.155 183.639 477.28 183.233 477.323 C 183.008 477.346 182.434 477.358 181.51 477.358 L 179.955 477.358 L 179.955 474.951 L 181.318 474.951 Z M 181.87 479.09 C 182.949 479.09 183.651 479.14 183.974 479.239 C 184.297 479.339 184.544 479.497 184.715 479.715 C 184.886 479.933 184.972 480.198 184.972 480.51 C 184.972 480.879 184.861 481.174 184.639 481.394 C 184.417 481.615 184.13 481.753 183.778 481.81 C 183.548 481.852 183.005 481.873 182.151 481.873 L 179.955 481.873 L 179.955 479.09 L 181.87 479.09 Z" style="stroke: rgb(0, 0, 0); fill: rgb(240, 240, 240); stroke-width: 0px;"/>
  <path d="M 138.623 232.438 C 138.623 238.196 133.956 242.864 128.198 242.864 C 122.44 242.864 117.773 238.196 117.773 232.438 C 117.773 226.681 122.44 222.014 128.198 222.014 C 133.956 222.014 138.623 226.681 138.623 232.438 Z M 125.775 237.964 L 128.189 234.211 L 130.594 237.964 L 133.237 237.964 L 129.528 232.383 L 132.904 227.112 L 130.364 227.112 L 128.233 230.599 L 126.057 227.112 L 123.495 227.112 L 126.857 232.301 L 123.147 237.964 L 125.775 237.964 Z" style="stroke: rgb(0, 0, 0); fill: rgb(240, 240, 240); stroke-width: 0px;"/>
  <path d="M 142.517 415.308 C 142.517 421.065 137.849 425.733 132.092 425.733 C 126.335 425.733 121.668 421.065 121.668 415.308 C 121.668 409.551 126.335 404.884 132.092 404.884 C 137.849 404.884 142.517 409.551 142.517 415.308 Z M 133.18 421.077 L 133.18 416.522 L 137.183 410.217 L 134.651 410.217 L 132.14 414.514 L 129.578 410.217 L 127.002 410.217 L 130.989 416.506 L 130.989 421.077 L 133.18 421.077 Z" style="stroke: rgb(0, 0, 0); fill: rgb(240, 240, 240); stroke-width: 0px;"/>
  <path d="M 97.826 354.202 C 97.826 348.25 102.683 343.425 108.676 343.425 C 113.302 343.425 117.251 346.3 118.812 350.35 C 118.797 350.35 118.782 350.35 118.766 350.35 C 111.056 350.35 104.806 356.551 104.806 364.2 C 104.806 364.225 104.806 364.249 104.806 364.274 C 100.724 362.726 97.826 358.8 97.826 354.202 Z M 108.275 353.634 L 108.275 352.382 L 104.513 352.382 L 104.513 346.26 L 102.999 346.26 L 102.999 353.634 L 108.275 353.634 Z" style="stroke: rgb(0, 0, 0); fill: rgb(240, 240, 240); stroke-width: 0px;"/>
  <path d="M 123.429 481.076 C 123.429 481.051 123.429 481.027 123.429 481.003 C 123.429 473.353 117.179 467.152 109.469 467.152 C 109.454 467.152 109.439 467.152 109.423 467.152 C 110.984 463.102 114.934 460.227 119.56 460.227 C 125.552 460.227 130.409 465.052 130.409 471.004 C 130.409 475.603 127.511 479.528 123.429 481.076 Z M 122.009 470.887 L 122.009 467.782 L 122.316 467.782 C 122.663 467.782 122.917 467.811 123.078 467.866 C 123.238 467.922 123.389 468.025 123.532 468.176 C 123.676 468.326 123.941 468.691 124.33 469.268 L 125.424 470.887 L 127.234 470.887 L 126.319 469.436 C 125.958 468.858 125.67 468.455 125.457 468.229 C 125.244 468.002 124.974 467.794 124.647 467.605 C 125.305 467.51 125.799 467.281 126.129 466.918 C 126.46 466.554 126.625 466.093 126.625 465.536 C 126.625 465.096 126.516 464.705 126.299 464.364 C 126.08 464.022 125.789 463.785 125.427 463.651 C 125.063 463.517 124.481 463.451 123.681 463.451 L 120.496 463.451 L 120.496 470.887 L 122.009 470.887 Z M 122.009 464.708 L 123.19 464.708 C 123.804 464.708 124.172 464.717 124.294 464.734 C 124.54 464.775 124.73 464.872 124.864 465.026 C 124.999 465.179 125.066 465.382 125.066 465.632 C 125.066 465.855 125.015 466.041 124.913 466.19 C 124.811 466.339 124.669 466.443 124.489 466.504 C 124.307 466.565 123.854 466.595 123.128 466.595 L 122.009 466.595 L 122.009 464.708 Z" style="stroke: rgb(0, 0, 0); fill: rgb(240, 240, 240); stroke-width: 0px;"/>
  <path style="fill: rgb(51, 51, 51); white-space: pre;"/>
  <path style="fill: rgb(51, 51, 51); white-space: pre;"/>
  <path d="M 103.933 305.555 L 112.741 296.747 L 112.741 296.734 L 113.749 295.727 L 114.967 295.727 L 115.943 296.704 L 115.943 296.716 L 124.782 305.555 L 122.685 307.653 L 115.943 300.91 L 115.943 316.576 L 112.741 316.576 L 112.741 300.942 L 106.03 307.653 L 103.933 305.555 Z" style="stroke: rgb(0, 0, 0); stroke-width: 0px; fill: rgb(240, 240, 240);" transform="matrix(0, -1, 1, 0, -191.793991, 420.508987)"/>
  <path style="fill: rgb(51, 51, 51); white-space: pre;"/>
  <path d="M 163.394 343.801 L 172.202 334.993 L 172.202 334.98 L 173.209 333.973 L 174.427 333.973 L 175.404 334.949 L 175.404 334.962 L 184.243 343.801 L 182.146 345.899 L 175.404 339.157 L 175.404 354.822 L 172.202 354.822 L 172.202 339.188 L 165.491 345.899 L 163.394 343.801 Z" style="stroke: rgb(0, 0, 0); stroke-width: 0px; fill: rgb(240, 240, 240);"/>
  <path style="fill: rgb(51, 51, 51); white-space: pre;"/>
  <path d="M 100 440.066 L 108.808 431.258 L 108.808 431.245 L 109.816 430.237 L 111.034 430.237 L 112.01 431.214 L 112.01 431.227 L 120.849 440.066 L 118.753 442.163 L 112.01 435.421 L 112.01 451.087 L 108.808 451.087 L 108.808 435.452 L 102.097 442.163 L 100 440.066 Z" style="stroke: rgb(0, 0, 0); stroke-width: 0px; fill: rgb(240, 240, 240);" transform="matrix(0, 1, -1, 0, 551.086502, 330.237503)"/>
  <path style="fill: rgb(51, 51, 51); white-space: pre;"/>
  <path d="M 168.404 247.914 L 177.213 239.106 L 177.213 239.093 L 178.22 238.085 L 179.438 238.085 L 180.415 239.062 L 180.415 239.075 L 189.254 247.914 L 187.157 250.011 L 180.415 243.269 L 180.415 258.935 L 177.213 258.935 L 177.213 243.3 L 170.502 250.011 L 168.404 247.914 Z" style="stroke: rgb(0, 0, 0); stroke-width: 0px; fill: rgb(240, 240, 240);" transform="matrix(-1, 0, 0, -1, 357.658005, 497.020004)"/>
  <path d="M 193.505 168.27 C 193.505 173.483 189.279 177.708 184.067 177.708 C 178.854 177.708 174.629 173.483 174.629 168.27 C 174.629 163.057 178.854 158.832 184.067 158.832 C 189.279 158.832 193.505 163.057 193.505 168.27 Z M 185.183 162.881 L 182.995 162.881 L 179.002 173.131 L 181.197 173.131 L 182.044 170.802 L 186.14 170.802 L 187.036 173.131 L 189.287 173.131 L 185.183 162.881 Z M 182.68 169.075 L 184.064 165.273 L 185.476 169.075 L 182.68 169.075 Z" style="stroke: rgb(0, 0, 0); fill: rgb(240, 240, 240); stroke-width: 0px;"/>
  <path d="M 187.62 90.563 C 187.62 95.775 183.395 100 178.182 100 C 172.97 100 168.745 95.775 168.745 90.563 C 168.745 85.349 172.97 81.124 178.182 81.124 C 183.395 81.124 187.62 85.349 187.62 90.563 Z M 174.069 95.292 L 177.689 95.292 C 179.058 95.284 179.921 95.263 180.279 95.229 C 180.85 95.172 181.33 95.024 181.719 94.781 C 182.109 94.539 182.415 94.215 182.641 93.81 C 182.866 93.406 182.978 92.989 182.978 92.56 C 182.978 92.016 182.804 91.543 182.455 91.14 C 182.108 90.736 181.609 90.451 180.96 90.285 C 181.42 90.101 181.784 89.824 182.053 89.455 C 182.322 89.087 182.455 88.681 182.455 88.241 C 182.455 87.834 182.347 87.466 182.129 87.138 C 181.911 86.81 181.639 86.549 181.312 86.351 C 180.986 86.154 180.616 86.024 180.203 85.961 C 179.789 85.901 179.162 85.869 178.32 85.869 L 174.069 85.869 L 174.069 95.292 Z M 177.449 87.437 C 178.461 87.437 179.072 87.448 179.285 87.469 C 179.643 87.508 179.912 87.618 180.094 87.801 C 180.276 87.983 180.366 88.219 180.366 88.511 C 180.366 88.815 180.261 89.06 180.051 89.247 C 179.84 89.433 179.552 89.546 179.184 89.585 C 178.98 89.605 178.461 89.616 177.624 89.616 L 176.217 89.616 L 176.217 87.437 L 177.449 87.437 Z M 177.95 91.184 C 178.927 91.184 179.562 91.23 179.855 91.319 C 180.147 91.41 180.371 91.553 180.526 91.75 C 180.68 91.947 180.758 92.187 180.758 92.47 C 180.758 92.804 180.657 93.071 180.456 93.271 C 180.256 93.47 179.996 93.596 179.677 93.647 C 179.469 93.685 178.978 93.705 178.204 93.705 L 176.217 93.705 L 176.217 91.184 L 177.95 91.184 Z" style="stroke: rgb(0, 0, 0); fill: rgb(240, 240, 240); stroke-width: 0px;"/>
  <path d="M 185.24 395.94 C 185.24 401.152 181.015 405.377 175.802 405.377 C 170.589 405.377 166.364 401.152 166.364 395.94 C 166.364 390.726 170.589 386.502 175.802 386.502 C 181.015 386.502 185.24 390.726 185.24 395.94 Z M 173.609 400.942 L 175.793 397.545 L 177.971 400.942 L 180.364 400.942 L 177.006 395.889 L 180.062 391.117 L 177.763 391.117 L 175.833 394.274 L 173.863 391.117 L 171.544 391.117 L 174.588 395.816 L 171.229 400.942 L 173.609 400.942 Z" style="stroke: rgb(0, 0, 0); fill: rgb(240, 240, 240); stroke-width: 0px;"/>
  <path d="M 161.049 51.185 C 161.049 56.397 156.823 60.624 151.611 60.624 C 146.399 60.624 142.173 56.397 142.173 51.185 C 142.173 45.973 146.399 41.747 151.611 41.747 C 156.823 41.747 161.049 45.973 161.049 51.185 Z M 152.596 56.408 L 152.596 52.284 L 156.22 46.576 L 153.927 46.576 L 151.654 50.465 L 149.335 46.576 L 147.002 46.576 L 150.613 52.27 L 150.613 56.408 L 152.596 56.408 Z" style="stroke: rgb(0, 0, 0); fill: rgb(240, 240, 240); stroke-width: 0px;"/>
  <path d="M 108.129 88.336 C 108.129 82.946 112.526 78.578 117.952 78.578 C 122.14 78.578 125.716 81.181 127.129 84.847 C 127.115 84.847 127.102 84.847 127.087 84.847 C 120.106 84.847 114.449 90.461 114.449 97.387 C 114.449 97.41 114.449 97.431 114.449 97.454 C 110.753 96.052 108.129 92.499 108.129 88.336 Z M 117.588 87.821 L 117.588 86.686 L 114.183 86.686 L 114.183 81.144 L 112.812 81.144 L 112.812 87.821 L 117.588 87.821 Z" style="stroke: rgb(0, 0, 0); fill: rgb(240, 240, 240); stroke-width: 0px;"/>
  <path d="M 186.934 27.521 C 186.934 27.5 186.934 27.477 186.934 27.456 C 186.934 20.529 181.276 14.916 174.296 14.916 C 174.282 14.916 174.268 14.916 174.254 14.916 C 175.667 11.249 179.243 8.646 183.431 8.646 C 188.856 8.646 193.253 13.015 193.253 18.403 C 193.253 22.566 190.629 26.12 186.934 27.521 Z M 185.648 18.297 L 185.648 15.487 L 185.925 15.487 C 186.241 15.487 186.471 15.512 186.616 15.562 C 186.761 15.612 186.898 15.706 187.027 15.842 C 187.157 15.979 187.398 16.308 187.75 16.832 L 188.739 18.297 L 190.379 18.297 L 189.55 16.984 C 189.223 16.459 188.963 16.096 188.771 15.891 C 188.577 15.685 188.332 15.497 188.037 15.326 C 188.632 15.24 189.079 15.032 189.378 14.703 C 189.678 14.374 189.827 13.957 189.827 13.452 C 189.827 13.054 189.729 12.701 189.532 12.391 C 189.334 12.083 189.071 11.867 188.743 11.747 C 188.413 11.625 187.887 11.565 187.161 11.565 L 184.278 11.565 L 184.278 18.297 L 185.648 18.297 Z M 185.648 12.703 L 186.718 12.703 C 187.274 12.703 187.606 12.712 187.717 12.726 C 187.939 12.764 188.111 12.851 188.233 12.99 C 188.355 13.13 188.415 13.313 188.415 13.54 C 188.415 13.742 188.37 13.91 188.277 14.045 C 188.185 14.179 188.056 14.274 187.893 14.33 C 187.729 14.384 187.319 14.412 186.662 14.412 L 185.648 14.412 L 185.648 12.703 Z" style="stroke: rgb(0, 0, 0); fill: rgb(240, 240, 240); stroke-width: 0px;"/>
  <path d="M 165.14 141.142 L 173.114 133.168 L 173.114 133.156 L 174.026 132.244 L 175.129 132.244 L 176.013 133.129 L 176.013 133.14 L 184.015 141.142 L 182.116 143.041 L 176.013 136.937 L 176.013 151.121 L 173.114 151.121 L 173.114 136.965 L 167.038 143.041 L 165.14 141.142 Z" style="stroke: rgb(0, 0, 0); stroke-width: 0px; fill: rgb(240, 240, 240);" transform="matrix(0, -1, 1, 0, 32.894997, 316.260002)"/>
  <path d="M 117.421 18.74 L 125.395 10.766 L 125.395 10.754 L 126.307 9.842 L 127.41 9.842 L 128.294 10.726 L 128.294 10.738 L 136.296 18.74 L 134.398 20.64 L 128.294 14.535 L 128.294 28.718 L 125.395 28.718 L 125.395 14.564 L 119.319 20.64 L 117.421 18.74 Z" style="stroke: rgb(0, 0, 0); stroke-width: 0px; fill: rgb(240, 240, 240);"/>
  <path d="M 121.252 187.992 L 129.226 180.018 L 129.226 180.006 L 130.139 179.094 L 131.241 179.094 L 132.125 179.978 L 132.125 179.99 L 140.128 187.992 L 138.23 189.891 L 132.125 183.787 L 132.125 197.97 L 129.226 197.97 L 129.226 183.816 L 123.15 189.891 L 121.252 187.992 Z" style="stroke: rgb(0, 0, 0); stroke-width: 0px; fill: rgb(240, 240, 240);" transform="matrix(0, 1, -1, 0, 319.222, 57.841995)"/>
  <path d="M 118.196 123.512 L 126.17 115.538 L 126.17 115.526 L 127.082 114.614 L 128.185 114.614 L 129.069 115.499 L 129.069 115.51 L 137.071 123.512 L 135.173 125.412 L 129.069 119.307 L 129.069 133.491 L 126.17 133.491 L 126.17 119.335 L 120.095 125.412 L 118.196 123.512 Z" style="stroke: rgb(0, 0, 0); stroke-width: 0px; fill: rgb(240, 240, 240);" transform="matrix(-1, 0, 0, -1, 255.266998, 248.104996)"/>
  <path d="M 85.121 314.588 C 85.121 319.418 81.206 323.332 76.377 323.332 C 71.547 323.332 67.633 319.418 67.633 314.588 C 67.633 309.758 71.547 305.844 76.377 305.844 C 81.206 305.844 85.121 309.758 85.121 314.588 Z M 77.411 309.595 L 75.384 309.595 L 71.684 319.092 L 73.718 319.092 L 74.503 316.934 L 78.298 316.934 L 79.128 319.092 L 81.213 319.092 L 77.411 309.595 Z M 75.092 315.334 L 76.374 311.811 L 77.683 315.334 L 75.092 315.334 Z" style="stroke: rgb(0, 0, 0); fill: rgb(240, 240, 240); stroke-width: 0px;"/>
  <path d="M 52.437 380.579 C 52.437 385.408 48.523 389.323 43.693 389.323 C 38.863 389.323 34.949 385.408 34.949 380.579 C 34.949 375.749 38.863 371.835 43.693 371.835 C 48.523 371.835 52.437 375.749 52.437 380.579 Z M 41.661 385.214 L 43.685 382.066 L 45.703 385.214 L 47.92 385.214 L 44.809 380.532 L 47.64 376.111 L 45.51 376.111 L 43.722 379.036 L 41.897 376.111 L 39.748 376.111 L 42.568 380.464 L 39.456 385.214 L 41.661 385.214 Z" style="stroke: rgb(0, 0, 0); fill: rgb(240, 240, 240); stroke-width: 0px;"/>
  <path d="M 58.841 289.454 L 66.229 282.066 L 66.229 282.055 L 67.074 281.21 L 68.096 281.21 L 68.915 282.03 L 68.915 282.04 L 76.329 289.454 L 74.57 291.213 L 68.915 285.558 L 68.915 298.699 L 66.229 298.699 L 66.229 285.584 L 60.6 291.213 L 58.841 289.454 Z" style="stroke: rgb(0, 0, 0); stroke-width: 0px; fill: rgb(240, 240, 240);" transform="matrix(0, -1, 1, 0, -222.369497, 357.539499)"/>
  <path d="M 18.179 332.86 L 25.567 325.472 L 25.567 325.461 L 26.413 324.616 L 27.434 324.616 L 28.253 325.435 L 28.253 325.446 L 35.668 332.86 L 33.909 334.62 L 28.253 328.964 L 28.253 342.105 L 25.567 342.105 L 25.567 328.991 L 19.938 334.62 L 18.179 332.86 Z" style="stroke: rgb(0, 0, 0); stroke-width: 0px; fill: rgb(240, 240, 240);" transform="matrix(0, 1, -1, 0, 360.284004, 306.437004)"/>
  <path d="M 15.348 273.12 L 22.736 265.732 L 22.736 265.721 L 23.581 264.876 L 24.603 264.876 L 25.422 265.696 L 25.422 265.706 L 32.836 273.12 L 31.077 274.88 L 25.422 269.224 L 25.422 282.365 L 22.736 282.365 L 22.736 269.25 L 17.107 274.88 L 15.348 273.12 Z" style="stroke: rgb(0, 0, 0); stroke-width: 0px; fill: rgb(240, 240, 240);" transform="matrix(-1, 0, 0, -1, 48.183998, 547.240997)"/>
  <path d="M 23.365 473.44 C 23.365 467.905 27.882 463.418 33.456 463.418 C 37.758 463.418 41.431 466.091 42.882 469.858 C 42.868 469.858 42.854 469.858 42.84 469.858 C 35.669 469.858 29.857 475.625 29.857 482.738 C 29.857 482.761 29.857 482.784 29.857 482.807 C 26.061 481.367 23.365 477.716 23.365 473.44 Z M 33.083 472.912 L 33.083 471.748 L 29.584 471.748 L 29.584 466.054 L 28.176 466.054 L 28.176 472.912 L 33.083 472.912 Z" style="stroke: rgb(0, 0, 0); fill: rgb(240, 240, 240); stroke-width: 0px;"/>
  <path d="M 61.73 415.384 C 61.73 420.817 57.326 425.222 51.892 425.222 C 46.459 425.222 42.055 420.817 42.055 415.384 C 42.055 409.95 46.459 405.546 51.892 405.546 C 57.326 405.546 61.73 409.95 61.73 415.384 Z M 47.604 420.314 L 51.378 420.314 C 52.805 420.305 53.705 420.283 54.078 420.247 C 54.673 420.189 55.173 420.034 55.579 419.781 C 55.985 419.529 56.305 419.192 56.54 418.77 C 56.774 418.347 56.891 417.914 56.891 417.466 C 56.891 416.899 56.709 416.406 56.347 415.986 C 55.984 415.566 55.464 415.268 54.788 415.095 C 55.267 414.903 55.646 414.614 55.926 414.23 C 56.206 413.846 56.347 413.424 56.347 412.964 C 56.347 412.54 56.233 412.157 56.006 411.814 C 55.779 411.473 55.496 411.2 55.155 410.994 C 54.815 410.789 54.429 410.653 53.998 410.588 C 53.568 410.525 52.913 410.491 52.035 410.491 L 47.604 410.491 L 47.604 420.314 Z M 51.128 412.126 C 52.182 412.126 52.819 412.137 53.042 412.16 C 53.415 412.201 53.696 412.315 53.885 412.505 C 54.074 412.695 54.168 412.942 54.168 413.245 C 54.168 413.562 54.059 413.818 53.84 414.012 C 53.62 414.207 53.319 414.324 52.936 414.365 C 52.724 414.386 52.182 414.398 51.31 414.398 L 49.843 414.398 L 49.843 412.126 L 51.128 412.126 Z M 51.65 416.032 C 52.668 416.032 53.33 416.08 53.635 416.173 C 53.94 416.268 54.174 416.417 54.335 416.622 C 54.496 416.828 54.577 417.078 54.577 417.373 C 54.577 417.721 54.472 418 54.263 418.207 C 54.053 418.415 53.782 418.545 53.45 418.599 C 53.233 418.639 52.721 418.659 51.915 418.659 L 49.843 418.659 L 49.843 416.032 L 51.65 416.032 Z" style="stroke: rgb(0, 0, 0); fill: rgb(240, 240, 240); stroke-width: 0px;"/>
  <path d="M 80.226 467.632 C 80.226 467.608 80.226 467.586 80.226 467.562 C 80.226 460.343 74.327 454.491 67.051 454.491 C 67.037 454.491 67.023 454.491 67.008 454.491 C 68.481 450.67 72.209 447.956 76.574 447.956 C 82.229 447.956 86.813 452.51 86.813 458.127 C 86.813 462.466 84.077 466.171 80.226 467.632 Z M 78.885 458.016 L 78.885 455.086 L 79.175 455.086 C 79.503 455.086 79.742 455.113 79.894 455.166 C 80.045 455.218 80.188 455.315 80.323 455.457 C 80.458 455.599 80.709 455.943 81.075 456.489 L 82.108 458.016 L 83.816 458.016 L 82.952 456.647 C 82.612 456.101 82.34 455.721 82.139 455.507 C 81.938 455.294 81.683 455.097 81.375 454.919 C 81.996 454.829 82.462 454.613 82.774 454.27 C 83.086 453.927 83.242 453.492 83.242 452.966 C 83.242 452.551 83.139 452.183 82.933 451.86 C 82.728 451.538 82.453 451.314 82.111 451.188 C 81.768 451.061 81.219 450.999 80.463 450.999 L 77.457 450.999 L 77.457 458.016 L 78.885 458.016 Z M 78.885 452.185 L 80 452.185 C 80.579 452.185 80.926 452.194 81.042 452.209 C 81.273 452.248 81.453 452.34 81.58 452.485 C 81.707 452.63 81.77 452.821 81.77 453.057 C 81.77 453.267 81.722 453.443 81.626 453.583 C 81.529 453.724 81.396 453.822 81.225 453.88 C 81.054 453.937 80.627 453.966 79.941 453.966 L 78.885 453.966 L 78.885 452.185 Z" style="stroke: rgb(0, 0, 0); fill: rgb(240, 240, 240); stroke-width: 0px;"/>
  <path d="M 7.015 431.63 L 15.327 423.318 L 15.327 423.305 L 16.278 422.354 L 17.427 422.354 L 18.349 423.276 L 18.349 423.288 L 26.69 431.63 L 24.712 433.609 L 18.349 427.246 L 18.349 442.03 L 15.327 442.03 L 15.327 427.276 L 8.994 433.609 L 7.015 431.63 Z" style="stroke: rgb(0, 0, 0); stroke-width: 0px; fill: rgb(240, 240, 240);" transform="matrix(0, -1, 1, 0, -415.339501, 449.044502)"/>
</svg>