<?xml version="1.0" encoding="utf-8"?>
<svg viewBox="0 0 200 500" xmlns="http://www.w3.org/2000/svg">
  <path d="M 86.439 360.922 C 86.439 370.717 78.5 378.656 68.706 378.656 C 58.912 378.656 50.973 370.717 50.973 360.922 C 50.973 351.128 58.912 343.189 68.706 343.189 C 78.5 343.189 86.439 351.128 86.439 360.922 Z M 70.803 350.797 L 66.692 350.797 L 59.19 370.056 L 63.315 370.056 L 64.906 365.681 L 72.603 365.681 L 74.285 370.056 L 78.515 370.056 L 70.803 350.797 Z M 66.1 362.436 L 68.701 355.29 L 71.356 362.436 L 66.1 362.436 Z" style="stroke: rgb(0, 0, 0); fill: rgb(240, 240, 240); stroke-width: 0px;"/>
  <path d="M 124.263 44.367 C 124.263 54.16 116.324 62.1 106.53 62.1 C 96.736 62.1 88.797 54.16 88.797 44.367 C 88.797 34.572 96.736 26.633 106.53 26.633 C 116.324 26.633 124.263 34.572 124.263 44.367 Z M 98.8 53.253 L 105.603 53.253 C 108.175 53.237 109.797 53.198 110.469 53.133 C 111.542 53.028 112.443 52.749 113.175 52.293 C 113.907 51.838 114.484 51.23 114.907 50.469 C 115.329 49.708 115.54 48.926 115.54 48.12 C 115.54 47.098 115.213 46.208 114.559 45.451 C 113.905 44.694 112.968 44.158 111.75 43.845 C 112.613 43.499 113.297 42.979 113.801 42.287 C 114.306 41.594 114.559 40.833 114.559 40.004 C 114.559 39.24 114.355 38.549 113.945 37.932 C 113.536 37.316 113.025 36.824 112.411 36.453 C 111.798 36.083 111.103 35.839 110.326 35.722 C 109.55 35.607 108.37 35.547 106.788 35.547 L 98.8 35.547 L 98.8 53.253 Z M 105.153 38.494 C 107.052 38.494 108.201 38.514 108.602 38.555 C 109.274 38.628 109.781 38.835 110.121 39.177 C 110.463 39.519 110.632 39.964 110.632 40.511 C 110.632 41.083 110.435 41.544 110.04 41.894 C 109.644 42.244 109.102 42.456 108.411 42.529 C 108.029 42.568 107.052 42.589 105.48 42.589 L 102.836 42.589 L 102.836 38.494 L 105.153 38.494 Z M 106.093 45.535 C 107.929 45.535 109.122 45.621 109.672 45.789 C 110.221 45.959 110.642 46.228 110.933 46.598 C 111.223 46.969 111.369 47.42 111.369 47.951 C 111.369 48.579 111.18 49.081 110.803 49.455 C 110.425 49.83 109.937 50.065 109.338 50.162 C 108.947 50.234 108.024 50.27 106.57 50.27 L 102.836 50.27 L 102.836 45.535 L 106.093 45.535 Z" style="stroke: rgb(0, 0, 0); fill: rgb(240, 240, 240); stroke-width: 0px;"/>
  <path d="M 92.594 163.047 C 92.594 172.841 84.656 180.781 74.861 180.781 C 65.066 180.781 57.127 172.841 57.127 163.047 C 57.127 153.253 65.066 145.314 74.861 145.314 C 84.656 145.314 92.594 153.253 92.594 163.047 Z M 70.74 172.447 L 74.845 166.063 L 78.936 172.447 L 83.433 172.447 L 77.124 162.952 L 82.866 153.987 L 78.546 153.987 L 74.92 159.918 L 71.219 153.987 L 66.86 153.987 L 72.579 162.814 L 66.268 172.447 L 70.74 172.447 Z" style="stroke: rgb(0, 0, 0); fill: rgb(240, 240, 240); stroke-width: 0px;"/>
  <path d="M 148.246 282.266 C 148.246 292.059 140.306 300 130.512 300 C 120.719 300 112.779 292.059 112.779 282.266 C 112.779 272.472 120.719 264.533 130.512 264.533 C 140.306 264.533 148.246 272.472 148.246 282.266 Z M 132.363 292.079 L 132.363 284.33 L 139.173 273.606 L 134.865 273.606 L 130.594 280.914 L 126.236 273.606 L 121.853 273.606 L 128.636 284.304 L 128.636 292.079 L 132.363 292.079 Z" style="stroke: rgb(0, 0, 0); fill: rgb(240, 240, 240); stroke-width: 0px;"/>
  <path d="M 22.754 432.455 C 22.754 422.33 31.017 414.122 41.211 414.122 C 49.08 414.122 55.798 419.013 58.453 425.902 C 58.428 425.902 58.402 425.902 58.375 425.902 C 45.26 425.902 34.628 436.45 34.628 449.463 C 34.628 449.505 34.628 449.546 34.628 449.588 C 27.685 446.955 22.754 440.277 22.754 432.455 Z M 40.529 431.489 L 40.529 429.358 L 34.129 429.358 L 34.129 418.944 L 31.554 418.944 L 31.554 431.489 L 40.529 431.489 Z" style="stroke: rgb(0, 0, 0); fill: rgb(240, 240, 240); stroke-width: 0px;"/>
  <path d="M 177.89 100 C 177.89 99.958 177.89 99.917 177.89 99.875 C 177.89 86.862 167.258 76.314 154.143 76.314 C 154.117 76.314 154.091 76.314 154.065 76.314 C 156.72 69.425 163.439 64.534 171.308 64.534 C 181.501 64.534 189.764 72.742 189.764 82.867 C 189.764 90.689 184.833 97.367 177.89 100 Z M 175.474 82.667 L 175.474 77.386 L 175.996 77.386 C 176.587 77.386 177.019 77.434 177.292 77.529 C 177.564 77.623 177.822 77.799 178.065 78.055 C 178.309 78.311 178.761 78.931 179.422 79.914 L 181.283 82.667 L 184.362 82.667 L 182.805 80.199 C 182.191 79.215 181.702 78.531 181.34 78.145 C 180.977 77.76 180.518 77.406 179.962 77.084 C 181.081 76.923 181.921 76.533 182.483 75.915 C 183.046 75.297 183.327 74.513 183.327 73.564 C 183.327 72.816 183.141 72.152 182.771 71.571 C 182.4 70.99 181.905 70.586 181.288 70.359 C 180.67 70.131 179.68 70.018 178.318 70.018 L 172.9 70.018 L 172.9 82.667 L 175.474 82.667 Z M 175.474 72.157 L 177.483 72.157 C 178.527 72.157 179.153 72.172 179.361 72.2 C 179.779 72.27 180.102 72.435 180.331 72.697 C 180.56 72.958 180.674 73.302 180.674 73.728 C 180.674 74.107 180.588 74.424 180.414 74.677 C 180.24 74.93 179.999 75.108 179.692 75.212 C 179.384 75.315 178.613 75.367 177.378 75.367 L 175.474 75.367 L 175.474 72.157 Z" style="stroke: rgb(0, 0, 0); fill: rgb(240, 240, 240); stroke-width: 0px;"/>
  <path style="fill: rgb(51, 51, 51); white-space: pre;"/>
  <path style="fill: rgb(51, 51, 51); white-space: pre;"/>
  <path d="M 25.636 73.65 L 40.619 58.667 L 40.619 58.645 L 42.333 56.931 L 44.405 56.931 L 46.066 58.593 L 46.066 58.614 L 61.102 73.65 L 57.535 77.218 L 46.066 65.749 L 46.066 92.398 L 40.619 92.398 L 40.619 65.802 L 29.203 77.218 L 25.636 73.65 Z" style="stroke: rgb(0, 0, 0); stroke-width: 0px; fill: rgb(240, 240, 240);" transform="matrix(0, -1, 1, 0, -31.2955, 118.033503)"/>
  <path transform="matrix(1, 0, 0, 1, 249.416761, 61.018861)" style="fill: rgb(51, 51, 51); white-space: pre;"/>
  <path d="M 47.279 255.756 L 62.262 240.773 L 62.262 240.751 L 63.976 239.037 L 66.048 239.037 L 67.709 240.698 L 67.709 240.72 L 82.745 255.756 L 79.178 259.324 L 67.709 247.855 L 67.709 274.504 L 62.262 274.504 L 62.262 247.908 L 50.846 259.324 L 47.279 255.756 Z" style="stroke: rgb(0, 0, 0); stroke-width: 0px; fill: rgb(240, 240, 240);"/>
  <path transform="matrix(1, 0, 0, 1, 249.416754, 122.82914)" style="fill: rgb(51, 51, 51); white-space: pre;"/>
  <path d="M 124.705 163.003 L 139.689 148.02 L 139.689 147.998 L 141.403 146.284 L 143.475 146.284 L 145.136 147.945 L 145.136 147.967 L 160.172 163.003 L 156.605 166.571 L 145.136 155.102 L 145.136 181.751 L 139.689 181.751 L 139.689 155.155 L 128.273 166.571 L 124.705 163.003 Z" style="stroke: rgb(0, 0, 0); stroke-width: 0px; fill: rgb(240, 240, 240);" transform="matrix(0, 1, -1, 0, 306.456001, 21.579002)"/>
  <path transform="matrix(1, 0, 0, 1, 249.416754, 122.829132)" style="fill: rgb(51, 51, 51); white-space: pre;"/>
  <path d="M 135.747 435.832 L 150.731 420.849 L 150.731 420.827 L 152.445 419.113 L 154.517 419.113 L 156.178 420.775 L 156.178 420.796 L 171.214 435.832 L 167.647 439.4 L 156.178 427.931 L 156.178 454.58 L 150.731 454.58 L 150.731 427.984 L 139.315 439.4 L 135.747 435.832 Z" style="stroke: rgb(0, 0, 0); stroke-width: 0px; fill: rgb(240, 240, 240);" transform="matrix(-1, 0, 0, -1, 306.960999, 873.692993)"/>
</svg>