<?xml version="1.0" encoding="utf-8"?>
<svg viewBox="0 0 200 500" xmlns="http://www.w3.org/2000/svg">
  <path d="M 87.053 160.764 C 87.053 165.594 83.138 169.508 78.309 169.508 C 73.479 169.508 69.565 165.594 69.565 160.764 C 69.565 155.934 73.479 152.02 78.309 152.02 C 83.138 152.02 87.053 155.934 87.053 160.764 Z M 79.343 155.771 L 77.316 155.771 L 73.616 165.268 L 75.65 165.268 L 76.435 163.11 L 80.23 163.11 L 81.06 165.268 L 83.145 165.268 L 79.343 155.771 Z M 77.024 161.51 L 78.306 157.987 L 79.615 161.51 L 77.024 161.51 Z" style="stroke: rgb(0, 0, 0); fill: rgb(240, 240, 240); stroke-width: 0px;"/>
  <path d="M 93.071 95.491 C 93.071 100.32 89.157 104.235 84.327 104.235 C 79.498 104.235 75.583 100.32 75.583 95.491 C 75.583 90.661 79.498 86.746 84.327 86.746 C 89.157 86.746 93.071 90.661 93.071 95.491 Z M 80.516 99.873 L 83.87 99.873 C 85.138 99.865 85.938 99.846 86.27 99.814 C 86.799 99.762 87.243 99.624 87.604 99.399 C 87.965 99.175 88.249 98.875 88.458 98.5 C 88.666 98.125 88.77 97.739 88.77 97.342 C 88.77 96.838 88.609 96.399 88.286 96.026 C 87.964 95.652 87.502 95.388 86.901 95.234 C 87.327 95.063 87.664 94.807 87.913 94.465 C 88.162 94.124 88.286 93.748 88.286 93.34 C 88.286 92.963 88.186 92.622 87.984 92.318 C 87.782 92.014 87.53 91.772 87.227 91.589 C 86.925 91.406 86.582 91.286 86.199 91.228 C 85.816 91.172 85.235 91.142 84.455 91.142 L 80.516 91.142 L 80.516 99.873 Z M 83.648 92.595 C 84.585 92.595 85.151 92.605 85.349 92.625 C 85.68 92.661 85.93 92.763 86.098 92.932 C 86.267 93.101 86.35 93.32 86.35 93.59 C 86.35 93.872 86.253 94.099 86.058 94.272 C 85.863 94.444 85.596 94.549 85.255 94.585 C 85.066 94.604 84.585 94.614 83.81 94.614 L 82.506 94.614 L 82.506 92.595 L 83.648 92.595 Z M 84.112 96.067 C 85.017 96.067 85.605 96.109 85.877 96.192 C 86.147 96.276 86.355 96.409 86.498 96.591 C 86.641 96.774 86.713 96.996 86.713 97.258 C 86.713 97.568 86.62 97.815 86.434 98 C 86.248 98.185 86.007 98.301 85.712 98.349 C 85.519 98.384 85.064 98.402 84.347 98.402 L 82.506 98.402 L 82.506 96.067 L 84.112 96.067 Z" style="stroke: rgb(0, 0, 0); fill: rgb(240, 240, 240); stroke-width: 0px;"/>
  <path d="M 54.369 226.755 C 54.369 231.584 50.455 235.499 45.625 235.499 C 40.795 235.499 36.881 231.584 36.881 226.755 C 36.881 221.925 40.795 218.011 45.625 218.011 C 50.455 218.011 54.369 221.925 54.369 226.755 Z M 43.593 231.39 L 45.617 228.242 L 47.635 231.39 L 49.852 231.39 L 46.741 226.708 L 49.572 222.287 L 47.442 222.287 L 45.654 225.212 L 43.829 222.287 L 41.68 222.287 L 44.5 226.64 L 41.388 231.39 L 43.593 231.39 Z" style="stroke: rgb(0, 0, 0); fill: rgb(240, 240, 240); stroke-width: 0px;"/>
  <path d="M 56.983 52.285 C 56.983 57.114 53.068 61.03 48.239 61.03 C 43.41 61.03 39.495 57.114 39.495 52.285 C 39.495 47.456 43.41 43.541 48.239 43.541 C 53.068 43.541 56.983 47.456 56.983 52.285 Z M 49.151 57.124 L 49.151 53.303 L 52.509 48.015 L 50.385 48.015 L 48.279 51.618 L 46.13 48.015 L 43.969 48.015 L 47.314 53.29 L 47.314 57.124 L 49.151 57.124 Z" style="stroke: rgb(0, 0, 0); fill: rgb(240, 240, 240); stroke-width: 0px;"/>
  <path d="M 7.953 86.705 C 7.953 81.712 12.027 77.665 17.054 77.665 C 20.934 77.665 24.247 80.076 25.556 83.473 C 25.543 83.473 25.531 83.473 25.517 83.473 C 19.05 83.473 13.808 88.674 13.808 95.091 C 13.808 95.112 13.808 95.132 13.808 95.153 C 10.384 93.854 7.953 90.562 7.953 86.705 Z M 16.717 86.228 L 16.717 85.177 L 13.562 85.177 L 13.562 80.042 L 12.292 80.042 L 12.292 86.228 L 16.717 86.228 Z" style="stroke: rgb(0, 0, 0); fill: rgb(240, 240, 240); stroke-width: 0px;"/>
  <path d="M 80.965 30.361 C 80.965 30.341 80.965 30.32 80.965 30.3 C 80.965 23.883 75.723 18.682 69.256 18.682 C 69.243 18.682 69.23 18.682 69.217 18.682 C 70.527 15.285 73.84 12.873 77.72 12.873 C 82.746 12.873 86.82 16.921 86.82 21.913 C 86.82 25.77 84.389 29.063 80.965 30.361 Z M 79.774 21.815 L 79.774 19.211 L 80.031 19.211 C 80.323 19.211 80.536 19.234 80.671 19.281 C 80.805 19.327 80.932 19.414 81.052 19.54 C 81.172 19.667 81.395 19.972 81.721 20.457 L 82.638 21.815 L 84.157 21.815 L 83.389 20.598 C 83.086 20.112 82.845 19.775 82.667 19.585 C 82.488 19.395 82.261 19.22 81.987 19.062 C 82.539 18.982 82.953 18.79 83.23 18.485 C 83.508 18.18 83.646 17.794 83.646 17.326 C 83.646 16.957 83.555 16.63 83.372 16.343 C 83.189 16.057 82.945 15.857 82.641 15.746 C 82.336 15.633 81.848 15.577 81.176 15.577 L 78.505 15.577 L 78.505 21.815 L 79.774 21.815 Z M 79.774 16.632 L 80.765 16.632 C 81.28 16.632 81.588 16.64 81.691 16.653 C 81.897 16.688 82.056 16.769 82.169 16.898 C 82.282 17.027 82.338 17.197 82.338 17.407 C 82.338 17.594 82.296 17.75 82.21 17.875 C 82.124 17.999 82.005 18.087 81.854 18.139 C 81.702 18.189 81.322 18.215 80.713 18.215 L 79.774 18.215 L 79.774 16.632 Z" style="stroke: rgb(0, 0, 0); fill: rgb(240, 240, 240); stroke-width: 0px;"/>
  <path style="fill: rgb(51, 51, 51); white-space: pre;"/>
  <path style="fill: rgb(51, 51, 51); white-space: pre;"/>
  <path d="M 60.773 135.63 L 68.161 128.242 L 68.161 128.231 L 69.006 127.386 L 70.028 127.386 L 70.847 128.206 L 70.847 128.216 L 78.261 135.63 L 76.502 137.389 L 70.847 131.734 L 70.847 144.875 L 68.161 144.875 L 68.161 131.76 L 62.532 137.389 L 60.773 135.63 Z" style="stroke: rgb(0, 0, 0); stroke-width: 0px; fill: rgb(240, 240, 240);" transform="matrix(0, -1, 1, 0, -66.613501, 205.647501)"/>
  <path style="fill: rgb(51, 51, 51); white-space: pre;"/>
  <path d="M 16.562 22.225 L 23.95 14.837 L 23.95 14.826 L 24.795 13.981 L 25.817 13.981 L 26.636 14.8 L 26.636 14.811 L 34.05 22.225 L 32.291 23.985 L 26.636 18.329 L 26.636 31.47 L 23.95 31.47 L 23.95 18.356 L 18.32 23.985 L 16.562 22.225 Z" style="stroke: rgb(0, 0, 0); stroke-width: 0px; fill: rgb(240, 240, 240);"/>
  <path style="fill: rgb(51, 51, 51); white-space: pre;"/>
  <path d="M 20.111 179.036 L 27.499 171.648 L 27.499 171.637 L 28.345 170.792 L 29.366 170.792 L 30.185 171.611 L 30.185 171.622 L 37.6 179.036 L 35.841 180.796 L 30.185 175.14 L 30.185 188.281 L 27.499 188.281 L 27.499 175.167 L 21.87 180.796 L 20.111 179.036 Z" style="stroke: rgb(0, 0, 0); stroke-width: 0px; fill: rgb(240, 240, 240);" transform="matrix(0, 1, -1, 0, 208.392006, 150.681007)"/>
  <path style="fill: rgb(51, 51, 51); white-space: pre;"/>
  <path d="M 17.28 119.296 L 24.668 111.908 L 24.668 111.897 L 25.513 111.052 L 26.535 111.052 L 27.354 111.872 L 27.354 111.882 L 34.768 119.296 L 33.009 121.056 L 27.354 115.4 L 27.354 128.541 L 24.668 128.541 L 24.668 115.426 L 19.039 121.056 L 17.28 119.296 Z" style="stroke: rgb(0, 0, 0); stroke-width: 0px; fill: rgb(240, 240, 240);" transform="matrix(-1, 0, 0, -1, 52.048002, 239.593002)"/>
  <path d="M 174.749 80.435 C 174.749 85.79 170.408 90.13 165.054 90.13 C 159.699 90.13 155.359 85.79 155.359 80.435 C 155.359 75.08 159.699 70.74 165.054 70.74 C 170.408 70.74 174.749 75.08 174.749 80.435 Z M 166.2 74.9 L 163.953 74.9 L 159.852 85.428 L 162.107 85.428 L 162.977 83.036 L 167.185 83.036 L 168.104 85.428 L 170.417 85.428 L 166.2 74.9 Z M 163.63 81.263 L 165.052 77.356 L 166.503 81.263 L 163.63 81.263 Z" style="stroke: rgb(0, 0, 0); fill: rgb(240, 240, 240); stroke-width: 0px;"/>
  <path d="M 190.791 324.015 C 190.791 330.851 185.249 336.395 178.413 336.395 C 171.576 336.395 166.035 330.851 166.035 324.015 C 166.035 317.179 171.576 311.636 178.413 311.636 C 185.249 311.636 190.791 317.179 190.791 324.015 Z M 173.017 330.219 L 177.765 330.219 C 179.56 330.206 180.693 330.181 181.163 330.135 C 181.911 330.062 182.541 329.867 183.05 329.549 C 183.562 329.231 183.965 328.807 184.259 328.274 C 184.555 327.744 184.702 327.198 184.702 326.635 C 184.702 325.922 184.474 325.301 184.017 324.772 C 183.559 324.243 182.907 323.869 182.057 323.651 C 182.659 323.41 183.136 323.047 183.488 322.563 C 183.84 322.08 184.017 321.549 184.017 320.97 C 184.017 320.436 183.875 319.955 183.589 319.523 C 183.304 319.094 182.947 318.751 182.518 318.491 C 182.09 318.232 181.605 318.062 181.063 317.981 C 180.521 317.901 179.697 317.858 178.593 317.858 L 173.017 317.858 L 173.017 330.219 Z M 177.452 319.916 C 178.776 319.916 179.578 319.929 179.859 319.96 C 180.328 320.009 180.681 320.154 180.919 320.393 C 181.158 320.631 181.275 320.943 181.275 321.323 C 181.275 321.724 181.139 322.046 180.862 322.289 C 180.587 322.534 180.208 322.682 179.725 322.733 C 179.458 322.76 178.776 322.775 177.68 322.775 L 175.833 322.775 L 175.833 319.916 L 177.452 319.916 Z M 178.107 324.831 C 179.388 324.831 180.222 324.891 180.606 325.008 C 180.989 325.127 181.283 325.315 181.486 325.574 C 181.689 325.832 181.791 326.147 181.791 326.517 C 181.791 326.955 181.66 327.305 181.395 327.567 C 181.132 327.83 180.791 327.993 180.372 328.061 C 180.099 328.111 179.454 328.135 178.441 328.135 L 175.833 328.135 L 175.833 324.831 L 178.107 324.831 Z" style="stroke: rgb(0, 0, 0); fill: rgb(240, 240, 240); stroke-width: 0px;"/>
  <path d="M 138.271 31.174 C 138.271 36.529 133.931 40.87 128.576 40.87 C 123.221 40.87 118.881 36.529 118.881 31.174 C 118.881 25.82 123.221 21.48 128.576 21.48 C 133.931 21.48 138.271 25.82 138.271 31.174 Z M 126.323 36.313 L 128.568 32.823 L 130.804 36.313 L 133.262 36.313 L 129.813 31.123 L 132.953 26.221 L 130.591 26.221 L 128.609 29.464 L 126.585 26.221 L 124.202 26.221 L 127.329 31.047 L 123.879 36.313 L 126.323 36.313 Z" style="stroke: rgb(0, 0, 0); fill: rgb(240, 240, 240); stroke-width: 0px;"/>
  <path d="M 141.893 201.242 C 141.893 206.596 137.552 210.938 132.198 210.938 C 126.844 210.938 122.503 206.596 122.503 201.242 C 122.503 195.888 126.844 191.548 132.198 191.548 C 137.552 191.548 141.893 195.888 141.893 201.242 Z M 133.209 206.608 L 133.209 202.371 L 136.932 196.508 L 134.577 196.508 L 132.242 200.504 L 129.86 196.508 L 127.464 196.508 L 131.172 202.357 L 131.172 206.608 L 133.209 206.608 Z" style="stroke: rgb(0, 0, 0); fill: rgb(240, 240, 240); stroke-width: 0px;"/>
  <path d="M 100.33 144.414 C 100.33 138.879 104.847 134.392 110.421 134.392 C 114.723 134.392 118.396 137.065 119.847 140.832 C 119.833 140.832 119.819 140.832 119.805 140.832 C 112.634 140.832 106.822 146.599 106.822 153.712 C 106.822 153.735 106.822 153.758 106.822 153.781 C 103.026 152.341 100.33 148.69 100.33 144.414 Z M 110.048 143.886 L 110.048 142.722 L 106.549 142.722 L 106.549 137.028 L 105.141 137.028 L 105.141 143.886 L 110.048 143.886 Z" style="stroke: rgb(0, 0, 0); fill: rgb(240, 240, 240); stroke-width: 0px;"/>
  <path d="M 180.315 210.768 C 180.315 210.745 180.315 210.723 180.315 210.7 C 180.315 203.586 174.502 197.819 167.332 197.819 C 167.318 197.819 167.304 197.819 167.289 197.819 C 168.741 194.053 172.414 191.379 176.716 191.379 C 182.289 191.379 186.806 195.866 186.806 201.401 C 186.806 205.678 184.111 209.329 180.315 210.768 Z M 178.994 201.293 L 178.994 198.405 L 179.28 198.405 C 179.602 198.405 179.838 198.432 179.988 198.483 C 180.137 198.535 180.277 198.631 180.41 198.771 C 180.544 198.911 180.791 199.25 181.153 199.787 L 182.17 201.293 L 183.853 201.293 L 183.002 199.943 C 182.667 199.406 182.399 199.031 182.201 198.821 C 182.003 198.61 181.751 198.416 181.447 198.24 C 182.059 198.152 182.519 197.939 182.826 197.601 C 183.133 197.263 183.287 196.834 183.287 196.316 C 183.287 195.907 183.186 195.543 182.984 195.226 C 182.78 194.908 182.509 194.688 182.173 194.563 C 181.834 194.439 181.293 194.377 180.549 194.377 L 177.587 194.377 L 177.587 201.293 L 178.994 201.293 Z M 178.994 195.546 L 180.092 195.546 C 180.663 195.546 181.006 195.555 181.119 195.57 C 181.348 195.608 181.525 195.699 181.649 195.842 C 181.775 195.984 181.837 196.173 181.837 196.405 C 181.837 196.613 181.79 196.786 181.695 196.924 C 181.6 197.063 181.468 197.16 181.3 197.216 C 181.131 197.273 180.71 197.301 180.035 197.301 L 178.994 197.301 L 178.994 195.546 Z" style="stroke: rgb(0, 0, 0); fill: rgb(240, 240, 240); stroke-width: 0px;"/>
  <path style="fill: rgb(51, 51, 51); white-space: pre;"/>
  <path style="fill: rgb(51, 51, 51); white-space: pre;"/>
  <path d="M 106.011 99.173 L 114.202 90.981 L 114.202 90.969 L 115.14 90.033 L 116.272 90.033 L 117.18 90.941 L 117.18 90.952 L 125.4 99.173 L 123.45 101.124 L 117.18 94.853 L 117.18 109.422 L 114.202 109.422 L 114.202 94.883 L 107.961 101.124 L 106.011 99.173 Z" style="stroke: rgb(0, 0, 0); stroke-width: 0px; fill: rgb(240, 240, 240);" transform="matrix(0, -1, 1, 0, 15.978004, 215.432999)"/>
  <path style="fill: rgb(51, 51, 51); white-space: pre;"/>
  <path d="M 161.308 134.741 L 169.5 126.55 L 169.5 126.538 L 170.436 125.601 L 171.569 125.601 L 172.478 126.509 L 172.478 126.521 L 180.698 134.741 L 178.748 136.692 L 172.478 130.422 L 172.478 144.991 L 169.5 144.991 L 169.5 130.451 L 163.259 136.692 L 161.308 134.741 Z" style="stroke: rgb(0, 0, 0); stroke-width: 0px; fill: rgb(240, 240, 240);"/>
  <path style="fill: rgb(51, 51, 51); white-space: pre;"/>
  <path d="M 106.566 244.853 L 114.757 236.661 L 114.757 236.649 L 115.695 235.712 L 116.828 235.712 L 117.735 236.62 L 117.735 236.632 L 125.955 244.853 L 124.006 246.803 L 117.735 240.533 L 117.735 255.102 L 114.757 255.102 L 114.757 240.562 L 108.516 246.803 L 106.566 244.853 Z" style="stroke: rgb(0, 0, 0); stroke-width: 0px; fill: rgb(240, 240, 240);" transform="matrix(0, 1, -1, 0, 361.667507, 129.146503)"/>
  <path style="fill: rgb(51, 51, 51); white-space: pre;"/>
  <path d="M 165.968 45.567 L 174.16 37.375 L 174.16 37.363 L 175.096 36.426 L 176.229 36.426 L 177.138 37.335 L 177.138 37.347 L 185.358 45.567 L 183.408 47.517 L 177.138 41.247 L 177.138 55.816 L 174.16 55.816 L 174.16 41.276 L 167.919 47.517 L 165.968 45.567 Z" style="stroke: rgb(0, 0, 0); stroke-width: 0px; fill: rgb(240, 240, 240);" transform="matrix(-1, 0, 0, -1, 351.326004, 92.242001)"/>
  <path d="M 42.679 437.175 C 42.679 442.609 38.274 447.013 32.841 447.013 C 27.407 447.013 23.003 442.609 23.003 437.175 C 23.003 431.741 27.407 427.337 32.841 427.337 C 38.274 427.337 42.679 431.741 42.679 437.175 Z M 34.004 431.558 L 31.724 431.558 L 27.562 442.242 L 29.85 442.242 L 30.733 439.815 L 35.003 439.815 L 35.936 442.242 L 38.283 442.242 L 34.004 431.558 Z M 31.395 438.015 L 32.838 434.05 L 34.311 438.015 L 31.395 438.015 Z" style="stroke: rgb(0, 0, 0); fill: rgb(240, 240, 240); stroke-width: 0px;"/>
  <path d="M 63.662 261.56 C 63.662 266.993 59.258 271.398 53.824 271.398 C 48.391 271.398 43.987 266.993 43.987 261.56 C 43.987 256.126 48.391 251.722 53.824 251.722 C 59.258 251.722 63.662 256.126 63.662 261.56 Z M 49.536 266.49 L 53.31 266.49 C 54.737 266.481 55.637 266.459 56.01 266.423 C 56.605 266.365 57.105 266.21 57.511 265.957 C 57.917 265.705 58.237 265.368 58.472 264.946 C 58.706 264.523 58.823 264.09 58.823 263.642 C 58.823 263.075 58.641 262.582 58.279 262.162 C 57.916 261.742 57.396 261.444 56.72 261.271 C 57.199 261.079 57.578 260.79 57.858 260.406 C 58.138 260.022 58.279 259.6 58.279 259.14 C 58.279 258.716 58.165 258.333 57.938 257.99 C 57.711 257.649 57.428 257.376 57.087 257.17 C 56.747 256.965 56.361 256.829 55.93 256.764 C 55.5 256.701 54.845 256.667 53.967 256.667 L 49.536 256.667 L 49.536 266.49 Z M 53.06 258.302 C 54.114 258.302 54.751 258.313 54.974 258.336 C 55.347 258.377 55.628 258.491 55.817 258.681 C 56.006 258.871 56.1 259.118 56.1 259.421 C 56.1 259.738 55.991 259.994 55.772 260.188 C 55.552 260.383 55.251 260.5 54.868 260.541 C 54.656 260.562 54.114 260.574 53.242 260.574 L 51.775 260.574 L 51.775 258.302 L 53.06 258.302 Z M 53.582 262.208 C 54.6 262.208 55.262 262.256 55.567 262.349 C 55.872 262.444 56.106 262.593 56.267 262.798 C 56.428 263.004 56.509 263.254 56.509 263.549 C 56.509 263.897 56.404 264.176 56.195 264.383 C 55.985 264.591 55.714 264.721 55.382 264.775 C 55.165 264.815 54.653 264.835 53.847 264.835 L 51.775 264.835 L 51.775 262.208 L 53.582 262.208 Z" style="stroke: rgb(0, 0, 0); fill: rgb(240, 240, 240); stroke-width: 0px;"/>
  <path d="M 46.093 327.4 C 46.093 332.833 41.689 337.238 36.255 337.238 C 30.821 337.238 26.417 332.833 26.417 327.4 C 26.417 321.967 30.821 317.562 36.255 317.562 C 41.689 317.562 46.093 321.967 46.093 327.4 Z M 33.969 332.615 L 36.247 329.073 L 38.516 332.615 L 41.011 332.615 L 37.511 327.347 L 40.696 322.374 L 38.3 322.374 L 36.288 325.664 L 34.235 322.374 L 31.817 322.374 L 34.989 327.271 L 31.488 332.615 L 33.969 332.615 Z" style="stroke: rgb(0, 0, 0); fill: rgb(240, 240, 240); stroke-width: 0px;"/>
  <path d="M 76.967 393.539 C 76.967 398.972 72.562 403.377 67.129 403.377 C 61.696 403.377 57.291 398.972 57.291 393.539 C 57.291 388.105 61.696 383.701 67.129 383.701 C 72.562 383.701 76.967 388.105 76.967 393.539 Z M 68.156 398.983 L 68.156 394.684 L 71.934 388.735 L 69.544 388.735 L 67.174 392.789 L 64.757 388.735 L 62.325 388.735 L 66.088 394.669 L 66.088 398.983 L 68.156 398.983 Z" style="stroke: rgb(0, 0, 0); fill: rgb(240, 240, 240); stroke-width: 0px;"/>
  <path d="M 7.348 476.859 C 7.348 471.242 11.932 466.688 17.588 466.688 C 21.953 466.688 25.68 469.402 27.153 473.223 C 27.139 473.223 27.125 473.223 27.11 473.223 C 19.834 473.223 13.935 479.075 13.935 486.294 C 13.935 486.318 13.935 486.34 13.935 486.364 C 10.084 484.903 7.348 481.198 7.348 476.859 Z M 17.209 476.323 L 17.209 475.141 L 13.659 475.141 L 13.659 469.363 L 12.23 469.363 L 12.23 476.323 L 17.209 476.323 Z" style="stroke: rgb(0, 0, 0); fill: rgb(240, 240, 240); stroke-width: 0px;"/>
  <path d="M 93.413 292.424 C 93.413 292.4 93.413 292.378 93.413 292.354 C 93.413 285.135 87.514 279.283 80.238 279.283 C 80.224 279.283 80.21 279.283 80.195 279.283 C 81.668 275.462 85.396 272.748 89.761 272.748 C 95.416 272.748 100 277.302 100 282.919 C 100 287.258 97.264 290.963 93.413 292.424 Z M 92.072 282.808 L 92.072 279.878 L 92.362 279.878 C 92.69 279.878 92.929 279.905 93.081 279.958 C 93.232 280.01 93.375 280.107 93.51 280.249 C 93.645 280.391 93.896 280.735 94.262 281.281 L 95.295 282.808 L 97.003 282.808 L 96.139 281.439 C 95.799 280.893 95.527 280.513 95.326 280.299 C 95.125 280.086 94.87 279.889 94.562 279.711 C 95.183 279.621 95.649 279.405 95.961 279.062 C 96.273 278.719 96.429 278.284 96.429 277.758 C 96.429 277.343 96.326 276.975 96.12 276.652 C 95.915 276.33 95.64 276.106 95.298 275.98 C 94.955 275.853 94.406 275.791 93.65 275.791 L 90.644 275.791 L 90.644 282.808 L 92.072 282.808 Z M 92.072 276.977 L 93.187 276.977 C 93.766 276.977 94.113 276.986 94.229 277.001 C 94.46 277.04 94.64 277.132 94.767 277.277 C 94.894 277.422 94.957 277.613 94.957 277.849 C 94.957 278.059 94.909 278.235 94.813 278.375 C 94.716 278.516 94.583 278.614 94.412 278.672 C 94.241 278.729 93.814 278.758 93.128 278.758 L 92.072 278.758 L 92.072 276.977 Z" style="stroke: rgb(0, 0, 0); fill: rgb(240, 240, 240); stroke-width: 0px;"/>
  <path d="M 8.947 277.806 L 17.259 269.494 L 17.259 269.481 L 18.21 268.53 L 19.359 268.53 L 20.281 269.452 L 20.281 269.464 L 28.622 277.806 L 26.644 279.785 L 20.281 273.422 L 20.281 288.206 L 17.259 288.206 L 17.259 273.452 L 10.926 279.785 L 8.947 277.806 Z" style="stroke: rgb(0, 0, 0); stroke-width: 0px; fill: rgb(240, 240, 240);" transform="matrix(0, -1, 1, 0, -259.583496, 297.152496)"/>
  <path d="M 20.954 378.832 L 29.266 370.52 L 29.266 370.508 L 30.217 369.557 L 31.366 369.557 L 32.288 370.478 L 32.288 370.491 L 40.629 378.832 L 38.65 380.811 L 32.288 374.449 L 32.288 389.233 L 29.266 389.233 L 29.266 374.478 L 22.933 380.811 L 20.954 378.832 Z" style="stroke: rgb(0, 0, 0); stroke-width: 0px; fill: rgb(240, 240, 240);"/>
  <path d="M 63.907 327.376 L 72.22 319.064 L 72.22 319.051 L 73.171 318.101 L 74.32 318.101 L 75.242 319.022 L 75.242 319.034 L 83.583 327.376 L 81.604 329.355 L 75.242 322.992 L 75.242 337.776 L 72.22 337.776 L 72.22 323.022 L 65.887 329.355 L 63.907 327.376 Z" style="stroke: rgb(0, 0, 0); stroke-width: 0px; fill: rgb(240, 240, 240);" transform="matrix(0, 1, -1, 0, 401.683508, 254.193506)"/>
  <path d="M 70.033 478.732 L 78.346 470.42 L 78.346 470.408 L 79.296 469.457 L 80.446 469.457 L 81.367 470.379 L 81.367 470.391 L 89.709 478.732 L 87.73 480.712 L 81.367 474.349 L 81.367 489.133 L 78.346 489.133 L 78.346 474.378 L 72.012 480.712 L 70.033 478.732 Z" style="stroke: rgb(0, 0, 0); stroke-width: 0px; fill: rgb(240, 240, 240);" transform="matrix(-1, 0, 0, -1, 159.741997, 958.589996)"/>
  <path d="M 106.894 296.437 L 115.207 288.125 L 115.207 288.113 L 116.157 287.162 L 117.307 287.162 L 118.228 288.084 L 118.228 288.096 L 126.57 296.437 L 124.591 298.417 L 118.228 292.054 L 118.228 306.838 L 115.207 306.838 L 115.207 292.083 L 108.873 298.417 L 106.894 296.437 Z" style="stroke: rgb(0, 0, 0); stroke-width: 0px; fill: rgb(240, 240, 240);" transform="matrix(-1, 0, 0, -1, 233.463997, 594)"/>
  <path d="M 170.209 287.09 C 170.209 292.848 165.542 297.516 159.784 297.516 C 154.026 297.516 149.359 292.848 149.359 287.09 C 149.359 281.333 154.026 276.666 159.784 276.666 C 165.542 276.666 170.209 281.333 170.209 287.09 Z M 157.361 292.616 L 159.775 288.863 L 162.18 292.616 L 164.823 292.616 L 161.114 287.035 L 164.49 281.764 L 161.95 281.764 L 159.819 285.251 L 157.643 281.764 L 155.081 281.764 L 158.443 286.953 L 154.733 292.616 L 157.361 292.616 Z" style="stroke: rgb(0, 0, 0); fill: rgb(240, 240, 240); stroke-width: 0px;"/>
  <path d="M 174.103 469.96 C 174.103 475.717 169.435 480.385 163.678 480.385 C 157.921 480.385 153.254 475.717 153.254 469.96 C 153.254 464.203 157.921 459.536 163.678 459.536 C 169.435 459.536 174.103 464.203 174.103 469.96 Z M 164.766 475.729 L 164.766 471.174 L 168.769 464.869 L 166.237 464.869 L 163.726 469.166 L 161.164 464.869 L 158.588 464.869 L 162.575 471.158 L 162.575 475.729 L 164.766 475.729 Z" style="stroke: rgb(0, 0, 0); fill: rgb(240, 240, 240); stroke-width: 0px;"/>
  <path d="M 129.412 408.854 C 129.412 402.902 134.269 398.077 140.262 398.077 C 144.888 398.077 148.837 400.952 150.398 405.002 C 150.383 405.002 150.368 405.002 150.352 405.002 C 142.642 405.002 136.392 411.203 136.392 418.852 C 136.392 418.877 136.392 418.901 136.392 418.926 C 132.31 417.378 129.412 413.452 129.412 408.854 Z M 139.861 408.286 L 139.861 407.034 L 136.099 407.034 L 136.099 400.912 L 134.585 400.912 L 134.585 408.286 L 139.861 408.286 Z" style="stroke: rgb(0, 0, 0); fill: rgb(240, 240, 240); stroke-width: 0px;"/>
  <path d="M 135.519 360.207 L 144.327 351.399 L 144.327 351.386 L 145.335 350.379 L 146.553 350.379 L 147.529 351.356 L 147.529 351.368 L 156.368 360.207 L 154.271 362.305 L 147.529 355.562 L 147.529 371.228 L 144.327 371.228 L 144.327 355.594 L 137.616 362.305 L 135.519 360.207 Z" style="stroke: rgb(0, 0, 0); stroke-width: 0px; fill: rgb(240, 240, 240);" transform="matrix(0, -1, 1, 0, -214.860001, 506.746994)"/>
  <path d="M 105.325 440.694 L 114.133 431.886 L 114.133 431.873 L 115.141 430.865 L 116.359 430.865 L 117.335 431.842 L 117.335 431.855 L 126.174 440.694 L 124.078 442.791 L 117.335 436.049 L 117.335 451.715 L 114.133 451.715 L 114.133 436.08 L 107.422 442.791 L 105.325 440.694 Z" style="stroke: rgb(0, 0, 0); stroke-width: 0px; fill: rgb(240, 240, 240);" transform="matrix(0, 1, -1, 0, 557.039494, 325.540493)"/>
</svg>