<?xml version="1.0" encoding="utf-8"?>
<svg viewBox="0 0 200 500" xmlns="http://www.w3.org/2000/svg">
  <path d="M 176.543 326.029 C 176.543 335.824 168.604 343.763 158.81 343.763 C 149.016 343.763 141.077 335.824 141.077 326.029 C 141.077 316.235 149.016 308.296 158.81 308.296 C 168.604 308.296 176.543 316.235 176.543 326.029 Z M 160.907 315.904 L 156.796 315.904 L 149.294 335.163 L 153.419 335.163 L 155.01 330.788 L 162.707 330.788 L 164.389 335.163 L 168.619 335.163 L 160.907 315.904 Z M 156.204 327.543 L 158.805 320.397 L 161.46 327.543 L 156.204 327.543 Z" style="stroke: rgb(0, 0, 0); fill: rgb(240, 240, 240); stroke-width: 0px;"/>
  <path d="M 188.749 193.656 C 188.749 203.449 180.81 211.389 171.016 211.389 C 161.222 211.389 153.283 203.449 153.283 193.656 C 153.283 183.861 161.222 175.922 171.016 175.922 C 180.81 175.922 188.749 183.861 188.749 193.656 Z M 163.286 202.542 L 170.089 202.542 C 172.661 202.526 174.283 202.487 174.955 202.422 C 176.028 202.317 176.929 202.038 177.661 201.582 C 178.393 201.127 178.97 200.519 179.393 199.758 C 179.815 198.997 180.026 198.215 180.026 197.409 C 180.026 196.387 179.699 195.497 179.045 194.74 C 178.391 193.983 177.454 193.447 176.236 193.134 C 177.099 192.788 177.783 192.268 178.287 191.576 C 178.792 190.883 179.045 190.122 179.045 189.293 C 179.045 188.529 178.841 187.838 178.431 187.221 C 178.022 186.605 177.511 186.113 176.897 185.742 C 176.284 185.372 175.589 185.128 174.812 185.011 C 174.036 184.896 172.856 184.836 171.274 184.836 L 163.286 184.836 L 163.286 202.542 Z M 169.639 187.783 C 171.538 187.783 172.687 187.803 173.088 187.844 C 173.76 187.917 174.267 188.124 174.607 188.466 C 174.949 188.808 175.118 189.253 175.118 189.8 C 175.118 190.372 174.921 190.833 174.526 191.183 C 174.13 191.533 173.588 191.745 172.897 191.818 C 172.515 191.857 171.538 191.878 169.966 191.878 L 167.322 191.878 L 167.322 187.783 L 169.639 187.783 Z M 170.579 194.824 C 172.415 194.824 173.608 194.91 174.158 195.078 C 174.707 195.248 175.128 195.517 175.419 195.887 C 175.709 196.258 175.855 196.709 175.855 197.24 C 175.855 197.868 175.666 198.37 175.289 198.744 C 174.911 199.119 174.423 199.354 173.824 199.451 C 173.433 199.523 172.51 199.559 171.056 199.559 L 167.322 199.559 L 167.322 194.824 L 170.579 194.824 Z" style="stroke: rgb(0, 0, 0); fill: rgb(240, 240, 240); stroke-width: 0px;"/>
  <path d="M 110.261 459.859 C 110.261 469.653 102.323 477.593 92.528 477.593 C 82.733 477.593 74.794 469.653 74.794 459.859 C 74.794 450.065 82.733 442.126 92.528 442.126 C 102.323 442.126 110.261 450.065 110.261 459.859 Z M 88.407 469.259 L 92.512 462.875 L 96.603 469.259 L 101.1 469.259 L 94.791 459.764 L 100.533 450.799 L 96.213 450.799 L 92.587 456.73 L 88.886 450.799 L 84.527 450.799 L 90.246 459.626 L 83.935 469.259 L 88.407 469.259 Z" style="stroke: rgb(0, 0, 0); fill: rgb(240, 240, 240); stroke-width: 0px;"/>
  <path d="M 115.562 106.034 C 115.562 115.827 107.622 123.768 97.828 123.768 C 88.035 123.768 80.095 115.827 80.095 106.034 C 80.095 96.24 88.035 88.301 97.828 88.301 C 107.622 88.301 115.562 96.24 115.562 106.034 Z M 99.679 115.847 L 99.679 108.098 L 106.489 97.374 L 102.181 97.374 L 97.91 104.682 L 93.552 97.374 L 89.169 97.374 L 95.952 108.072 L 95.952 115.847 L 99.679 115.847 Z" style="stroke: rgb(0, 0, 0); fill: rgb(240, 240, 240); stroke-width: 0px;"/>
  <path d="M 16.128 175.837 C 16.128 165.712 24.391 157.504 34.585 157.504 C 42.454 157.504 49.172 162.395 51.827 169.284 C 51.802 169.284 51.776 169.284 51.749 169.284 C 38.634 169.284 28.002 179.832 28.002 192.845 C 28.002 192.887 28.002 192.928 28.002 192.97 C 21.059 190.337 16.128 183.659 16.128 175.837 Z M 33.903 174.871 L 33.903 172.74 L 27.503 172.74 L 27.503 162.326 L 24.928 162.326 L 24.928 174.871 L 33.903 174.871 Z" style="stroke: rgb(0, 0, 0); fill: rgb(240, 240, 240); stroke-width: 0px;"/>
  <path d="M 164.198 61.573 C 164.198 61.531 164.198 61.49 164.198 61.448 C 164.198 48.435 153.566 37.887 140.451 37.887 C 140.425 37.887 140.399 37.887 140.373 37.887 C 143.028 30.998 149.747 26.107 157.616 26.107 C 167.809 26.107 176.072 34.315 176.072 44.44 C 176.072 52.262 171.141 58.94 164.198 61.573 Z M 161.782 44.24 L 161.782 38.959 L 162.304 38.959 C 162.895 38.959 163.327 39.007 163.6 39.102 C 163.872 39.196 164.13 39.372 164.373 39.628 C 164.617 39.884 165.069 40.504 165.73 41.487 L 167.591 44.24 L 170.67 44.24 L 169.113 41.772 C 168.499 40.788 168.01 40.104 167.648 39.718 C 167.285 39.333 166.826 38.979 166.27 38.657 C 167.389 38.496 168.229 38.106 168.791 37.488 C 169.354 36.87 169.635 36.086 169.635 35.137 C 169.635 34.389 169.449 33.725 169.079 33.144 C 168.708 32.563 168.213 32.159 167.596 31.932 C 166.978 31.704 165.988 31.591 164.626 31.591 L 159.208 31.591 L 159.208 44.24 L 161.782 44.24 Z M 161.782 33.73 L 163.791 33.73 C 164.835 33.73 165.461 33.745 165.669 33.773 C 166.087 33.843 166.41 34.008 166.639 34.27 C 166.868 34.531 166.982 34.875 166.982 35.301 C 166.982 35.68 166.896 35.997 166.722 36.25 C 166.548 36.503 166.307 36.681 166 36.785 C 165.692 36.888 164.921 36.94 163.686 36.94 L 161.782 36.94 L 161.782 33.73 Z" style="stroke: rgb(0, 0, 0); fill: rgb(240, 240, 240); stroke-width: 0px;"/>
  <path style="fill: rgb(51, 51, 51); white-space: pre;"/>
  <path style="fill: rgb(51, 51, 51); white-space: pre;"/>
  <path d="M 123.248 275.058 L 138.231 260.075 L 138.231 260.053 L 139.945 258.339 L 142.017 258.339 L 143.678 260.001 L 143.678 260.022 L 158.714 275.058 L 155.147 278.626 L 143.678 267.157 L 143.678 293.806 L 138.231 293.806 L 138.231 267.21 L 126.815 278.626 L 123.248 275.058 Z" style="stroke: rgb(0, 0, 0); stroke-width: 0px; fill: rgb(240, 240, 240);" transform="matrix(0, -1, 1, 0, -135.091492, 417.053497)"/>
  <path transform="matrix(1, 0, 0, 1, 249.416761, 61.018861)" style="fill: rgb(51, 51, 51); white-space: pre;"/>
  <path d="M 33.587 45.073 L 48.57 30.09 L 48.57 30.068 L 50.284 28.354 L 52.356 28.354 L 54.017 30.015 L 54.017 30.037 L 69.053 45.073 L 65.486 48.641 L 54.017 37.172 L 54.017 63.821 L 48.57 63.821 L 48.57 37.225 L 37.154 48.641 L 33.587 45.073 Z" style="stroke: rgb(0, 0, 0); stroke-width: 0px; fill: rgb(240, 240, 240);"/>
  <path transform="matrix(1, 0, 0, 1, 249.416754, 122.82914)" style="fill: rgb(51, 51, 51); white-space: pre;"/>
  <path d="M 40.785 363.086 L 55.769 348.103 L 55.769 348.081 L 57.483 346.367 L 59.555 346.367 L 61.216 348.028 L 61.216 348.05 L 76.252 363.086 L 72.685 366.654 L 61.216 355.185 L 61.216 381.834 L 55.769 381.834 L 55.769 355.238 L 44.353 366.654 L 40.785 363.086 Z" style="stroke: rgb(0, 0, 0); stroke-width: 0px; fill: rgb(240, 240, 240);" transform="matrix(0, 1, -1, 0, 422.619009, 305.58201)"/>
  <path transform="matrix(1, 0, 0, 1, 249.416754, 122.829132)" style="fill: rgb(51, 51, 51); white-space: pre;"/>
  <path d="M 35.043 241.933 L 50.027 226.95 L 50.027 226.928 L 51.741 225.214 L 53.813 225.214 L 55.474 226.876 L 55.474 226.897 L 70.51 241.933 L 66.943 245.501 L 55.474 234.032 L 55.474 260.681 L 50.027 260.681 L 50.027 234.085 L 38.611 245.501 L 35.043 241.933 Z" style="stroke: rgb(0, 0, 0); stroke-width: 0px; fill: rgb(240, 240, 240);" transform="matrix(-1, 0, 0, -1, 105.553001, 485.895004)"/>
</svg>