<?xml version="1.0" encoding="utf-8"?>
<svg viewBox="0 0 200 500" xmlns="http://www.w3.org/2000/svg">
  <path d="M 0 12.287 L 200 12.287 L 200 15.663 L 0 15.663 Z M 0 24.48 L 200 24.48 L 200 27.856 L 0 27.856 Z M 0 36.485 L 200 36.485 L 200 39.861 L 0 39.861 Z M 0 49.147 L 200 49.147 L 200 52.523 L 0 52.523 Z M 0 61.34 L 200 61.34 L 200 64.716 L 0 64.716 Z M 0 73.345 L 200 73.345 L 200 76.721 L 0 76.721 Z M 0 87.367 L 200 87.367 L 200 90.743 L 0 90.743 Z M 0 0 L 200 0 L 200 3.376 L 0 3.376 Z M 0 112.287 L 200 112.287 L 200 115.663 L 0 115.663 Z M 0 124.48 L 200 124.48 L 200 127.856 L 0 127.856 Z M 0 136.485 L 200 136.485 L 200 139.861 L 0 139.861 Z M 0 149.147 L 200 149.147 L 200 152.523 L 0 152.523 Z M 0 161.34 L 200 161.34 L 200 164.716 L 0 164.716 Z M 0 173.345 L 200 173.345 L 200 176.721 L 0 176.721 Z M 0 187.367 L 200 187.367 L 200 190.743 L 0 190.743 Z M 0 100 L 200 100 L 200 103.376 L 0 103.376 Z M 0 212.287 L 200 212.287 L 200 215.663 L 0 215.663 Z M 0 224.48 L 200 224.48 L 200 227.856 L 0 227.856 Z M 0 236.485 L 200 236.485 L 200 239.861 L 0 239.861 Z M 0 249.147 L 200 249.147 L 200 252.523 L 0 252.523 Z M 0 261.34 L 200 261.34 L 200 264.716 L 0 264.716 Z M 0 273.345 L 200 273.345 L 200 276.721 L 0 276.721 Z M 0 287.367 L 200 287.367 L 200 290.743 L 0 290.743 Z M 0 200 L 200 200 L 200 203.376 L 0 203.376 Z M 0 312.287 L 200 312.287 L 200 315.663 L 0 315.663 Z M 0 324.48 L 200 324.48 L 200 327.856 L 0 327.856 Z M 0 336.485 L 200 336.485 L 200 339.861 L 0 339.861 Z M 0 349.147 L 200 349.147 L 200 352.523 L 0 352.523 Z M 0 361.34 L 200 361.34 L 200 364.716 L 0 364.716 Z M 0 373.345 L 200 373.345 L 200 376.721 L 0 376.721 Z M 0 387.367 L 200 387.367 L 200 390.743 L 0 390.743 Z M 0 300 L 200 300 L 200 303.376 L 0 303.376 Z M 0 412.287 L 200 412.287 L 200 415.663 L 0 415.663 Z M 0 424.48 L 200 424.48 L 200 427.856 L 0 427.856 Z M 0 436.485 L 200 436.485 L 200 439.861 L 0 439.861 Z M 0 449.147 L 200 449.147 L 200 452.523 L 0 452.523 Z M 0 461.34 L 200 461.34 L 200 464.716 L 0 464.716 Z M 0 473.345 L 200 473.345 L 200 476.721 L 0 476.721 Z M 0 487.367 L 200 487.367 L 200 490.743 L 0 490.743 Z M 0 400 L 200 400 L 200 403.376 L 0 403.376 Z" style="stroke: rgb(0, 0, 0); stroke-width: 0px; fill: rgb(240, 240, 240);"/>
</svg>