<?xml version="1.0" encoding="utf-8"?>
<svg viewBox="0 0 200 500" xmlns="http://www.w3.org/2000/svg">
  <path d="M 0 112.158 L 200 312.416 L 200 315.793 L 0 115.535 Z M 0 124.351 L 200 324.609 L 200 327.985 L 0 127.728 Z M 0 136.356 L 200 336.613 L 200 339.99 L 0 139.732 Z M 0 149.018 L 200 349.276 L 200 352.652 L 0 152.395 Z M 0 161.211 L 200 361.469 L 200 364.845 L 0 164.587 Z M 0 173.215 L 200 373.473 L 200 376.85 L 0 176.592 Z M 0 187.238 L 200 387.496 L 200 390.872 L 0 190.614 Z M 0 99.871 L 200 300.129 L 200 303.505 L 0 103.247 Z M 200 200.129 L 200 203.505 L 0 3.247 L 0 0 L 0.129 0 Z M 0 87.238 L 200 287.496 L 200 290.872 L 0 90.614 Z M 0 73.215 L 200 273.473 L 200 276.85 L 0 76.592 Z M 0 61.211 L 200 261.469 L 200 264.845 L 0 64.587 Z M 0 49.018 L 200 249.276 L 200 252.652 L 0 52.395 Z M 0 36.356 L 200 236.613 L 200 239.99 L 0 39.732 Z M 0 24.351 L 200 224.609 L 200 227.985 L 0 27.728 Z M 0 12.158 L 200 212.416 L 200 215.793 L 0 15.535 Z M 200 100.129 L 200 103.505 L 96.628 0 L 100 0 Z M 200 187.496 L 200 190.872 L 9.373 0 L 12.746 0 Z M 200 173.473 L 200 176.85 L 23.378 0 L 26.75 0 Z M 200 161.469 L 200 164.845 L 35.367 0 L 38.739 0 Z M 200 149.276 L 200 152.653 L 47.544 0 L 50.916 0 Z M 200 136.614 L 200 139.99 L 60.19 0 L 63.562 0 Z M 200 124.609 L 200 127.986 L 72.179 0 L 75.552 0 Z M 200 112.416 L 200 115.793 L 84.356 0 L 87.728 0 Z M 200 77.155 L 122.57 -0.129 L 125.942 -0.129 L 200 73.779 Z M 134.746 -0.129 L 138.119 -0.129 L 200 61.586 L 200 64.963 Z M 146.736 -0.129 L 150.108 -0.129 L 200 49.582 L 200 52.958 Z M 159.382 -0.129 L 162.754 -0.129 L 200 36.919 L 200 40.296 Z M 171.559 -0.129 L 174.931 -0.129 L 200 24.726 L 200 28.103 Z M 183.548 -0.129 L 186.92 -0.129 L 200 12.722 L 200 16.098 Z M 110.298 -0.129 L 113.67 -0.129 L 200 86.066 L 200 89.443 Z M 0 212.158 L 200 412.416 L 200 415.792 L 0 215.535 Z M 0 224.351 L 200 424.609 L 200 427.985 L 0 227.727 Z M 0 236.355 L 200 436.613 L 200 439.99 L 0 239.732 Z M 0 249.018 L 200 449.276 L 200 452.652 L 0 252.394 Z M 0 261.211 L 200 461.468 L 200 464.845 L 0 264.587 Z M 0 199.871 L 200 400.128 L 200 403.505 L 0 203.247 Z M 62.09 500.129 L 60.19 500.129 L 0 439.861 L 0 436.485 L 63.433 500 L 62.09 500 Z M 0 273.217 L 200 473.474 L 200 476.851 L 0 276.593 Z M 0 287.238 L 200 487.495 L 200 490.872 L 0 290.614 Z M 0 312.158 L 187.6 500 L 184.228 500 L 0 315.535 Z M 175.423 500 L 172.051 500 L 0 327.727 L 0 324.351 Z M 163.433 500 L 160.061 500 L 0 339.733 L 0 336.357 Z M 150.788 500 L 147.416 500 L 0 352.394 L 0 349.018 Z M 138.611 500 L 135.239 500 L 0 364.587 L 0 361.211 Z M 126.62 500 L 123.248 500 L 0 376.593 L 0 373.217 Z M 112.617 500 L 109.245 500 L 0 390.614 L 0 387.238 Z M 99.871 500 L 96.499 500 L 0 403.377 L 0 400 Z M 87.599 500 L 84.227 500 L 0 415.664 L 0 412.288 Z M 75.423 500 L 72.05 500 L 0 427.857 L 0 424.48 Z M 199.872 500 L 196.5 500 L 0 303.247 L 0 299.871 Z M 50.916 500.129 L 47.544 500.129 L 0 452.524 L 0 449.147 Z M 38.739 500.129 L 35.367 500.129 L 0 464.717 L 0 461.34 Z M 26.75 500.129 L 23.378 500.129 L 0 476.721 L 0 473.345 Z M 12.746 500.129 L 9.373 500.129 L 0 490.744 L 0 487.367 Z M 0.129 500.129 L 0 500.129 L 0 500 Z" style="stroke: rgb(0, 0, 0); stroke-width: 0px; fill: rgb(240, 240, 240);"/>
</svg>