<?xml version="1.0" encoding="utf-8"?>
<svg viewBox="0 0 200 500" xmlns="http://www.w3.org/2000/svg">
  <path d="M 0 387.842 L 200 187.584 L 200 184.207 L 0 384.465 L 0 387.842 Z M 0 375.649 L 200 175.391 L 200 172.015 L 0 372.272 L 0 375.649 Z M 0 363.644 L 200 163.387 L 200 160.01 L 0 360.268 L 0 363.644 Z M 0 350.982 L 200 150.724 L 200 147.348 L 0 347.605 L 0 350.982 Z M 0 338.789 L 200 138.531 L 200 135.155 L 0 335.413 L 0 338.789 Z M 0 326.785 L 200 126.527 L 200 123.15 L 0 323.408 L 0 326.785 Z M 0 312.762 L 200 112.504 L 200 109.128 L 0 309.386 L 0 312.762 Z M 0 400.129 L 200 199.871 L 200 196.495 L 0 396.753 L 0 400.129 Z M 200 299.871 L 200 296.495 L 0 496.753 L 0 500 L 0.129 500 L 200 299.871 Z M 0 412.762 L 200 212.504 L 200 209.128 L 0 409.386 L 0 412.762 Z M 0 426.785 L 200 226.527 L 200 223.15 L 0 423.408 L 0 426.785 Z M 0 438.789 L 200 238.531 L 200 235.155 L 0 435.413 L 0 438.789 Z M 0 450.982 L 200 250.724 L 200 247.348 L 0 447.605 L 0 450.982 Z M 0 463.644 L 200 263.387 L 200 260.01 L 0 460.268 L 0 463.644 Z M 0 475.649 L 200 275.391 L 200 272.015 L 0 472.272 L 0 475.649 Z M 0 487.842 L 200 287.584 L 200 284.207 L 0 484.465 L 0 487.842 Z M 200 399.871 L 200 396.495 L 96.628 500 L 100 500 L 200 399.871 Z M 200 312.504 L 200 309.128 L 9.373 500 L 12.746 500 L 200 312.504 Z M 200 326.527 L 200 323.15 L 23.378 500 L 26.75 500 L 200 326.527 Z M 200 338.531 L 200 335.155 L 35.367 500 L 38.739 500 L 200 338.531 Z M 200 350.724 L 200 347.347 L 47.544 500 L 50.916 500 L 200 350.724 Z M 200 363.386 L 200 360.01 L 60.19 500 L 63.562 500 L 200 363.386 Z M 200 375.391 L 200 372.014 L 72.179 500 L 75.552 500 L 200 375.391 Z M 200 387.584 L 200 384.207 L 84.356 500 L 87.728 500 L 200 387.584 Z M 200 422.845 L 122.57 500.129 L 125.942 500.129 L 200 426.221 L 200 422.845 Z M 134.746 500.129 L 138.119 500.129 L 200 438.414 L 200 435.037 L 134.746 500.129 Z M 146.736 500.129 L 150.108 500.129 L 200 450.418 L 200 447.042 L 146.736 500.129 Z M 159.382 500.129 L 162.754 500.129 L 200 463.081 L 200 459.704 L 159.382 500.129 Z M 171.559 500.129 L 174.931 500.129 L 200 475.274 L 200 471.897 L 171.559 500.129 Z M 183.548 500.129 L 186.92 500.129 L 200 487.278 L 200 483.902 L 183.548 500.129 Z M 110.298 500.129 L 113.67 500.129 L 200 413.934 L 200 410.557 L 110.298 500.129 Z M 0 287.842 L 200 87.584 L 200 84.208 L 0 284.465 L 0 287.842 Z M 0 275.649 L 200 75.391 L 200 72.015 L 0 272.273 L 0 275.649 Z M 0 263.645 L 200 63.387 L 200 60.01 L 0 260.268 L 0 263.645 Z M 0 250.982 L 200 50.724 L 200 47.348 L 0 247.606 L 0 250.982 Z M 0 238.789 L 200 38.532 L 200 35.155 L 0 235.413 L 0 238.789 Z M 0 300.129 L 200 99.872 L 200 96.495 L 0 296.753 L 0 300.129 Z M 62.09 -0.129 L 60.19 -0.129 L 0 60.139 L 0 63.515 L 63.433 0 L 62.09 0 L 62.09 -0.129 Z M 0 226.783 L 200 26.526 L 200 23.149 L 0 223.407 L 0 226.783 Z M 0 212.762 L 200 12.505 L 200 9.128 L 0 209.386 L 0 212.762 Z M 0 187.842 L 187.6 0 L 184.228 0 L 0 184.465 L 0 187.842 Z M 175.423 0 L 172.051 0 L 0 172.273 L 0 175.649 L 175.423 0 Z M 163.433 0 L 160.061 0 L 0 160.267 L 0 163.643 L 163.433 0 Z M 150.788 0 L 147.416 0 L 0 147.606 L 0 150.982 L 150.788 0 Z M 138.611 0 L 135.239 0 L 0 135.413 L 0 138.789 L 138.611 0 Z M 126.62 0 L 123.248 0 L 0 123.407 L 0 126.783 L 126.62 0 Z M 112.617 0 L 109.245 0 L 0 109.386 L 0 112.762 L 112.617 0 Z M 99.871 0 L 96.499 0 L 0 96.623 L 0 100 L 99.871 0 Z M 87.599 0 L 84.227 0 L 0 84.336 L 0 87.712 L 87.599 0 Z M 75.423 0 L 72.05 0 L 0 72.143 L 0 75.52 L 75.423 0 Z M 199.872 0 L 196.5 0 L 0 196.753 L 0 200.129 L 199.872 0 Z M 50.916 -0.129 L 47.544 -0.129 L 0 47.476 L 0 50.853 L 50.916 -0.129 Z M 38.739 -0.129 L 35.367 -0.129 L 0 35.283 L 0 38.66 L 38.739 -0.129 Z M 26.75 -0.129 L 23.378 -0.129 L 0 23.279 L 0 26.655 L 26.75 -0.129 Z M 12.746 -0.129 L 9.373 -0.129 L 0 9.256 L 0 12.633 L 12.746 -0.129 Z M 0.129 -0.129 L 0 -0.129 L 0 0 L 0.129 -0.129 Z" style="stroke: rgb(0, 0, 0); stroke-width: 0px; fill: rgb(240, 240, 240);" transform="matrix(-1, 0, 0, -1, 200, 499.999996)"/>
</svg>