<?xml version="1.0" encoding="UTF-8" standalone="no"?>
<svg
   xmlns:dc="http://purl.org/dc/elements/1.1/"
   xmlns:cc="http://creativecommons.org/ns#"
   xmlns:rdf="http://www.w3.org/1999/02/22-rdf-syntax-ns#"
   xmlns:svg="http://www.w3.org/2000/svg"
   xmlns="http://www.w3.org/2000/svg"
   xmlns:xlink="http://www.w3.org/1999/xlink"
   xmlns:sodipodi="http://sodipodi.sourceforge.net/DTD/sodipodi-0.dtd"
   xmlns:inkscape="http://www.inkscape.org/namespaces/inkscape"
   inkscape:version="1.0 (4035a4fb49, 2020-05-01)"
   sodipodi:docname="DDoc_formula_-_D(x).svg"
   id="svg236"
   version="1.1"
   width="167.50514mm"
   height="97.829155mm"
   viewBox="0 0 167.50514 97.829157">
  <metadata
     id="metadata240">
    <rdf:RDF>
      <cc:Work
         rdf:about="">
        <dc:format>image/svg+xml</dc:format>
        <dc:type
           rdf:resource="http://purl.org/dc/dcmitype/StillImage" />
      </cc:Work>
    </rdf:RDF>
  </metadata>
  <sodipodi:namedview
     inkscape:current-layer="svg236"
     inkscape:window-maximized="1"
     inkscape:window-y="-9"
     inkscape:window-x="-9"
     inkscape:cy="184.87399"
     inkscape:cx="316.54515"
     inkscape:zoom="1.8430007"
     showgrid="false"
     id="namedview238"
     inkscape:window-height="1001"
     inkscape:window-width="1920"
     inkscape:pageshadow="2"
     inkscape:pageopacity="0"
     guidetolerance="10"
     gridtolerance="10"
     objecttolerance="10"
     borderopacity="1"
     bordercolor="#666666"
     pagecolor="#ffffff" />
  <defs
     id="defs62">
    <path
       id="C"
       d="M8.89855 24.7871v-.9915c-2.55306 0-2.55306-1.2146-2.55306-1.9582V.991482H17.0287V21.8374c0 .7436 0 1.9582-2.5531 1.9582v.9915h7.5105v-.9915c-2.5531 0-2.5531-1.2146-2.5531-1.9582V2.94966c0-.74361 0-1.958178 2.5531-1.958178V0H1.38807v.991482c2.55307 0 2.55307 1.214568 2.55307 1.958178V21.8374c0 .7436 0 1.9582-2.55307 1.9582v.9915z" />
    <path
       id="a"
       d="M4.02919.0826501c0-1.1984301-.39259-2.0869101-1.23975-2.0869101-.6612 0-.9918.53722-.9918.9918S2.10758 0 2.8101 0c.26862 0 .4959-.0826501.68187-.268613.04132-.041325.06198-.041325.08265-.041325.04132 0 .04132.2892755.04132.3925881 0 .6818629-.12397 2.0249299-1.3224 3.3679899-.22729.24795-.22729.28928-.22729.3306 0 .10331.10331.20663.20663.20663.1653 0 1.75631-1.52903 1.75631-3.9052199z" />
    <path
       id="D"
       d="M6.21942-2.45884c-.10331.35126-.10331.39259-.39259.78518-.45457.57855-1.36373 1.467035-2.33486 1.467035-.84717 0-1.32241-.764513-1.32241-1.983605 0-1.13644.64054-3.45064 1.03313-4.31846.70253-1.44638 1.67366-2.19023 2.4795-2.19023 1.36373 0 1.63234 1.69433 1.63234 1.85963 0 .02066-.06199.28927-.08265.3306zm1.3224-5.28961c-.22729-.53722-.78518-1.36372-1.85963-1.36372-2.33486 0-4.855689 3.01673-4.855689 6.07478C.826501-.991801 2.02493.206625 3.42998.206625c1.13644 0 2.10758-.888488 2.68613-1.570355C6.32273-.144638 7.29387.206625 7.91375.206625S9.02952-.1653 9.40145-.909151c.3306-.702529.61985-1.962939.61985-2.045589 0-.10331-.08263-.18596-.2066-.18596-.18597 0-.20663.10331-.28928.41325C9.21548-1.50836 8.8229-.206625 7.97573-.206625c-.59921 0-.64054-.537226-.64054-.950475 0-.47524.06199-.70253.24796-1.50837.14463-.51656.24795-.97113.41325-1.57035.76451-3.09937.95047-3.84323.95047-3.9672 0-.28928-.22729-.51656-.53722-.51656-.6612 0-.8265.72318-.86783.97113z" />
    <path
       id="b"
       d="M9.21548-8.30633c.41325 0 .57855 0 .57855-.39259 0-.20663-.1653-.20663-.53722-.20663H7.58315c.39258-2.12825.68186-3.59525.84716-4.25645.12397-.4959.55789-.9712 1.09511-.9712.43392 0 .86778.186 1.07448.372-.80587.0826-1.05382.6818-1.05382 1.0331 0 .4132.30994.6612.70252.6612.4133 0 1.0331-.3513 1.0331-1.1365 0-.8678-.8678-1.343-1.77694-1.343-.88849 0-1.75631.6612-2.16957 1.467-.37192.7232-.57855 1.4671-1.05378 4.17385H4.89702c-.39259 0-.59922 0-.59922.37193 0 .22729.12398.22729.53723.22729h1.3224C5.78551-6.38472 4.93834-1.71499 4.4631.495901 4.11184 2.29354 3.8019 3.8019 2.76878 3.8019c-.06199 0-.6612 0-1.03313-.39258 1.05379-.08265 1.05379-.99181 1.05379-1.01247 0-.41325-.30994-.6612-.70253-.6612-.41325 0-1.03312.35126-1.03312 1.13644 0 .88849.90915 1.34306 1.71499 1.34306 2.10757 0 2.9754-3.781237 3.20269-4.814363.37192-1.591017 1.38439-7.087247 1.4877-7.707117z" />
    <path
       id="t"
       d="M4.25648-6.05412c.04132-.12397.55789-1.1571 1.3224-1.8183.53723-.4959 1.23975-.8265 2.04559-.8265.8265 0 1.11578.61987 1.11578 1.44638 0 1.17776-.84717 3.53329-1.26042 4.64906-.18596.4959-.28927.76452-.28927 1.13644 0 .929814.64054 1.673665 1.63234 1.673665 1.9216 0 2.6448-3.037395 2.6448-3.161365 0-.10331-.0827-.18596-.2066-.18596-.186 0-.2067.06198-.31.41325-.4752 1.69432-1.26038 2.520825-2.06622 2.520825-.20662 0-.53722-.020663-.53722-.681863 0-.516562.22729-1.136442.35126-1.425712C9.11217-3.45064 9.98-5.76484 9.98-6.94261c0-1.23975-.72319-2.16956-2.29354-2.16956-1.83897 0-2.81011 1.30174-3.18203 1.8183-.06199-1.17776-.90915-1.8183-1.8183-1.8183-.6612 0-1.11578.39259-1.46704 1.09511-.371927.74385-.661202 1.9836-.661202 2.06625 0 .08265.08265.18597.227288.18597.1653 0 .185962-.02067.309934-.4959.3306-1.26042.70253-2.43818 1.52903-2.43818.47524 0 .64054.3306.64054.95047 0 .45458-.20663 1.26042-.35126 1.90096l-.57856 2.23155c-.08265.39259-.30993 1.3224-.41325 1.69433-.14463.53722-.37192 1.50836-.37192 1.611672 0 .2892755.22729.516563.53722.516563.24795 0 .53723-.1239749.70253-.433913.04133-.103312.22729-.826502.3306-1.239752l.45458-1.85963z" />
    <path
       id="c"
       d="M.888488 2.62414c-.144637.61988-.227287.78518-1.074451.78518-.24795 0-.454575 0-.454575.39258 0 .04133.020662.20663.24795.20663.268613 0 .557888-.04133.826501-.04133H1.3224c.43391 0 1.4877.04133 1.92162.04133.12397 0 .37192 0 .37192-.37193 0-.22728-.14464-.22728-.4959-.22728-.95048 0-1.01246-.14464-1.01246-.30994 0-.24795.92981-3.801906 1.05379-4.27714.22728.578547.78517 1.384385 1.85962 1.384385 2.33487 0 4.8557-3.037395 4.8557-6.074785 0-1.90095-1.07446-3.24401-2.62415-3.24401-1.3224 0-2.43817 1.28107-2.66546 1.57035-.1653-1.03313-.97114-1.57035-1.79764-1.57035-.59921 0-1.07445.28927-1.46704 1.07445-.371924.74385-.661199 2.00426-.661199 2.08691 0 .08265.08265.18597.227287.18597.165302 0 .185962-.02067.309942-.4959.30993-1.21909.70252-2.43818 1.52902-2.43818.47524 0 .64054.3306.64054.95047 0 .49591-.06199.70253-.14464 1.07446zM4.4631-6.44671c.14464-.57855.72319-1.17776 1.05379-1.46704.22729-.20662.90915-.78517 1.69433-.78517.90915 0 1.3224.90915 1.3224 1.9836 0 .9918-.57855 3.32667-1.09511 4.40112C6.92194-1.19843 5.97147-.206625 5.02099-.206625c-1.40505 0-1.63234-1.776975-1.63234-1.859625 0-.06199.04133-.22729.06199-.3306z" />
    <path
       id="d"
       d="M9.11217-8.90555c0-.10331-.08265-.18596-.18596-.18596-.1653 0-.97114.74385-1.36373 1.46704-.37192-.92981-1.01246-1.4877-1.90095-1.4877-2.33486 0-4.855692 3.01673-4.855692 6.07478C.805838-.991801 2.00426.206625 3.40932.206625c1.09511 0 2.00426-.826501 2.43817-1.301735l.02067.02066-.78518 3.09938-.18596.74385c-.18597.61987-.4959.61987-1.46704.64054-.22729 0-.43391 0-.43391.39258 0 .14464.12397.20663.26861.20663.28927 0 .6612-.04133.95047-.04133h2.10758c.30994 0 .6612.04133.97114.04133.12398 0 .37193 0 .37193-.39259 0-.20662-.1653-.20662-.47524-.20662-.97114 0-1.03313-.14464-1.03313-.30994 0-.10331.02066-.12398.08265-.39259zM6.19876-2.45884c-.10332.35126-.10332.39259-.39259.78518-.45458.57855-1.36373 1.467035-2.33487 1.467035-.84716 0-1.3224-.764513-1.3224-1.983605 0-1.13644.64054-3.45064 1.03313-4.31846.70252-1.44638 1.67366-2.19023 2.4795-2.19023 1.36373 0 1.63234 1.69433 1.63234 1.85963 0 .02066-.06199.28927-.08265.3306z" />
    <path
       id="e"
       d="M9.79403-8.43031c-.6612.12398-.90915.61988-.90915 1.01246 0 .49591.39259.66121.68187.66121.61985 0 1.05375-.53723 1.05375-1.09512 0-.86782-.99177-1.26041-1.85959-1.26041-1.26041 0-1.96294 1.23975-2.1489 1.63234-.47524-1.54969-1.75632-1.63234-2.12824-1.63234-2.10758 0-3.22336 2.70679-3.22336 3.16136 0 .08265.08265.18597.22729.18597.1653 0 .20663-.12398.24795-.20663.70253-2.29354 2.08692-2.72745 2.68613-2.72745.92981 0 1.11578.86782 1.11578 1.36373 0 .45457-.12398.92981-.37193 1.92161L4.4631-2.58282C4.15317-1.34306 3.55395-.206625 2.45884-.206625c-.10331 0-.61988 0-1.05379-.268613.74385-.144638.90915-.764512.90915-1.012462 0-.41325-.30994-.6612-.70252-.6612-.4959 0-1.033129.43391-1.033129 1.09511 0 .867827.971139 1.260415 1.859629 1.260415.9918 0 1.69432-.785176 2.12824-1.632335C4.89702-.206625 5.93014.206625 6.69466.206625c2.10757 0 3.22335-2.706795 3.22335-3.161365 0-.10331-.08265-.18596-.20663-.18596-.18596 0-.20662.10331-.26861.26861-.55789 1.8183-1.75631 2.665465-2.68613 2.665465-.72318 0-1.11577-.537226-1.11577-1.384385 0-.45458.08265-.78518.41325-2.14891l.72319-2.8101c.30993-1.23975 1.01246-2.1489 1.96294-2.1489.04132 0 .61987 0 1.05378.26861z" />
    <path
       id="f"
       d="M6.32273 5.04166c0-.02067 0-.06199-.06199-.12398-.95047-.97114-3.49196-3.61594-3.49196-10.06265 0-6.44671 2.50016-9.07083 3.51263-10.10393 0-.0207.04132-.062.04132-.124s-.06199-.1033-.14464-.1033c-.22728 0-1.9836 1.529-2.99606 3.8019-1.03313 2.29352-1.3224 4.52507-1.3224 6.50867 0 1.4877.14463 4.00853 1.38439 6.67399.9918 2.14891 2.68612 3.65727 2.93407 3.65727.10332 0 .14464-.04132.14464-.12397z" />
    <path
       id="g"
       d="M5.43424-5.14497c0-1.4877-.14463-4.00853-1.38439-6.67403-.9918-2.1489-2.68612-3.6572-2.93407-3.6572-.06199 0-.144642.0206-.144642.1239 0 .0414.020663.062.041322.1034.9918 1.0331 3.51263 3.6572 3.51263 10.08327 0 6.44671-2.50016 9.07085-3.51263 10.10397-.020659.04133-.041322.06199-.041322.10332 0 .10331.082652.12397.144642.12397.22728 0 1.9836-1.52903 2.99606-3.8019 1.03313-2.293543 1.3224-4.5251 1.3224-6.5087z" />
    <path
       id="y"
       d="M5.49623-13.2034c0-.4339-.02066-.4545-.30994-.4545-.80584.9711-2.02492 1.281-3.18203 1.3224-.06198 0-.1653 0-.18596.0413-.02066.0413-.02066.0827-.02066.5166.64054 0 1.71499-.124 2.54149-.6199v10.88914c0 .723184-.04133.971134-1.8183.971134h-.61988V0c.9918-.0206625 2.02493-.041325 3.01673-.041325S6.94261-.0206625 7.93441 0v-.537226h-.61988c-1.77697 0-1.8183-.227287-1.8183-.971134z" />
    <path
       id="h"
       d="M13.286-6.63267c.3099 0 .6199 0 .6199-.35126 0-.37193-.3513-.37193-.7025-.37193H1.653c-.35126 0-.702524 0-.702524.37193 0 .35126.309934.35126.619874.35126zm-.0826 3.67793c.3512 0 .7025 0 .7025-.37193 0-.35126-.31-.35126-.6199-.35126H1.57035c-.30994 0-.619874 0-.619874.35126 0 .37193.351264.37193.702524.37193z" />
    <path
       id="i"
       d="M13.6166-4.75238c.3513 0 .7232 0 .7232-.41325s-.3719-.41325-.7232-.41325H2.43818c-.35127 0-.72319 0-.72319.41325s.37192.41325.72319.41325z" />
    <path
       id="M"
       d="M4.83348.0991482c0-1.4376482-.47096-2.5034882-1.48723-2.5034882-.79318 0-1.18978.64446-1.18978 1.18977S2.52828 0 3.37104 0c.32223 0 .59489-.0991482.81797-.322232.04958-.049574.07436-.049574.09915-.049574.04957 0 .04957.3470189.04957.4709542 0 .8179728-.14872 2.4291318-1.58637 4.0402918-.27265.29744-.27265.34702-.27265.39659 0 .12394.12393.24787.24787.24787.19829 0 2.1069-1.83424 2.1069-4.6847518z" />
    <path
       id="F"
       d="M11.055-9.9644c.4958 0 .6941 0 .6941-.4709 0-.2479-.1983-.2479-.6445-.2479H9.09685c.47095-2.5531.81797-4.313 1.01625-5.1062.1487-.5948.6693-1.1649 1.3137-1.1649.5206 0 1.0411.223 1.289.4461-.9667.0992-1.2642.818-1.2642 1.2394 0 .4957.3718.7932.8428.7932.4957 0 1.2393-.4214 1.2393-1.3633 0-1.0411-1.041-1.6112-2.1317-1.6112-1.0658 0-2.10685.7932-2.6026 1.7599-.44616.8675-.69403 1.7599-1.26414 5.007H5.87453c-.47095 0-.71882 0-.71882.4461 0 .2727.14872.2727.64446.2727h1.58637C6.94037-7.6592 5.92411-2.05733 5.354.594889 4.93262 2.75136 4.56082 4.56082 3.32147 4.56082c-.07437 0-.79319 0-1.23936-.47096 1.26414-.09914 1.26414-1.18977 1.26414-1.21456 0-.49574-.3718-.79319-.84276-.79319-.49574 0-1.23935.42138-1.23935 1.36329 0 1.06584 1.09063 1.61116 2.05733 1.61116 2.52827 0 3.56933-4.536032 3.84199-5.775385C7.60963-2.62743 8.82419-9.22078 8.94813-9.9644Z" />
    <path
       id="L"
       d="M10.9311-10.6832c0-.124-.0992-.2231-.2231-.2231-.1983 0-1.16498.8923-1.63594 1.75988-.44617-1.11538-1.21456-1.78468-2.28041-1.78468-2.80093 0-5.824955 3.61892-5.824955 7.2874 0 2.45392 1.437645 3.891571 3.123165 3.891571 1.31372 0 2.40435-.991483 2.92488-1.561581l.02478.02478-.9419 3.71806-.22309.89234c-.22308.74361-.59489.74361-1.75988.76839-.27266 0-.52053 0-.52053.47096 0 .17351.14873.24787.32223.24787.34702 0 .79319-.04958 1.14021-.04958h2.52828c.3718 0 .79318.04958 1.16499.04958.14872 0 .44617 0 .44617-.47096 0-.24787-.1983-.24787-.57011-.24787-1.16499 0-1.23935-.17351-1.23935-.3718 0-.12394.02479-.14872.09915-.47096zM7.43612-2.94966c-.12394.42138-.12394.47095-.47096.94191-.54531.69404-1.63594 1.759879-2.80094 1.759879-1.01626 0-1.58637-.917119-1.58637-2.379559 0-1.36329.7684-4.13944 1.23936-5.18049.84276-1.7351 2.00775-2.62738 2.97444-2.62738 1.63595 0 1.95818 2.03249 1.95818 2.23079 0 .02478-.07436.34701-.09915.39659z" />
    <path
       id="I"
       d="M11.7491-10.1131c-.7932.1487-1.0907.74359-1.0907 1.21455 0 .59489.471.79318.818.79318.7436 0 1.2641-.64446 1.2641-1.31371 0-1.04102-1.1897-1.51202-2.2308-1.51202-1.512 0-2.35476 1.48723-2.57784 1.95819-.57011-1.85899-2.1069-1.95819-2.55307-1.95819-2.52828 0-3.86678 3.24711-3.86678 3.79243 0 .09915.09915.22308.27266.22308.19829 0 .24787-.14872.29744-.24787.84276-2.75136 2.50349-3.27184 3.22232-3.27184 1.11542 0 1.3385 1.04101 1.3385 1.6359 0 .54531-.14872 1.11541-.44617 2.30519L5.354-3.09838C4.9822-1.61116 4.26337-.247871 2.94966-.247871c-.12394 0-.74361 0-1.26414-.322231.89233-.17351 1.09063-.917118 1.09063-1.214568 0-.49574-.37181-.79318-.84276-.79318-.59489 0-1.239353.52052-1.239353 1.31371C.694037-.223083 1.85903.247871 2.92487.247871c1.18978 0 2.03254-.941908 2.55307-1.958181C5.87453-.247871 7.11388.247871 8.03101.247871c2.52829 0 3.86679-3.247101 3.86679-3.792421 0-.12393-.0992-.22308-.2479-.22308-.2231 0-.2479.12393-.3222.32223-.6693 2.18126-2.10692 3.197529-3.22233 3.197529-.86755 0-1.3385-.644463-1.3385-1.660729 0-.54532.09914-.94191.49574-2.57786l.86754-3.37104c.37181-1.48722 1.21457-2.5778 2.35475-2.5778.0496 0 .7436 0 1.2642.3222z" />
    <path
       id="j"
       d="M6.32273 5.04166c0-.02067 0-.06199-.06199-.12398-.95047-.97114-3.49196-3.61594-3.49196-10.06265 0-6.44671 2.50016-9.07083 3.51263-10.10393 0-.0207.04132-.062.04132-.124s-.06199-.1033-.14464-.1033c-.22728 0-1.9836 1.529-2.99606 3.8019-1.03313 2.29352-1.3224 4.52507-1.3224 6.50867 0 1.4877.14463 4.00853 1.38439 6.67399.9918 2.14891 2.68612 3.65727 2.93407 3.65727.10332 0 .14464-.04132.14464-.12397z" />
    <path
       id="k"
       d="M5.43424-5.14497c0-1.4877-.14463-4.00853-1.38439-6.67403-.9918-2.1489-2.68612-3.6572-2.93407-3.6572-.06199 0-.144642.0206-.144642.1239 0 .0414.020663.062.041322.1034.9918 1.0331 3.51263 3.6572 3.51263 10.08327 0 6.44671-2.50016 9.07085-3.51263 10.10397-.020659.04133-.041322.06199-.041322.10332 0 .10331.082652.12397.144642.12397.22728 0 1.9836-1.52903 2.99606-3.8019 1.03313-2.293543 1.3224-4.5251 1.3224-6.5087z" />
    <path
       id="G"
       d="M5.49623-13.2034c0-.4339-.02066-.4545-.30994-.4545-.80584.9711-2.02492 1.281-3.18203 1.3224-.06198 0-.1653 0-.18596.0413-.02066.0413-.02066.0827-.02066.5166.64054 0 1.71499-.124 2.54149-.6199v10.88914c0 .723184-.04133.971134-1.8183.971134h-.61988V0c.9918-.0206625 2.02493-.041325 3.01673-.041325S6.94261-.0206625 7.93441 0v-.537226h-.61988c-1.77697 0-1.8183-.227287-1.8183-.971134z" />
    <path
       id="l"
       d="M13.286-6.63267c.3099 0 .6199 0 .6199-.35126 0-.37193-.3513-.37193-.7025-.37193H1.653c-.35126 0-.702524 0-.702524.37193 0 .35126.309934.35126.619874.35126zm-.0826 3.67793c.3512 0 .7025 0 .7025-.37193 0-.35126-.31-.35126-.6199-.35126H1.57035c-.30994 0-.619874 0-.619874.35126 0 .37193.351264.37193.702524.37193z" />
    <path
       id="R"
       d="M2.77615-14.7483v12.09609c0 1.31371-.1983 1.759876-1.46244 1.784663-.27265 0-.694034.024787-.694034.42138C.619676 0 1.01627 0 1.46244 0h3.84199c.44617 0 .81797 0 .81797-.446167 0-.396593-.39659-.42138-.74361-.42138C4.0155-.892334 3.81721-1.41286 3.81721-2.70179V-14.0543L14.5252.0991482c.2231.2974448.347.3718058.5205.3718058.4214 0 .4214-.3965928.4214-.817973V-14.3517c0-1.3881.2231-1.7351 1.3633-1.7599.1487 0 .5701-.0248.5701-.4214 0-.4461-.3718-.4461-.818-.4461h-3.6189c-.4461 0-.8427 0-.8427.4461 0 .4214.4461.4214.7188.4214 1.3881.0248 1.5864.5205 1.5864 1.8343v7.7583L6.94037-16.6321c-.24787-.347-.32223-.347-.89233-.347H1.73509c-.44616 0-.817969 0-.817969.4461 0 .3718.371809.4214.520529.4214.66925.0744 1.1402.471 1.38807.7684-.04957.1983-.04957.2479-.04957.5949zM14.5996-1.26414 3.81721-15.5167c-.24787-.2974-.24787-.347-.52053-.5949h2.94966L14.5996-4.83348z" />
    <path
       id="S"
       d="M4.83348.0991482c0-1.4376482-.47096-2.5034882-1.48723-2.5034882-.79318 0-1.18978.64446-1.18978 1.18977S2.52828 0 3.37104 0c.32223 0 .59489-.0991482.81797-.322232.04958-.049574.07436-.049574.09915-.049574.04957 0 .04957.3470189.04957.4709542 0 .8179728-.14872 2.4291318-1.58637 4.0402918-.27265.29744-.27265.34702-.27265.39659 0 .12394.12393.24787.24787.24787.19829 0 2.1069-1.83424 2.1069-4.6847518z" />
    <path
       id="U"
       d="M16.3347-12.0713c.4461-.1983.4957-.3718.4957-.5205 0-.2727-.1983-.471-.4709-.471-.0496 0-.0744.0248-.4214.1735L2.52828-6.71729c-.44617.19829-.49574.3718-.49574.52053 0 .17351.02479.32223.49574.54531L15.9381.520528c.3222.148722.3718.173509.4214.173509.2726 0 .4709-.198296.4709-.470954 0-.1487218-.0496-.3222312-.4957-.520528L3.56934-6.17198Z" />
    <path
       id="O"
       d="M5.10613-7.26261c.04958-.14872.66925-1.38807 1.58637-2.18126.64447-.59493 1.48723-.99143 2.45392-.99143.99148 0 1.33848.74356 1.33848 1.73504 0 1.41287-1.01625 4.23859-1.51199 5.57709-.22308.59489-.34702.91712-.34702 1.36329 0 1.115417.7684 2.007751 1.95821 2.007751 2.3052 0 3.1727-3.643701 3.1727-3.792421 0-.12393-.0991-.22308-.2479-.22308-.223 0-.2478.07436-.3718.49574-.5701 2.03254-1.512 3.024019-2.4787 3.024019-.2478 0-.6444-.024787-.6444-.817969 0-.61968.2726-1.36329.4213-1.71031.4958-1.36329 1.5368-4.13944 1.5368-5.5523 0-1.48722-.8675-2.60265-2.75132-2.60265-2.20604 0-3.37104 1.56159-3.8172 2.18127-.07436-1.41287-1.09063-2.18127-2.18126-2.18127-.79319 0-1.3385.471-1.75988 1.31372-.44617.89234-.79319 2.37956-.79319 2.47871 0 .09915.099149.22308.272658.22308.198292 0 .223082-.02478.371802-.59489.3966-1.51201.84276-2.92482 1.83425-2.92482.5701 0 .76839.3965.76839 1.14015 0 .54532-.24787 1.51202-.42138 2.28041l-.69403 2.67701c-.09915.47095-.37181 1.58637-.49574 2.03253-.17351.64447-.44617 1.809459-.44617 1.933394 0 .3470189.27266.619677.64446.619677.29745 0 .64447-.1487228.84276-.520529.04958-.123935.27266-.991482.3966-1.487222l.54531-2.23084z" />
    <path
       id="W"
       d="M3.14796-2.00775C4.2138-3.22232 5.08135-3.99072 6.3207-5.10613c1.48722-1.28893 2.13169-1.90861 2.4787-2.28041 1.7351-1.71031 2.6026-3.14796 2.6026-3.34626 0-.1983-.1983-.1983-.2478-.1983-.1735 0-.2231.0992-.347.2727-.6197 1.06581-1.21461 1.58634-1.85907 1.58634-.52053 0-.79319-.22309-1.26414-.81797-.52053-.61967-.94191-1.04107-1.66074-1.04107-1.80945 0-2.90008 2.25563-2.90008 2.77616 0 .07436.02479.22308.24787.22308.1983 0 .22308-.09915.29744-.27265.42138-.99149 1.61116-1.165 2.08212-1.165.52052 0 1.01627.17351 1.53679.3966.94191.39659 1.3385.39659 1.58638.39659.1735 0 .27265 0 .39659-.02479-.81797.9667-2.15648 2.15648-3.27189 3.17275l-2.5035 2.30519C1.98296-1.58637 1.06584-.123935 1.06584.0495741c0 .1487219.12394.1982969.27266.1982969.14872 0 .17351-.024788.34702-.3222322C2.08211-.694037 2.8753-1.61116 3.79242-1.61116c.52053 0 .7684.17351 1.26414.793187.47095.545315.89233 1.065844 1.68552 1.065844 2.42913 0 3.81722-3.147961 3.81722-3.718061 0-.09915-.0248-.24787-.2727-.24787-.1983 0-.2231.09915-.29742.34702-.54531 1.46244-2.00775 2.05733-2.97444 2.05733-.52053 0-1.01627-.17351-1.5368-.3966-.99148-.39659-1.26414-.39659-1.58637-.39659-.24787 0-.52053 0-.74361.09915z" />
    <path
       id="T"
       d="M6.59336-15.8389c0-.5206-.02479-.5453-.37181-.5453-.96669 1.1649-2.42913 1.5368-3.81721 1.5863-.07436 0-.19829 0-.22308.0496-.02479.0496-.02479.0992-.02479.6197.7684 0 2.05733-.1487 3.04881-.7436v13.06275c0 .867542-.04957 1.164987-2.18126 1.164987h-.74361V0c1.18978-.0247871 2.42913-.0495741 3.61891-.0495741 1.18978 0 2.42913.024787 3.61891.0495741v-.644463h-.74361c-2.13169 0-2.18126-.272658-2.18126-1.164987z" />
    <path
       id="V"
       d="M16.7313-14.7235c.2726-.1239.4709-.2479.4709-.5453 0-.2727-.1983-.4958-.4957-.4958-.124 0-.347.0992-.4462.1488L2.55307-9.14642c-.42138.19829-.49574.3718-.49574.5701 0 .22308.14872.39659.49574.54531L16.2603-1.58637c.3222.17351.3718.17351.4462.17351.2726 0 .4957-.22309.4957-.49574 0-.22309-.0991-.37181-.5205-.57011L3.71806-8.57632Zm-.3966 18.11933c.4213 0 .8675 0 .8675-.49574s-.5205-.49575-.8923-.49575H2.94966c-.37181 0-.89233 0-.89233.49575s.44616.49574.86754.49574z" />
    <path
       id="Q"
       d="M13.5833-5.70102c.4214 0 .8676 0 .8676-.49574s-.4462-.49574-.8676-.49574H3.07359c.29745-3.3215 3.14796-5.701 6.64293-5.701h3.86678c.4214 0 .8676 0 .8676-.4958s-.4462-.4957-.8676-.4957H9.66695c-4.23859 0-7.60962 3.2223-7.60962 7.18824 0 3.96594 3.37103 7.188242 7.60962 7.188242h3.91635c.4214 0 .8676 0 .8676-.495741S14.0047 0 13.5833 0H9.71652C6.22155 0 3.37104-2.37956 3.07359-5.70102Z" />
    <path
       id="N"
       d="M7.01474-15.2936c0-.9915.64446-2.5779 3.34626-2.7514.1239-.0248.2231-.1239.2231-.2726 0-.2727-.1983-.2727-.471-.2727-2.47869 0-4.73431 1.2641-4.7591 3.0984v5.65144c0 .96669 0 1.75988-.99148 2.57785-.86755.71883-1.80945.7684-2.35477.79319-.12393.02479-.22308.12393-.22308.27266 0 .24787.14872.24787.39659.27265 1.63595.09915 2.82572.99149 3.09838 2.20605.07436.27266.07436.32223.07436 1.21457v4.90783c0 1.04106 0 1.83425 1.18978 2.77615.9667.74362 2.60264 1.01627 3.56932 1.01627.2727 0 .471 0 .471-.27265 0-.24787-.1488-.24787-.3966-.27266-1.56161-.09915-2.77617-.89234-3.0984-2.15648-.07436-.22308-.07436-.27265-.07436-1.16499V-2.8753c0-1.1402-.1983-1.56158-.99149-2.35477-.52052-.52053-1.23935-.7684-1.93339-.96669 2.03254-.57011 2.92488-1.71031 2.92488-3.14796Z" />
    <path
       id="X"
       d="M5.354 2.90009c0 .99148-.64446 2.57785-3.34625 2.75136-.12393.02479-.22308.12393-.22308.27266 0 .27265.27266.27265.49574.27265 2.40434 0 4.70954-1.21456 4.73433-3.09838v-5.65145c0-.96669 0-1.75988.99148-2.57785.86755-.71882 1.80945-.7684 2.35478-.79319.1239-.02478.2231-.12393.2231-.27265 0-.24787-.1488-.24787-.3966-.27266-1.63597-.09915-2.82575-.99148-3.0984-2.20605-.07436-.27266-.07436-.32223-.07436-1.21456v-4.90787c0-1.041 0-1.8342-1.18978-2.7761-.99148-.7684-2.70179-1.0163-3.54455-1.0163-.22308 0-.49574 0-.49574.2727 0 .2478.14872.2478.39659.2726 1.56159.0992 2.77615.8924 3.09838 2.1565.07436.2231.07436.2727.07436 1.165v5.20527c0 1.14021.1983 1.56159.99149 2.35477.52052.52053 1.23935.7684 1.93339.9667-2.03254.5701-2.92488 1.7103-2.92488 3.14795z" />
    <path
       id="P"
       d="M3.94114-17.698c0-.4461 0-.8923-.49574-.8923s-.49574.4462-.49574.8923V5.30443c0 .44617 0 .89233.49574.89233s.49574-.44616.49574-.89233z" />
    <path
       id="ae"
       d="m31.3804 34.7019 2.9992-7.9319H33.76c-.9667 2.5779-3.5942 4.2634-6.4447 5.007-.5205.1239-2.9496.7684-7.7087.7684H4.65997L17.2766 17.7475c.1735-.1983.2231-.2726.2231-.3966 0-.0495 0-.1239-.1735-.3718L5.77538 1.18978H19.3587c3.3215 0 5.5771.34702 5.8002.39659 1.3385.1983 3.4949.61968 5.4531 1.85903.6197.39659 2.3052 1.51201 3.148 3.51976h.6196L31.3804 0H2.08211c-.5701 0-.59489.0247871-.66925.173509-.02479.074362-.02479.545316-.02479.817973L14.5004 18.9373 1.66073 33.9831c-.24787.2974-.24787.4213-.24787.4461 0 .2727.22309.2727.66925.2727z" />
    <path
       id="p"
       d="M6.32273 5.04166c0-.02067 0-.06199-.06199-.12398-.95047-.97114-3.49196-3.61594-3.49196-10.06265 0-6.44671 2.50016-9.07083 3.51263-10.10393 0-.0207.04132-.062.04132-.124s-.06199-.1033-.14464-.1033c-.22728 0-1.9836 1.529-2.99606 3.8019-1.03313 2.29352-1.3224 4.52507-1.3224 6.50867 0 1.4877.14463 4.00853 1.38439 6.67399.9918 2.14891 2.68612 3.65727 2.93407 3.65727.10332 0 .14464-.04132.14464-.12397z" />
    <path
       id="q"
       d="M5.43424-5.14497c0-1.4877-.14463-4.00853-1.38439-6.67403-.9918-2.1489-2.68612-3.6572-2.93407-3.6572-.06199 0-.144642.0206-.144642.1239 0 .0414.020663.062.041322.1034.9918 1.0331 3.51263 3.6572 3.51263 10.08327 0 6.44671-2.50016 9.07085-3.51263 10.10397-.020659.04133-.041322.06199-.041322.10332 0 .10331.082652.12397.144642.12397.22728 0 1.9836-1.52903 2.99606-3.8019 1.03313-2.293543 1.3224-4.5251 1.3224-6.5087z" />
    <path
       id="ag"
       d="M5.49623-13.2034c0-.4339-.02066-.4545-.30994-.4545-.80584.9711-2.02492 1.281-3.18203 1.3224-.06198 0-.1653 0-.18596.0413-.02066.0413-.02066.0827-.02066.5166.64054 0 1.71499-.124 2.54149-.6199v10.88914c0 .723184-.04133.971134-1.8183.971134h-.61988V0c.9918-.0206625 2.02493-.041325 3.01673-.041325S6.94261-.0206625 7.93441 0v-.537226h-.61988c-1.77697 0-1.8183-.227287-1.8183-.971134z" />
    <path
       id="r"
       d="M13.286-6.63267c.3099 0 .6199 0 .6199-.35126 0-.37193-.3513-.37193-.7025-.37193H1.653c-.35126 0-.702524 0-.702524.37193 0 .35126.309934.35126.619874.35126zm-.0826 3.67793c.3512 0 .7025 0 .7025-.37193 0-.35126-.31-.35126-.6199-.35126H1.57035c-.30994 0-.619874 0-.619874.35126 0 .37193.351264.37193.702524.37193z" />
    <path
       id="m"
       d="M3.24402-1.52903c-.18597.723192-.22729.929817-1.67367.929817-.39259 0-.599212 0-.599212.371925C.971138 0 1.09511 0 1.50836 0h6.55002c4.17382 0 8.24432-4.31847 8.24432-8.92621 0-2.97539-1.7769-5.18629-4.7317-5.18629H4.93834c-.39259 0-.57855 0-.57855.3926 0 .2066.18596.2066.4959.2066 1.26042 0 1.26042.1653 1.26042.3926 0 .0413 0 .1653-.08265.4752zM7.60381-12.7075c.18596-.7645.26861-.8058 1.07445-.8058h2.27284c1.9423 0 3.7193 1.0538 3.7193 3.90523 0 1.03312-.4133 4.6284-2.4175 6.90128-.5786.68186-2.1489 2.107577-4.52512 2.107577H5.37226c-.28928 0-.3306 0-.45458-.020663-.22729-.020662-.24795-.061987-.24795-.227287 0-.144638.04132-.268617.08265-.454577z" />
    <path
       id="af"
       d="M6.21942-2.45884c-.10331.35126-.10331.39259-.39259.78518-.45457.57855-1.36373 1.467035-2.33486 1.467035-.84717 0-1.32241-.764513-1.32241-1.983605 0-1.13644.64054-3.45064 1.03313-4.31846.70253-1.44638 1.67366-2.19023 2.4795-2.19023 1.36373 0 1.63234 1.69433 1.63234 1.85963 0 .02066-.06199.28927-.08265.3306zm1.3224-5.28961c-.22729-.53722-.78518-1.36372-1.85963-1.36372-2.33486 0-4.855689 3.01673-4.855689 6.07478C.826501-.991801 2.02493.206625 3.42998.206625c1.13644 0 2.10758-.888488 2.68613-1.570355C6.32273-.144638 7.29387.206625 7.91375.206625S9.02952-.1653 9.40145-.909151c.3306-.702529.61985-1.962939.61985-2.045589 0-.10331-.08263-.18596-.2066-.18596-.18597 0-.20663.10331-.28928.41325C9.21548-1.50836 8.8229-.206625 7.97573-.206625c-.59921 0-.64054-.537226-.64054-.950475 0-.47524.06199-.70253.24796-1.50837.14463-.51656.24795-.97113.41325-1.57035.76451-3.09937.95047-3.84323.95047-3.9672 0-.28928-.22729-.51656-.53722-.51656-.6612 0-.8265.72318-.86783.97113z" />
    <path
       id="n"
       d="M9.21548-8.30633c.41325 0 .57855 0 .57855-.39259 0-.20663-.1653-.20663-.53722-.20663H7.58315c.39258-2.12825.68186-3.59525.84716-4.25645.12397-.4959.55789-.9712 1.09511-.9712.43392 0 .86778.186 1.07448.372-.80587.0826-1.05382.6818-1.05382 1.0331 0 .4132.30994.6612.70252.6612.4133 0 1.0331-.3513 1.0331-1.1365 0-.8678-.8678-1.343-1.77694-1.343-.88849 0-1.75631.6612-2.16957 1.467-.37192.7232-.57855 1.4671-1.05378 4.17385H4.89702c-.39259 0-.59922 0-.59922.37193 0 .22729.12398.22729.53723.22729h1.3224C5.78551-6.38472 4.93834-1.71499 4.4631.495901 4.11184 2.29354 3.8019 3.8019 2.76878 3.8019c-.06199 0-.6612 0-1.03313-.39258 1.05379-.08265 1.05379-.99181 1.05379-1.01247 0-.41325-.30994-.6612-.70253-.6612-.41325 0-1.03312.35126-1.03312 1.13644 0 .88849.90915 1.34306 1.71499 1.34306 2.10757 0 2.9754-3.781237 3.20269-4.814363.37192-1.591017 1.38439-7.087247 1.4877-7.707117z" />
    <path
       id="o"
       d="M9.79403-8.43031c-.6612.12398-.90915.61988-.90915 1.01246 0 .49591.39259.66121.68187.66121.61985 0 1.05375-.53723 1.05375-1.09512 0-.86782-.99177-1.26041-1.85959-1.26041-1.26041 0-1.96294 1.23975-2.1489 1.63234-.47524-1.54969-1.75632-1.63234-2.12824-1.63234-2.10758 0-3.22336 2.70679-3.22336 3.16136 0 .08265.08265.18597.22729.18597.1653 0 .20663-.12398.24795-.20663.70253-2.29354 2.08692-2.72745 2.68613-2.72745.92981 0 1.11578.86782 1.11578 1.36373 0 .45457-.12398.92981-.37193 1.92161L4.4631-2.58282C4.15317-1.34306 3.55395-.206625 2.45884-.206625c-.10331 0-.61988 0-1.05379-.268613.74385-.144638.90915-.764512.90915-1.012462 0-.41325-.30994-.6612-.70252-.6612-.4959 0-1.033129.43391-1.033129 1.09511 0 .867827.971139 1.260415 1.859629 1.260415.9918 0 1.69432-.785176 2.12824-1.632335C4.89702-.206625 5.93014.206625 6.69466.206625c2.10757 0 3.22335-2.706795 3.22335-3.161365 0-.10331-.08265-.18596-.20663-.18596-.18596 0-.20662.10331-.26861.26861-.55789 1.8183-1.75631 2.665465-2.68613 2.665465-.72318 0-1.11577-.537226-1.11577-1.384385 0-.45458.08265-.78518.41325-2.14891l.72319-2.8101c.30993-1.23975 1.01246-2.1489 1.96294-2.1489.04132 0 .61987 0 1.05378.26861z" />
    <path
       id="ad"
       d="M2.62414-1.67366c.88849-1.01247 1.61168-1.65301 2.6448-2.58282 1.23975-1.07445 1.77698-1.59101 2.06625-1.90095 1.44638-1.42572 2.16957-2.62414 2.16957-2.78944 0-.1653-.1653-.1653-.20663-.1653-.14463 0-.18596.08265-.28927.22729-.51656.88848-1.01246 1.3224-1.54969 1.3224-.43391 0-.6612-.18597-1.05379-.68187-.43391-.51656-.78517-.86782-1.38439-.86782-1.50836 0-2.41751 1.88029-2.41751 2.3142 0 .06199.02066.18596.20662.18596.1653 0 .18597-.08265.24795-.22728.35127-.82651 1.34307-.97114 1.73565-.97114.43392 0 .84717.14463 1.28108.3306.78518.3306 1.11578.3306 1.3224.3306.14464 0 .22729 0 .3306-.02066-.68186.80583-1.79764 1.79763-2.72745 2.6448L2.91342-2.60348C1.653-1.3224.888488-.103313.888488.041325c0 .123975.103313.1653.227292.1653.123979 0 .14463-.020662.28927-.2686126.3306-.5165634.9918-1.2810724 1.75632-1.2810724.43391 0 .64053.14463 1.05378.661197.39259.454575.74386.888488 1.40506.888488 2.02492 0 3.18202-2.624135 3.18202-3.099375 0-.08265-.02066-.20663-.22728-.20663-.1653 0-.18597.08265-.24795.28928-.45458 1.21909-1.67367 1.71499-2.47951 1.71499-.43391 0-.84716-.14464-1.28107-.3306-.8265-.3306-1.05379-.3306-1.3224-.3306-.20663 0-.43392 0-.61988.08265z" />
    <g id="E">
      <use
         xlink:href="#a"
         transform="scale(1.19961)"
         x="0"
         y="0"
         width="100%"
         height="100%" />
    </g>
    <g id="s">
      <use
         xlink:href="#b"
         transform="scale(1.19961)"
         x="0"
         y="0"
         width="100%"
         height="100%" />
    </g>
    <g id="z">
      <use
         xlink:href="#c"
         transform="scale(1.19961)"
         x="0"
         y="0"
         width="100%"
         height="100%" />
    </g>
    <g id="B">
      <use
         xlink:href="#d"
         transform="scale(1.19961)"
         x="0"
         y="0"
         width="100%"
         height="100%" />
    </g>
    <g id="v">
      <use
         xlink:href="#e"
         transform="scale(1.19961)"
         x="0"
         y="0"
         width="100%"
         height="100%" />
    </g>
    <g id="u">
      <use
         xlink:href="#f"
         transform="scale(1.19961)"
         x="0"
         y="0"
         width="100%"
         height="100%" />
    </g>
    <g id="w">
      <use
         xlink:href="#g"
         transform="scale(1.19961)"
         x="0"
         y="0"
         width="100%"
         height="100%" />
    </g>
    <g id="x">
      <use
         xlink:href="#h"
         transform="scale(1.19961)"
         x="0"
         y="0"
         width="100%"
         height="100%" />
    </g>
    <g id="A">
      <use
         xlink:href="#i"
         transform="scale(1.19961)"
         x="0"
         y="0"
         width="100%"
         height="100%" />
    </g>
    <g id="H">
      <use
         xlink:href="#j"
         transform="scale(1.19961)"
         x="0"
         y="0"
         width="100%"
         height="100%" />
    </g>
    <g id="J">
      <use
         xlink:href="#k"
         transform="scale(1.19961)"
         x="0"
         y="0"
         width="100%"
         height="100%" />
    </g>
    <g id="K">
      <use
         xlink:href="#l"
         transform="scale(1.19961)"
         x="0"
         y="0"
         width="100%"
         height="100%" />
    </g>
    <g id="Y">
      <use
         xlink:href="#m"
         transform="scale(1.19961)"
         x="0"
         y="0"
         width="100%"
         height="100%" />
    </g>
    <g id="ah">
      <use
         xlink:href="#n"
         transform="scale(1.19961)"
         x="0"
         y="0"
         width="100%"
         height="100%" />
    </g>
    <g id="aa">
      <use
         xlink:href="#o"
         transform="scale(1.19961)"
         x="0"
         y="0"
         width="100%"
         height="100%" />
    </g>
    <g id="Z">
      <use
         xlink:href="#p"
         transform="scale(1.19961)"
         x="0"
         y="0"
         width="100%"
         height="100%" />
    </g>
    <g id="ab">
      <use
         xlink:href="#q"
         transform="scale(1.19961)"
         x="0"
         y="0"
         width="100%"
         height="100%" />
    </g>
    <g id="ac">
      <use
         xlink:href="#r"
         transform="scale(1.19961)"
         x="0"
         y="0"
         width="100%"
         height="100%" />
    </g>
  </defs>
  <use
     style="fill:#000000;fill-opacity:1;stroke:none"
     transform="matrix(0.39864,0,0,0.39864,-20.492469,-2.23994)"
     y="95.791298"
     xlink:href="#s"
     x="56.4133"
     width="100%"
     height="100%"
     id="use64" />
  <use
     style="fill:#000000;fill-opacity:1;stroke:none"
     transform="matrix(0.39864,0,0,0.39864,-20.492469,-2.23994)"
     y="99.5093"
     xlink:href="#t"
     x="68.331703"
     width="100%"
     height="100%"
     id="use66" />
  <use
     style="fill:#000000;fill-opacity:1;stroke:none"
     transform="matrix(0.39864,0,0,0.39864,-20.492469,-2.23994)"
     y="95.791298"
     xlink:href="#u"
     x="80.9067"
     width="100%"
     height="100%"
     id="use68" />
  <use
     style="fill:#000000;fill-opacity:1;stroke:none"
     transform="matrix(0.39864,0,0,0.39864,-20.492469,-2.23994)"
     y="95.791298"
     xlink:href="#v"
     x="89.651802"
     width="100%"
     height="100%"
     id="use70" />
  <use
     style="fill:#000000;fill-opacity:1;stroke:none"
     transform="matrix(0.39864,0,0,0.39864,-20.492469,-2.23994)"
     y="95.791298"
     xlink:href="#w"
     x="103.392"
     width="100%"
     height="100%"
     id="use72" />
  <use
     style="fill:#000000;fill-opacity:1;stroke:none"
     transform="matrix(0.39864,0,0,0.39864,-20.492469,-2.23994)"
     y="95.791298"
     xlink:href="#x"
     x="119.023"
     width="100%"
     height="100%"
     id="use74" />
  <use
     style="fill:#000000;fill-opacity:1;stroke:none"
     transform="matrix(0.39864,0,0,0.39864,-20.492469,-2.23994)"
     y="77.729202"
     xlink:href="#u"
     x="144.879"
     width="100%"
     height="100%"
     id="use76" />
  <use
     style="fill:#000000;fill-opacity:1;stroke:none"
     transform="matrix(0.39864,0,0,0.39864,-20.492469,-2.23994)"
     y="77.730003"
     xlink:href="#s"
     x="153.657"
     width="100%"
     height="100%"
     id="use78" />
  <use
     style="fill:#000000;fill-opacity:1;stroke:none"
     transform="matrix(0.39864,0,0,0.39864,-20.492469,-2.23994)"
     y="82.511597"
     xlink:href="#t"
     x="165.576"
     width="100%"
     height="100%"
     id="use80" />
  <use
     style="fill:#000000;fill-opacity:1;stroke:none"
     transform="matrix(0.39864,0,0,0.39864,-20.492469,-2.23994)"
     y="82.511597"
     xlink:href="#i"
     x="177.60699"
     width="100%"
     height="100%"
     id="use82" />
  <use
     style="fill:#000000;fill-opacity:1;stroke:none"
     transform="matrix(0.39864,0,0,0.39864,-20.492469,-2.23994)"
     y="82.511597"
     xlink:href="#y"
     x="193.618"
     width="100%"
     height="100%"
     id="use84" />
  <use
     style="fill:#000000;fill-opacity:1;stroke:none"
     transform="matrix(0.39864,0,0,0.39864,-20.492469,-2.23994)"
     y="77.730003"
     xlink:href="#u"
     x="203.698"
     width="100%"
     height="100%"
     id="use86" />
  <use
     style="fill:#000000;fill-opacity:1;stroke:none"
     transform="matrix(0.39864,0,0,0.39864,-20.492469,-2.23994)"
     y="77.730003"
     xlink:href="#z"
     x="212.44299"
     width="100%"
     height="100%"
     id="use88" />
  <use
     style="fill:#000000;fill-opacity:1;stroke:none"
     transform="matrix(0.39864,0,0,0.39864,-20.492469,-2.23994)"
     y="81.447998"
     xlink:href="#t"
     x="224.578"
     width="100%"
     height="100%"
     id="use90" />
  <use
     style="fill:#000000;fill-opacity:1;stroke:none"
     transform="matrix(0.39864,0,0,0.39864,-20.492469,-2.23994)"
     y="77.730003"
     xlink:href="#w"
     x="237.153"
     width="100%"
     height="100%"
     id="use92" />
  <use
     style="fill:#000000;fill-opacity:1;stroke:none"
     transform="matrix(0.39864,0,0,0.39864,-20.492469,-2.23994)"
     y="77.730003"
     xlink:href="#A"
     x="251.407"
     width="100%"
     height="100%"
     id="use94" />
  <use
     style="fill:#000000;fill-opacity:1;stroke:none"
     transform="matrix(0.39864,0,0,0.39864,-20.492469,-2.23994)"
     y="77.730003"
     xlink:href="#B"
     x="276.12201"
     width="100%"
     height="100%"
     id="use96" />
  <use
     style="fill:#000000;fill-opacity:1;stroke:none"
     transform="matrix(0.39864,0,0,0.39864,-20.492469,-2.23994)"
     y="81.447998"
     xlink:href="#t"
     x="286.84299"
     width="100%"
     height="100%"
     id="use98" />
  <use
     style="fill:#000000;fill-opacity:1;stroke:none"
     transform="matrix(0.39864,0,0,0.39864,-20.492469,-2.23994)"
     y="77.729202"
     xlink:href="#w"
     x="299.418"
     width="100%"
     height="100%"
     id="use100" />
  <use
     style="fill:#000000;fill-opacity:1;stroke:none"
     transform="matrix(0.39864,0,0,0.39864,-20.492469,-2.23994)"
     y="59.139599"
     xlink:href="#C"
     x="312.595"
     width="100%"
     height="100%"
     id="use102" />
  <use
     style="fill:#000000;fill-opacity:1;stroke:none"
     transform="matrix(0.39864,0,0,0.39864,-20.492469,-2.23994)"
     y="67.1175"
     xlink:href="#t"
     x="336.005"
     width="100%"
     height="100%"
     id="use104" />
  <use
     style="fill:#000000;fill-opacity:1;stroke:none"
     transform="matrix(0.39864,0,0,0.39864,-20.492469,-2.23994)"
     y="67.1175"
     xlink:href="#i"
     x="348.03699"
     width="100%"
     height="100%"
     id="use106" />
  <use
     style="fill:#000000;fill-opacity:1;stroke:none"
     transform="matrix(0.39864,0,0,0.39864,-20.492469,-2.23994)"
     y="67.1175"
     xlink:href="#y"
     x="364.047"
     width="100%"
     height="100%"
     id="use108" />
  <use
     style="fill:#000000;fill-opacity:1;stroke:none"
     transform="matrix(0.39864,0,0,0.39864,-20.492469,-2.23994)"
     y="86.124496"
     xlink:href="#D"
     x="336.005"
     width="100%"
     height="100%"
     id="use110" />
  <use
     style="fill:#000000;fill-opacity:1;stroke:none"
     transform="matrix(0.39864,0,0,0.39864,-20.492469,-2.23994)"
     y="86.124496"
     xlink:href="#h"
     x="346.586"
     width="100%"
     height="100%"
     id="use112" />
  <use
     style="fill:#000000;fill-opacity:1;stroke:none"
     transform="matrix(0.39864,0,0,0.39864,-20.492469,-2.23994)"
     y="86.124496"
     xlink:href="#y"
     x="361.40399"
     width="100%"
     height="100%"
     id="use114" />
  <use
     style="fill:#000000;fill-opacity:1;stroke:none"
     transform="matrix(0.39864,0,0,0.39864,-20.492469,-2.23994)"
     y="77.730003"
     xlink:href="#u"
     x="374.12701"
     width="100%"
     height="100%"
     id="use116" />
  <use
     style="fill:#000000;fill-opacity:1;stroke:none"
     transform="matrix(0.39864,0,0,0.39864,-20.492469,-2.23994)"
     y="77.730003"
     xlink:href="#v"
     x="382.87201"
     width="100%"
     height="100%"
     id="use118" />
  <use
     style="fill:#000000;fill-opacity:1;stroke:none"
     transform="matrix(0.39864,0,0,0.39864,-20.492469,-2.23994)"
     y="77.730003"
     xlink:href="#A"
     x="402.121"
     width="100%"
     height="100%"
     id="use120" />
  <use
     style="fill:#000000;fill-opacity:1;stroke:none"
     transform="matrix(0.39864,0,0,0.39864,-20.492469,-2.23994)"
     y="77.730003"
     xlink:href="#z"
     x="426.836"
     width="100%"
     height="100%"
     id="use122" />
  <use
     style="fill:#000000;fill-opacity:1;stroke:none"
     transform="matrix(0.39864,0,0,0.39864,-20.492469,-2.23994)"
     y="81.447998"
     xlink:href="#D"
     x="438.97101"
     width="100%"
     height="100%"
     id="use124" />
  <use
     style="fill:#000000;fill-opacity:1;stroke:none"
     transform="matrix(0.39864,0,0,0.39864,-20.492469,-2.23994)"
     y="77.730003"
     xlink:href="#w"
     x="450.09"
     width="100%"
     height="100%"
     id="use126" />
  <path
     style="fill:#000000;fill-opacity:1;stroke:none;stroke-width:0.398639"
     d="M 37.261932,33.2783 H 162.51028 v 0.39523 H 37.261932 Z"
     id="path128" />
  <use
     style="fill:#000000;fill-opacity:1;stroke:none"
     transform="matrix(0.39864,0,0,0.39864,-20.492469,-2.23994)"
     y="98.405899"
     xlink:href="#C"
     x="223.255"
     width="100%"
     height="100%"
     id="use130" />
  <use
     style="fill:#000000;fill-opacity:1;stroke:none"
     transform="matrix(0.39864,0,0,0.39864,-20.492469,-2.23994)"
     y="106.384"
     xlink:href="#t"
     x="246.66499"
     width="100%"
     height="100%"
     id="use132" />
  <use
     style="fill:#000000;fill-opacity:1;stroke:none"
     transform="matrix(0.39864,0,0,0.39864,-20.492469,-2.23994)"
     y="106.384"
     xlink:href="#i"
     x="258.69699"
     width="100%"
     height="100%"
     id="use134" />
  <use
     style="fill:#000000;fill-opacity:1;stroke:none"
     transform="matrix(0.39864,0,0,0.39864,-20.492469,-2.23994)"
     y="106.384"
     xlink:href="#y"
     x="274.70801"
     width="100%"
     height="100%"
     id="use136" />
  <use
     style="fill:#000000;fill-opacity:1;stroke:none"
     transform="matrix(0.39864,0,0,0.39864,-20.492469,-2.23994)"
     y="125.391"
     xlink:href="#D"
     x="246.66499"
     width="100%"
     height="100%"
     id="use138" />
  <use
     style="fill:#000000;fill-opacity:1;stroke:none"
     transform="matrix(0.39864,0,0,0.39864,-20.492469,-2.23994)"
     y="125.391"
     xlink:href="#h"
     x="257.246"
     width="100%"
     height="100%"
     id="use140" />
  <use
     style="fill:#000000;fill-opacity:1;stroke:none"
     transform="matrix(0.39864,0,0,0.39864,-20.492469,-2.23994)"
     y="125.391"
     xlink:href="#y"
     x="272.064"
     width="100%"
     height="100%"
     id="use142" />
  <use
     style="fill:#000000;fill-opacity:1;stroke:none"
     transform="matrix(0.39864,0,0,0.39864,-20.492469,-2.23994)"
     y="116.996"
     xlink:href="#u"
     x="284.78699"
     width="100%"
     height="100%"
     id="use144" />
  <use
     style="fill:#000000;fill-opacity:1;stroke:none"
     transform="matrix(0.39864,0,0,0.39864,-20.492469,-2.23994)"
     y="116.996"
     xlink:href="#z"
     x="293.53201"
     width="100%"
     height="100%"
     id="use146" />
  <use
     style="fill:#000000;fill-opacity:1;stroke:none"
     transform="matrix(0.39864,0,0,0.39864,-20.492469,-2.23994)"
     y="120.714"
     xlink:href="#t"
     x="305.668"
     width="100%"
     height="100%"
     id="use148" />
  <use
     style="fill:#000000;fill-opacity:1;stroke:none"
     transform="matrix(0.39864,0,0,0.39864,-20.492469,-2.23994)"
     y="116.996"
     xlink:href="#A"
     x="323.75101"
     width="100%"
     height="100%"
     id="use150" />
  <use
     style="fill:#000000;fill-opacity:1;stroke:none"
     transform="matrix(0.39864,0,0,0.39864,-20.492469,-2.23994)"
     y="116.996"
     xlink:href="#z"
     x="348.466"
     width="100%"
     height="100%"
     id="use152" />
  <use
     style="fill:#000000;fill-opacity:1;stroke:none"
     transform="matrix(0.39864,0,0,0.39864,-20.492469,-2.23994)"
     y="120.714"
     xlink:href="#D"
     x="360.60199"
     width="100%"
     height="100%"
     id="use154" />
  <use
     style="fill:#000000;fill-opacity:1;stroke:none"
     transform="matrix(0.39864,0,0,0.39864,-20.492469,-2.23994)"
     y="116.996"
     xlink:href="#w"
     x="371.72"
     width="100%"
     height="100%"
     id="use156" />
  <use
     style="fill:#000000;fill-opacity:1;stroke:none"
     transform="matrix(0.39864,0,0,0.39864,-20.492469,-2.23994)"
     y="95.791298"
     xlink:href="#E"
     x="460.49399"
     width="100%"
     height="100%"
     id="use158" />
  <use
     style="fill:#000000;fill-opacity:1;stroke:none"
     transform="matrix(0.39864,0,0,0.39864,-20.492471,-18.94709)"
     y="72.366203"
     xlink:href="#F"
     x="56.4133"
     width="100%"
     height="100%"
     id="use160" />
  <use
     style="fill:#000000;fill-opacity:1;stroke:none"
     transform="matrix(0.39864,0,0,0.39864,-20.492471,-18.94709)"
     y="77.147797"
     xlink:href="#G"
     x="68.331703"
     width="100%"
     height="100%"
     id="use162" />
  <use
     style="fill:#000000;fill-opacity:1;stroke:none"
     transform="matrix(0.39864,0,0,0.39864,-20.492471,-18.94709)"
     y="72.366203"
     xlink:href="#H"
     x="78.306"
     width="100%"
     height="100%"
     id="use164" />
  <use
     style="fill:#000000;fill-opacity:1;stroke:none"
     transform="matrix(0.39864,0,0,0.39864,-20.492471,-18.94709)"
     y="72.366203"
     xlink:href="#I"
     x="87.051102"
     width="100%"
     height="100%"
     id="use166" />
  <use
     style="fill:#000000;fill-opacity:1;stroke:none"
     transform="matrix(0.39864,0,0,0.39864,-20.492471,-18.94709)"
     y="72.366203"
     xlink:href="#J"
     x="100.792"
     width="100%"
     height="100%"
     id="use168" />
  <use
     style="fill:#000000;fill-opacity:1;stroke:none"
     transform="matrix(0.39864,0,0,0.39864,-20.492471,-18.94709)"
     y="72.366203"
     xlink:href="#K"
     x="116.422"
     width="100%"
     height="100%"
     id="use170" />
  <use
     style="fill:#000000;fill-opacity:1;stroke:none"
     transform="matrix(0.39864,0,0,0.39864,-20.492471,-18.94709)"
     y="72.366203"
     xlink:href="#L"
     x="141.08299"
     width="100%"
     height="100%"
     id="use172" />
  <use
     style="fill:#000000;fill-opacity:1;stroke:none"
     transform="matrix(0.39864,0,0,0.39864,-20.492471,-18.94709)"
     y="77.147797"
     xlink:href="#G"
     x="151.804"
     width="100%"
     height="100%"
     id="use174" />
  <use
     style="fill:#000000;fill-opacity:1;stroke:none"
     transform="matrix(0.39864,0,0,0.39864,-20.492471,-18.94709)"
     y="72.366203"
     xlink:href="#M"
     x="161.778"
     width="100%"
     height="100%"
     id="use176" />
  <use
     style="fill:#000000;fill-opacity:1;stroke:none"
     transform="matrix(0.39864,0,0,0.39864,-20.699973,64.00202)"
     y="72.388496"
     xlink:href="#N"
     x="56.4133"
     width="100%"
     height="100%"
     id="use178" />
  <use
     style="fill:#000000;fill-opacity:1;stroke:none"
     transform="matrix(0.39864,0,0,0.39864,-20.699973,64.00202)"
     y="72.388496"
     xlink:href="#O"
     x="68.806801"
     width="100%"
     height="100%"
     id="use180" />
  <use
     style="fill:#000000;fill-opacity:1;stroke:none"
     transform="matrix(0.39864,0,0,0.39864,-20.699973,64.00202)"
     y="72.388496"
     xlink:href="#P"
     x="83.240402"
     width="100%"
     height="100%"
     id="use182" />
  <use
     style="fill:#000000;fill-opacity:1;stroke:none"
     transform="matrix(0.39864,0,0,0.39864,-20.699973,64.00202)"
     y="72.388496"
     xlink:href="#O"
     x="90.099899"
     width="100%"
     height="100%"
     id="use184" />
  <use
     style="fill:#000000;fill-opacity:1;stroke:none"
     transform="matrix(0.39864,0,0,0.39864,-20.699973,64.00202)"
     y="72.388496"
     xlink:href="#Q"
     x="111.419"
     width="100%"
     height="100%"
     id="use186" />
  <use
     style="fill:#000000;fill-opacity:1;stroke:none"
     transform="matrix(0.39864,0,0,0.39864,-20.699973,64.00202)"
     y="72.388496"
     xlink:href="#R"
     x="134.767"
     width="100%"
     height="100%"
     id="use188" />
  <use
     style="fill:#000000;fill-opacity:1;stroke:none"
     transform="matrix(0.39864,0,0,0.39864,-20.699973,64.00202)"
     y="72.388496"
     xlink:href="#S"
     x="152.60201"
     width="100%"
     height="100%"
     id="use190" />
  <use
     style="fill:#000000;fill-opacity:1;stroke:none"
     transform="matrix(0.39864,0,0,0.39864,-20.699973,64.00202)"
     y="72.388496"
     xlink:href="#T"
     x="163.45"
     width="100%"
     height="100%"
     id="use192" />
  <use
     style="fill:#000000;fill-opacity:1;stroke:none"
     transform="matrix(0.39864,0,0,0.39864,-20.699973,64.00202)"
     y="72.388496"
     xlink:href="#U"
     x="181.66"
     width="100%"
     height="100%"
     id="use194" />
  <use
     style="fill:#000000;fill-opacity:1;stroke:none"
     transform="matrix(0.39864,0,0,0.39864,-20.699973,64.00202)"
     y="72.388496"
     xlink:href="#O"
     x="207.35201"
     width="100%"
     height="100%"
     id="use196" />
  <use
     style="fill:#000000;fill-opacity:1;stroke:none"
     transform="matrix(0.39864,0,0,0.39864,-20.699973,64.00202)"
     y="72.388496"
     xlink:href="#V"
     x="228.67101"
     width="100%"
     height="100%"
     id="use198" />
  <use
     style="fill:#000000;fill-opacity:1;stroke:none"
     transform="matrix(0.39864,0,0,0.39864,-20.699973,64.00202)"
     y="72.388496"
     xlink:href="#W"
     x="254.763"
     width="100%"
     height="100%"
     id="use200" />
  <use
     style="fill:#000000;fill-opacity:1;stroke:none"
     transform="matrix(0.39864,0,0,0.39864,-20.699973,64.00202)"
     y="72.388496"
     xlink:href="#X"
     x="267.10001"
     width="100%"
     height="100%"
     id="use202" />
  <use
     style="fill:#000000;fill-opacity:1;stroke:none"
     transform="matrix(0.39864,0,0,0.39864,-20.452945,30.61558)"
     y="96.157303"
     xlink:href="#Y"
     x="56.4133"
     width="100%"
     height="100%"
     id="use204" />
  <use
     style="fill:#000000;fill-opacity:1;stroke:none"
     transform="matrix(0.39864,0,0,0.39864,-20.452945,30.61558)"
     y="96.157303"
     xlink:href="#Z"
     x="77.163498"
     width="100%"
     height="100%"
     id="use206" />
  <use
     style="fill:#000000;fill-opacity:1;stroke:none"
     transform="matrix(0.39864,0,0,0.39864,-20.452945,30.61558)"
     y="96.157303"
     xlink:href="#aa"
     x="85.9086"
     width="100%"
     height="100%"
     id="use208" />
  <use
     style="fill:#000000;fill-opacity:1;stroke:none"
     transform="matrix(0.39864,0,0,0.39864,-20.452945,30.61558)"
     y="96.157303"
     xlink:href="#ab"
     x="99.649101"
     width="100%"
     height="100%"
     id="use210" />
  <use
     style="fill:#000000;fill-opacity:1;stroke:none"
     transform="matrix(0.39864,0,0,0.39864,-20.452945,30.61558)"
     y="96.157303"
     xlink:href="#ac"
     x="115.279"
     width="100%"
     height="100%"
     id="use212" />
  <use
     style="fill:#000000;fill-opacity:1;stroke:none"
     transform="matrix(0.39864,0,0,0.39864,-20.452945,30.61558)"
     y="65.173302"
     xlink:href="#ad"
     x="152.683"
     width="100%"
     height="100%"
     id="use214" />
  <use
     style="fill:#000000;fill-opacity:1;stroke:none"
     transform="matrix(0.39864,0,0,0.39864,-20.452945,30.61558)"
     y="72.609497"
     xlink:href="#ae"
     x="139.94099"
     width="100%"
     height="100%"
     id="use216" />
  <use
     style="fill:#000000;fill-opacity:1;stroke:none"
     transform="matrix(0.39864,0,0,0.39864,-20.452945,30.61558)"
     y="127.241"
     xlink:href="#af"
     x="140.35699"
     width="100%"
     height="100%"
     id="use218" />
  <use
     style="fill:#000000;fill-opacity:1;stroke:none"
     transform="matrix(0.39864,0,0,0.39864,-20.452945,30.61558)"
     y="127.241"
     xlink:href="#r"
     x="150.938"
     width="100%"
     height="100%"
     id="use220" />
  <use
     style="fill:#000000;fill-opacity:1;stroke:none"
     transform="matrix(0.39864,0,0,0.39864,-20.452945,30.61558)"
     y="127.241"
     xlink:href="#ag"
     x="165.756"
     width="100%"
     height="100%"
     id="use222" />
  <use
     style="fill:#000000;fill-opacity:1;stroke:none"
     transform="matrix(0.39864,0,0,0.39864,-20.452945,30.61558)"
     y="96.157303"
     xlink:href="#ah"
     x="179.875"
     width="100%"
     height="100%"
     id="use224" />
  <use
     style="fill:#000000;fill-opacity:1;stroke:none"
     transform="matrix(0.39864,0,0,0.39864,-20.452945,30.61558)"
     y="99.875298"
     xlink:href="#af"
     x="191.79401"
     width="100%"
     height="100%"
     id="use226" />
  <use
     style="fill:#000000;fill-opacity:1;stroke:none"
     transform="matrix(0.39864,0,0,0.39864,-20.452945,30.61558)"
     y="96.157303"
     xlink:href="#Z"
     x="202.912"
     width="100%"
     height="100%"
     id="use228" />
  <use
     style="fill:#000000;fill-opacity:1;stroke:none"
     transform="matrix(0.39864,0,0,0.39864,-20.452945,30.61558)"
     y="96.157303"
     xlink:href="#aa"
     x="211.658"
     width="100%"
     height="100%"
     id="use230" />
  <use
     style="fill:#000000;fill-opacity:1;stroke:none"
     transform="matrix(0.39864,0,0,0.39864,-20.452945,30.61558)"
     y="96.157303"
     xlink:href="#ab"
     x="225.39799"
     width="100%"
     height="100%"
     id="use232" />
</svg>
