<?xml version="1.0" encoding="utf-8"?>
<svg viewBox="0 0 500 500" xmlns="http://www.w3.org/2000/svg">
  <text style="white-space: pre; fill: rgb(51, 51, 51); font-family: Arial, sans-serif; font-size: 13.1px;" transform="matrix(1, 0, 0, 1, -65.633369, -118.835541)" y="139.842" x="76.346">โ<tspan x="76.34600067138672" dy="1em">โ</tspan>{0}<tspan x="76.34600067138672" dy="1em">โ</tspan>๐ป<tspan x="76.34600067138672" dy="1em">โ</tspan>๐น<tspan x="76.34600067138672" dy="1em">โ</tspan>โ<tspan x="76.34600067138672" dy="1em">โ</tspan>โค<tspan x="76.34600067138672" dy="1em">โ</tspan>โ<tspan x="76.34600067138672" dy="1em">โ</tspan>โ<tspan x="76.34600067138672" dy="1em">โ</tspan>โ<tspan x="76.34600067138672" dy="1em">โ</tspan>โช<tspan x="76.34600067138672" dy="1em">โ</tspan>โต<tspan x="76.34600067138672" dy="1em">โ</tspan>โค<tspan x="76.34600067138672" dy="1em">โ</tspan>โฅ<tspan x="76.34600067138672" dy="1em">โ</tspan>โง<tspan x="76.34600067138672" dy="1em">โ</tspan>โผ<tspan x="76.34600067138672" dy="1em">โ</tspan>โจ<tspan x="76.34600067138672" dy="1em">โ</tspan>โฝ<tspan x="76.34600067138672" dy="1em">โ</tspan>โป<tspan x="76.34600067138672" dy="1em">โ</tspan>โ<tspan x="76.34600067138672" dy="1em">โ</tspan>โ<tspan x="76.34600067138672" dy="1em">โ</tspan>โ<tspan x="76.34600067138672" dy="1em">โ</tspan>โฃ<tspan x="76.34600067138672" dy="1em">โ</tspan>โข<tspan x="76.34600067138672" dy="1em">โ</tspan>+<tspan x="76.34600067138672" dy="1em">โ</tspan>โ<tspan x="76.34600067138672" dy="1em">โ</tspan>ร<tspan x="76.34600067138672" dy="1em">โ</tspan>รท<tspan x="76.34600067138672" dy="1em">โ</tspan>^<tspan x="76.34600067138672" dy="1em">โ</tspan>โ<tspan x="76.34600067138672" dy="1em">โ</tspan><tspan x="76.34600067138672" dy="1em">โ</tspan></text>
  <path style="fill: rgb(51, 51, 51); white-space: pre;"/>
  <path style="fill: rgb(51, 51, 51); white-space: pre;"/>
  <path style="fill: rgb(51, 51, 51); white-space: pre;"/>
  <path style="fill: rgb(51, 51, 51); white-space: pre;"/>
  <path style="fill: rgb(51, 51, 51); white-space: pre;"/>
  <path style="fill: rgb(51, 51, 51); white-space: pre;"/>
  <path style="fill: rgb(51, 51, 51); white-space: pre;"/>
  <path style="fill: rgb(51, 51, 51); white-space: pre;"/>
  <path style="fill: rgb(51, 51, 51); white-space: pre;"/>
  <path style="fill: rgb(51, 51, 51); white-space: pre;"/>
  <path style="fill: rgb(51, 51, 51); white-space: pre;"/>
  <path style="fill: rgb(51, 51, 51); white-space: pre;"/>
  <path style="fill: rgb(51, 51, 51); white-space: pre;"/>
  <path style="fill: rgb(51, 51, 51); white-space: pre;"/>
  <path style="fill: rgb(51, 51, 51); white-space: pre;"/>
  <path style="fill: rgb(51, 51, 51); white-space: pre;"/>
  <path style="fill: rgb(51, 51, 51); white-space: pre;"/>
  <path style="fill: rgb(51, 51, 51); white-space: pre;"/>
  <path style="fill: rgb(51, 51, 51); white-space: pre;"/>
  <path style="fill: rgb(51, 51, 51); white-space: pre;"/>
  <path style="fill: rgb(51, 51, 51); white-space: pre;"/>
  <path style="fill: rgb(51, 51, 51); white-space: pre;"/>
  <path style="fill: rgb(51, 51, 51); white-space: pre;"/>
  <path style="fill: rgb(51, 51, 51); white-space: pre;"/>
  <path style="fill: rgb(51, 51, 51); white-space: pre;"/>
  <path style="fill: rgb(51, 51, 51); white-space: pre;"/>
  <path style="fill: rgb(51, 51, 51); white-space: pre;"/>
  <path d="M 219.774 56.51 L 217.917 56.51 L 221.458 48.222 L 222.913 48.222 L 226.475 56.51 L 224.659 56.51 L 222.181 50.333 L 219.774 56.51 Z" style="fill: rgb(51, 51, 51); white-space: pre;"/>
  <path style="fill: rgb(51, 51, 51); white-space: pre;"/>
  <path d="M 225.827 211.144 L 226.449 211.144 L 223.831 228.154 L 219.669 219.234 L 218.008 220.029 L 217.722 219.47 L 220.249 218.151 L 223.646 225.34 L 225.827 211.144 Z" style="fill: rgb(51, 51, 51); white-space: pre;"/>
  <path style="fill: rgb(51, 51, 51); white-space: pre;"/>
  <path style="fill: rgb(51, 51, 51); white-space: pre;"/>
  <text style="fill: rgb(51, 51, 51); font-family: &quot;Times New Roman&quot;; font-size: 13.1px; white-space: pre;" transform="matrix(1, 0, 0, 1, -41.316822, -118.550758)"><tspan x="76.346" y="139.842">โ</tspan><tspan x="76.346" dy="1em">โ</tspan><tspan>{0}</tspan><tspan x="76.346" dy="1em">โ</tspan><tspan>๐ป</tspan><tspan x="76.346" dy="1em">โ</tspan><tspan>๐น</tspan><tspan x="76.346" dy="1em">โ</tspan><tspan>โ</tspan><tspan x="76.346" dy="1em">โ</tspan><tspan>โค</tspan><tspan x="76.346" dy="1em">โ</tspan><tspan>โ</tspan><tspan x="76.346" dy="1em">โ</tspan><tspan>โ</tspan><tspan x="76.346" dy="1em">โ</tspan><tspan>โ</tspan><tspan x="76.346" dy="1em">โ</tspan><tspan>โช</tspan><tspan x="76.346" dy="1em">โ</tspan><tspan>โต</tspan><tspan x="76.346" dy="1em">โ</tspan><tspan>โค</tspan><tspan x="76.346" dy="1em">โ</tspan><tspan>โฅ</tspan><tspan x="76.346" dy="1em">โ</tspan><tspan>โง</tspan><tspan x="76.346" dy="1em">โ</tspan><tspan>โผ</tspan><tspan x="76.346" dy="1em">โ</tspan><tspan>โจ</tspan><tspan x="76.346" dy="1em">โ</tspan><tspan>โฝ</tspan><tspan x="76.346" dy="1em">โ</tspan><tspan>โป</tspan><tspan x="76.346" dy="1em">โ</tspan><tspan>โ</tspan><tspan x="76.346" dy="1em">โ</tspan><tspan>โ</tspan><tspan x="76.346" dy="1em">โ</tspan><tspan>โ</tspan><tspan x="76.346" dy="1em">โ</tspan><tspan>โฃ</tspan><tspan x="76.346" dy="1em">โ</tspan><tspan>โข</tspan><tspan x="76.346" dy="1em">โ</tspan><tspan>+</tspan><tspan x="76.346" dy="1em">โ</tspan><tspan>โ</tspan><tspan x="76.346" dy="1em">โ</tspan><tspan>ร</tspan><tspan x="76.346" dy="1em">โ</tspan><tspan>รท</tspan><tspan x="76.346" dy="1em">โ</tspan><tspan>^</tspan><tspan x="76.346" dy="1em">โ</tspan><tspan>โ</tspan><tspan x="76.346" dy="1em">โ</tspan><tspan x="76.346" dy="1em">โ</tspan></text>
  <text style="fill: rgb(51, 51, 51); font-family: Z003; font-size: 13.4px; white-space: pre;" transform="matrix(1, 0, 0, 1, -174.429489, -104.333992)"><tspan x="245.599" y="132.017">a</tspan><tspan x="245.599" dy="1em">โ</tspan><tspan>b</tspan><tspan x="245.599" dy="1em">โ</tspan><tspan>c</tspan><tspan x="245.599" dy="1em">โ</tspan><tspan>d</tspan><tspan x="245.599" dy="1em">โ</tspan><tspan>e</tspan><tspan x="245.599" dy="1em">โ</tspan><tspan>f</tspan><tspan x="245.599" dy="1em">โ</tspan><tspan>x</tspan><tspan x="245.599" dy="1em">โ</tspan><tspan>y</tspan><tspan x="245.599" dy="1em">โ</tspan><tspan>z</tspan></text>
  <path d="M 272.848 38.304 C 271.168 39.455 270.777 39.685 270.547 39.685 C 270.385 39.685 270.27 39.5 270.27 39.225 C 270.27 38.603 270.799 36.187 271.651 33.034 C 271.903 32.666 271.95 32.62 272.319 32.206 C 271.213 31.952 270.432 31.861 269.419 31.861 C 268.476 31.861 268.015 31.952 267.44 32.321 C 266.611 32.804 265.646 33.517 265.345 33.839 C 264.471 34.806 263.528 37.913 263.528 39.776 C 263.528 40.88 263.896 41.617 264.471 41.617 C 264.978 41.617 265.737 41.157 268.613 39.086 C 268.361 40.26 268.268 40.836 268.268 41.135 C 268.268 41.456 268.407 41.617 268.637 41.617 C 268.936 41.617 269.12 41.526 270.753 40.444 C 271.536 39.915 271.974 39.615 272.824 38.995 L 272.848 38.304 Z M 268.797 38.143 C 267.991 38.741 267.578 39.039 267.555 39.063 C 266.796 39.546 266.197 39.845 265.898 39.845 C 265.506 39.845 265.3 39.431 265.3 38.694 C 265.3 37.521 265.646 36.003 266.243 34.667 C 266.796 33.401 267.301 32.919 268.084 32.919 C 268.498 32.919 269.281 33.034 270.04 33.218 C 269.58 34.875 269.419 35.497 269.396 35.612 C 269.257 36.187 269.142 36.762 269.005 37.36 C 268.982 37.475 268.912 37.751 268.797 38.143 Z" style="fill: rgb(51, 51, 51); white-space: pre;"/>
  <path style="fill: rgb(51, 51, 51); white-space: pre;"/>
  <path d="M 263.758 64.722 L 264.495 64.1 C 265.139 64.353 265.622 64.446 266.059 64.446 C 266.657 64.446 266.796 64.377 268.222 63.479 C 269.257 62.903 269.257 62.903 269.396 62.812 C 270.018 62.421 270.454 61.937 270.799 61.317 C 271.536 59.981 272.089 57.98 272.089 56.621 C 272.089 55.564 271.558 54.873 270.731 54.873 C 269.947 54.873 269.328 55.218 267.026 56.852 C 267.21 56.046 267.21 56.046 267.462 54.896 C 267.923 52.617 267.969 52.479 268.429 51.444 C 268.867 50.455 269.303 50.156 270.363 50.156 L 271.306 50.156 L 272.249 48.82 C 271.788 48.775 271.49 48.751 271.237 48.751 C 270.385 48.751 269.971 48.981 268.038 50.592 C 266.473 51.858 266.473 51.858 265.668 55.424 C 265.23 57.334 264.816 59.106 264.356 61.131 C 263.942 62.95 263.896 63.158 263.528 64.629 L 263.758 64.722 Z M 266.796 57.794 C 268.106 56.829 268.912 56.414 269.443 56.414 C 269.903 56.414 270.202 56.829 270.202 57.542 C 270.202 58.462 269.925 59.843 269.534 60.832 C 268.912 62.374 268.106 63.134 267.095 63.134 C 266.635 63.134 266.197 63.018 265.575 62.697 L 266.796 57.794 Z" style="fill: rgb(51, 51, 51); white-space: pre;"/>
  <path style="fill: rgb(51, 51, 51); white-space: pre;"/>
  <path d="M 270.339 84.42 C 268.591 85.685 267.347 86.329 266.611 86.329 C 265.783 86.329 265.3 85.685 265.3 84.581 C 265.3 83.453 265.575 82.004 266.013 80.922 C 266.496 79.702 267.071 79.081 267.739 79.081 C 268.292 79.081 268.591 79.519 268.706 80.532 L 270.04 79.749 C 270.063 79.634 270.063 79.519 270.063 79.472 C 270.063 78.483 269.558 77.885 268.752 77.885 C 268.314 77.885 268.106 77.976 267.256 78.529 C 265.53 79.611 265.161 79.956 264.655 80.899 C 264.011 82.143 263.528 84.099 263.528 85.524 C 263.528 86.882 264.126 87.642 265.208 87.642 C 266.312 87.642 268.153 86.745 270.293 85.157 L 270.339 84.42 Z" style="fill: rgb(51, 51, 51); white-space: pre;"/>
  <path style="fill: rgb(51, 51, 51); white-space: pre;"/>
  <path d="M 272.963 107.341 L 272.319 107.755 C 271.744 108.146 271.352 108.421 271.237 108.492 C 270.753 108.79 270.317 108.997 270.202 108.997 C 270.018 108.997 269.879 108.744 269.879 108.399 C 269.879 107.64 271.788 99.309 272.295 97.882 C 272.802 96.501 273.308 95.972 274.136 95.972 C 274.459 95.972 274.665 96.019 275.196 96.156 L 276.001 94.868 C 275.656 94.799 275.494 94.775 275.264 94.775 C 274.711 94.775 274.39 94.868 273.884 95.167 C 273.308 95.49 272.525 96.087 271.881 96.685 C 270.753 97.767 270.684 97.928 270.087 100.298 C 270.063 100.391 269.994 100.712 269.903 101.035 C 269.487 100.942 269.166 100.898 268.958 100.898 C 268.246 100.898 266.266 102.139 265.345 103.152 C 264.564 104.049 263.528 107.295 263.528 108.881 C 263.528 109.757 263.988 110.654 264.402 110.654 C 264.84 110.654 265.898 110.01 268.268 108.284 C 268.153 108.905 268.084 109.503 268.084 109.941 C 268.084 110.401 268.246 110.654 268.591 110.654 C 268.958 110.654 270.961 109.434 272.87 108.054 L 272.963 107.341 Z M 268.452 107.432 C 266.496 108.813 265.991 109.112 265.668 109.112 C 265.345 109.112 265.185 108.79 265.185 108.1 C 265.185 107.341 265.323 106.489 265.599 105.454 C 266.243 103.128 267.164 101.978 268.337 101.978 C 268.775 101.978 269.073 102.139 269.534 102.599 L 268.452 107.432 Z" style="fill: rgb(51, 51, 51); white-space: pre;"/>
  <path style="fill: rgb(51, 51, 51); white-space: pre;"/>
  <path d="M 270.27 130.214 C 268.429 131.779 267.44 132.354 266.566 132.354 C 265.967 132.354 265.506 131.964 265.345 131.365 C 265.254 130.997 265.23 130.743 265.23 130.077 C 266.29 129.409 266.934 128.948 268.292 127.937 C 269.558 126.992 270.018 126.233 270.018 125.198 C 270.018 124.392 269.534 123.91 268.706 123.91 C 268.199 123.91 267.854 124.025 267.301 124.324 C 266.427 124.83 265.646 125.45 265.185 126.003 C 264.309 127.061 263.528 129.592 263.528 131.457 C 263.528 132.814 264.241 133.666 265.415 133.666 C 266.772 133.666 268.522 132.654 270.248 130.882 L 270.27 130.214 Z M 265.3 129.247 C 265.69 126.762 266.726 124.875 267.739 124.875 C 268.106 124.875 268.361 125.244 268.361 125.819 C 268.361 126.97 267.693 127.707 265.3 129.247 Z" style="fill: rgb(51, 51, 51); white-space: pre;"/>
  <path style="fill: rgb(51, 51, 51); white-space: pre;"/>
  <path d="M 259.822 161.165 C 259.638 161.42 259.432 161.672 259.247 161.949 C 259.753 162.017 259.961 162.04 260.375 162.04 C 261.134 162.04 261.733 161.925 262.101 161.718 C 262.769 161.349 263.942 160.223 264.564 159.417 C 265.276 158.45 266.106 156.494 266.635 154.377 C 267.509 151.086 267.947 149.383 267.991 149.223 C 268.199 149.246 268.292 149.246 268.383 149.246 L 269.58 149.199 C 269.649 149.199 269.788 149.199 270.018 149.223 L 270.983 148.486 C 270.317 148.462 270.063 148.462 269.511 148.462 C 269.005 148.462 268.797 148.462 268.177 148.486 C 269.673 142.618 269.994 141.928 271.375 141.928 C 271.788 141.928 272.111 141.974 272.917 142.112 L 273.975 140.868 C 273.514 140.753 273.331 140.731 272.87 140.731 C 271.467 140.731 270.547 141.214 268.982 142.733 C 267.693 143.999 267.394 144.643 266.496 148.486 C 266.266 148.462 266.15 148.462 266.035 148.462 L 264.909 148.509 C 264.862 148.509 264.747 148.509 264.564 148.486 C 264.425 148.577 264.287 148.67 264.241 148.693 C 263.988 148.832 263.942 148.878 263.734 148.969 C 263.665 149.015 263.482 149.108 263.274 149.223 L 263.849 149.223 L 265.46 149.246 C 265.599 149.246 265.852 149.246 266.312 149.223 C 265.944 150.626 265.805 151.224 265.369 153.25 C 263.988 159.601 263.459 160.614 261.503 160.614 C 261.158 160.614 260.882 160.59 260.282 160.499 L 259.822 161.165 Z" style="fill: rgb(51, 51, 51); white-space: pre;"/>
  <path style="fill: rgb(51, 51, 51); white-space: pre;"/>
  <path d="M 263.896 179.967 C 264.035 179.989 264.103 180.013 264.103 180.013 C 264.15 180.013 264.218 179.989 264.287 179.967 C 264.77 177.942 265.761 176.422 267.44 175.066 C 267.577 176.814 267.49 177.564 267.835 178.622 C 268.34 180.164 268.974 180.177 270.907 180.177 C 272.173 180.177 272.673 180.072 273.433 179.266 L 272.02 178.115 C 271.398 179.219 271.598 179.555 270.77 179.555 C 269.964 179.555 269.885 179.314 269.567 178.361 C 269.126 177.04 269.032 176.863 268.843 174.95 L 268.706 173.937 C 270.638 172.143 271.421 171.59 272.043 171.59 C 272.295 171.59 272.525 171.636 273.009 171.844 L 273.514 170.233 C 273.169 170.003 273.009 169.934 272.709 169.934 C 272.41 169.934 272.226 169.979 271.835 170.164 C 271.191 170.74 271.098 170.831 270.202 171.705 C 269.443 172.441 269.396 172.488 268.591 173.247 C 268.498 172.395 268.361 171.545 268.292 171.222 C 268.084 170.279 267.761 169.934 267.026 169.934 C 266.312 169.934 265.646 170.324 264.057 171.705 L 264.011 172.326 C 265.391 171.406 265.506 171.36 265.967 171.36 C 266.726 171.36 267.002 171.959 267.347 174.375 L 266.841 174.789 C 266.657 174.926 266.381 175.157 265.991 175.457 C 264.794 176.354 264.77 176.378 264.334 176.745 C 263.734 177.274 263.55 177.597 263.137 178.77 L 263.896 179.967 Z" style="fill: rgb(51, 51, 51); white-space: pre;"/>
  <path style="fill: rgb(51, 51, 51); white-space: pre;"/>
  <path d="M 261.778 207.949 C 262.515 208.042 263.482 208.11 264.309 208.11 C 265.92 208.11 266.818 207.674 268.153 206.269 C 269.487 204.82 269.58 204.59 270.385 200.839 C 271.191 197.157 271.629 195.454 272.41 192.854 C 272.111 193.015 271.859 193.152 271.766 193.199 L 270.961 193.59 C 270.753 193.681 270.615 193.752 270.454 193.843 L 270.248 194.672 L 269.764 196.558 L 269.303 198.445 L 269.051 199.434 C 266.75 200.862 266.635 200.93 266.221 200.93 C 265.944 200.93 265.737 200.631 265.737 200.195 C 265.737 199.549 265.92 198.722 266.726 195.684 C 267.279 193.383 267.279 193.383 267.279 193.221 C 267.279 193.061 267.164 192.946 267.026 192.946 C 266.772 192.946 265.323 193.705 263.367 194.856 L 263.298 195.478 C 264.449 194.902 264.632 194.832 264.885 194.832 C 265.115 194.832 265.23 194.947 265.23 195.177 C 265.23 195.593 265.07 196.259 264.517 198.308 C 263.942 200.401 263.849 200.793 263.849 201.414 C 263.849 202.174 264.194 202.702 264.655 202.702 C 264.931 202.702 265.254 202.541 266.035 202.058 C 268.015 200.815 268.015 200.815 268.982 200.125 L 268.728 201.346 C 268.038 204.636 267.923 205.05 267.646 205.648 C 267.256 206.453 266.542 206.798 265.254 206.798 C 264.564 206.798 264.057 206.707 262.699 206.384 L 261.778 207.949 Z" style="fill: rgb(51, 51, 51); white-space: pre;"/>
  <path style="fill: rgb(51, 51, 51); white-space: pre;"/>
  <path d="M 262.584 224.564 C 262.584 224.703 262.608 224.818 262.654 225.002 C 263.068 224.726 263.252 224.633 263.758 224.334 C 264.079 224.427 264.38 224.542 264.495 224.564 C 264.632 224.61 265.323 224.863 266.035 225.117 C 267.279 225.553 267.947 225.715 268.522 225.715 C 269.328 225.715 269.903 225.394 271.007 224.312 C 271.95 223.391 272.295 222.862 272.295 222.287 C 272.295 221.986 272.226 221.756 271.974 221.251 C 271.766 221.389 271.558 221.526 271.328 221.665 C 271.029 221.849 270.983 221.871 270.615 222.148 C 270.823 222.608 270.868 222.816 270.868 223.092 C 270.868 223.827 270.293 224.403 269.534 224.403 C 268.728 224.403 268.106 224.197 265.391 223 C 265.92 222.471 266.887 221.55 268.292 220.26 L 269.925 218.65 C 270.478 218.098 271.053 217.545 271.605 217.016 L 272.434 216.165 C 272.456 215.866 272.456 215.728 272.456 215.704 L 272.456 215.613 C 271.514 216.257 271.352 216.304 270.155 216.304 C 269.511 216.304 267.624 216.257 267.002 216.233 L 266.818 216.233 C 266.174 216.233 266.128 216.304 265.024 219.225 L 265.438 219.663 C 265.53 219.433 265.668 219.156 265.829 218.835 C 266.013 218.419 266.174 218.167 266.312 218.052 C 266.681 217.729 266.887 217.684 268.268 217.684 L 268.728 217.66 L 269.303 217.638 C 269.649 217.638 269.717 217.614 270.155 217.545 C 268.084 219.548 265.53 221.849 262.584 224.427 L 262.584 224.564 Z" style="fill: rgb(51, 51, 51); white-space: pre;"/>
  <path style="fill: rgb(51, 51, 51); white-space: pre;"/>
  <path d="M 218.126 143.374 L 218.126 143.598 C 217.414 143.5 216.835 143.211 216.39 142.732 C 215.944 142.252 215.721 141.72 215.721 141.136 C 215.721 140.828 215.77 140.471 215.868 140.064 C 215.966 139.656 216.016 139.34 216.016 139.114 C 216.016 138.807 215.887 138.52 215.629 138.254 C 215.371 137.987 215.013 137.824 214.557 137.765 L 214.557 137.502 C 215.013 137.442 215.371 137.28 215.629 137.016 C 215.887 136.752 216.016 136.464 216.016 136.153 C 216.016 135.927 215.966 135.611 215.868 135.206 C 215.77 134.8 215.721 134.442 215.721 134.131 C 215.721 133.551 215.944 133.021 216.39 132.539 C 216.835 132.057 217.414 131.769 218.126 131.675 L 218.126 131.899 C 217.627 132.018 217.261 132.213 217.029 132.484 C 216.797 132.755 216.681 133.053 216.681 133.377 C 216.681 133.628 216.729 133.959 216.825 134.371 C 216.921 134.783 216.969 135.134 216.969 135.424 C 216.969 135.854 216.811 136.272 216.495 136.677 C 216.179 137.082 215.708 137.396 215.082 137.618 C 215.696 137.844 216.164 138.163 216.486 138.577 C 216.808 138.99 216.969 139.412 216.969 139.843 C 216.969 140.133 216.921 140.484 216.825 140.896 C 216.729 141.307 216.681 141.638 216.681 141.89 C 216.681 142.214 216.797 142.512 217.029 142.783 C 217.261 143.053 217.627 143.25 218.126 143.374 Z M 219.499 137.754 C 219.499 136.764 219.648 135.913 219.947 135.199 C 220.245 134.485 220.642 133.953 221.137 133.603 C 221.52 133.325 221.916 133.187 222.326 133.187 C 222.991 133.187 223.588 133.526 224.117 134.204 C 224.778 135.044 225.109 136.182 225.109 137.62 C 225.109 138.626 224.964 139.481 224.674 140.185 C 224.384 140.888 224.014 141.399 223.564 141.717 C 223.114 142.035 222.68 142.194 222.262 142.194 C 221.434 142.194 220.746 141.705 220.196 140.729 C 219.731 139.905 219.499 138.914 219.499 137.754 Z M 220.753 137.914 C 220.753 139.108 220.9 140.082 221.194 140.837 C 221.437 141.473 221.8 141.791 222.282 141.791 C 222.512 141.791 222.75 141.687 222.998 141.48 C 223.245 141.273 223.433 140.927 223.561 140.441 C 223.757 139.707 223.855 138.673 223.855 137.339 C 223.855 136.349 223.752 135.524 223.548 134.863 C 223.394 134.373 223.196 134.025 222.953 133.821 C 222.778 133.679 222.567 133.609 222.32 133.609 C 222.03 133.609 221.772 133.739 221.546 134 C 221.238 134.354 221.029 134.91 220.919 135.669 C 220.808 136.428 220.753 137.176 220.753 137.914 Z M 226.709 131.899 L 226.709 131.675 C 227.421 131.769 227.999 132.056 228.445 132.536 C 228.891 133.015 229.114 133.549 229.114 134.138 C 229.114 134.444 229.064 134.8 228.966 135.206 C 228.868 135.611 228.819 135.927 228.819 136.153 C 228.819 136.459 228.948 136.746 229.206 137.013 C 229.464 137.279 229.821 137.442 230.278 137.502 L 230.278 137.765 C 229.821 137.824 229.464 137.987 229.206 138.254 C 228.948 138.52 228.819 138.807 228.819 139.114 C 228.819 139.34 228.868 139.656 228.966 140.064 C 229.064 140.471 229.114 140.828 229.114 141.136 C 229.114 141.716 228.891 142.246 228.445 142.728 C 227.999 143.21 227.421 143.5 226.709 143.598 L 226.709 143.374 C 227.207 143.25 227.573 143.054 227.806 142.786 C 228.038 142.517 228.154 142.218 228.154 141.89 C 228.154 141.638 228.105 141.307 228.007 140.896 C 227.909 140.484 227.86 140.135 227.86 139.85 C 227.86 139.414 228.018 138.994 228.336 138.59 C 228.654 138.184 229.126 137.871 229.753 137.65 C 229.139 137.423 228.67 137.103 228.346 136.69 C 228.022 136.276 227.86 135.854 227.86 135.424 C 227.86 135.134 227.909 134.783 228.007 134.371 C 228.105 133.959 228.154 133.628 228.154 133.377 C 228.154 133.053 228.038 132.755 227.806 132.484 C 227.573 132.213 227.207 132.018 226.709 131.899 Z" style="fill: rgb(51, 51, 51); white-space: pre;"/>
  <path style="fill: rgb(51, 51, 51); white-space: pre;"/>
  <path style="fill: rgb(51, 51, 51); white-space: pre;"/>
  <path style="fill: rgb(51, 51, 51); white-space: pre;"/>
  <path style="fill: rgb(51, 51, 51); white-space: pre;"/>
  <path style="fill: rgb(51, 51, 51); white-space: pre;"/>
  <path style="fill: rgb(51, 51, 51); white-space: pre;"/>
  <path style="fill: rgb(51, 51, 51); white-space: pre;"/>
  <path style="fill: rgb(51, 51, 51); white-space: pre;"/>
  <path style="fill: rgb(51, 51, 51); white-space: pre;"/>
  <path style="fill: rgb(51, 51, 51); white-space: pre;"/>
  <path style="fill: rgb(51, 51, 51); white-space: pre;"/>
  <path style="fill: rgb(51, 51, 51); white-space: pre;"/>
  <path style="fill: rgb(51, 51, 51); white-space: pre;"/>
  <path style="fill: rgb(51, 51, 51); white-space: pre;"/>
  <path style="fill: rgb(51, 51, 51); white-space: pre;"/>
  <path style="fill: rgb(51, 51, 51); white-space: pre;"/>
  <path style="fill: rgb(51, 51, 51); white-space: pre;"/>
  <path style="fill: rgb(51, 51, 51); white-space: pre;"/>
  <path style="fill: rgb(51, 51, 51); white-space: pre;"/>
  <path style="fill: rgb(51, 51, 51); white-space: pre;"/>
  <path style="fill: rgb(51, 51, 51); white-space: pre;"/>
  <path style="fill: rgb(51, 51, 51); white-space: pre;"/>
  <path style="fill: rgb(51, 51, 51); white-space: pre;"/>
  <path style="fill: rgb(51, 51, 51); white-space: pre;"/>
  <path style="fill: rgb(51, 51, 51); white-space: pre;"/>
  <path style="fill: rgb(51, 51, 51); white-space: pre;"/>
  <path style="fill: rgb(51, 51, 51); white-space: pre;"/>
  <path style="fill: rgb(51, 51, 51); white-space: pre;"/>
  <path style="fill: rgb(51, 51, 51); white-space: pre;"/>
  <path style="fill: rgb(51, 51, 51); white-space: pre;"/>
  <path style="fill: rgb(51, 51, 51); white-space: pre;"/>
  <path style="fill: rgb(51, 51, 51); white-space: pre;"/>
  <path style="fill: rgb(51, 51, 51); white-space: pre;"/>
  <path style="fill: rgb(51, 51, 51); white-space: pre;"/>
  <path style="fill: rgb(51, 51, 51); white-space: pre;"/>
  <path style="fill: rgb(51, 51, 51); white-space: pre;"/>
  <path style="fill: rgb(51, 51, 51); white-space: pre;"/>
  <path style="fill: rgb(51, 51, 51); white-space: pre;"/>
  <path style="fill: rgb(51, 51, 51); white-space: pre;"/>
  <path style="fill: rgb(51, 51, 51); white-space: pre;"/>
  <path style="fill: rgb(51, 51, 51); white-space: pre;"/>
  <path style="fill: rgb(51, 51, 51); white-space: pre;"/>
  <path style="fill: rgb(51, 51, 51); white-space: pre;"/>
  <path style="fill: rgb(51, 51, 51); white-space: pre;"/>
  <path style="fill: rgb(51, 51, 51); white-space: pre;"/>
  <path style="fill: rgb(51, 51, 51); white-space: pre;"/>
  <path style="fill: rgb(51, 51, 51); white-space: pre;"/>
  <path style="fill: rgb(51, 51, 51); white-space: pre;"/>
  <path style="fill: rgb(51, 51, 51); white-space: pre;"/>
  <path style="fill: rgb(51, 51, 51); white-space: pre;"/>
  <path style="fill: rgb(51, 51, 51); white-space: pre;"/>
  <path style="fill: rgb(51, 51, 51); white-space: pre;"/>
  <path d="M 223.829 157.949 C 223.733 157.949 223.642 157.919 223.554 157.857 C 223.467 157.797 223.423 157.718 223.423 157.622 L 223.423 154.844 L 220.882 154.844 C 220.795 154.844 220.725 154.807 220.672 154.733 C 220.62 154.659 220.594 154.579 220.594 154.491 C 220.594 154.404 220.62 154.323 220.672 154.248 C 220.725 154.174 220.795 154.137 220.882 154.137 L 223.423 154.137 L 223.423 151.674 C 223.423 151.578 223.467 151.5 223.554 151.438 C 223.642 151.378 223.738 151.347 223.843 151.347 C 223.939 151.347 224.031 151.378 224.118 151.438 C 224.206 151.5 224.249 151.578 224.249 151.674 L 224.249 154.137 L 226.777 154.137 C 226.865 154.137 226.935 154.174 226.987 154.248 C 227.039 154.323 227.065 154.404 227.065 154.491 C 227.065 154.579 227.039 154.659 226.987 154.733 C 226.935 154.807 226.865 154.844 226.777 154.844 L 224.249 154.844 L 224.249 157.622 C 224.249 157.718 224.206 157.797 224.118 157.857 C 224.031 157.919 223.935 157.949 223.829 157.949 Z" style="fill: rgb(51, 51, 51); white-space: pre;"/>
  <path style="fill: rgb(51, 51, 51); white-space: pre;"/>
  <path d="M 221.327 167.944 C 221.24 167.944 221.168 167.907 221.111 167.833 C 221.055 167.759 221.026 167.679 221.026 167.591 C 221.026 167.495 221.055 167.412 221.111 167.342 C 221.168 167.272 221.24 167.237 221.327 167.237 L 226.384 167.237 C 226.48 167.237 226.555 167.272 226.607 167.342 C 226.659 167.412 226.685 167.495 226.685 167.591 C 226.685 167.679 226.659 167.759 226.607 167.833 C 226.555 167.907 226.48 167.944 226.384 167.944 L 221.327 167.944 Z" style="fill: rgb(51, 51, 51); white-space: pre;"/>
  <path style="fill: rgb(51, 51, 51); white-space: pre;"/>
  <path d="M 221.655 183.481 C 221.551 183.586 221.415 183.56 221.249 183.402 C 221.057 183.246 221.018 183.097 221.131 182.957 L 223.319 180.796 L 221.131 178.608 C 221.018 178.468 221.057 178.32 221.249 178.162 C 221.415 178.006 221.551 177.98 221.655 178.084 L 223.829 180.272 L 226.004 178.084 C 226.109 177.98 226.244 178.006 226.41 178.162 C 226.602 178.32 226.642 178.468 226.528 178.608 L 224.34 180.796 L 226.528 182.957 C 226.642 183.097 226.602 183.246 226.41 183.402 C 226.244 183.56 226.109 183.586 226.004 183.481 L 223.829 181.306 L 221.655 183.481 Z" style="fill: rgb(51, 51, 51); white-space: pre;"/>
  <path style="fill: rgb(51, 51, 51); white-space: pre;"/>
  <path d="M 223.816 192.258 C 223.581 192.258 223.385 192.182 223.227 192.029 C 223.07 191.877 222.991 191.678 222.991 191.433 C 222.991 191.206 223.07 191.014 223.227 190.856 C 223.385 190.7 223.585 190.621 223.829 190.621 C 224.065 190.621 224.264 190.7 224.426 190.856 C 224.588 191.014 224.668 191.206 224.668 191.433 C 224.668 191.678 224.588 191.877 224.426 192.029 C 224.264 192.182 224.061 192.258 223.816 192.258 Z M 220.882 194.144 C 220.795 194.144 220.725 194.107 220.672 194.033 C 220.62 193.959 220.594 193.879 220.594 193.791 C 220.594 193.704 220.62 193.623 220.672 193.548 C 220.725 193.474 220.795 193.437 220.882 193.437 L 226.777 193.437 C 226.865 193.437 226.935 193.474 226.987 193.548 C 227.039 193.623 227.065 193.704 227.065 193.791 C 227.065 193.879 227.039 193.959 226.987 194.033 C 226.935 194.107 226.865 194.144 226.777 194.144 L 220.882 194.144 Z M 223.816 197.131 C 223.581 197.131 223.385 197.055 223.227 196.902 C 223.07 196.75 222.991 196.551 222.991 196.306 C 222.991 196.079 223.07 195.887 223.227 195.73 C 223.385 195.573 223.585 195.494 223.829 195.494 C 224.065 195.494 224.264 195.573 224.426 195.73 C 224.588 195.887 224.668 196.079 224.668 196.306 C 224.668 196.551 224.588 196.75 224.426 196.902 C 224.264 197.055 224.061 197.131 223.816 197.131 Z" style="fill: rgb(51, 51, 51); white-space: pre;"/>
  <path style="fill: rgb(51, 51, 51); white-space: pre;"/>
  <path d="M 221.367 205.371 C 221.253 205.363 221.151 205.317 221.059 205.234 C 220.967 205.151 220.961 205.048 221.039 204.926 L 223.489 200.996 C 223.568 200.874 223.681 200.812 223.829 200.812 C 223.987 200.812 224.105 200.874 224.183 200.996 L 226.62 204.926 C 226.69 205.057 226.684 205.162 226.6 205.24 C 226.518 205.319 226.415 205.363 226.292 205.371 C 226.214 205.38 226.137 205.369 226.063 205.338 C 225.989 205.308 225.93 205.258 225.886 205.188 L 223.829 201.834 L 221.773 205.188 C 221.729 205.276 221.67 205.33 221.596 205.351 C 221.522 205.373 221.446 205.38 221.367 205.371 Z" style="fill: rgb(51, 51, 51); white-space: pre;"/>
  <path style="fill: rgb(51, 51, 51); white-space: pre;"/>
  <path style="fill: rgb(51, 51, 51); white-space: pre;"/>
  <path style="fill: rgb(51, 51, 51); white-space: pre;"/>
  <path d="M 228.918 31.765 C 228.918 36.077 225.422 39.573 221.11 39.573 C 219.292 39.573 217.62 38.952 216.293 37.91 L 214.887 39.505 L 213.615 39.505 L 215.579 37.276 C 214.172 35.864 213.302 33.916 213.302 31.765 C 213.302 27.453 216.798 23.957 221.11 23.957 C 222.907 23.957 224.562 24.564 225.882 25.585 L 227.324 23.948 L 228.596 23.948 L 226.6 26.213 C 228.031 27.628 228.918 29.593 228.918 31.765 Z M 221.093 24.897 C 217.279 24.897 214.187 27.989 214.187 31.803 C 214.187 33.68 214.936 35.382 216.151 36.627 L 225.257 26.293 C 224.1 25.417 222.657 24.897 221.093 24.897 Z M 221.093 38.709 C 224.907 38.709 227.999 35.617 227.999 31.803 C 227.999 29.896 227.226 28.17 225.977 26.92 L 216.863 37.262 C 218.032 38.169 219.499 38.709 221.093 38.709 Z" style="stroke: rgb(0, 0, 0); stroke-width: 0px;"/>
  <path d="M 219.412 64.088 L 217.555 64.088 L 221.097 72.376 L 222.552 72.376 L 226.114 64.088 L 224.298 64.088 L 221.819 70.265 L 219.412 64.088 Z" style="fill: rgb(51, 51, 51); white-space: pre;"/>
  <path d="M 222.075 86.152 L 224.553 79.975 L 226.369 79.975 L 222.807 88.263 L 221.352 88.263 L 217.811 79.975 L 219.668 79.975 L 222.075 86.152 Z M 218.581 90.741 L 218.581 89.43 L 225.537 89.43 L 225.537 90.741 L 218.581 90.741 Z" style="fill: rgb(51, 51, 51); white-space: pre;"/>
  <path d="M 221.199 111.279 L 222.064 110.414 L 225.724 114.059 L 222.088 117.696 L 221.222 116.831 L 221.91 116.142 L 214.855 116.142 L 214.855 114.919 L 223.134 114.919 L 223.986 114.067 L 223.198 113.279 L 214.877 113.279 L 214.877 112.055 L 221.975 112.055 L 221.199 111.279 Z" style="fill: rgb(51, 51, 51); white-space: pre;"/>
  <path d="M 215.374 104.199 L 216.19 105.015 L 224.199 105.015 L 225.051 104.163 L 224.263 103.375 L 216.198 103.375 L 215.374 104.199 Z M 217.414 106.238 L 218.138 106.963 L 217.273 107.828 L 213.636 104.191 L 217.296 100.546 L 218.162 101.411 L 217.422 102.151 L 223.04 102.151 L 222.264 101.375 L 223.129 100.51 L 226.789 104.155 L 223.153 107.792 L 222.287 106.927 L 222.976 106.238 L 217.414 106.238 Z" style="fill: rgb(51, 51, 51); white-space: pre;"/>
  <text style="fill: rgb(51, 51, 51); font-family: &quot;Noto Sans Math&quot;; font-size: 16.4px; white-space: pre;" transform="matrix(1, 0, 0, 1, -269.101807, 108.57428)"><tspan x="277.09" y="309.179">ABCDEFHIJKLMNOPQRSTUVWXYZ</tspan><tspan x="277.09" dy="1em">โ</tspan><tspan>abcdefhijklmnopqrstuvwxyz</tspan><tspan x="277.09" dy="1em">โ</tspan><tspan>1234567890</tspan><tspan x="277.09" dy="1em">โ</tspan><tspan>`,./;'[]\-=</tspan><tspan x="277.09" dy="1em">โ</tspan><tspan>~!@#$%^&amp;*()_+{}|:"&lt;&gt;?</tspan><tspan x="277.09" dy="1em">โ</tspan></text>
  <text style="fill: rgb(51, 51, 51); font-family: &quot;Times New Roman&quot;; font-size: 16.4px; white-space: pre;" transform="matrix(1, 0, 0, 1, -217.814194, 1.270058)"><tspan x="334.555" y="35.405">0</tspan><tspan x="334.555" dy="1em">โ</tspan><tspan>1</tspan><tspan x="334.555" dy="1em">โ</tspan><tspan>2</tspan><tspan x="334.555" dy="1em">โ</tspan><tspan>3</tspan><tspan x="334.555" dy="1em">โ</tspan><tspan>4</tspan><tspan x="334.555" dy="1em">โ</tspan><tspan>5</tspan><tspan x="334.555" dy="1em">โ</tspan><tspan>6</tspan><tspan x="334.555" dy="1em">โ</tspan><tspan>7</tspan><tspan x="334.555" dy="1em">โ</tspan><tspan>8</tspan><tspan x="334.555" dy="1em">โ</tspan><tspan>9</tspan><tspan x="334.555" dy="1em">โ</tspan><tspan>%</tspan><tspan x="334.555" dy="1em">โ</tspan><tspan>(x)</tspan><tspan x="334.555" dy="1em">โ</tspan><tspan>{x}</tspan><tspan x="334.555" dy="1em">โ</tspan><tspan>[x]</tspan><tspan x="334.555" dy="1em">โ</tspan><tspan style="font-family: &quot;Noto Sans Mono&quot;;">&lt;</tspan><tspan x="334.555" dy="1em">โ</tspan><tspan style="font-family: &quot;Noto Sans Mono&quot;;">&gt;</tspan><tspan x="334.555" dy="1em">โ</tspan><tspan style="font-family: &quot;Noto Sans Mono&quot;;">=</tspan><tspan x="334.555" dy="1em">โ</tspan><tspan style="font-family: &quot;Noto Sans Mono&quot;;">โฅ</tspan><tspan x="334.555" dy="1em">โ</tspan><tspan style="font-family: &quot;Noto Sans Mono&quot;;">โ</tspan><tspan x="334.555" dy="1em">โ</tspan><tspan style="font-family: &quot;Noto Sans Mono&quot;;">โ</tspan><tspan x="334.555" dy="1em">โ</tspan><tspan style="font-family: &quot;Noto Sans Mono&quot;;">โ</tspan><tspan x="334.555" dy="1em">โ</tspan><tspan style="font-family: &quot;Noto Sans Mono&quot;;">โ</tspan><tspan x="334.555" dy="1em">โ</tspan></text>
  <path d="M 300.416 35.125 C 300.416 33.596 300.647 32.281 301.107 31.178 C 301.568 30.074 302.181 29.252 302.945 28.713 C 303.537 28.285 304.149 28.07 304.782 28.07 C 305.81 28.07 306.732 28.593 307.548 29.641 C 308.569 30.938 309.079 32.698 309.079 34.917 C 309.079 36.471 308.856 37.792 308.408 38.879 C 307.96 39.966 307.389 40.754 306.694 41.245 C 306 41.735 305.329 41.981 304.683 41.981 C 303.405 41.981 302.342 41.227 301.492 39.718 C 300.775 38.447 300.416 36.916 300.416 35.125 Z M 302.352 35.371 C 302.352 37.216 302.579 38.721 303.034 39.887 C 303.409 40.868 303.969 41.359 304.713 41.359 C 305.068 41.359 305.437 41.199 305.82 40.879 C 306.201 40.559 306.491 40.025 306.69 39.274 C 306.992 38.141 307.144 36.544 307.144 34.482 C 307.144 32.953 306.986 31.679 306.67 30.658 C 306.432 29.901 306.126 29.364 305.751 29.048 C 305.48 28.831 305.154 28.723 304.772 28.723 C 304.324 28.723 303.926 28.924 303.577 29.325 C 303.103 29.871 302.78 30.731 302.608 31.903 C 302.437 33.077 302.352 34.233 302.352 35.371 Z" style="fill: rgb(51, 51, 51); white-space: pre;"/>
  <path transform="matrix(1, 0, 0, 1, 53.070866, -0.062197)" style="fill: rgb(51, 51, 51); white-space: pre;"/>
  <path d="M 302.055 49.894 L 305.315 48.304 L 305.642 48.304 L 305.642 59.616 C 305.642 60.368 305.673 60.835 305.736 61.019 C 305.799 61.203 305.928 61.345 306.126 61.445 C 306.323 61.544 306.725 61.599 307.331 61.613 L 307.331 61.978 L 302.292 61.978 L 302.292 61.613 C 302.925 61.599 303.334 61.545 303.518 61.45 C 303.701 61.354 303.83 61.225 303.902 61.064 C 303.975 60.902 304.011 60.42 304.011 59.616 L 304.011 52.384 C 304.011 51.409 303.978 50.784 303.912 50.507 C 303.867 50.296 303.783 50.142 303.661 50.044 C 303.538 49.944 303.393 49.894 303.221 49.894 C 302.978 49.894 302.639 49.997 302.204 50.201 L 302.055 49.894 Z" style="fill: rgb(51, 51, 51); white-space: pre;"/>
  <path transform="matrix(1, 0, 0, 1, 53.070866, -0.062197)" style="fill: rgb(51, 51, 51); white-space: pre;"/>
  <path d="M 308.961 79.633 L 308.023 82.212 L 300.118 82.212 L 300.118 81.847 C 302.444 79.726 304.08 77.994 305.029 76.65 C 305.978 75.306 306.451 74.078 306.451 72.965 C 306.451 72.115 306.191 71.416 305.672 70.87 C 305.151 70.323 304.528 70.049 303.804 70.049 C 303.145 70.049 302.554 70.242 302.031 70.628 C 301.506 71.013 301.12 71.578 300.87 72.322 L 300.505 72.322 C 300.669 71.104 301.092 70.169 301.774 69.516 C 302.455 68.864 303.307 68.538 304.328 68.538 C 305.415 68.538 306.322 68.887 307.05 69.585 C 307.778 70.284 308.142 71.107 308.142 72.055 C 308.142 72.734 307.984 73.413 307.667 74.091 C 307.179 75.158 306.39 76.287 305.295 77.479 C 303.656 79.271 302.632 80.351 302.223 80.72 L 305.721 80.72 C 306.433 80.72 306.931 80.694 307.218 80.641 C 307.504 80.588 307.763 80.482 307.994 80.32 C 308.224 80.159 308.424 79.929 308.596 79.633 L 308.961 79.633 Z" style="fill: rgb(51, 51, 51); white-space: pre;"/>
  <path transform="matrix(1, 0, 0, 1, 53.070866, -0.062197)" style="fill: rgb(51, 51, 51); white-space: pre;"/>
  <path d="M 300.712 91.597 C 301.093 90.695 301.576 89.998 302.159 89.508 C 302.743 89.017 303.468 88.772 304.338 88.772 C 305.411 88.772 306.234 89.121 306.808 89.819 C 307.242 90.34 307.459 90.896 307.459 91.489 C 307.459 92.463 306.847 93.471 305.622 94.513 C 306.445 94.835 307.068 95.296 307.489 95.896 C 307.911 96.495 308.122 97.2 308.122 98.009 C 308.122 99.169 307.753 100.173 307.015 101.023 C 306.054 102.13 304.661 102.683 302.836 102.683 C 301.933 102.683 301.319 102.57 300.993 102.347 C 300.667 102.124 300.505 101.883 300.505 101.625 C 300.505 101.434 300.582 101.266 300.737 101.122 C 300.891 100.978 301.077 100.905 301.294 100.905 C 301.458 100.905 301.627 100.931 301.799 100.984 C 301.911 101.017 302.164 101.137 302.559 101.344 C 302.955 101.551 303.228 101.675 303.379 101.714 C 303.622 101.787 303.883 101.824 304.16 101.824 C 304.831 101.824 305.416 101.564 305.914 101.043 C 306.411 100.522 306.66 99.907 306.66 99.195 C 306.66 98.675 306.544 98.168 306.313 97.674 C 306.142 97.305 305.954 97.026 305.751 96.835 C 305.467 96.571 305.078 96.331 304.585 96.118 C 304.09 95.904 303.587 95.797 303.073 95.797 L 302.756 95.797 L 302.756 95.501 C 303.277 95.434 303.799 95.247 304.323 94.937 C 304.846 94.627 305.226 94.256 305.464 93.82 C 305.701 93.386 305.82 92.909 305.82 92.388 C 305.82 91.709 305.608 91.162 305.182 90.743 C 304.757 90.325 304.229 90.115 303.596 90.115 C 302.576 90.115 301.722 90.662 301.038 91.756 L 300.712 91.597 Z" style="fill: rgb(51, 51, 51); white-space: pre;"/>
  <path transform="matrix(1, 0, 0, 1, 53.070866, -0.062197)" style="fill: rgb(51, 51, 51); white-space: pre;"/>
  <path d="M 309.099 117.74 L 309.099 119.143 L 307.302 119.143 L 307.302 122.68 L 305.672 122.68 L 305.672 119.143 L 300 119.143 L 300 117.878 L 306.215 109.006 L 307.302 109.006 L 307.302 117.74 L 309.099 117.74 Z M 305.672 117.74 L 305.672 111.091 L 300.969 117.74 L 305.672 117.74 Z" style="fill: rgb(51, 51, 51); white-space: pre;"/>
  <path transform="matrix(1, 0, 0, 1, 53.070866, -0.062197)" style="fill: rgb(51, 51, 51); white-space: pre;"/>
  <path d="M 308.467 129.516 L 307.696 131.197 L 303.666 131.197 L 302.786 132.994 C 304.532 133.251 305.916 133.9 306.936 134.941 C 307.812 135.837 308.25 136.89 308.25 138.102 C 308.25 138.807 308.107 139.459 307.82 140.059 C 307.533 140.657 307.173 141.168 306.739 141.59 C 306.303 142.011 305.82 142.35 305.286 142.608 C 304.529 142.969 303.752 143.151 302.955 143.151 C 302.152 143.151 301.567 143.014 301.2 142.741 C 300.835 142.468 300.653 142.166 300.653 141.837 C 300.653 141.653 300.728 141.49 300.88 141.348 C 301.031 141.206 301.221 141.136 301.452 141.136 C 301.624 141.136 301.774 141.162 301.903 141.215 C 302.031 141.268 302.249 141.402 302.559 141.62 C 303.054 141.961 303.553 142.133 304.06 142.133 C 304.831 142.133 305.508 141.842 306.091 141.259 C 306.675 140.676 306.966 139.966 306.966 139.13 C 306.966 138.319 306.706 137.564 306.185 136.862 C 305.666 136.16 304.947 135.618 304.031 135.237 C 303.314 134.941 302.336 134.77 301.097 134.724 L 303.666 129.516 L 308.467 129.516 Z" style="fill: rgb(51, 51, 51); white-space: pre;"/>
  <path transform="matrix(1, 0, 0, 1, 53.070866, -0.062197)" style="fill: rgb(51, 51, 51); white-space: pre;"/>
  <path d="M 308.754 149.474 L 308.754 149.839 C 307.884 149.925 307.174 150.098 306.625 150.358 C 306.075 150.619 305.531 151.015 304.994 151.549 C 304.458 152.082 304.013 152.677 303.661 153.332 C 303.309 153.987 303.014 154.767 302.776 155.669 C 303.725 155.016 304.677 154.69 305.632 154.69 C 306.548 154.69 307.341 155.059 308.013 155.797 C 308.685 156.535 309.02 157.483 309.02 158.642 C 309.02 159.762 308.681 160.784 308.004 161.705 C 307.187 162.824 306.106 163.385 304.762 163.385 C 303.847 163.385 303.07 163.081 302.431 162.475 C 301.18 161.297 300.554 159.768 300.554 157.892 C 300.554 156.693 300.795 155.553 301.275 154.473 C 301.756 153.393 302.443 152.435 303.335 151.598 C 304.227 150.762 305.082 150.199 305.899 149.909 C 306.715 149.619 307.477 149.474 308.181 149.474 L 308.754 149.474 Z M 302.608 156.39 C 302.49 157.28 302.431 157.997 302.431 158.543 C 302.431 159.176 302.548 159.862 302.781 160.604 C 303.015 161.345 303.363 161.932 303.823 162.367 C 304.16 162.676 304.569 162.832 305.049 162.832 C 305.622 162.832 306.134 162.562 306.585 162.021 C 307.036 161.481 307.262 160.71 307.262 159.709 C 307.262 158.583 307.037 157.608 306.59 156.785 C 306.142 155.962 305.506 155.55 304.683 155.55 C 304.433 155.55 304.165 155.603 303.878 155.708 C 303.592 155.813 303.168 156.041 302.608 156.39 Z" style="fill: rgb(51, 51, 51); white-space: pre;"/>
  <path transform="matrix(1, 0, 0, 1, 53.070866, -0.062197)" style="fill: rgb(51, 51, 51); white-space: pre;"/>
  <path d="M 301.72 169.984 L 308.902 169.984 L 308.902 170.36 L 304.437 183.658 L 303.33 183.658 L 307.331 171.595 L 303.646 171.595 C 302.902 171.595 302.371 171.684 302.055 171.862 C 301.502 172.164 301.057 172.632 300.722 173.265 L 300.436 173.156 L 301.72 169.984 Z" style="fill: rgb(51, 51, 51); white-space: pre;"/>
  <path transform="matrix(1, 0, 0, 1, 53.070866, -0.062197)" style="fill: rgb(51, 51, 51); white-space: pre;"/>
  <path d="M 303.567 196.868 C 302.507 195.998 301.824 195.3 301.516 194.773 C 301.21 194.246 301.057 193.7 301.057 193.133 C 301.057 192.264 301.393 191.515 302.065 190.886 C 302.738 190.256 303.63 189.942 304.743 189.942 C 305.822 189.942 306.692 190.235 307.351 190.821 C 308.01 191.407 308.339 192.076 308.339 192.826 C 308.339 193.327 308.161 193.838 307.805 194.359 C 307.45 194.878 306.709 195.491 305.583 196.196 C 306.741 197.091 307.509 197.796 307.885 198.31 C 308.385 198.983 308.635 199.69 308.635 200.434 C 308.635 201.376 308.276 202.182 307.558 202.849 C 306.84 203.518 305.899 203.853 304.733 203.853 C 303.462 203.853 302.471 203.454 301.759 202.657 C 301.193 202.018 300.909 201.32 300.909 200.563 C 300.909 199.97 301.108 199.383 301.506 198.799 C 301.905 198.217 302.592 197.573 303.567 196.868 Z M 305.118 195.811 C 305.909 195.099 306.409 194.538 306.62 194.127 C 306.831 193.715 306.936 193.248 306.936 192.728 C 306.936 192.037 306.741 191.495 306.353 191.103 C 305.964 190.712 305.435 190.515 304.762 190.515 C 304.09 190.515 303.543 190.709 303.123 191.098 C 302.701 191.486 302.49 191.942 302.49 192.461 C 302.49 192.804 302.577 193.147 302.751 193.489 C 302.927 193.831 303.176 194.158 303.498 194.467 L 305.118 195.811 Z M 304.031 197.243 C 303.484 197.705 303.08 198.207 302.815 198.75 C 302.553 199.294 302.421 199.881 302.421 200.514 C 302.421 201.364 302.653 202.044 303.118 202.553 C 303.582 203.064 304.173 203.32 304.891 203.32 C 305.603 203.32 306.171 203.118 306.599 202.716 C 307.028 202.315 307.242 201.828 307.242 201.254 C 307.242 200.78 307.118 200.356 306.867 199.98 C 306.4 199.281 305.453 198.37 304.031 197.243 Z" style="fill: rgb(51, 51, 51); white-space: pre;"/>
  <path transform="matrix(1, 0, 0, 1, 53.070866, -0.062197)" style="fill: rgb(51, 51, 51); white-space: pre;"/>
  <path d="M 300.751 224.126 L 300.751 223.761 C 301.608 223.747 302.405 223.549 303.142 223.162 C 303.88 222.777 304.593 222.104 305.281 221.143 C 305.969 220.182 306.449 219.124 306.719 217.971 C 305.684 218.636 304.749 218.969 303.912 218.969 C 302.971 218.969 302.164 218.605 301.492 217.877 C 300.82 217.149 300.485 216.183 300.485 214.978 C 300.485 213.805 300.82 212.762 301.492 211.845 C 302.302 210.732 303.36 210.176 304.664 210.176 C 305.763 210.176 306.706 210.63 307.489 211.539 C 308.45 212.665 308.931 214.056 308.931 215.709 C 308.931 217.197 308.566 218.585 307.835 219.873 C 307.104 221.16 306.086 222.228 304.782 223.079 C 303.722 223.777 302.566 224.126 301.314 224.126 L 300.751 224.126 Z M 306.877 217.24 C 306.996 216.384 307.055 215.699 307.055 215.185 C 307.055 214.546 306.946 213.856 306.729 213.116 C 306.511 212.374 306.203 211.807 305.805 211.411 C 305.406 211.016 304.954 210.818 304.447 210.818 C 303.861 210.818 303.346 211.081 302.906 211.608 C 302.464 212.135 302.243 212.92 302.243 213.96 C 302.243 215.35 302.537 216.437 303.123 217.221 C 303.551 217.787 304.078 218.069 304.703 218.069 C 305.005 218.069 305.364 217.997 305.78 217.852 C 306.195 217.708 306.56 217.503 306.877 217.24 Z" style="fill: rgb(51, 51, 51); white-space: pre;"/>
  <path transform="matrix(1, 0, 0, 1, 53.070866, -0.062197)" style="fill: rgb(51, 51, 51); white-space: pre;"/>
  <path d="M 349.998 57.804 L 342.086 69.359 L 341.373 69.359 L 349.285 57.804 L 349.998 57.804 Z M 341.766 57.804 C 342.487 57.804 343.046 58.103 343.444 58.701 C 343.841 59.299 344.04 59.985 344.04 60.759 C 344.04 61.688 343.816 62.406 343.367 62.913 C 342.919 63.421 342.38 63.674 341.75 63.674 C 341.328 63.674 340.941 63.558 340.589 63.326 C 340.236 63.094 339.955 62.748 339.744 62.289 C 339.533 61.83 339.428 61.32 339.428 60.759 C 339.428 60.199 339.535 59.682 339.748 59.21 C 339.961 58.738 340.254 58.385 340.625 58.152 C 340.996 57.92 341.376 57.804 341.766 57.804 Z M 341.742 58.253 C 341.469 58.253 341.228 58.413 341.017 58.733 C 340.806 59.054 340.701 59.727 340.701 60.751 C 340.701 61.493 340.76 62.059 340.877 62.449 C 340.968 62.743 341.109 62.969 341.301 63.129 C 341.414 63.225 341.553 63.273 341.718 63.273 C 341.974 63.273 342.193 63.135 342.374 62.857 C 342.641 62.446 342.775 61.76 342.775 60.799 C 342.775 59.785 342.644 59.073 342.382 58.661 C 342.211 58.389 341.998 58.253 341.742 58.253 Z M 349.63 63.522 C 350.009 63.522 350.386 63.642 350.763 63.882 C 351.139 64.122 351.43 64.472 351.635 64.931 C 351.841 65.391 351.944 65.895 351.944 66.445 C 351.944 67.39 351.717 68.112 351.263 68.611 C 350.809 69.11 350.273 69.359 349.654 69.359 C 349.264 69.359 348.886 69.239 348.52 68.999 C 348.155 68.759 347.867 68.416 347.656 67.97 C 347.445 67.524 347.339 67.016 347.339 66.445 C 347.339 65.885 347.445 65.372 347.656 64.907 C 347.867 64.443 348.155 64.096 348.52 63.866 C 348.886 63.637 349.256 63.522 349.63 63.522 Z M 349.638 63.946 C 349.381 63.946 349.16 64.091 348.973 64.379 C 348.733 64.753 348.613 65.46 348.613 66.501 C 348.613 67.457 348.736 68.124 348.981 68.503 C 349.162 68.775 349.381 68.911 349.638 68.911 C 349.883 68.911 350.102 68.765 350.294 68.471 C 350.551 68.081 350.679 67.411 350.679 66.461 C 350.679 65.457 350.551 64.755 350.294 64.355 C 350.118 64.083 349.899 63.946 349.638 63.946 Z" style="fill: rgb(51, 51, 51); white-space: pre;"/>
  <path transform="matrix(1, 0, 0, 1, 53.070866, -0.062197)" style="fill: rgb(51, 51, 51); white-space: pre;"/>
  <path d="M 340.656 106.333 L 340.656 106.629 C 339.85 106.224 339.177 105.749 338.638 105.204 C 337.869 104.43 337.277 103.517 336.86 102.465 C 336.444 101.414 336.236 100.322 336.236 99.19 C 336.236 97.536 336.644 96.026 337.461 94.662 C 338.278 93.298 339.343 92.323 340.656 91.735 L 340.656 92.071 C 339.999 92.435 339.46 92.931 339.038 93.561 C 338.617 94.191 338.302 94.989 338.093 95.955 C 337.885 96.921 337.781 97.93 337.781 98.982 C 337.781 100.125 337.869 101.163 338.045 102.097 C 338.184 102.834 338.353 103.425 338.55 103.871 C 338.747 104.317 339.013 104.745 339.347 105.156 C 339.68 105.568 340.117 105.96 340.656 106.333 Z M 341.237 95.787 L 344.688 95.787 L 344.688 96.083 C 344.469 96.083 344.316 96.121 344.227 96.195 C 344.139 96.27 344.095 96.369 344.095 96.492 C 344.095 96.62 344.189 96.818 344.376 97.084 C 344.435 97.17 344.523 97.303 344.64 97.484 L 345.16 98.317 L 345.761 97.484 C 346.145 96.956 346.337 96.623 346.337 96.484 C 346.337 96.372 346.292 96.277 346.201 96.199 C 346.11 96.122 345.964 96.083 345.761 96.083 L 345.761 95.787 L 348.243 95.787 L 348.243 96.083 C 347.982 96.099 347.755 96.171 347.563 96.299 C 347.301 96.481 346.943 96.876 346.49 97.484 L 345.489 98.822 L 347.314 101.448 C 347.763 102.094 348.083 102.483 348.275 102.613 C 348.468 102.745 348.716 102.818 349.02 102.834 L 349.02 103.122 L 345.561 103.122 L 345.561 102.834 C 345.801 102.834 345.988 102.781 346.121 102.674 C 346.222 102.599 346.273 102.5 346.273 102.377 C 346.273 102.255 346.102 101.945 345.761 101.448 L 344.688 99.879 L 343.511 101.448 C 343.148 101.934 342.966 102.223 342.966 102.313 C 342.966 102.441 343.026 102.558 343.146 102.662 C 343.267 102.766 343.447 102.824 343.687 102.834 L 343.687 103.122 L 341.293 103.122 L 341.293 102.834 C 341.485 102.808 341.653 102.741 341.797 102.634 C 342 102.479 342.341 102.084 342.822 101.448 L 344.36 99.406 L 342.966 97.388 C 342.571 96.812 342.266 96.451 342.049 96.303 C 341.833 96.157 341.562 96.083 341.237 96.083 L 341.237 95.787 Z M 349.589 92.071 L 349.589 91.735 C 350.401 92.135 351.076 92.608 351.615 93.152 C 352.379 93.932 352.969 94.846 353.385 95.895 C 353.802 96.944 354.01 98.037 354.01 99.174 C 354.01 100.83 353.603 102.339 352.789 103.703 C 351.974 105.067 350.908 106.043 349.589 106.629 L 349.589 106.333 C 350.246 105.965 350.786 105.468 351.211 104.84 C 351.636 104.213 351.951 103.415 352.156 102.445 C 352.361 101.477 352.464 100.466 352.464 99.414 C 352.464 98.278 352.376 97.239 352.2 96.299 C 352.067 95.563 351.9 94.973 351.699 94.53 C 351.499 94.087 351.234 93.66 350.903 93.248 C 350.572 92.838 350.134 92.445 349.589 92.071 Z" style="fill: rgb(51, 51, 51); white-space: pre;"/>
  <path transform="matrix(1, 0, 0, 1, 53.070866, -0.062197)" style="fill: rgb(51, 51, 51); white-space: pre;"/>
  <path d="M 339.832 122.508 L 339.832 122.788 C 338.94 122.665 338.215 122.303 337.657 121.703 C 337.099 121.102 336.821 120.436 336.821 119.705 C 336.821 119.321 336.882 118.874 337.005 118.364 C 337.127 117.854 337.189 117.457 337.189 117.175 C 337.189 116.79 337.027 116.431 336.705 116.098 C 336.381 115.764 335.934 115.559 335.363 115.485 L 335.363 115.157 C 335.934 115.082 336.381 114.879 336.705 114.548 C 337.027 114.217 337.189 113.857 337.189 113.467 C 337.189 113.184 337.127 112.789 337.005 112.282 C 336.882 111.774 336.821 111.326 336.821 110.937 C 336.821 110.211 337.099 109.546 337.657 108.943 C 338.215 108.339 338.94 107.979 339.832 107.862 L 339.832 108.142 C 339.207 108.291 338.749 108.535 338.458 108.875 C 338.167 109.213 338.022 109.586 338.022 109.992 C 338.022 110.306 338.082 110.721 338.202 111.237 C 338.322 111.752 338.382 112.191 338.382 112.554 C 338.382 113.093 338.184 113.616 337.79 114.124 C 337.394 114.631 336.804 115.023 336.02 115.301 C 336.788 115.584 337.374 115.984 337.778 116.502 C 338.18 117.02 338.382 117.548 338.382 118.088 C 338.382 118.45 338.322 118.889 338.202 119.405 C 338.082 119.92 338.022 120.335 338.022 120.65 C 338.022 121.056 338.167 121.428 338.458 121.767 C 338.749 122.106 339.207 122.353 339.832 122.508 Z M 341.182 111.914 L 344.633 111.914 L 344.633 112.21 C 344.414 112.21 344.261 112.247 344.173 112.322 C 344.084 112.396 344.04 112.495 344.04 112.619 C 344.04 112.747 344.133 112.944 344.321 113.211 C 344.379 113.296 344.467 113.429 344.585 113.611 L 345.105 114.444 L 345.706 113.611 C 346.09 113.083 346.283 112.749 346.283 112.61 C 346.283 112.498 346.237 112.403 346.146 112.326 C 346.055 112.248 345.908 112.21 345.706 112.21 L 345.706 111.914 L 348.188 111.914 L 348.188 112.21 C 347.926 112.226 347.7 112.298 347.508 112.426 C 347.246 112.608 346.888 113.003 346.435 113.611 L 345.434 114.949 L 347.26 117.575 C 347.708 118.221 348.028 118.609 348.22 118.74 C 348.412 118.871 348.661 118.945 348.965 118.961 L 348.965 119.249 L 345.506 119.249 L 345.506 118.961 C 345.746 118.961 345.932 118.907 346.066 118.801 C 346.168 118.725 346.219 118.626 346.219 118.504 C 346.219 118.381 346.048 118.071 345.706 117.575 L 344.633 116.006 L 343.456 117.575 C 343.092 118.061 342.911 118.349 342.911 118.44 C 342.911 118.568 342.971 118.684 343.091 118.789 C 343.211 118.893 343.392 118.95 343.632 118.961 L 343.632 119.249 L 341.238 119.249 L 341.238 118.961 C 341.43 118.934 341.598 118.867 341.742 118.76 C 341.944 118.605 342.286 118.21 342.767 117.575 L 344.305 115.533 L 342.911 113.515 C 342.516 112.939 342.21 112.577 341.994 112.43 C 341.778 112.283 341.507 112.21 341.182 112.21 L 341.182 111.914 Z M 350.579 108.142 L 350.579 107.862 C 351.47 107.979 352.195 108.338 352.753 108.939 C 353.311 109.539 353.59 110.208 353.59 110.945 C 353.59 111.329 353.528 111.774 353.405 112.282 C 353.282 112.789 353.221 113.184 353.221 113.467 C 353.221 113.851 353.382 114.21 353.706 114.544 C 354.028 114.878 354.475 115.082 355.047 115.157 L 355.047 115.485 C 354.475 115.559 354.028 115.764 353.706 116.098 C 353.382 116.431 353.221 116.79 353.221 117.175 C 353.221 117.457 353.282 117.854 353.405 118.364 C 353.528 118.874 353.59 119.321 353.59 119.705 C 353.59 120.431 353.311 121.095 352.753 121.699 C 352.195 122.302 351.47 122.665 350.579 122.788 L 350.579 122.508 C 351.203 122.353 351.661 122.107 351.952 121.771 C 352.242 121.435 352.388 121.061 352.388 120.65 C 352.388 120.335 352.326 119.92 352.204 119.405 C 352.081 118.889 352.02 118.453 352.02 118.096 C 352.02 117.551 352.219 117.025 352.617 116.518 C 353.014 116.011 353.605 115.619 354.39 115.341 C 353.621 115.058 353.034 114.658 352.629 114.14 C 352.223 113.622 352.02 113.093 352.02 112.554 C 352.02 112.191 352.081 111.752 352.204 111.237 C 352.326 110.721 352.388 110.306 352.388 109.992 C 352.388 109.586 352.242 109.213 351.952 108.875 C 351.661 108.535 351.203 108.291 350.579 108.142 Z" style="fill: rgb(51, 51, 51); white-space: pre;"/>
  <path transform="matrix(1, 0, 0, 1, 53.070866, -0.062197)" style="fill: rgb(51, 51, 51); white-space: pre;"/>
  <path d="M 340.432 139.173 L 336.908 139.173 L 336.908 124.815 L 340.432 124.815 L 340.432 125.448 L 338.11 125.448 L 338.11 138.549 L 340.432 138.549 L 340.432 139.173 Z M 341.237 128.587 L 344.688 128.587 L 344.688 128.883 C 344.469 128.883 344.316 128.921 344.227 128.995 C 344.139 129.07 344.095 129.169 344.095 129.292 C 344.095 129.42 344.189 129.618 344.376 129.884 C 344.435 129.97 344.523 130.103 344.64 130.284 L 345.16 131.117 L 345.761 130.284 C 346.145 129.756 346.337 129.423 346.337 129.284 C 346.337 129.172 346.292 129.077 346.201 128.999 C 346.11 128.922 345.964 128.883 345.761 128.883 L 345.761 128.587 L 348.243 128.587 L 348.243 128.883 C 347.982 128.899 347.755 128.971 347.563 129.099 C 347.301 129.281 346.943 129.676 346.49 130.284 L 345.489 131.622 L 347.314 134.248 C 347.763 134.894 348.083 135.283 348.275 135.413 C 348.468 135.545 348.716 135.618 349.02 135.634 L 349.02 135.922 L 345.561 135.922 L 345.561 135.634 C 345.801 135.634 345.988 135.581 346.121 135.474 C 346.222 135.399 346.273 135.3 346.273 135.177 C 346.273 135.055 346.102 134.745 345.761 134.248 L 344.688 132.679 L 343.511 134.248 C 343.148 134.734 342.966 135.023 342.966 135.113 C 342.966 135.241 343.026 135.358 343.146 135.462 C 343.267 135.566 343.447 135.624 343.687 135.634 L 343.687 135.922 L 341.293 135.922 L 341.293 135.634 C 341.485 135.608 341.653 135.541 341.797 135.434 C 342 135.279 342.341 134.884 342.822 134.248 L 344.36 132.206 L 342.966 130.188 C 342.571 129.612 342.266 129.251 342.049 129.103 C 341.833 128.957 341.562 128.883 341.237 128.883 L 341.237 128.587 Z M 349.822 124.815 L 353.345 124.815 L 353.345 139.181 L 349.822 139.181 L 349.822 138.549 L 352.144 138.549 L 352.144 125.448 L 349.822 125.448 L 349.822 124.815 Z" style="fill: rgb(51, 51, 51); white-space: pre;"/>
  <path transform="matrix(1, 0, 0, 1, 53.070866, -0.062197)" style="fill: rgb(51, 51, 51); white-space: pre;"/>
  <path transform="matrix(1, 0, 0, 1, 53.070866, -0.062197)" style="fill: rgb(51, 51, 51); white-space: pre;"/>
  <path d="M 344.437 176.137 L 344.437 174.857 L 349.783 172.283 L 344.437 169.347 L 344.437 168.068 L 351.325 171.922 L 351.325 172.742 L 344.437 176.137 Z" style="fill: rgb(51, 51, 51); white-space: pre;"/>
  <path transform="matrix(1, 0, 0, 1, 53.070866, -0.062197)" style="fill: rgb(51, 51, 51); white-space: pre;"/>
  <path d="M 344.109 187.764 L 344.109 186.452 L 351.653 186.452 L 351.653 187.764 L 344.109 187.764 Z M 344.109 190.88 L 344.109 189.568 L 351.653 189.568 L 351.653 190.88 L 344.109 190.88 Z" style="fill: rgb(51, 51, 51); white-space: pre;"/>
  <path transform="matrix(1, 0, 0, 1, 53.070866, -0.062197)" style="fill: rgb(51, 51, 51); white-space: pre;"/>
  <path d="M 344.011 208.887 L 344.011 207.608 L 350.193 205.033 L 344.011 202.098 L 344.011 200.819 L 351.735 204.673 L 351.735 205.493 L 344.011 208.887 Z M 344.011 210.839 L 344.011 209.675 L 351.735 209.675 L 351.735 210.839 L 344.011 210.839 Z" style="fill: rgb(51, 51, 51); white-space: pre;"/>
  <path transform="matrix(1, 0, 0, 1, 53.070866, -0.062197)" style="fill: rgb(51, 51, 51); white-space: pre;"/>
  <path d="M 349.095 226.222 C 347.761 226.222 346.682 226.023 345.856 225.624 C 345.03 225.225 344.426 224.664 344.043 223.943 C 343.661 223.221 343.469 222.39 343.469 221.45 C 343.469 220.499 343.661 219.665 344.043 218.949 C 344.426 218.233 345.03 217.675 345.856 217.276 C 346.682 216.877 347.761 216.677 349.095 216.677 L 351.965 216.677 L 351.965 217.842 L 349.095 217.842 C 347.685 217.842 346.624 218.102 345.913 218.621 C 345.203 219.14 344.793 219.886 344.683 220.859 L 351.965 220.859 L 351.965 222.024 L 344.683 222.024 C 344.793 222.997 345.2 223.746 345.905 224.271 C 346.611 224.796 347.674 225.058 349.095 225.058 L 351.965 225.058 L 351.965 226.222 L 349.095 226.222 Z" style="fill: rgb(51, 51, 51); white-space: pre;"/>
  <path transform="matrix(1, 0, 0, 1, 53.070866, -0.062197)" style="fill: rgb(51, 51, 51); white-space: pre;"/>
  <path d="M 349.095 242.622 C 347.761 242.622 346.682 242.423 345.856 242.024 C 345.03 241.625 344.426 241.064 344.043 240.343 C 343.661 239.621 343.469 238.79 343.469 237.85 C 343.469 236.899 343.661 236.065 344.043 235.349 C 344.426 234.633 345.03 234.075 345.856 233.676 C 346.682 233.277 347.761 233.077 349.095 233.077 L 351.965 233.077 L 351.965 234.242 L 349.095 234.242 C 347.685 234.242 346.624 234.502 345.913 235.021 C 345.203 235.54 344.793 236.286 344.683 237.259 L 351.965 237.259 L 351.965 238.424 L 344.683 238.424 C 344.793 239.397 345.2 240.146 345.905 240.671 C 346.611 241.196 347.674 241.458 349.095 241.458 L 351.965 241.458 L 351.965 242.622 L 349.095 242.622 Z M 344.601 244.59 L 349.849 231.208 L 351.095 231.208 L 345.847 244.59 L 344.601 244.59 Z" style="fill: rgb(51, 51, 51); white-space: pre;"/>
  <path transform="matrix(1, 0, 0, 1, 53.070866, -0.062197)" style="fill: rgb(51, 51, 51); white-space: pre;"/>
  <path d="M 348.849 259.022 C 347.789 259.022 346.911 258.891 346.216 258.629 C 345.522 258.366 344.976 258.008 344.576 257.554 C 344.178 257.101 343.894 256.59 343.724 256.021 C 343.554 255.452 343.469 254.862 343.469 254.25 C 343.469 253.637 343.551 253.047 343.715 252.479 C 343.879 251.91 344.161 251.399 344.56 250.945 C 344.96 250.492 345.509 250.134 346.208 249.871 C 346.908 249.608 347.789 249.477 348.849 249.477 L 351.965 249.477 L 351.965 250.642 L 348.849 250.642 C 347.821 250.642 346.998 250.781 346.38 251.06 C 345.763 251.339 345.32 251.746 345.052 252.282 C 344.784 252.817 344.65 253.473 344.65 254.25 C 344.65 255.015 344.784 255.669 345.052 256.21 C 345.32 256.751 345.763 257.163 346.38 257.448 C 346.998 257.732 347.821 257.874 348.849 257.874 L 351.965 257.874 L 351.965 259.022 L 348.849 259.022 Z" style="fill: rgb(51, 51, 51); white-space: pre;"/>
  <path transform="matrix(1, 0, 0, 1, 53.070866, -0.062197)" style="fill: rgb(51, 51, 51); white-space: pre;"/>
  <path d="M 348.849 275.422 C 347.789 275.422 346.911 275.291 346.216 275.029 C 345.522 274.766 344.976 274.408 344.576 273.954 C 344.178 273.501 343.894 272.99 343.724 272.421 C 343.554 271.852 343.469 271.262 343.469 270.65 C 343.469 270.037 343.551 269.447 343.715 268.879 C 343.879 268.31 344.161 267.799 344.56 267.345 C 344.96 266.892 345.509 266.534 346.208 266.271 C 346.908 266.008 347.789 265.877 348.849 265.877 L 351.965 265.877 L 351.965 267.042 L 348.849 267.042 C 347.821 267.042 346.998 267.181 346.38 267.46 C 345.763 267.739 345.32 268.146 345.052 268.682 C 344.784 269.217 344.65 269.873 344.65 270.65 C 344.65 271.415 344.784 272.069 345.052 272.61 C 345.32 273.151 345.763 273.563 346.38 273.848 C 346.998 274.132 347.821 274.274 348.849 274.274 L 351.965 274.274 L 351.965 275.422 L 348.849 275.422 Z M 344.732 277.39 L 349.98 264.008 L 351.227 264.008 L 345.979 277.39 L 344.732 277.39 Z" style="fill: rgb(51, 51, 51); white-space: pre;"/>
  <path transform="matrix(1, 0, 0, 1, 53.070866, -0.062197)" style="fill: rgb(51, 51, 51); white-space: pre;"/>
  <path d="M 247.171 256.87 L 247.802 256.87 C 247.881 256.857 247.968 256.85 248.062 256.85 L 260.541 256.85 C 260.778 256.85 260.963 256.885 261.092 256.955 C 261.22 257.025 261.284 257.108 261.284 257.204 C 261.284 257.292 261.22 257.372 261.092 257.446 C 260.963 257.52 260.778 257.557 260.541 257.557 L 248.062 257.557 C 247.969 257.557 247.884 257.55 247.805 257.536 L 244.791 276.278 L 239.828 266.101 L 237.848 267.008 L 237.507 266.37 L 240.52 264.865 L 244.57 273.067 L 247.171 256.87 Z M 248.954 271.108 C 249.367 269.935 249.551 269.612 250.151 269.083 C 250.587 268.716 250.611 268.692 251.808 267.795 C 252.198 267.495 252.474 267.264 252.658 267.127 L 253.164 266.713 C 252.819 264.297 252.543 263.698 251.784 263.698 C 251.323 263.698 251.208 263.744 249.828 264.664 L 249.874 264.043 C 251.463 262.662 252.129 262.272 252.843 262.272 C 253.578 262.272 253.901 262.617 254.109 263.56 C 254.178 263.883 254.315 264.733 254.408 265.585 C 255.213 264.826 255.26 264.779 256.019 264.043 C 256.915 263.169 257.008 263.078 257.652 262.502 C 258.043 262.317 258.227 262.272 258.526 262.272 C 258.826 262.272 258.986 262.341 259.331 262.571 L 258.826 264.182 C 258.342 263.974 258.112 263.928 257.86 263.928 C 257.238 263.928 256.455 264.481 254.523 266.275 L 254.66 267.288 C 254.849 269.201 254.943 269.378 255.384 270.699 C 255.702 271.652 255.781 271.893 256.587 271.893 C 257.415 271.893 257.215 271.557 257.837 270.453 L 259.25 271.604 C 258.49 272.41 257.99 272.515 256.724 272.515 C 254.791 272.515 254.157 272.502 253.652 270.96 C 253.307 269.902 253.394 269.152 253.257 267.404 C 251.578 268.76 250.587 270.28 250.104 272.305 C 250.035 272.327 249.967 272.351 249.92 272.351 C 249.92 272.351 249.852 272.327 249.713 272.305 L 248.954 271.108 Z" style="fill: rgb(51, 51, 51); white-space: pre;"/>
  <path d="M 289.104 276.524 L 289.104 276.905 C 288.067 276.384 287.202 275.773 286.509 275.073 C 285.52 274.077 284.759 272.903 284.222 271.551 C 283.687 270.199 283.42 268.795 283.42 267.339 C 283.42 265.213 283.945 263.271 284.995 261.517 C 286.046 259.763 287.415 258.509 289.104 257.753 L 289.104 258.185 C 288.259 258.653 287.566 259.291 287.023 260.101 C 286.482 260.911 286.077 261.937 285.808 263.18 C 285.54 264.422 285.407 265.719 285.407 267.072 C 285.407 268.542 285.52 269.876 285.746 271.077 C 285.925 272.025 286.142 272.785 286.396 273.359 C 286.649 273.932 286.991 274.482 287.42 275.011 C 287.849 275.541 288.41 276.045 289.104 276.524 Z M 300.59 258.185 L 300.59 257.753 C 301.634 258.268 302.502 258.876 303.195 259.575 C 304.178 260.578 304.937 261.754 305.471 263.102 C 306.008 264.451 306.275 265.857 306.275 267.319 C 306.275 269.448 305.752 271.389 304.705 273.143 C 303.657 274.896 302.286 276.152 300.59 276.905 L 300.59 276.524 C 301.435 276.051 302.129 275.412 302.676 274.605 C 303.222 273.798 303.628 272.772 303.891 271.525 C 304.155 270.28 304.287 268.98 304.287 267.627 C 304.287 266.167 304.174 264.831 303.948 263.622 C 303.777 262.676 303.562 261.917 303.303 261.347 C 303.046 260.778 302.706 260.229 302.28 259.699 C 301.854 259.172 301.291 258.666 300.59 258.185 Z M 269.334 277.639 C 269.934 277.73 270.21 277.754 270.555 277.754 C 272.511 277.754 273.04 276.741 274.421 270.39 C 274.857 268.364 274.996 267.766 275.364 266.363 C 274.904 266.386 274.651 266.386 274.512 266.386 L 272.901 266.363 L 272.326 266.363 C 272.534 266.248 272.717 266.155 272.786 266.109 C 272.994 266.018 273.04 265.972 273.293 265.833 C 273.339 265.81 273.477 265.717 273.616 265.626 C 273.799 265.649 273.914 265.649 273.961 265.649 L 275.087 265.602 C 275.202 265.602 275.318 265.602 275.548 265.626 C 276.446 261.783 276.745 261.139 278.034 259.873 C 279.599 258.354 280.519 257.871 281.922 257.871 C 282.383 257.871 282.566 257.893 283.027 258.008 L 281.969 259.252 C 281.163 259.114 280.84 259.068 280.427 259.068 C 279.046 259.068 278.725 259.758 277.229 265.626 C 277.849 265.602 278.057 265.602 278.563 265.602 C 279.115 265.602 279.369 265.602 280.035 265.626 L 279.07 266.363 C 278.84 266.339 278.701 266.339 278.632 266.339 L 277.435 266.386 C 277.344 266.386 277.251 266.386 277.043 266.363 C 276.999 266.523 276.561 268.226 275.687 271.517 C 275.158 273.634 274.328 275.59 273.616 276.557 C 272.994 277.363 271.821 278.489 271.153 278.858 C 270.785 279.065 270.186 279.18 269.427 279.18 C 269.013 279.18 268.805 279.157 268.299 279.089 C 268.484 278.812 268.69 278.56 268.874 278.305 Z M 289.623 271.048 C 290.036 269.875 290.22 269.552 290.82 269.023 C 291.256 268.656 291.28 268.632 292.477 267.735 C 292.867 267.435 293.143 267.204 293.327 267.067 L 293.833 266.653 C 293.488 264.237 293.212 263.638 292.453 263.638 C 291.992 263.638 291.877 263.684 290.497 264.604 L 290.543 263.983 C 292.132 262.602 292.798 262.212 293.512 262.212 C 294.247 262.212 294.57 262.557 294.778 263.5 C 294.847 263.823 294.984 264.673 295.077 265.525 C 295.882 264.766 295.929 264.719 296.688 263.983 C 297.584 263.109 297.677 263.018 298.321 262.442 C 298.712 262.257 298.896 262.212 299.195 262.212 C 299.495 262.212 299.655 262.281 300 262.511 L 299.495 264.122 C 299.011 263.914 298.781 263.868 298.529 263.868 C 297.907 263.868 297.124 264.421 295.192 266.215 L 295.329 267.228 C 295.518 269.141 295.612 269.318 296.053 270.639 C 296.371 271.592 296.45 271.833 297.256 271.833 C 298.084 271.833 297.884 271.497 298.506 270.393 L 299.919 271.544 C 299.159 272.35 298.659 272.455 297.393 272.455 C 295.46 272.455 294.826 272.442 294.321 270.9 C 293.976 269.842 294.063 269.092 293.926 267.344 C 292.247 268.7 291.256 270.22 290.773 272.245 C 290.704 272.267 290.636 272.291 290.589 272.291 C 290.589 272.291 290.521 272.267 290.382 272.245 Z" style="fill: rgb(51, 51, 51); white-space: pre;"/>
  <path d="M 268.659 298.981 C 266.581 300.39 265.464 300.907 264.477 300.907 C 263.8 300.907 263.28 300.556 263.098 300.017 C 262.995 299.686 262.968 299.457 262.968 298.858 C 264.165 298.256 264.892 297.842 266.426 296.932 C 267.855 296.081 268.375 295.398 268.375 294.467 C 268.375 293.742 267.828 293.308 266.893 293.308 C 266.321 293.308 265.931 293.411 265.307 293.68 C 264.32 294.136 263.438 294.694 262.917 295.192 C 261.928 296.144 261.046 298.421 261.046 300.099 C 261.046 301.321 261.851 302.088 263.177 302.088 C 264.709 302.088 266.686 301.177 268.635 299.582 L 268.659 298.981 Z M 263.047 298.111 C 263.487 295.875 264.657 294.176 265.801 294.176 C 266.216 294.176 266.504 294.508 266.504 295.026 C 266.504 296.061 265.749 296.725 263.047 298.111 Z" style="fill: rgb(51, 51, 51); white-space: pre;"/>
  <path d="M 270.54 294.584 C 270.611 294.595 270.645 294.607 270.645 294.607 C 270.669 294.607 270.704 294.595 270.739 294.584 C 270.986 293.551 271.491 292.775 272.348 292.083 C 272.418 292.975 272.374 293.358 272.55 293.898 C 272.807 294.684 273.131 294.691 274.117 294.691 C 274.763 294.691 275.018 294.637 275.406 294.226 L 274.685 293.639 C 274.367 294.202 274.469 294.374 274.047 294.374 C 273.636 294.374 273.595 294.251 273.433 293.764 C 273.208 293.09 273.16 293 273.064 292.024 L 272.994 291.507 C 273.98 290.592 274.379 290.31 274.696 290.31 C 274.825 290.31 274.942 290.333 275.189 290.439 L 275.447 289.618 C 275.271 289.5 275.189 289.465 275.036 289.465 C 274.884 289.465 274.79 289.488 274.59 289.582 C 274.262 289.876 274.214 289.923 273.757 290.369 C 273.37 290.744 273.346 290.768 272.935 291.155 C 272.888 290.721 272.818 290.287 272.783 290.122 C 272.677 289.641 272.512 289.465 272.137 289.465 C 271.772 289.465 271.433 289.664 270.622 290.369 L 270.599 290.685 C 271.303 290.216 271.361 290.193 271.596 290.193 C 271.984 290.193 272.125 290.498 272.301 291.731 L 272.042 291.942 C 271.949 292.012 271.808 292.13 271.609 292.283 C 270.998 292.74 270.986 292.753 270.763 292.94 C 270.457 293.21 270.363 293.375 270.153 293.973 L 270.54 294.584 Z" style="fill: rgb(51, 51, 51); white-space: pre;"/>
</svg>