<?xml version="1.0" encoding="utf-8"?>
<svg viewBox="0 0 500 500" xmlns="http://www.w3.org/2000/svg">
  <path d="M 300.653 401.067 C 300.655 400.711 300.656 400.356 300.656 400 C 300.656 289.543 211.113 200 100.656 200 C 100.437 200 100.218 200 100 200.001 C 122.36 141.523 178.945 100 245.216 100 C 331.063 100 400.656 169.677 400.656 255.628 C 400.656 322.026 359.125 378.712 300.653 401.067 Z M 280.305 253.926 L 280.305 209.102 L 284.7 209.102 C 289.68 209.102 293.318 209.504 295.613 210.31 C 297.908 211.116 300.081 212.605 302.131 214.778 C 304.182 216.95 307.991 222.212 313.557 230.562 L 329.231 253.926 L 355.159 253.926 L 342.048 232.979 C 336.873 224.629 332.759 218.818 329.707 215.547 C 326.655 212.275 322.786 209.272 318.098 206.538 C 327.522 205.171 334.602 201.863 339.338 196.614 C 344.075 191.364 346.443 184.711 346.443 176.655 C 346.443 170.307 344.881 164.668 341.755 159.737 C 338.631 154.805 334.468 151.374 329.267 149.446 C 324.067 147.517 315.73 146.553 304.255 146.553 L 258.625 146.553 L 258.625 253.926 Z M 280.305 164.717 L 297.224 164.717 C 306.014 164.717 311.287 164.839 313.044 165.083 C 316.56 165.669 319.283 167.073 321.211 169.295 C 323.14 171.516 324.104 174.433 324.104 178.047 C 324.104 181.269 323.372 183.955 321.907 186.104 C 320.442 188.252 318.415 189.765 315.827 190.645 C 313.24 191.523 306.746 191.963 296.345 191.963 L 280.305 191.963 Z" style="stroke: rgb(0, 0, 0); fill: rgb(240, 240, 240); stroke-width: 0px;"/>
  <path transform="matrix(1, 0, 0, 1, 39.899422, 68.247475)" style="fill: rgb(51, 51, 51); white-space: pre;"/>
</svg>