<?xml version="1.0" encoding="utf-8"?>
<svg viewBox="0 0 900 500" xmlns="http://www.w3.org/2000/svg">
  <path d="M 700 349.999 C 700 377.615 677.615 400 649.999 400 C 622.385 400 600 377.615 600 349.999 C 600 322.385 622.385 300 649.999 300 C 677.615 300 700 322.385 700 349.999 Z M 655.913 321.452 L 644.321 321.452 L 623.17 375.752 L 634.801 375.752 L 639.286 363.416 L 660.987 363.416 L 665.729 375.752 L 677.656 375.752 L 655.913 321.452 Z M 642.653 354.269 L 649.987 334.12 L 657.471 354.269 L 642.653 354.269 Z" style="stroke: rgb(0, 0, 0); fill: rgb(240, 240, 240); stroke-width: 0px;"/>
  <path d="M 800 250.001 C 800 277.614 777.614 300 749.999 300 C 722.386 300 700 277.614 700 250.001 C 700 222.386 722.386 200 749.999 200 C 777.614 200 800 222.386 800 250.001 Z M 728.206 275.057 L 747.385 275.057 C 754.638 275.012 759.21 274.901 761.106 274.719 C 764.131 274.422 766.671 273.635 768.735 272.349 C 770.799 271.066 772.426 269.354 773.618 267.208 C 774.81 265.061 775.403 262.856 775.403 260.584 C 775.403 257.703 774.481 255.193 772.637 253.058 C 770.793 250.923 768.153 249.414 764.718 248.53 C 767.152 247.556 769.081 246.09 770.502 244.138 C 771.926 242.185 772.637 240.039 772.637 237.701 C 772.637 235.546 772.062 233.597 770.908 231.858 C 769.754 230.123 768.312 228.734 766.582 227.689 C 764.853 226.646 762.895 225.956 760.704 225.628 C 758.514 225.302 755.187 225.134 750.727 225.134 L 728.206 225.134 L 728.206 275.057 Z M 746.117 233.444 C 751.473 233.444 754.711 233.5 755.842 233.614 C 757.736 233.82 759.166 234.404 760.126 235.37 C 761.089 236.333 761.567 237.587 761.567 239.131 C 761.567 240.743 761.009 242.044 759.897 243.031 C 758.781 244.017 757.251 244.613 755.304 244.819 C 754.227 244.931 751.473 244.989 747.039 244.989 L 739.584 244.989 L 739.584 233.444 L 746.117 233.444 Z M 748.768 253.296 C 753.945 253.296 757.307 253.537 758.86 254.012 C 760.408 254.491 761.594 255.249 762.413 256.294 C 763.232 257.339 763.643 258.611 763.643 260.108 C 763.643 261.879 763.112 263.294 762.049 264.348 C 760.983 265.405 759.606 266.069 757.918 266.342 C 756.814 266.544 754.212 266.647 750.113 266.647 L 739.584 266.647 L 739.584 253.296 L 748.768 253.296 Z" style="stroke: rgb(0, 0, 0); fill: rgb(240, 240, 240); stroke-width: 0px;"/>
  <path d="M 600 250 C 600 277.614 577.617 300 550 300 C 522.383 300 500 277.614 500 250 C 500 222.383 522.383 200 550 200 C 577.617 200 600 222.383 600 250 Z M 538.381 276.502 L 549.956 258.504 L 561.491 276.502 L 574.169 276.502 L 556.38 249.732 L 572.57 224.454 L 560.391 224.454 L 550.166 241.176 L 539.732 224.454 L 527.442 224.454 L 543.565 249.341 L 525.773 276.502 L 538.381 276.502 Z" style="stroke: rgb(0, 0, 0); fill: rgb(240, 240, 240); stroke-width: 0px;"/>
  <path d="M 700 149.999 C 700 177.612 677.612 200 649.999 200 C 622.385 200 600 177.612 600 149.999 C 600 122.385 622.385 100 649.999 100 C 677.612 100 700 122.385 700 149.999 Z M 655.218 177.669 L 655.218 155.818 L 674.418 125.582 L 662.271 125.582 L 650.229 146.188 L 637.94 125.582 L 625.582 125.582 L 644.708 155.747 L 644.708 177.669 L 655.218 177.669 Z" style="stroke: rgb(0, 0, 0); fill: rgb(240, 240, 240); stroke-width: 0px;"/>
  <path d="M 100 51.692 C 100 23.143 123.299 0 152.039 0 C 174.226 0 193.17 13.792 200.656 33.216 C 200.583 33.215 200.51 33.215 200.436 33.215 C 163.457 33.215 133.479 62.957 133.479 99.646 C 133.479 99.764 133.479 99.882 133.48 100 C 113.904 92.575 100 73.746 100 51.692 Z M 150.118 48.968 L 150.118 42.959 L 132.071 42.959 L 132.071 13.596 L 124.813 13.596 L 124.813 48.968 L 150.118 48.968 Z" style="stroke: rgb(0, 0, 0); fill: rgb(240, 240, 240); stroke-width: 0px;"/>
  <path d="M 766.52 100 C 766.521 99.882 766.521 99.764 766.521 99.646 C 766.521 62.957 736.543 33.215 699.564 33.215 C 699.49 33.215 699.417 33.215 699.344 33.216 C 706.83 13.792 725.774 0 747.961 0 C 776.701 0 800 23.143 800 51.692 C 800 73.746 786.096 92.575 766.52 100 Z M 759.708 51.127 L 759.708 36.238 L 761.179 36.238 C 762.847 36.238 764.065 36.372 764.833 36.64 C 765.601 36.907 766.329 37.402 767.015 38.124 C 767.702 38.845 768.977 40.593 770.84 43.366 L 776.088 51.127 L 784.768 51.127 L 780.379 44.169 C 778.646 41.396 777.269 39.466 776.247 38.379 C 775.225 37.292 773.93 36.295 772.361 35.387 C 775.516 34.933 777.886 33.834 779.471 32.091 C 781.057 30.347 781.85 28.137 781.85 25.461 C 781.85 23.353 781.327 21.48 780.281 19.842 C 779.235 18.204 777.841 17.064 776.1 16.424 C 774.359 15.783 771.568 15.463 767.726 15.463 L 752.45 15.463 L 752.45 51.127 L 759.708 51.127 Z M 759.708 21.496 L 765.372 21.496 C 768.315 21.496 770.08 21.536 770.669 21.617 C 771.846 21.812 772.757 22.278 773.403 23.016 C 774.049 23.754 774.371 24.723 774.371 25.923 C 774.371 26.994 774.126 27.886 773.636 28.6 C 773.145 29.313 772.467 29.816 771.6 30.108 C 770.734 30.4 768.56 30.546 765.078 30.546 L 759.708 30.546 L 759.708 21.496 Z" style="stroke: rgb(0, 0, 0); fill: rgb(240, 240, 240); stroke-width: 0px;"/>
  <path style="fill: rgb(51, 51, 51); white-space: pre;"/>
  <path style="fill: rgb(51, 51, 51); white-space: pre;"/>
  <path d="M 100 247.14 L 142.247 204.894 L 142.247 204.833 L 147.079 200 L 152.921 200 L 157.605 204.684 L 157.605 204.745 L 200 247.14 L 189.941 257.2 L 157.605 224.863 L 157.605 300 L 142.247 300 L 142.247 225.012 L 110.059 257.2 L 100 247.14 Z" style="stroke: rgb(0, 0, 0); stroke-width: 0px; fill: rgb(240, 240, 240);" transform="matrix(0, -1, 1, 0, -100, 400)"/>
  <path transform="matrix(1, 0, 0, 1, 249.416761, 61.018861)" style="fill: rgb(51, 51, 51); white-space: pre;"/>
  <path d="M 200 147.14 L 242.247 104.894 L 242.247 104.833 L 247.079 100 L 252.921 100 L 257.605 104.684 L 257.605 104.745 L 300 147.14 L 289.941 157.2 L 257.605 124.863 L 257.605 200 L 242.247 200 L 242.247 125.012 L 210.059 157.2 L 200 147.14 Z" style="stroke: rgb(0, 0, 0); stroke-width: 0px; fill: rgb(240, 240, 240);"/>
  <path transform="matrix(1, 0, 0, 1, 249.416754, 122.82914)" style="fill: rgb(51, 51, 51); white-space: pre;"/>
  <path d="M 300 247.14 L 342.247 204.894 L 342.247 204.833 L 347.079 200 L 352.921 200 L 357.605 204.684 L 357.605 204.745 L 400 247.14 L 389.941 257.2 L 357.605 224.863 L 357.605 300 L 342.247 300 L 342.247 225.012 L 310.059 257.2 L 300 247.14 Z" style="stroke: rgb(0, 0, 0); stroke-width: 0px; fill: rgb(240, 240, 240);" transform="matrix(0, 1, -1, 0, 600, -100)"/>
  <path transform="matrix(1, 0, 0, 1, 249.416754, 122.829132)" style="fill: rgb(51, 51, 51); white-space: pre;"/>
  <path d="M 200 347.14 L 242.247 304.894 L 242.247 304.833 L 247.079 300 L 252.921 300 L 257.605 304.684 L 257.605 304.745 L 300 347.14 L 289.941 357.2 L 257.605 324.863 L 257.605 400 L 242.247 400 L 242.247 325.012 L 210.059 357.2 L 200 347.14 Z" style="stroke: rgb(0, 0, 0); stroke-width: 0px; fill: rgb(240, 240, 240);" transform="matrix(-1, 0, 0, -1, 500, 700)"/>
</svg>