<?xml version="1.0" encoding="utf-8"?>
<svg viewBox="0 0 200 100" xmlns="http://www.w3.org/2000/svg">
  <path d="M 44.398 48.297 C 44.398 50.98 43.522 53.302 41.771 55.263 C 40.02 57.224 37.732 58.204 34.908 58.204 C 31.971 58.204 29.599 57.224 27.791 55.263 C 25.984 53.302 25.08 50.98 25.08 48.297 C 25.08 45.614 25.984 43.24 27.791 41.176 C 29.599 39.113 31.971 38.081 34.908 38.081 C 37.732 38.081 40.02 39.113 41.771 41.176 C 43.522 43.24 44.398 45.614 44.398 48.297 Z M 0 50 C 0 33.901 3.022 21.543 9.066 12.926 C 15.11 4.309 23.611 0 34.569 0 C 45.641 0 54.17 4.309 60.157 12.926 C 66.145 21.543 69.139 33.901 69.139 50 C 69.139 66.099 66.145 78.457 60.157 87.074 C 54.17 95.691 45.641 100 34.569 100 C 23.611 100 15.11 95.691 9.066 87.074 C 3.022 78.457 0 66.099 0 50 Z M 54.904 50 C 54.904 44.737 54.566 39.757 53.887 35.062 C 53.21 30.366 52.08 26.264 50.498 22.755 C 48.917 19.247 46.827 16.46 44.228 14.396 C 41.63 12.332 38.411 11.3 34.569 11.3 C 30.728 11.3 27.509 12.332 24.91 14.396 C 22.312 16.46 20.222 19.247 18.64 22.755 C 17.059 26.264 15.929 30.366 15.251 35.062 C 14.574 39.757 14.234 44.737 14.234 50 C 14.234 55.263 14.574 60.243 15.251 64.938 C 15.929 69.634 17.059 73.736 18.64 77.245 C 20.222 80.753 22.312 83.54 24.91 85.604 C 27.509 87.668 30.728 88.7 34.569 88.7 C 38.411 88.7 41.63 87.668 44.228 85.604 C 46.827 83.54 48.917 80.753 50.498 77.245 C 52.08 73.736 53.21 69.634 53.887 64.938 C 54.566 60.243 54.904 55.263 54.904 50 Z" style="white-space: pre; fill: rgb(240, 240, 240);"/>
  <path d="M 108.336 86.466 L 129.977 86.466 L 129.977 30.526 C 129.977 28.22 130.062 25.814 130.231 23.308 L 115.662 34.511 C 114.709 35.212 113.754 35.638 112.8 35.789 C 111.845 35.94 110.947 35.94 110.105 35.789 C 109.263 35.638 108.52 35.376 107.873 35.001 C 107.228 34.624 106.737 34.236 106.4 33.834 L 100 26.015 L 133.599 0 L 150.272 0 L 150.272 86.466 L 169.387 86.466 L 169.387 100 L 108.336 100 L 108.336 86.466 Z" style="white-space: pre; fill: rgb(240, 240, 240);"/>
</svg>