<?xml version="1.0" encoding="utf-8"?>
<svg viewBox="0 0 500 500" xmlns="http://www.w3.org/2000/svg">
  <path d="M 400 250 C 400 332.843 332.843 400 250 400 C 167.157 400 100 332.843 100 250 C 100 167.157 167.157 100 250 100 C 332.843 100 400 167.157 400 250 Z M 184.618 325.173 L 242.155 325.173 C 263.911 325.038 277.633 324.698 283.321 324.152 C 292.39 323.266 300.019 320.9 306.207 317.051 C 312.396 313.203 317.276 308.061 320.851 301.625 C 324.427 295.188 326.214 288.566 326.214 281.754 C 326.214 273.105 323.446 265.579 317.911 259.178 C 312.377 252.776 304.458 248.247 294.158 245.59 C 301.461 242.662 307.245 238.269 311.512 232.412 C 315.778 226.555 317.911 220.118 317.911 213.103 C 317.911 206.632 316.181 200.793 312.722 195.582 C 309.263 190.373 304.94 186.201 299.751 183.068 C 294.562 179.935 288.682 177.875 282.109 176.887 C 275.537 175.9 265.563 175.406 252.187 175.406 L 184.618 175.406 Z M 238.35 200.334 C 254.416 200.334 264.141 200.503 267.522 200.844 C 273.21 201.457 277.497 203.211 280.379 206.105 C 283.262 209 284.704 212.762 284.704 217.395 C 284.704 222.231 283.032 226.129 279.689 229.092 C 276.343 232.054 271.751 233.842 265.908 234.455 C 262.68 234.796 254.416 234.965 241.118 234.965 L 218.749 234.965 L 218.749 200.334 Z M 246.307 259.893 C 261.834 259.893 271.924 260.608 276.575 262.038 C 281.225 263.468 284.78 265.749 287.241 268.883 C 289.701 272.016 290.93 275.829 290.93 280.325 C 290.93 285.638 289.335 289.876 286.145 293.043 C 282.955 296.211 278.824 298.203 273.75 299.02 C 270.444 299.632 262.642 299.939 250.342 299.939 L 218.749 299.939 L 218.749 259.893 Z" style="stroke: rgb(0, 0, 0); fill: rgb(240, 240, 240); stroke-width: 0px;"/>
</svg>