<?xml version="1.0" encoding="utf-8"?>
<svg viewBox="0 0 500 500" xmlns="http://www.w3.org/2000/svg">
  <path d="M 278.894 244.891 C 278.894 252.941 276.267 259.907 271.014 265.789 C 265.761 271.672 258.897 274.613 250.425 274.613 C 241.613 274.613 234.496 271.672 229.073 265.789 C 223.651 259.907 220.94 252.941 220.94 244.891 C 220.94 236.842 223.651 229.721 229.073 223.529 C 234.496 217.338 241.613 214.242 250.425 214.242 C 258.897 214.242 265.761 217.338 271.014 223.529 C 276.267 229.721 278.894 236.842 278.894 244.891 Z M 145.7 250 C 145.7 201.703 154.766 164.629 172.898 138.777 C 191.03 112.926 216.533 100 249.408 100 C 282.622 100 308.21 112.926 326.172 138.777 C 344.135 164.629 353.116 201.703 353.116 250 C 353.116 298.297 344.135 335.371 326.172 361.223 C 308.21 387.074 282.622 400 249.408 400 C 216.533 400 191.03 387.074 172.898 361.223 C 154.766 335.371 145.7 298.297 145.7 250 Z M 310.413 250 C 310.413 234.211 309.397 219.272 307.362 205.186 C 305.329 191.099 301.94 178.792 297.195 168.266 C 292.451 157.74 286.18 149.381 278.385 143.189 C 270.59 136.997 260.932 133.901 249.408 133.901 C 237.885 133.901 228.226 136.997 220.431 143.189 C 212.636 149.381 206.365 157.74 201.621 168.266 C 196.876 178.792 193.487 191.099 191.454 205.186 C 189.421 219.272 188.403 234.211 188.403 250 C 188.403 265.789 189.421 280.728 191.454 294.814 C 193.487 308.901 196.876 321.208 201.621 331.734 C 206.365 342.26 212.636 350.62 220.431 356.811 C 228.226 363.003 237.885 366.099 249.408 366.099 C 260.932 366.099 270.59 363.003 278.385 356.811 C 286.18 350.62 292.451 342.26 297.195 331.734 C 301.94 321.208 305.329 308.901 307.362 294.814 C 309.397 280.728 310.413 265.789 310.413 250 Z" style="white-space: pre; fill: rgb(240, 240, 240);"/>
</svg>