<?xml version="1.0" encoding="utf-8"?>
<svg viewBox="0 0 200 500" xmlns="http://www.w3.org/2000/svg">
  <path d="M 100 49.999 C 100 77.615 77.615 100 49.999 100 C 22.385 100 0 77.615 0 49.999 C 0 22.385 22.385 0 49.999 0 C 77.615 0 100 22.385 100 49.999 Z M 55.913 21.452 L 44.321 21.452 L 23.17 75.752 L 34.801 75.752 L 39.286 63.416 L 60.987 63.416 L 65.729 75.752 L 77.656 75.752 L 55.913 21.452 Z M 42.653 54.269 L 49.987 34.12 L 57.471 54.269 L 42.653 54.269 Z" style="stroke: rgb(0, 0, 0); fill: rgb(240, 240, 240); stroke-width: 0px;"/>
  <path d="M 100 150.001 C 100 177.614 77.614 200 49.999 200 C 22.386 200 0 177.614 0 150.001 C 0 122.386 22.386 100 49.999 100 C 77.614 100 100 122.386 100 150.001 Z M 28.206 175.057 L 47.385 175.057 C 54.638 175.012 59.21 174.901 61.106 174.719 C 64.131 174.422 66.671 173.635 68.735 172.349 C 70.799 171.066 72.426 169.354 73.618 167.208 C 74.81 165.061 75.403 162.856 75.403 160.584 C 75.403 157.703 74.481 155.193 72.637 153.058 C 70.793 150.923 68.153 149.414 64.718 148.53 C 67.152 147.556 69.081 146.09 70.502 144.138 C 71.926 142.185 72.637 140.039 72.637 137.701 C 72.637 135.546 72.062 133.597 70.908 131.858 C 69.754 130.123 68.312 128.734 66.582 127.689 C 64.853 126.646 62.895 125.956 60.704 125.628 C 58.514 125.302 55.187 125.134 50.727 125.134 L 28.206 125.134 L 28.206 175.057 Z M 46.117 133.444 C 51.473 133.444 54.711 133.5 55.842 133.614 C 57.736 133.82 59.166 134.404 60.126 135.37 C 61.089 136.333 61.567 137.587 61.567 139.131 C 61.567 140.743 61.009 142.044 59.897 143.031 C 58.781 144.017 57.251 144.613 55.304 144.819 C 54.227 144.931 51.473 144.989 47.039 144.989 L 39.584 144.989 L 39.584 133.444 L 46.117 133.444 Z M 48.768 153.296 C 53.945 153.296 57.307 153.537 58.86 154.012 C 60.408 154.491 61.594 155.249 62.413 156.294 C 63.232 157.339 63.643 158.611 63.643 160.108 C 63.643 161.879 63.112 163.294 62.049 164.348 C 60.983 165.405 59.606 166.069 57.918 166.342 C 56.814 166.544 54.212 166.647 50.113 166.647 L 39.584 166.647 L 39.584 153.296 L 48.768 153.296 Z" style="stroke: rgb(0, 0, 0); fill: rgb(240, 240, 240); stroke-width: 0px;"/>
  <path d="M 200 50 C 200 77.614 177.617 100 150 100 C 122.383 100 100 77.614 100 50 C 100 22.383 122.383 0 150 0 C 177.617 0 200 22.383 200 50 Z M 138.381 76.502 L 149.956 58.504 L 161.491 76.502 L 174.169 76.502 L 156.38 49.732 L 172.57 24.454 L 160.391 24.454 L 150.166 41.176 L 139.732 24.454 L 127.442 24.454 L 143.565 49.341 L 125.773 76.502 L 138.381 76.502 Z" style="stroke: rgb(0, 0, 0); fill: rgb(240, 240, 240); stroke-width: 0px;"/>
  <path d="M 200 149.999 C 200 177.612 177.612 200 149.999 200 C 122.385 200 100 177.612 100 149.999 C 100 122.385 122.385 100 149.999 100 C 177.612 100 200 122.385 200 149.999 Z M 155.218 177.669 L 155.218 155.818 L 174.418 125.582 L 162.271 125.582 L 150.229 146.188 L 137.94 125.582 L 125.582 125.582 L 144.708 155.747 L 144.708 177.669 L 155.218 177.669 Z" style="stroke: rgb(0, 0, 0); fill: rgb(240, 240, 240); stroke-width: 0px;"/>
  <path d="M -0.656 251.692 C -0.656 223.143 22.643 200 51.383 200 C 73.57 200 92.514 213.792 100 233.216 C 99.927 233.215 99.854 233.215 99.78 233.215 C 62.801 233.215 32.823 262.957 32.823 299.646 C 32.823 299.764 32.823 299.882 32.824 300 C 13.248 292.575 -0.656 273.746 -0.656 251.692 Z M 49.462 248.968 L 49.462 242.959 L 31.415 242.959 L 31.415 213.596 L 24.157 213.596 L 24.157 248.968 L 49.462 248.968 Z" style="stroke: rgb(0, 0, 0); fill: rgb(240, 240, 240); stroke-width: 0px;"/>
  <path d="M 166.52 300 C 166.521 299.882 166.521 299.764 166.521 299.646 C 166.521 262.957 136.543 233.215 99.564 233.215 C 99.49 233.215 99.417 233.215 99.344 233.216 C 106.83 213.792 125.774 200 147.961 200 C 176.701 200 200 223.143 200 251.692 C 200 273.746 186.096 292.575 166.52 300 Z M 159.708 251.127 L 159.708 236.238 L 161.179 236.238 C 162.847 236.238 164.065 236.372 164.833 236.64 C 165.601 236.907 166.329 237.402 167.015 238.124 C 167.702 238.845 168.977 240.593 170.84 243.366 L 176.088 251.127 L 184.768 251.127 L 180.379 244.169 C 178.646 241.396 177.269 239.466 176.247 238.379 C 175.225 237.292 173.93 236.295 172.361 235.387 C 175.516 234.933 177.886 233.834 179.471 232.091 C 181.057 230.347 181.85 228.137 181.85 225.461 C 181.85 223.353 181.327 221.48 180.281 219.842 C 179.235 218.204 177.841 217.064 176.1 216.424 C 174.359 215.783 171.568 215.463 167.726 215.463 L 152.45 215.463 L 152.45 251.127 L 159.708 251.127 Z M 159.708 221.496 L 165.372 221.496 C 168.315 221.496 170.08 221.536 170.669 221.617 C 171.846 221.812 172.757 222.278 173.403 223.016 C 174.049 223.754 174.371 224.723 174.371 225.923 C 174.371 226.994 174.126 227.886 173.636 228.6 C 173.145 229.313 172.467 229.816 171.6 230.108 C 170.734 230.4 168.56 230.546 165.078 230.546 L 159.708 230.546 L 159.708 221.496 Z" style="stroke: rgb(0, 0, 0); fill: rgb(240, 240, 240); stroke-width: 0px;"/>
  <path style="fill: rgb(51, 51, 51); white-space: pre;"/>
  <path style="fill: rgb(51, 51, 51); white-space: pre;"/>
  <path d="M 0 347.14 L 42.247 304.894 L 42.247 304.833 L 47.079 300 L 52.921 300 L 57.605 304.684 L 57.605 304.745 L 100 347.14 L 89.941 357.2 L 57.605 324.863 L 57.605 400 L 42.247 400 L 42.247 325.012 L 10.059 357.2 L 0 347.14 Z" style="stroke: rgb(0, 0, 0); stroke-width: 0px; fill: rgb(240, 240, 240);" transform="matrix(0, -1, 1, 0, -300, 400)"/>
  <path transform="matrix(1, 0, 0, 1, 249.416761, 61.018861)" style="fill: rgb(51, 51, 51); white-space: pre;"/>
  <path d="M 0 447.14 L 42.247 404.894 L 42.247 404.833 L 47.079 400 L 52.921 400 L 57.605 404.684 L 57.605 404.745 L 100 447.14 L 89.941 457.2 L 57.605 424.863 L 57.605 500 L 42.247 500 L 42.247 425.012 L 10.059 457.2 L 0 447.14 Z" style="stroke: rgb(0, 0, 0); stroke-width: 0px; fill: rgb(240, 240, 240);"/>
  <path transform="matrix(1, 0, 0, 1, 249.416754, 122.82914)" style="fill: rgb(51, 51, 51); white-space: pre;"/>
  <path d="M 100 447.14 L 142.247 404.894 L 142.247 404.833 L 147.079 400 L 152.921 400 L 157.605 404.684 L 157.605 404.745 L 200 447.14 L 189.941 457.2 L 157.605 424.863 L 157.605 500 L 142.247 500 L 142.247 425.012 L 110.059 457.2 L 100 447.14 Z" style="stroke: rgb(0, 0, 0); stroke-width: 0px; fill: rgb(240, 240, 240);" transform="matrix(0, 1, -1, 0, 600, 300)"/>
  <path transform="matrix(1, 0, 0, 1, 249.416754, 122.829132)" style="fill: rgb(51, 51, 51); white-space: pre;"/>
  <path d="M 100 347.14 L 142.247 304.894 L 142.247 304.833 L 147.079 300 L 152.921 300 L 157.605 304.684 L 157.605 304.745 L 200 347.14 L 189.941 357.2 L 157.605 324.863 L 157.605 400 L 142.247 400 L 142.247 325.012 L 110.059 357.2 L 100 347.14 Z" style="stroke: rgb(0, 0, 0); stroke-width: 0px; fill: rgb(240, 240, 240);" transform="matrix(-1, 0, 0, -1, 300, 700)"/>
</svg>