<?xml version="1.0" encoding="utf-8"?>
<svg viewBox="0 0 200 500" xmlns="http://www.w3.org/2000/svg">
  <path style="fill: rgb(51, 51, 51); white-space: pre;"/>
  <path d="M 20.564 31.611 L 23.661 31.611 L 23.661 23.734 C 23.661 23.409 23.673 23.071 23.697 22.718 L 21.612 24.295 C 21.476 24.394 21.339 24.454 21.203 24.475 C 21.066 24.496 20.937 24.496 20.817 24.475 C 20.697 24.454 20.59 24.417 20.498 24.364 C 20.405 24.311 20.335 24.256 20.287 24.2 L 19.371 23.099 L 24.179 19.435 L 26.566 19.435 L 26.566 31.611 L 29.301 31.611 L 29.301 33.518 L 20.564 33.518 L 20.564 31.611 Z" style="white-space: pre; fill: rgb(240, 240, 240);"/>
  <path d="M 86.947 104.271 L 90.044 104.271 L 90.044 96.393 C 90.044 96.068 90.056 95.73 90.08 95.377 L 87.995 96.954 C 87.859 97.053 87.722 97.113 87.586 97.134 C 87.449 97.156 87.32 97.156 87.2 97.134 C 87.079 97.113 86.973 97.076 86.881 97.023 C 86.788 96.97 86.718 96.915 86.67 96.859 L 85.754 95.758 L 90.562 92.094 L 92.948 92.094 L 92.948 104.271 L 95.684 104.271 L 95.684 106.177 L 86.947 106.177 L 86.947 104.271 Z" style="white-space: pre; fill: rgb(240, 240, 240);"/>
  <path d="M 48.479 114.884 L 51.576 114.884 L 51.576 107.006 C 51.576 106.682 51.588 106.343 51.612 105.99 L 49.527 107.568 C 49.391 107.666 49.254 107.726 49.118 107.748 C 48.981 107.769 48.852 107.769 48.732 107.748 C 48.612 107.726 48.505 107.689 48.413 107.636 C 48.32 107.583 48.25 107.529 48.202 107.472 L 47.286 106.371 L 52.094 102.707 L 54.481 102.707 L 54.481 114.884 L 57.216 114.884 L 57.216 116.79 L 48.479 116.79 L 48.479 114.884 Z" style="white-space: pre; fill: rgb(240, 240, 240);"/>
  <path d="M 75.994 186.99 L 79.091 186.99 L 79.091 179.112 C 79.091 178.787 79.103 178.449 79.127 178.096 L 77.043 179.673 C 76.906 179.772 76.77 179.832 76.633 179.853 C 76.496 179.875 76.368 179.875 76.247 179.853 C 76.127 179.832 76.02 179.795 75.928 179.742 C 75.835 179.689 75.766 179.634 75.717 179.578 L 74.801 178.477 L 79.61 174.813 L 81.996 174.813 L 81.996 186.99 L 84.731 186.99 L 84.731 188.896 L 75.994 188.896 L 75.994 186.99 Z" style="white-space: pre; fill: rgb(240, 240, 240);"/>
  <path d="M 28.76 166.392 L 31.858 166.392 L 31.858 158.515 C 31.858 158.19 31.87 157.851 31.894 157.498 L 29.809 159.076 C 29.672 159.175 29.536 159.235 29.399 159.256 C 29.262 159.277 29.134 159.277 29.013 159.256 C 28.893 159.235 28.786 159.198 28.694 159.145 C 28.601 159.092 28.532 159.037 28.483 158.981 L 27.567 157.88 L 32.376 154.216 L 34.762 154.216 L 34.762 166.392 L 37.497 166.392 L 37.497 168.299 L 28.76 168.299 L 28.76 166.392 Z" style="white-space: pre; fill: rgb(240, 240, 240);"/>
  <path d="M 58.409 223.727 L 61.506 223.727 L 61.506 215.849 C 61.506 215.524 61.518 215.186 61.542 214.833 L 59.457 216.41 C 59.321 216.509 59.185 216.569 59.048 216.59 C 58.911 216.611 58.782 216.611 58.662 216.59 C 58.542 216.569 58.435 216.532 58.343 216.479 C 58.25 216.426 58.181 216.371 58.132 216.315 L 57.216 215.214 L 62.025 211.55 L 64.411 211.55 L 64.411 223.727 L 67.146 223.727 L 67.146 225.633 L 58.409 225.633 L 58.409 223.727 Z" style="white-space: pre; fill: rgb(240, 240, 240);"/>
  <path d="M 38.188 218.337 C 38.188 218.739 38.056 219.086 37.795 219.379 C 37.532 219.672 37.19 219.819 36.767 219.819 C 36.328 219.819 35.973 219.672 35.702 219.379 C 35.432 219.086 35.297 218.739 35.297 218.337 C 35.297 217.935 35.432 217.58 35.702 217.271 C 35.973 216.962 36.328 216.808 36.767 216.808 C 37.19 216.808 37.532 216.962 37.795 217.271 C 38.056 217.58 38.188 217.935 38.188 218.337 Z M 31.543 218.592 C 31.543 216.182 31.995 214.332 32.899 213.043 C 33.805 211.753 35.077 211.109 36.717 211.109 C 38.374 211.109 39.65 211.753 40.546 213.043 C 41.442 214.332 41.89 216.182 41.89 218.592 C 41.89 221.001 41.442 222.851 40.546 224.14 C 39.65 225.43 38.374 226.075 36.717 226.075 C 35.077 226.075 33.805 225.43 32.899 224.14 C 31.995 222.851 31.543 221.001 31.543 218.592 Z M 39.76 218.592 C 39.76 217.804 39.71 217.059 39.608 216.356 C 39.506 215.653 39.338 215.039 39.1 214.514 C 38.864 213.989 38.551 213.572 38.162 213.263 C 37.774 212.954 37.292 212.8 36.717 212.8 C 36.142 212.8 35.66 212.954 35.271 213.263 C 34.883 213.572 34.569 213.989 34.332 214.514 C 34.096 215.039 33.927 215.653 33.826 216.356 C 33.724 217.059 33.674 217.804 33.674 218.592 C 33.674 219.379 33.724 220.125 33.826 220.827 C 33.927 221.53 34.096 222.144 34.332 222.669 C 34.569 223.194 34.883 223.611 35.271 223.921 C 35.66 224.229 36.142 224.383 36.717 224.383 C 37.292 224.383 37.774 224.229 38.162 223.921 C 38.551 223.611 38.864 223.194 39.1 222.669 C 39.338 222.144 39.506 221.53 39.608 220.827 C 39.71 220.125 39.76 219.379 39.76 218.592 Z" style="white-space: pre; fill: rgb(240, 240, 240);"/>
  <path d="M 24.306 178.405 C 24.306 178.807 24.175 179.154 23.913 179.447 C 23.651 179.74 23.308 179.887 22.885 179.887 C 22.446 179.887 22.091 179.74 21.82 179.447 C 21.55 179.154 21.415 178.807 21.415 178.405 C 21.415 178.003 21.55 177.648 21.82 177.339 C 22.091 177.03 22.446 176.876 22.885 176.876 C 23.308 176.876 23.651 177.03 23.913 177.339 C 24.175 177.648 24.306 178.003 24.306 178.405 Z M 17.661 178.66 C 17.661 176.25 18.113 174.4 19.018 173.111 C 19.923 171.821 21.195 171.177 22.835 171.177 C 24.492 171.177 25.768 171.821 26.664 173.111 C 27.56 174.4 28.009 176.25 28.009 178.66 C 28.009 181.069 27.56 182.919 26.664 184.208 C 25.768 185.498 24.492 186.143 22.835 186.143 C 21.195 186.143 19.923 185.498 19.018 184.208 C 18.113 182.919 17.661 181.069 17.661 178.66 Z M 25.878 178.66 C 25.878 177.872 25.828 177.127 25.726 176.424 C 25.624 175.721 25.456 175.107 25.219 174.582 C 24.982 174.057 24.669 173.64 24.28 173.331 C 23.892 173.022 23.41 172.868 22.835 172.868 C 22.26 172.868 21.778 173.022 21.389 173.331 C 21.001 173.64 20.687 174.057 20.451 174.582 C 20.214 175.107 20.045 175.721 19.944 176.424 C 19.842 177.127 19.792 177.872 19.792 178.66 C 19.792 179.447 19.842 180.193 19.944 180.895 C 20.045 181.598 20.214 182.212 20.451 182.737 C 20.687 183.262 21.001 183.679 21.389 183.989 C 21.778 184.297 22.26 184.451 22.835 184.451 C 23.41 184.451 23.892 184.297 24.28 183.989 C 24.669 183.679 24.982 183.262 25.219 182.737 C 25.456 182.212 25.624 181.598 25.726 180.895 C 25.828 180.193 25.878 179.447 25.878 178.66 Z" style="white-space: pre; fill: rgb(240, 240, 240);"/>
  <path d="M 26.93 98.439 C 26.93 98.841 26.799 99.188 26.537 99.481 C 26.274 99.775 25.932 99.922 25.509 99.922 C 25.07 99.922 24.715 99.775 24.444 99.481 C 24.174 99.188 24.039 98.841 24.039 98.439 C 24.039 98.038 24.174 97.682 24.444 97.373 C 24.715 97.064 25.07 96.91 25.509 96.91 C 25.932 96.91 26.274 97.064 26.537 97.373 C 26.799 97.682 26.93 98.038 26.93 98.439 Z M 20.285 98.694 C 20.285 96.284 20.737 94.435 21.642 93.145 C 22.547 91.855 23.819 91.211 25.459 91.211 C 27.116 91.211 28.392 91.855 29.288 93.145 C 30.184 94.435 30.633 96.284 30.633 98.694 C 30.633 101.103 30.184 102.953 29.288 104.242 C 28.392 105.532 27.116 106.177 25.459 106.177 C 23.819 106.177 22.547 105.532 21.642 104.242 C 20.737 102.953 20.285 101.103 20.285 98.694 Z M 28.502 98.694 C 28.502 97.906 28.452 97.161 28.35 96.458 C 28.248 95.755 28.08 95.141 27.842 94.616 C 27.606 94.091 27.293 93.674 26.904 93.365 C 26.516 93.056 26.034 92.902 25.459 92.902 C 24.884 92.902 24.402 93.056 24.013 93.365 C 23.625 93.674 23.311 94.091 23.075 94.616 C 22.838 95.141 22.669 95.755 22.568 96.458 C 22.466 97.161 22.416 97.906 22.416 98.694 C 22.416 99.481 22.466 100.227 22.568 100.929 C 22.669 101.632 22.838 102.246 23.075 102.771 C 23.311 103.296 23.625 103.713 24.013 104.023 C 24.402 104.331 24.884 104.485 25.459 104.485 C 26.034 104.485 26.516 104.331 26.904 104.023 C 27.293 103.713 27.606 103.296 27.842 102.771 C 28.08 102.246 28.248 101.632 28.35 100.929 C 28.452 100.227 28.502 99.481 28.502 98.694 Z" style="white-space: pre; fill: rgb(240, 240, 240);"/>
  <path d="M 53.513 53.589 C 53.513 53.991 53.382 54.338 53.12 54.631 C 52.858 54.925 52.515 55.072 52.093 55.072 C 51.653 55.072 51.298 54.925 51.028 54.631 C 50.758 54.338 50.622 53.991 50.622 53.589 C 50.622 53.188 50.758 52.832 51.028 52.523 C 51.298 52.214 51.653 52.06 52.093 52.06 C 52.515 52.06 52.858 52.214 53.12 52.523 C 53.382 52.832 53.513 53.188 53.513 53.589 Z M 46.868 53.844 C 46.868 51.434 47.32 49.585 48.225 48.295 C 49.13 47.006 50.402 46.361 52.042 46.361 C 53.699 46.361 54.975 47.006 55.872 48.295 C 56.768 49.585 57.216 51.434 57.216 53.844 C 57.216 56.253 56.768 58.103 55.872 59.392 C 54.975 60.682 53.699 61.327 52.042 61.327 C 50.402 61.327 49.13 60.682 48.225 59.392 C 47.32 58.103 46.868 56.253 46.868 53.844 Z M 55.085 53.844 C 55.085 53.056 55.035 52.311 54.933 51.608 C 54.832 50.905 54.663 50.291 54.426 49.766 C 54.189 49.241 53.877 48.824 53.488 48.515 C 53.099 48.207 52.617 48.052 52.042 48.052 C 51.468 48.052 50.986 48.207 50.597 48.515 C 50.208 48.824 49.895 49.241 49.658 49.766 C 49.422 50.291 49.252 50.905 49.151 51.608 C 49.049 52.311 48.999 53.056 48.999 53.844 C 48.999 54.631 49.049 55.377 49.151 56.08 C 49.252 56.782 49.422 57.396 49.658 57.922 C 49.895 58.446 50.208 58.863 50.597 59.173 C 50.986 59.481 51.468 59.636 52.042 59.636 C 52.617 59.636 53.099 59.481 53.488 59.173 C 53.877 58.863 54.189 58.446 54.426 57.922 C 54.663 57.396 54.832 56.782 54.933 56.08 C 55.035 55.377 55.085 54.631 55.085 53.844 Z" style="white-space: pre; fill: rgb(240, 240, 240);"/>
  <path d="M 86.942 29.173 C 86.942 29.576 86.81 29.923 86.549 30.216 C 86.286 30.509 85.944 30.656 85.521 30.656 C 85.081 30.656 84.726 30.509 84.456 30.216 C 84.186 29.923 84.051 29.576 84.051 29.173 C 84.051 28.772 84.186 28.417 84.456 28.108 C 84.726 27.799 85.081 27.645 85.521 27.645 C 85.944 27.645 86.286 27.799 86.549 28.108 C 86.81 28.417 86.942 28.772 86.942 29.173 Z M 80.297 29.429 C 80.297 27.019 80.749 25.169 81.653 23.88 C 82.558 22.59 83.831 21.946 85.471 21.946 C 87.127 21.946 88.404 22.59 89.3 23.88 C 90.196 25.169 90.644 27.019 90.644 29.429 C 90.644 31.838 90.196 33.688 89.3 34.977 C 88.404 36.267 87.127 36.912 85.471 36.912 C 83.831 36.912 82.558 36.267 81.653 34.977 C 80.749 33.688 80.297 31.838 80.297 29.429 Z M 88.514 29.429 C 88.514 28.641 88.463 27.896 88.362 27.193 C 88.26 26.49 88.092 25.876 87.854 25.351 C 87.617 24.826 87.305 24.409 86.916 24.1 C 86.527 23.791 86.046 23.636 85.471 23.636 C 84.896 23.636 84.414 23.791 84.025 24.1 C 83.636 24.409 83.323 24.826 83.086 25.351 C 82.85 25.876 82.681 26.49 82.58 27.193 C 82.478 27.896 82.428 28.641 82.428 29.429 C 82.428 30.216 82.478 30.961 82.58 31.664 C 82.681 32.367 82.85 32.981 83.086 33.506 C 83.323 34.031 83.636 34.448 84.025 34.758 C 84.414 35.066 84.896 35.22 85.471 35.22 C 86.046 35.22 86.527 35.066 86.916 34.758 C 87.305 34.448 87.617 34.031 87.854 33.506 C 88.092 32.981 88.26 32.367 88.362 31.664 C 88.463 30.961 88.514 30.216 88.514 29.429 Z" style="white-space: pre; fill: rgb(240, 240, 240);"/>
  <path d="M 84.431 139.385 C 84.431 139.787 84.3 140.135 84.039 140.428 C 83.776 140.721 83.434 140.868 83.011 140.868 C 82.571 140.868 82.216 140.721 81.946 140.428 C 81.676 140.135 81.541 139.787 81.541 139.385 C 81.541 138.984 81.676 138.629 81.946 138.32 C 82.216 138.011 82.571 137.857 83.011 137.857 C 83.434 137.857 83.776 138.011 84.039 138.32 C 84.3 138.629 84.431 138.984 84.431 139.385 Z M 77.787 139.64 C 77.787 137.231 78.239 135.381 79.143 134.092 C 80.048 132.802 81.32 132.157 82.961 132.157 C 84.617 132.157 85.894 132.802 86.79 134.092 C 87.686 135.381 88.134 137.231 88.134 139.64 C 88.134 142.049 87.686 143.899 86.79 145.188 C 85.894 146.479 84.617 147.123 82.961 147.123 C 81.32 147.123 80.048 146.479 79.143 145.188 C 78.239 143.899 77.787 142.049 77.787 139.64 Z M 86.004 139.64 C 86.004 138.852 85.953 138.107 85.852 137.405 C 85.75 136.702 85.582 136.088 85.344 135.563 C 85.107 135.038 84.795 134.621 84.406 134.312 C 84.017 134.003 83.536 133.848 82.961 133.848 C 82.386 133.848 81.904 134.003 81.515 134.312 C 81.126 134.621 80.813 135.038 80.576 135.563 C 80.34 136.088 80.171 136.702 80.07 137.405 C 79.968 138.107 79.918 138.852 79.918 139.64 C 79.918 140.428 79.968 141.173 80.07 141.876 C 80.171 142.578 80.34 143.193 80.576 143.718 C 80.813 144.242 81.126 144.659 81.515 144.969 C 81.904 145.278 82.386 145.432 82.961 145.432 C 83.536 145.432 84.017 145.278 84.406 144.969 C 84.795 144.659 85.107 144.242 85.344 143.718 C 85.582 143.193 85.75 142.578 85.852 141.876 C 85.953 141.173 86.004 140.428 86.004 139.64 Z" style="white-space: pre; fill: rgb(240, 240, 240);"/>
  <path d="M 96.297 237.732 C 96.297 238.134 96.166 238.481 95.904 238.774 C 95.642 239.068 95.299 239.215 94.877 239.215 C 94.437 239.215 94.082 239.068 93.812 238.774 C 93.542 238.481 93.406 238.134 93.406 237.732 C 93.406 237.331 93.542 236.975 93.812 236.666 C 94.082 236.357 94.437 236.203 94.877 236.203 C 95.299 236.203 95.642 236.357 95.904 236.666 C 96.166 236.975 96.297 237.331 96.297 237.732 Z M 89.652 237.987 C 89.652 235.577 90.104 233.728 91.009 232.438 C 91.914 231.149 93.186 230.504 94.826 230.504 C 96.483 230.504 97.759 231.149 98.656 232.438 C 99.552 233.728 100 235.577 100 237.987 C 100 240.396 99.552 242.246 98.656 243.535 C 97.759 244.825 96.483 245.47 94.826 245.47 C 93.186 245.47 91.914 244.825 91.009 243.535 C 90.104 242.246 89.652 240.396 89.652 237.987 Z M 97.869 237.987 C 97.869 237.199 97.819 236.454 97.717 235.751 C 97.616 235.048 97.447 234.434 97.21 233.909 C 96.973 233.384 96.661 232.967 96.272 232.658 C 95.883 232.35 95.401 232.195 94.826 232.195 C 94.252 232.195 93.77 232.35 93.381 232.658 C 92.992 232.967 92.679 233.384 92.442 233.909 C 92.206 234.434 92.037 235.048 91.935 235.751 C 91.833 236.454 91.783 237.199 91.783 237.987 C 91.783 238.774 91.833 239.52 91.935 240.223 C 92.037 240.925 92.206 241.539 92.442 242.064 C 92.679 242.589 92.992 243.006 93.381 243.316 C 93.77 243.624 94.252 243.779 94.826 243.779 C 95.401 243.779 95.883 243.624 96.272 243.316 C 96.661 243.006 96.973 242.589 97.21 242.064 C 97.447 241.539 97.616 240.925 97.717 240.223 C 97.819 239.52 97.869 238.774 97.869 237.987 Z" style="white-space: pre; fill: rgb(240, 240, 240);"/>
  <path style="fill: rgb(51, 51, 51); white-space: pre;"/>
  <path d="M 20.564 274.979 L 23.661 274.979 L 23.661 267.102 C 23.661 266.777 23.673 266.439 23.697 266.086 L 21.612 267.663 C 21.476 267.762 21.339 267.822 21.203 267.843 C 21.066 267.864 20.937 267.864 20.817 267.843 C 20.697 267.822 20.59 267.785 20.498 267.732 C 20.405 267.679 20.335 267.624 20.287 267.568 L 19.371 266.467 L 24.179 262.803 L 26.566 262.803 L 26.566 274.979 L 29.301 274.979 L 29.301 276.886 L 20.564 276.886 L 20.564 274.979 Z" style="white-space: pre; fill: rgb(240, 240, 240);"/>
  <path d="M 86.947 347.639 L 90.044 347.639 L 90.044 339.761 C 90.044 339.436 90.056 339.098 90.08 338.745 L 87.995 340.322 C 87.859 340.421 87.722 340.481 87.586 340.502 C 87.449 340.524 87.32 340.524 87.2 340.502 C 87.079 340.481 86.973 340.444 86.881 340.391 C 86.788 340.338 86.718 340.283 86.67 340.227 L 85.754 339.126 L 90.562 335.462 L 92.948 335.462 L 92.948 347.639 L 95.684 347.639 L 95.684 349.545 L 86.947 349.545 L 86.947 347.639 Z" style="white-space: pre; fill: rgb(240, 240, 240);"/>
  <path d="M 48.479 358.252 L 51.576 358.252 L 51.576 350.374 C 51.576 350.05 51.588 349.711 51.612 349.358 L 49.527 350.936 C 49.391 351.034 49.254 351.094 49.118 351.116 C 48.981 351.137 48.852 351.137 48.732 351.116 C 48.612 351.094 48.505 351.057 48.413 351.004 C 48.32 350.951 48.25 350.897 48.202 350.84 L 47.286 349.739 L 52.094 346.075 L 54.481 346.075 L 54.481 358.252 L 57.216 358.252 L 57.216 360.158 L 48.479 360.158 L 48.479 358.252 Z" style="white-space: pre; fill: rgb(240, 240, 240);"/>
  <path d="M 75.994 430.358 L 79.091 430.358 L 79.091 422.48 C 79.091 422.155 79.103 421.817 79.127 421.464 L 77.043 423.041 C 76.906 423.14 76.77 423.2 76.633 423.221 C 76.496 423.243 76.368 423.243 76.247 423.221 C 76.127 423.2 76.02 423.163 75.928 423.11 C 75.835 423.057 75.766 423.002 75.717 422.946 L 74.801 421.845 L 79.61 418.181 L 81.996 418.181 L 81.996 430.358 L 84.731 430.358 L 84.731 432.264 L 75.994 432.264 L 75.994 430.358 Z" style="white-space: pre; fill: rgb(240, 240, 240);"/>
  <path d="M 28.76 409.76 L 31.858 409.76 L 31.858 401.883 C 31.858 401.558 31.87 401.219 31.894 400.866 L 29.809 402.444 C 29.672 402.543 29.536 402.603 29.399 402.624 C 29.262 402.645 29.134 402.645 29.013 402.624 C 28.893 402.603 28.786 402.566 28.694 402.513 C 28.601 402.46 28.532 402.405 28.483 402.349 L 27.567 401.248 L 32.376 397.584 L 34.762 397.584 L 34.762 409.76 L 37.497 409.76 L 37.497 411.667 L 28.76 411.667 L 28.76 409.76 Z" style="white-space: pre; fill: rgb(240, 240, 240);"/>
  <path d="M 58.409 467.095 L 61.506 467.095 L 61.506 459.217 C 61.506 458.892 61.518 458.554 61.542 458.201 L 59.457 459.778 C 59.321 459.877 59.185 459.937 59.048 459.958 C 58.911 459.979 58.782 459.979 58.662 459.958 C 58.542 459.937 58.435 459.9 58.343 459.847 C 58.25 459.794 58.181 459.739 58.132 459.683 L 57.216 458.582 L 62.025 454.918 L 64.411 454.918 L 64.411 467.095 L 67.146 467.095 L 67.146 469.001 L 58.409 469.001 L 58.409 467.095 Z" style="white-space: pre; fill: rgb(240, 240, 240);"/>
  <path d="M 38.188 461.705 C 38.188 462.107 38.056 462.454 37.795 462.747 C 37.532 463.04 37.19 463.187 36.767 463.187 C 36.328 463.187 35.973 463.04 35.702 462.747 C 35.432 462.454 35.297 462.107 35.297 461.705 C 35.297 461.303 35.432 460.948 35.702 460.639 C 35.973 460.33 36.328 460.176 36.767 460.176 C 37.19 460.176 37.532 460.33 37.795 460.639 C 38.056 460.948 38.188 461.303 38.188 461.705 Z M 31.543 461.96 C 31.543 459.55 31.995 457.7 32.899 456.411 C 33.805 455.121 35.077 454.477 36.717 454.477 C 38.374 454.477 39.65 455.121 40.546 456.411 C 41.442 457.7 41.89 459.55 41.89 461.96 C 41.89 464.369 41.442 466.219 40.546 467.508 C 39.65 468.798 38.374 469.443 36.717 469.443 C 35.077 469.443 33.805 468.798 32.899 467.508 C 31.995 466.219 31.543 464.369 31.543 461.96 Z M 39.76 461.96 C 39.76 461.172 39.71 460.427 39.608 459.724 C 39.506 459.021 39.338 458.407 39.1 457.882 C 38.864 457.357 38.551 456.94 38.162 456.631 C 37.774 456.322 37.292 456.168 36.717 456.168 C 36.142 456.168 35.66 456.322 35.271 456.631 C 34.883 456.94 34.569 457.357 34.332 457.882 C 34.096 458.407 33.927 459.021 33.826 459.724 C 33.724 460.427 33.674 461.172 33.674 461.96 C 33.674 462.747 33.724 463.493 33.826 464.195 C 33.927 464.898 34.096 465.512 34.332 466.037 C 34.569 466.562 34.883 466.979 35.271 467.289 C 35.66 467.597 36.142 467.751 36.717 467.751 C 37.292 467.751 37.774 467.597 38.162 467.289 C 38.551 466.979 38.864 466.562 39.1 466.037 C 39.338 465.512 39.506 464.898 39.608 464.195 C 39.71 463.493 39.76 462.747 39.76 461.96 Z" style="white-space: pre; fill: rgb(240, 240, 240);"/>
  <path d="M 24.306 421.773 C 24.306 422.175 24.175 422.522 23.913 422.815 C 23.651 423.108 23.308 423.255 22.885 423.255 C 22.446 423.255 22.091 423.108 21.82 422.815 C 21.55 422.522 21.415 422.175 21.415 421.773 C 21.415 421.371 21.55 421.016 21.82 420.707 C 22.091 420.398 22.446 420.244 22.885 420.244 C 23.308 420.244 23.651 420.398 23.913 420.707 C 24.175 421.016 24.306 421.371 24.306 421.773 Z M 17.661 422.028 C 17.661 419.618 18.113 417.768 19.018 416.479 C 19.923 415.189 21.195 414.545 22.835 414.545 C 24.492 414.545 25.768 415.189 26.664 416.479 C 27.56 417.768 28.009 419.618 28.009 422.028 C 28.009 424.437 27.56 426.287 26.664 427.576 C 25.768 428.866 24.492 429.511 22.835 429.511 C 21.195 429.511 19.923 428.866 19.018 427.576 C 18.113 426.287 17.661 424.437 17.661 422.028 Z M 25.878 422.028 C 25.878 421.24 25.828 420.495 25.726 419.792 C 25.624 419.089 25.456 418.475 25.219 417.95 C 24.982 417.425 24.669 417.008 24.28 416.699 C 23.892 416.39 23.41 416.236 22.835 416.236 C 22.26 416.236 21.778 416.39 21.389 416.699 C 21.001 417.008 20.687 417.425 20.451 417.95 C 20.214 418.475 20.045 419.089 19.944 419.792 C 19.842 420.495 19.792 421.24 19.792 422.028 C 19.792 422.815 19.842 423.561 19.944 424.263 C 20.045 424.966 20.214 425.58 20.451 426.105 C 20.687 426.63 21.001 427.047 21.389 427.357 C 21.778 427.665 22.26 427.819 22.835 427.819 C 23.41 427.819 23.892 427.665 24.28 427.357 C 24.669 427.047 24.982 426.63 25.219 426.105 C 25.456 425.58 25.624 424.966 25.726 424.263 C 25.828 423.561 25.878 422.815 25.878 422.028 Z" style="white-space: pre; fill: rgb(240, 240, 240);"/>
  <path d="M 26.93 341.807 C 26.93 342.209 26.799 342.556 26.537 342.849 C 26.274 343.143 25.932 343.29 25.509 343.29 C 25.07 343.29 24.715 343.143 24.444 342.849 C 24.174 342.556 24.039 342.209 24.039 341.807 C 24.039 341.406 24.174 341.05 24.444 340.741 C 24.715 340.432 25.07 340.278 25.509 340.278 C 25.932 340.278 26.274 340.432 26.537 340.741 C 26.799 341.05 26.93 341.406 26.93 341.807 Z M 20.285 342.062 C 20.285 339.652 20.737 337.803 21.642 336.513 C 22.547 335.223 23.819 334.579 25.459 334.579 C 27.116 334.579 28.392 335.223 29.288 336.513 C 30.184 337.803 30.633 339.652 30.633 342.062 C 30.633 344.471 30.184 346.321 29.288 347.61 C 28.392 348.9 27.116 349.545 25.459 349.545 C 23.819 349.545 22.547 348.9 21.642 347.61 C 20.737 346.321 20.285 344.471 20.285 342.062 Z M 28.502 342.062 C 28.502 341.274 28.452 340.529 28.35 339.826 C 28.248 339.123 28.08 338.509 27.842 337.984 C 27.606 337.459 27.293 337.042 26.904 336.733 C 26.516 336.424 26.034 336.27 25.459 336.27 C 24.884 336.27 24.402 336.424 24.013 336.733 C 23.625 337.042 23.311 337.459 23.075 337.984 C 22.838 338.509 22.669 339.123 22.568 339.826 C 22.466 340.529 22.416 341.274 22.416 342.062 C 22.416 342.849 22.466 343.595 22.568 344.297 C 22.669 345 22.838 345.614 23.075 346.139 C 23.311 346.664 23.625 347.081 24.013 347.391 C 24.402 347.699 24.884 347.853 25.459 347.853 C 26.034 347.853 26.516 347.699 26.904 347.391 C 27.293 347.081 27.606 346.664 27.842 346.139 C 28.08 345.614 28.248 345 28.35 344.297 C 28.452 343.595 28.502 342.849 28.502 342.062 Z" style="white-space: pre; fill: rgb(240, 240, 240);"/>
  <path d="M 53.513 296.957 C 53.513 297.359 53.382 297.706 53.12 297.999 C 52.858 298.293 52.515 298.44 52.093 298.44 C 51.653 298.44 51.298 298.293 51.028 297.999 C 50.758 297.706 50.622 297.359 50.622 296.957 C 50.622 296.556 50.758 296.2 51.028 295.891 C 51.298 295.582 51.653 295.428 52.093 295.428 C 52.515 295.428 52.858 295.582 53.12 295.891 C 53.382 296.2 53.513 296.556 53.513 296.957 Z M 46.868 297.212 C 46.868 294.802 47.32 292.953 48.225 291.663 C 49.13 290.374 50.402 289.729 52.042 289.729 C 53.699 289.729 54.975 290.374 55.872 291.663 C 56.768 292.953 57.216 294.802 57.216 297.212 C 57.216 299.621 56.768 301.471 55.872 302.76 C 54.975 304.05 53.699 304.695 52.042 304.695 C 50.402 304.695 49.13 304.05 48.225 302.76 C 47.32 301.471 46.868 299.621 46.868 297.212 Z M 55.085 297.212 C 55.085 296.424 55.035 295.679 54.933 294.976 C 54.832 294.273 54.663 293.659 54.426 293.134 C 54.189 292.609 53.877 292.192 53.488 291.883 C 53.099 291.575 52.617 291.42 52.042 291.42 C 51.468 291.42 50.986 291.575 50.597 291.883 C 50.208 292.192 49.895 292.609 49.658 293.134 C 49.422 293.659 49.252 294.273 49.151 294.976 C 49.049 295.679 48.999 296.424 48.999 297.212 C 48.999 297.999 49.049 298.745 49.151 299.448 C 49.252 300.15 49.422 300.764 49.658 301.29 C 49.895 301.814 50.208 302.231 50.597 302.541 C 50.986 302.849 51.468 303.004 52.042 303.004 C 52.617 303.004 53.099 302.849 53.488 302.541 C 53.877 302.231 54.189 301.814 54.426 301.29 C 54.663 300.764 54.832 300.15 54.933 299.448 C 55.035 298.745 55.085 297.999 55.085 297.212 Z" style="white-space: pre; fill: rgb(240, 240, 240);"/>
  <path d="M 86.942 272.541 C 86.942 272.944 86.81 273.291 86.549 273.584 C 86.286 273.877 85.944 274.024 85.521 274.024 C 85.081 274.024 84.726 273.877 84.456 273.584 C 84.186 273.291 84.051 272.944 84.051 272.541 C 84.051 272.14 84.186 271.785 84.456 271.476 C 84.726 271.167 85.081 271.013 85.521 271.013 C 85.944 271.013 86.286 271.167 86.549 271.476 C 86.81 271.785 86.942 272.14 86.942 272.541 Z M 80.297 272.797 C 80.297 270.387 80.749 268.537 81.653 267.248 C 82.558 265.958 83.831 265.314 85.471 265.314 C 87.127 265.314 88.404 265.958 89.3 267.248 C 90.196 268.537 90.644 270.387 90.644 272.797 C 90.644 275.206 90.196 277.056 89.3 278.345 C 88.404 279.635 87.127 280.28 85.471 280.28 C 83.831 280.28 82.558 279.635 81.653 278.345 C 80.749 277.056 80.297 275.206 80.297 272.797 Z M 88.514 272.797 C 88.514 272.009 88.463 271.264 88.362 270.561 C 88.26 269.858 88.092 269.244 87.854 268.719 C 87.617 268.194 87.305 267.777 86.916 267.468 C 86.527 267.159 86.046 267.004 85.471 267.004 C 84.896 267.004 84.414 267.159 84.025 267.468 C 83.636 267.777 83.323 268.194 83.086 268.719 C 82.85 269.244 82.681 269.858 82.58 270.561 C 82.478 271.264 82.428 272.009 82.428 272.797 C 82.428 273.584 82.478 274.329 82.58 275.032 C 82.681 275.735 82.85 276.349 83.086 276.874 C 83.323 277.399 83.636 277.816 84.025 278.126 C 84.414 278.434 84.896 278.588 85.471 278.588 C 86.046 278.588 86.527 278.434 86.916 278.126 C 87.305 277.816 87.617 277.399 87.854 276.874 C 88.092 276.349 88.26 275.735 88.362 275.032 C 88.463 274.329 88.514 273.584 88.514 272.797 Z" style="white-space: pre; fill: rgb(240, 240, 240);"/>
  <path d="M 84.431 382.753 C 84.431 383.155 84.3 383.503 84.039 383.796 C 83.776 384.089 83.434 384.236 83.011 384.236 C 82.571 384.236 82.216 384.089 81.946 383.796 C 81.676 383.503 81.541 383.155 81.541 382.753 C 81.541 382.352 81.676 381.997 81.946 381.688 C 82.216 381.379 82.571 381.225 83.011 381.225 C 83.434 381.225 83.776 381.379 84.039 381.688 C 84.3 381.997 84.431 382.352 84.431 382.753 Z M 77.787 383.008 C 77.787 380.599 78.239 378.749 79.143 377.46 C 80.048 376.17 81.32 375.525 82.961 375.525 C 84.617 375.525 85.894 376.17 86.79 377.46 C 87.686 378.749 88.134 380.599 88.134 383.008 C 88.134 385.417 87.686 387.267 86.79 388.556 C 85.894 389.847 84.617 390.491 82.961 390.491 C 81.32 390.491 80.048 389.847 79.143 388.556 C 78.239 387.267 77.787 385.417 77.787 383.008 Z M 86.004 383.008 C 86.004 382.22 85.953 381.475 85.852 380.773 C 85.75 380.07 85.582 379.456 85.344 378.931 C 85.107 378.406 84.795 377.989 84.406 377.68 C 84.017 377.371 83.536 377.216 82.961 377.216 C 82.386 377.216 81.904 377.371 81.515 377.68 C 81.126 377.989 80.813 378.406 80.576 378.931 C 80.34 379.456 80.171 380.07 80.07 380.773 C 79.968 381.475 79.918 382.22 79.918 383.008 C 79.918 383.796 79.968 384.541 80.07 385.244 C 80.171 385.946 80.34 386.561 80.576 387.086 C 80.813 387.61 81.126 388.027 81.515 388.337 C 81.904 388.646 82.386 388.8 82.961 388.8 C 83.536 388.8 84.017 388.646 84.406 388.337 C 84.795 388.027 85.107 387.61 85.344 387.086 C 85.582 386.561 85.75 385.946 85.852 385.244 C 85.953 384.541 86.004 383.796 86.004 383.008 Z" style="white-space: pre; fill: rgb(240, 240, 240);"/>
  <path d="M 96.297 481.1 C 96.297 481.502 96.166 481.849 95.904 482.142 C 95.642 482.436 95.299 482.583 94.877 482.583 C 94.437 482.583 94.082 482.436 93.812 482.142 C 93.542 481.849 93.406 481.502 93.406 481.1 C 93.406 480.699 93.542 480.343 93.812 480.034 C 94.082 479.725 94.437 479.571 94.877 479.571 C 95.299 479.571 95.642 479.725 95.904 480.034 C 96.166 480.343 96.297 480.699 96.297 481.1 Z M 89.652 481.355 C 89.652 478.945 90.104 477.096 91.009 475.806 C 91.914 474.517 93.186 473.872 94.826 473.872 C 96.483 473.872 97.759 474.517 98.656 475.806 C 99.552 477.096 100 478.945 100 481.355 C 100 483.764 99.552 485.614 98.656 486.903 C 97.759 488.193 96.483 488.838 94.826 488.838 C 93.186 488.838 91.914 488.193 91.009 486.903 C 90.104 485.614 89.652 483.764 89.652 481.355 Z M 97.869 481.355 C 97.869 480.567 97.819 479.822 97.717 479.119 C 97.616 478.416 97.447 477.802 97.21 477.277 C 96.973 476.752 96.661 476.335 96.272 476.026 C 95.883 475.718 95.401 475.563 94.826 475.563 C 94.252 475.563 93.77 475.718 93.381 476.026 C 92.992 476.335 92.679 476.752 92.442 477.277 C 92.206 477.802 92.037 478.416 91.935 479.119 C 91.833 479.822 91.783 480.567 91.783 481.355 C 91.783 482.142 91.833 482.888 91.935 483.591 C 92.037 484.293 92.206 484.907 92.442 485.432 C 92.679 485.957 92.992 486.374 93.381 486.684 C 93.77 486.992 94.252 487.147 94.826 487.147 C 95.401 487.147 95.883 486.992 96.272 486.684 C 96.661 486.374 96.973 485.957 97.21 485.432 C 97.447 484.907 97.616 484.293 97.717 483.591 C 97.819 482.888 97.869 482.142 97.869 481.355 Z" style="white-space: pre; fill: rgb(240, 240, 240);"/>
  <path style="fill: rgb(51, 51, 51); white-space: pre;"/>
  <path d="M 113.863 267.851 L 116.96 267.851 L 116.96 259.974 C 116.96 259.649 116.972 259.311 116.996 258.958 L 114.911 260.535 C 114.775 260.634 114.638 260.694 114.502 260.715 C 114.365 260.736 114.236 260.736 114.116 260.715 C 113.996 260.694 113.889 260.657 113.797 260.604 C 113.704 260.551 113.634 260.496 113.586 260.44 L 112.67 259.339 L 117.478 255.675 L 119.865 255.675 L 119.865 267.851 L 122.6 267.851 L 122.6 269.758 L 113.863 269.758 L 113.863 267.851 Z" style="white-space: pre; fill: rgb(240, 240, 240);"/>
  <path d="M 180.246 340.511 L 183.343 340.511 L 183.343 332.633 C 183.343 332.308 183.355 331.97 183.379 331.617 L 181.294 333.194 C 181.158 333.293 181.021 333.353 180.885 333.374 C 180.748 333.396 180.619 333.396 180.499 333.374 C 180.378 333.353 180.272 333.316 180.18 333.263 C 180.087 333.21 180.017 333.155 179.969 333.099 L 179.053 331.998 L 183.861 328.334 L 186.247 328.334 L 186.247 340.511 L 188.983 340.511 L 188.983 342.417 L 180.246 342.417 L 180.246 340.511 Z" style="white-space: pre; fill: rgb(240, 240, 240);"/>
  <path d="M 141.778 351.124 L 144.875 351.124 L 144.875 343.246 C 144.875 342.922 144.887 342.583 144.911 342.23 L 142.826 343.808 C 142.69 343.906 142.553 343.966 142.417 343.988 C 142.28 344.009 142.151 344.009 142.031 343.988 C 141.911 343.966 141.804 343.929 141.712 343.876 C 141.619 343.823 141.549 343.769 141.501 343.712 L 140.585 342.611 L 145.393 338.947 L 147.78 338.947 L 147.78 351.124 L 150.515 351.124 L 150.515 353.03 L 141.778 353.03 L 141.778 351.124 Z" style="white-space: pre; fill: rgb(240, 240, 240);"/>
  <path d="M 169.293 423.23 L 172.39 423.23 L 172.39 415.352 C 172.39 415.027 172.402 414.689 172.426 414.336 L 170.342 415.913 C 170.205 416.012 170.069 416.072 169.932 416.093 C 169.795 416.115 169.667 416.115 169.546 416.093 C 169.426 416.072 169.319 416.035 169.227 415.982 C 169.134 415.929 169.065 415.874 169.016 415.818 L 168.1 414.717 L 172.909 411.053 L 175.295 411.053 L 175.295 423.23 L 178.03 423.23 L 178.03 425.136 L 169.293 425.136 L 169.293 423.23 Z" style="white-space: pre; fill: rgb(240, 240, 240);"/>
  <path d="M 122.059 402.632 L 125.157 402.632 L 125.157 394.755 C 125.157 394.43 125.169 394.091 125.193 393.738 L 123.108 395.316 C 122.971 395.415 122.835 395.475 122.698 395.496 C 122.561 395.517 122.433 395.517 122.312 395.496 C 122.192 395.475 122.085 395.438 121.993 395.385 C 121.9 395.332 121.831 395.277 121.782 395.221 L 120.866 394.12 L 125.675 390.456 L 128.061 390.456 L 128.061 402.632 L 130.796 402.632 L 130.796 404.539 L 122.059 404.539 L 122.059 402.632 Z" style="white-space: pre; fill: rgb(240, 240, 240);"/>
  <path d="M 151.708 459.967 L 154.805 459.967 L 154.805 452.089 C 154.805 451.764 154.817 451.426 154.841 451.073 L 152.756 452.65 C 152.62 452.749 152.484 452.809 152.347 452.83 C 152.21 452.851 152.081 452.851 151.961 452.83 C 151.841 452.809 151.734 452.772 151.642 452.719 C 151.549 452.666 151.48 452.611 151.431 452.555 L 150.515 451.454 L 155.324 447.79 L 157.71 447.79 L 157.71 459.967 L 160.445 459.967 L 160.445 461.873 L 151.708 461.873 L 151.708 459.967 Z" style="white-space: pre; fill: rgb(240, 240, 240);"/>
  <path d="M 131.487 454.577 C 131.487 454.979 131.355 455.326 131.094 455.619 C 130.831 455.912 130.489 456.059 130.066 456.059 C 129.627 456.059 129.272 455.912 129.001 455.619 C 128.731 455.326 128.596 454.979 128.596 454.577 C 128.596 454.175 128.731 453.82 129.001 453.511 C 129.272 453.202 129.627 453.048 130.066 453.048 C 130.489 453.048 130.831 453.202 131.094 453.511 C 131.355 453.82 131.487 454.175 131.487 454.577 Z M 124.842 454.832 C 124.842 452.422 125.294 450.572 126.198 449.283 C 127.104 447.993 128.376 447.349 130.016 447.349 C 131.673 447.349 132.949 447.993 133.845 449.283 C 134.741 450.572 135.189 452.422 135.189 454.832 C 135.189 457.241 134.741 459.091 133.845 460.38 C 132.949 461.67 131.673 462.315 130.016 462.315 C 128.376 462.315 127.104 461.67 126.198 460.38 C 125.294 459.091 124.842 457.241 124.842 454.832 Z M 133.059 454.832 C 133.059 454.044 133.009 453.299 132.907 452.596 C 132.805 451.893 132.637 451.279 132.399 450.754 C 132.163 450.229 131.85 449.812 131.461 449.503 C 131.073 449.194 130.591 449.04 130.016 449.04 C 129.441 449.04 128.959 449.194 128.57 449.503 C 128.182 449.812 127.868 450.229 127.631 450.754 C 127.395 451.279 127.226 451.893 127.125 452.596 C 127.023 453.299 126.973 454.044 126.973 454.832 C 126.973 455.619 127.023 456.365 127.125 457.067 C 127.226 457.77 127.395 458.384 127.631 458.909 C 127.868 459.434 128.182 459.851 128.57 460.161 C 128.959 460.469 129.441 460.623 130.016 460.623 C 130.591 460.623 131.073 460.469 131.461 460.161 C 131.85 459.851 132.163 459.434 132.399 458.909 C 132.637 458.384 132.805 457.77 132.907 457.067 C 133.009 456.365 133.059 455.619 133.059 454.832 Z" style="white-space: pre; fill: rgb(240, 240, 240);"/>
  <path d="M 117.605 414.645 C 117.605 415.047 117.474 415.394 117.212 415.687 C 116.95 415.98 116.607 416.127 116.184 416.127 C 115.745 416.127 115.39 415.98 115.119 415.687 C 114.849 415.394 114.714 415.047 114.714 414.645 C 114.714 414.243 114.849 413.888 115.119 413.579 C 115.39 413.27 115.745 413.116 116.184 413.116 C 116.607 413.116 116.95 413.27 117.212 413.579 C 117.474 413.888 117.605 414.243 117.605 414.645 Z M 110.96 414.9 C 110.96 412.49 111.412 410.64 112.317 409.351 C 113.222 408.061 114.494 407.417 116.134 407.417 C 117.791 407.417 119.067 408.061 119.963 409.351 C 120.859 410.64 121.308 412.49 121.308 414.9 C 121.308 417.309 120.859 419.159 119.963 420.448 C 119.067 421.738 117.791 422.383 116.134 422.383 C 114.494 422.383 113.222 421.738 112.317 420.448 C 111.412 419.159 110.96 417.309 110.96 414.9 Z M 119.177 414.9 C 119.177 414.112 119.127 413.367 119.025 412.664 C 118.923 411.961 118.755 411.347 118.518 410.822 C 118.281 410.297 117.968 409.88 117.579 409.571 C 117.191 409.262 116.709 409.108 116.134 409.108 C 115.559 409.108 115.077 409.262 114.688 409.571 C 114.3 409.88 113.986 410.297 113.75 410.822 C 113.513 411.347 113.344 411.961 113.243 412.664 C 113.141 413.367 113.091 414.112 113.091 414.9 C 113.091 415.687 113.141 416.433 113.243 417.135 C 113.344 417.838 113.513 418.452 113.75 418.977 C 113.986 419.502 114.3 419.919 114.688 420.229 C 115.077 420.537 115.559 420.691 116.134 420.691 C 116.709 420.691 117.191 420.537 117.579 420.229 C 117.968 419.919 118.281 419.502 118.518 418.977 C 118.755 418.452 118.923 417.838 119.025 417.135 C 119.127 416.433 119.177 415.687 119.177 414.9 Z" style="white-space: pre; fill: rgb(240, 240, 240);"/>
  <path d="M 120.229 334.679 C 120.229 335.081 120.098 335.428 119.836 335.721 C 119.573 336.015 119.231 336.162 118.808 336.162 C 118.369 336.162 118.014 336.015 117.743 335.721 C 117.473 335.428 117.338 335.081 117.338 334.679 C 117.338 334.278 117.473 333.922 117.743 333.613 C 118.014 333.304 118.369 333.15 118.808 333.15 C 119.231 333.15 119.573 333.304 119.836 333.613 C 120.098 333.922 120.229 334.278 120.229 334.679 Z M 113.584 334.934 C 113.584 332.524 114.036 330.675 114.941 329.385 C 115.846 328.095 117.118 327.451 118.758 327.451 C 120.415 327.451 121.691 328.095 122.587 329.385 C 123.483 330.675 123.932 332.524 123.932 334.934 C 123.932 337.343 123.483 339.193 122.587 340.482 C 121.691 341.772 120.415 342.417 118.758 342.417 C 117.118 342.417 115.846 341.772 114.941 340.482 C 114.036 339.193 113.584 337.343 113.584 334.934 Z M 121.801 334.934 C 121.801 334.146 121.751 333.401 121.649 332.698 C 121.547 331.995 121.379 331.381 121.141 330.856 C 120.905 330.331 120.592 329.914 120.203 329.605 C 119.815 329.296 119.333 329.142 118.758 329.142 C 118.183 329.142 117.701 329.296 117.312 329.605 C 116.924 329.914 116.61 330.331 116.374 330.856 C 116.137 331.381 115.968 331.995 115.867 332.698 C 115.765 333.401 115.715 334.146 115.715 334.934 C 115.715 335.721 115.765 336.467 115.867 337.169 C 115.968 337.872 116.137 338.486 116.374 339.011 C 116.61 339.536 116.924 339.953 117.312 340.263 C 117.701 340.571 118.183 340.725 118.758 340.725 C 119.333 340.725 119.815 340.571 120.203 340.263 C 120.592 339.953 120.905 339.536 121.141 339.011 C 121.379 338.486 121.547 337.872 121.649 337.169 C 121.751 336.467 121.801 335.721 121.801 334.934 Z" style="white-space: pre; fill: rgb(240, 240, 240);"/>
  <path d="M 146.812 289.829 C 146.812 290.231 146.681 290.578 146.419 290.871 C 146.157 291.165 145.814 291.312 145.392 291.312 C 144.952 291.312 144.597 291.165 144.327 290.871 C 144.057 290.578 143.921 290.231 143.921 289.829 C 143.921 289.428 144.057 289.072 144.327 288.763 C 144.597 288.454 144.952 288.3 145.392 288.3 C 145.814 288.3 146.157 288.454 146.419 288.763 C 146.681 289.072 146.812 289.428 146.812 289.829 Z M 140.167 290.084 C 140.167 287.674 140.619 285.825 141.524 284.535 C 142.429 283.246 143.701 282.601 145.341 282.601 C 146.998 282.601 148.274 283.246 149.171 284.535 C 150.067 285.825 150.515 287.674 150.515 290.084 C 150.515 292.493 150.067 294.343 149.171 295.632 C 148.274 296.922 146.998 297.567 145.341 297.567 C 143.701 297.567 142.429 296.922 141.524 295.632 C 140.619 294.343 140.167 292.493 140.167 290.084 Z M 148.384 290.084 C 148.384 289.296 148.334 288.551 148.232 287.848 C 148.131 287.145 147.962 286.531 147.725 286.006 C 147.488 285.481 147.176 285.064 146.787 284.755 C 146.398 284.447 145.916 284.292 145.341 284.292 C 144.767 284.292 144.285 284.447 143.896 284.755 C 143.507 285.064 143.194 285.481 142.957 286.006 C 142.721 286.531 142.551 287.145 142.45 287.848 C 142.348 288.551 142.298 289.296 142.298 290.084 C 142.298 290.871 142.348 291.617 142.45 292.32 C 142.551 293.022 142.721 293.636 142.957 294.162 C 143.194 294.686 143.507 295.103 143.896 295.413 C 144.285 295.721 144.767 295.876 145.341 295.876 C 145.916 295.876 146.398 295.721 146.787 295.413 C 147.176 295.103 147.488 294.686 147.725 294.162 C 147.962 293.636 148.131 293.022 148.232 292.32 C 148.334 291.617 148.384 290.871 148.384 290.084 Z" style="white-space: pre; fill: rgb(240, 240, 240);"/>
  <path d="M 180.241 265.413 C 180.241 265.816 180.109 266.163 179.848 266.456 C 179.585 266.749 179.243 266.896 178.82 266.896 C 178.38 266.896 178.025 266.749 177.755 266.456 C 177.485 266.163 177.35 265.816 177.35 265.413 C 177.35 265.012 177.485 264.657 177.755 264.348 C 178.025 264.039 178.38 263.885 178.82 263.885 C 179.243 263.885 179.585 264.039 179.848 264.348 C 180.109 264.657 180.241 265.012 180.241 265.413 Z M 173.596 265.669 C 173.596 263.259 174.048 261.409 174.952 260.12 C 175.857 258.83 177.13 258.186 178.77 258.186 C 180.426 258.186 181.703 258.83 182.599 260.12 C 183.495 261.409 183.943 263.259 183.943 265.669 C 183.943 268.078 183.495 269.928 182.599 271.217 C 181.703 272.507 180.426 273.152 178.77 273.152 C 177.13 273.152 175.857 272.507 174.952 271.217 C 174.048 269.928 173.596 268.078 173.596 265.669 Z M 181.813 265.669 C 181.813 264.881 181.762 264.136 181.661 263.433 C 181.559 262.73 181.391 262.116 181.153 261.591 C 180.916 261.066 180.604 260.649 180.215 260.34 C 179.826 260.031 179.345 259.876 178.77 259.876 C 178.195 259.876 177.713 260.031 177.324 260.34 C 176.935 260.649 176.622 261.066 176.385 261.591 C 176.149 262.116 175.98 262.73 175.879 263.433 C 175.777 264.136 175.727 264.881 175.727 265.669 C 175.727 266.456 175.777 267.201 175.879 267.904 C 175.98 268.607 176.149 269.221 176.385 269.746 C 176.622 270.271 176.935 270.688 177.324 270.998 C 177.713 271.306 178.195 271.46 178.77 271.46 C 179.345 271.46 179.826 271.306 180.215 270.998 C 180.604 270.688 180.916 270.271 181.153 269.746 C 181.391 269.221 181.559 268.607 181.661 267.904 C 181.762 267.201 181.813 266.456 181.813 265.669 Z" style="white-space: pre; fill: rgb(240, 240, 240);"/>
  <path d="M 177.73 375.625 C 177.73 376.027 177.599 376.375 177.338 376.668 C 177.075 376.961 176.733 377.108 176.31 377.108 C 175.87 377.108 175.515 376.961 175.245 376.668 C 174.975 376.375 174.84 376.027 174.84 375.625 C 174.84 375.224 174.975 374.869 175.245 374.56 C 175.515 374.251 175.87 374.097 176.31 374.097 C 176.733 374.097 177.075 374.251 177.338 374.56 C 177.599 374.869 177.73 375.224 177.73 375.625 Z M 171.086 375.88 C 171.086 373.471 171.538 371.621 172.442 370.332 C 173.347 369.042 174.619 368.397 176.26 368.397 C 177.916 368.397 179.193 369.042 180.089 370.332 C 180.985 371.621 181.433 373.471 181.433 375.88 C 181.433 378.289 180.985 380.139 180.089 381.428 C 179.193 382.719 177.916 383.363 176.26 383.363 C 174.619 383.363 173.347 382.719 172.442 381.428 C 171.538 380.139 171.086 378.289 171.086 375.88 Z M 179.303 375.88 C 179.303 375.092 179.252 374.347 179.151 373.645 C 179.049 372.942 178.881 372.328 178.643 371.803 C 178.406 371.278 178.094 370.861 177.705 370.552 C 177.316 370.243 176.835 370.088 176.26 370.088 C 175.685 370.088 175.203 370.243 174.814 370.552 C 174.425 370.861 174.112 371.278 173.875 371.803 C 173.639 372.328 173.47 372.942 173.369 373.645 C 173.267 374.347 173.217 375.092 173.217 375.88 C 173.217 376.668 173.267 377.413 173.369 378.116 C 173.47 378.818 173.639 379.433 173.875 379.958 C 174.112 380.482 174.425 380.899 174.814 381.209 C 175.203 381.518 175.685 381.672 176.26 381.672 C 176.835 381.672 177.316 381.518 177.705 381.209 C 178.094 380.899 178.406 380.482 178.643 379.958 C 178.881 379.433 179.049 378.818 179.151 378.116 C 179.252 377.413 179.303 376.668 179.303 375.88 Z" style="white-space: pre; fill: rgb(240, 240, 240);"/>
  <path d="M 189.596 473.972 C 189.596 474.374 189.465 474.721 189.203 475.014 C 188.941 475.308 188.598 475.455 188.176 475.455 C 187.736 475.455 187.381 475.308 187.111 475.014 C 186.841 474.721 186.705 474.374 186.705 473.972 C 186.705 473.571 186.841 473.215 187.111 472.906 C 187.381 472.597 187.736 472.443 188.176 472.443 C 188.598 472.443 188.941 472.597 189.203 472.906 C 189.465 473.215 189.596 473.571 189.596 473.972 Z M 182.951 474.227 C 182.951 471.817 183.403 469.968 184.308 468.678 C 185.213 467.389 186.485 466.744 188.125 466.744 C 189.782 466.744 191.058 467.389 191.955 468.678 C 192.851 469.968 193.299 471.817 193.299 474.227 C 193.299 476.636 192.851 478.486 191.955 479.775 C 191.058 481.065 189.782 481.71 188.125 481.71 C 186.485 481.71 185.213 481.065 184.308 479.775 C 183.403 478.486 182.951 476.636 182.951 474.227 Z M 191.168 474.227 C 191.168 473.439 191.118 472.694 191.016 471.991 C 190.915 471.288 190.746 470.674 190.509 470.149 C 190.272 469.624 189.96 469.207 189.571 468.898 C 189.182 468.59 188.7 468.435 188.125 468.435 C 187.551 468.435 187.069 468.59 186.68 468.898 C 186.291 469.207 185.978 469.624 185.741 470.149 C 185.505 470.674 185.336 471.288 185.234 471.991 C 185.132 472.694 185.082 473.439 185.082 474.227 C 185.082 475.014 185.132 475.76 185.234 476.463 C 185.336 477.165 185.505 477.779 185.741 478.304 C 185.978 478.829 186.291 479.246 186.68 479.556 C 187.069 479.864 187.551 480.019 188.125 480.019 C 188.7 480.019 189.182 479.864 189.571 479.556 C 189.96 479.246 190.272 478.829 190.509 478.304 C 190.746 477.779 190.915 477.165 191.016 476.463 C 191.118 475.76 191.168 475.014 191.168 474.227 Z" style="white-space: pre; fill: rgb(240, 240, 240);"/>
  <path style="fill: rgb(51, 51, 51); white-space: pre;"/>
  <path d="M 120.564 43.503 L 123.661 43.503 L 123.661 35.626 C 123.661 35.301 123.673 34.963 123.697 34.61 L 121.612 36.187 C 121.476 36.286 121.339 36.346 121.203 36.367 C 121.066 36.388 120.937 36.388 120.817 36.367 C 120.697 36.346 120.59 36.309 120.498 36.256 C 120.405 36.203 120.335 36.148 120.287 36.092 L 119.371 34.991 L 124.179 31.327 L 126.566 31.327 L 126.566 43.503 L 129.301 43.503 L 129.301 45.41 L 120.564 45.41 L 120.564 43.503 Z" style="white-space: pre; fill: rgb(240, 240, 240);"/>
  <path d="M 186.947 116.163 L 190.044 116.163 L 190.044 108.285 C 190.044 107.96 190.056 107.622 190.08 107.269 L 187.995 108.846 C 187.859 108.945 187.722 109.005 187.586 109.026 C 187.449 109.048 187.32 109.048 187.2 109.026 C 187.079 109.005 186.973 108.968 186.881 108.915 C 186.788 108.862 186.718 108.807 186.67 108.751 L 185.754 107.65 L 190.562 103.986 L 192.948 103.986 L 192.948 116.163 L 195.684 116.163 L 195.684 118.069 L 186.947 118.069 L 186.947 116.163 Z" style="white-space: pre; fill: rgb(240, 240, 240);"/>
  <path d="M 148.479 126.776 L 151.576 126.776 L 151.576 118.898 C 151.576 118.574 151.588 118.235 151.612 117.882 L 149.527 119.46 C 149.391 119.558 149.254 119.618 149.118 119.64 C 148.981 119.661 148.852 119.661 148.732 119.64 C 148.612 119.618 148.505 119.581 148.413 119.528 C 148.32 119.475 148.25 119.421 148.202 119.364 L 147.286 118.263 L 152.094 114.599 L 154.481 114.599 L 154.481 126.776 L 157.216 126.776 L 157.216 128.682 L 148.479 128.682 L 148.479 126.776 Z" style="white-space: pre; fill: rgb(240, 240, 240);"/>
  <path d="M 175.994 198.882 L 179.091 198.882 L 179.091 191.004 C 179.091 190.679 179.103 190.341 179.127 189.988 L 177.043 191.565 C 176.906 191.664 176.77 191.724 176.633 191.745 C 176.496 191.767 176.368 191.767 176.247 191.745 C 176.127 191.724 176.02 191.687 175.928 191.634 C 175.835 191.581 175.766 191.526 175.717 191.47 L 174.801 190.369 L 179.61 186.705 L 181.996 186.705 L 181.996 198.882 L 184.731 198.882 L 184.731 200.788 L 175.994 200.788 L 175.994 198.882 Z" style="white-space: pre; fill: rgb(240, 240, 240);"/>
  <path d="M 128.76 178.284 L 131.858 178.284 L 131.858 170.407 C 131.858 170.082 131.87 169.743 131.894 169.39 L 129.809 170.968 C 129.672 171.067 129.536 171.127 129.399 171.148 C 129.262 171.169 129.134 171.169 129.013 171.148 C 128.893 171.127 128.786 171.09 128.694 171.037 C 128.601 170.984 128.532 170.929 128.483 170.873 L 127.567 169.772 L 132.376 166.108 L 134.762 166.108 L 134.762 178.284 L 137.497 178.284 L 137.497 180.191 L 128.76 180.191 L 128.76 178.284 Z" style="white-space: pre; fill: rgb(240, 240, 240);"/>
  <path d="M 158.409 235.619 L 161.506 235.619 L 161.506 227.741 C 161.506 227.416 161.518 227.078 161.542 226.725 L 159.457 228.302 C 159.321 228.401 159.185 228.461 159.048 228.482 C 158.911 228.503 158.782 228.503 158.662 228.482 C 158.542 228.461 158.435 228.424 158.343 228.371 C 158.25 228.318 158.181 228.263 158.132 228.207 L 157.216 227.106 L 162.025 223.442 L 164.411 223.442 L 164.411 235.619 L 167.146 235.619 L 167.146 237.525 L 158.409 237.525 L 158.409 235.619 Z" style="white-space: pre; fill: rgb(240, 240, 240);"/>
  <path d="M 138.188 230.229 C 138.188 230.631 138.056 230.978 137.795 231.271 C 137.532 231.564 137.19 231.711 136.767 231.711 C 136.328 231.711 135.973 231.564 135.702 231.271 C 135.432 230.978 135.297 230.631 135.297 230.229 C 135.297 229.827 135.432 229.472 135.702 229.163 C 135.973 228.854 136.328 228.7 136.767 228.7 C 137.19 228.7 137.532 228.854 137.795 229.163 C 138.056 229.472 138.188 229.827 138.188 230.229 Z M 131.543 230.484 C 131.543 228.074 131.995 226.224 132.899 224.935 C 133.805 223.645 135.077 223.001 136.717 223.001 C 138.374 223.001 139.65 223.645 140.546 224.935 C 141.442 226.224 141.89 228.074 141.89 230.484 C 141.89 232.893 141.442 234.743 140.546 236.032 C 139.65 237.322 138.374 237.967 136.717 237.967 C 135.077 237.967 133.805 237.322 132.899 236.032 C 131.995 234.743 131.543 232.893 131.543 230.484 Z M 139.76 230.484 C 139.76 229.696 139.71 228.951 139.608 228.248 C 139.506 227.545 139.338 226.931 139.1 226.406 C 138.864 225.881 138.551 225.464 138.162 225.155 C 137.774 224.846 137.292 224.692 136.717 224.692 C 136.142 224.692 135.66 224.846 135.271 225.155 C 134.883 225.464 134.569 225.881 134.332 226.406 C 134.096 226.931 133.927 227.545 133.826 228.248 C 133.724 228.951 133.674 229.696 133.674 230.484 C 133.674 231.271 133.724 232.017 133.826 232.719 C 133.927 233.422 134.096 234.036 134.332 234.561 C 134.569 235.086 134.883 235.503 135.271 235.813 C 135.66 236.121 136.142 236.275 136.717 236.275 C 137.292 236.275 137.774 236.121 138.162 235.813 C 138.551 235.503 138.864 235.086 139.1 234.561 C 139.338 234.036 139.506 233.422 139.608 232.719 C 139.71 232.017 139.76 231.271 139.76 230.484 Z" style="white-space: pre; fill: rgb(240, 240, 240);"/>
  <path d="M 124.306 190.297 C 124.306 190.699 124.175 191.046 123.913 191.339 C 123.651 191.632 123.308 191.779 122.885 191.779 C 122.446 191.779 122.091 191.632 121.82 191.339 C 121.55 191.046 121.415 190.699 121.415 190.297 C 121.415 189.895 121.55 189.54 121.82 189.231 C 122.091 188.922 122.446 188.768 122.885 188.768 C 123.308 188.768 123.651 188.922 123.913 189.231 C 124.175 189.54 124.306 189.895 124.306 190.297 Z M 117.661 190.552 C 117.661 188.142 118.113 186.292 119.018 185.003 C 119.923 183.713 121.195 183.069 122.835 183.069 C 124.492 183.069 125.768 183.713 126.664 185.003 C 127.56 186.292 128.009 188.142 128.009 190.552 C 128.009 192.961 127.56 194.811 126.664 196.1 C 125.768 197.39 124.492 198.035 122.835 198.035 C 121.195 198.035 119.923 197.39 119.018 196.1 C 118.113 194.811 117.661 192.961 117.661 190.552 Z M 125.878 190.552 C 125.878 189.764 125.828 189.019 125.726 188.316 C 125.624 187.613 125.456 186.999 125.219 186.474 C 124.982 185.949 124.669 185.532 124.28 185.223 C 123.892 184.914 123.41 184.76 122.835 184.76 C 122.26 184.76 121.778 184.914 121.389 185.223 C 121.001 185.532 120.687 185.949 120.451 186.474 C 120.214 186.999 120.045 187.613 119.944 188.316 C 119.842 189.019 119.792 189.764 119.792 190.552 C 119.792 191.339 119.842 192.085 119.944 192.787 C 120.045 193.49 120.214 194.104 120.451 194.629 C 120.687 195.154 121.001 195.571 121.389 195.881 C 121.778 196.189 122.26 196.343 122.835 196.343 C 123.41 196.343 123.892 196.189 124.28 195.881 C 124.669 195.571 124.982 195.154 125.219 194.629 C 125.456 194.104 125.624 193.49 125.726 192.787 C 125.828 192.085 125.878 191.339 125.878 190.552 Z" style="white-space: pre; fill: rgb(240, 240, 240);"/>
  <path d="M 126.93 110.331 C 126.93 110.733 126.799 111.08 126.537 111.373 C 126.274 111.667 125.932 111.814 125.509 111.814 C 125.07 111.814 124.715 111.667 124.444 111.373 C 124.174 111.08 124.039 110.733 124.039 110.331 C 124.039 109.93 124.174 109.574 124.444 109.265 C 124.715 108.956 125.07 108.802 125.509 108.802 C 125.932 108.802 126.274 108.956 126.537 109.265 C 126.799 109.574 126.93 109.93 126.93 110.331 Z M 120.285 110.586 C 120.285 108.176 120.737 106.327 121.642 105.037 C 122.547 103.747 123.819 103.103 125.459 103.103 C 127.116 103.103 128.392 103.747 129.288 105.037 C 130.184 106.327 130.633 108.176 130.633 110.586 C 130.633 112.995 130.184 114.845 129.288 116.134 C 128.392 117.424 127.116 118.069 125.459 118.069 C 123.819 118.069 122.547 117.424 121.642 116.134 C 120.737 114.845 120.285 112.995 120.285 110.586 Z M 128.502 110.586 C 128.502 109.798 128.452 109.053 128.35 108.35 C 128.248 107.647 128.08 107.033 127.842 106.508 C 127.606 105.983 127.293 105.566 126.904 105.257 C 126.516 104.948 126.034 104.794 125.459 104.794 C 124.884 104.794 124.402 104.948 124.013 105.257 C 123.625 105.566 123.311 105.983 123.075 106.508 C 122.838 107.033 122.669 107.647 122.568 108.35 C 122.466 109.053 122.416 109.798 122.416 110.586 C 122.416 111.373 122.466 112.119 122.568 112.821 C 122.669 113.524 122.838 114.138 123.075 114.663 C 123.311 115.188 123.625 115.605 124.013 115.915 C 124.402 116.223 124.884 116.377 125.459 116.377 C 126.034 116.377 126.516 116.223 126.904 115.915 C 127.293 115.605 127.606 115.188 127.842 114.663 C 128.08 114.138 128.248 113.524 128.35 112.821 C 128.452 112.119 128.502 111.373 128.502 110.586 Z" style="white-space: pre; fill: rgb(240, 240, 240);"/>
  <path d="M 153.513 65.481 C 153.513 65.883 153.382 66.23 153.12 66.523 C 152.858 66.817 152.515 66.964 152.093 66.964 C 151.653 66.964 151.298 66.817 151.028 66.523 C 150.758 66.23 150.622 65.883 150.622 65.481 C 150.622 65.08 150.758 64.724 151.028 64.415 C 151.298 64.106 151.653 63.952 152.093 63.952 C 152.515 63.952 152.858 64.106 153.12 64.415 C 153.382 64.724 153.513 65.08 153.513 65.481 Z M 146.868 65.736 C 146.868 63.326 147.32 61.477 148.225 60.187 C 149.13 58.898 150.402 58.253 152.042 58.253 C 153.699 58.253 154.975 58.898 155.872 60.187 C 156.768 61.477 157.216 63.326 157.216 65.736 C 157.216 68.145 156.768 69.995 155.872 71.284 C 154.975 72.574 153.699 73.219 152.042 73.219 C 150.402 73.219 149.13 72.574 148.225 71.284 C 147.32 69.995 146.868 68.145 146.868 65.736 Z M 155.085 65.736 C 155.085 64.948 155.035 64.203 154.933 63.5 C 154.832 62.797 154.663 62.183 154.426 61.658 C 154.189 61.133 153.877 60.716 153.488 60.407 C 153.099 60.099 152.617 59.944 152.042 59.944 C 151.468 59.944 150.986 60.099 150.597 60.407 C 150.208 60.716 149.895 61.133 149.658 61.658 C 149.422 62.183 149.252 62.797 149.151 63.5 C 149.049 64.203 148.999 64.948 148.999 65.736 C 148.999 66.523 149.049 67.269 149.151 67.972 C 149.252 68.674 149.422 69.288 149.658 69.814 C 149.895 70.338 150.208 70.755 150.597 71.065 C 150.986 71.373 151.468 71.528 152.042 71.528 C 152.617 71.528 153.099 71.373 153.488 71.065 C 153.877 70.755 154.189 70.338 154.426 69.814 C 154.663 69.288 154.832 68.674 154.933 67.972 C 155.035 67.269 155.085 66.523 155.085 65.736 Z" style="white-space: pre; fill: rgb(240, 240, 240);"/>
  <path d="M 186.942 41.065 C 186.942 41.468 186.81 41.815 186.549 42.108 C 186.286 42.401 185.944 42.548 185.521 42.548 C 185.081 42.548 184.726 42.401 184.456 42.108 C 184.186 41.815 184.051 41.468 184.051 41.065 C 184.051 40.664 184.186 40.309 184.456 40 C 184.726 39.691 185.081 39.537 185.521 39.537 C 185.944 39.537 186.286 39.691 186.549 40 C 186.81 40.309 186.942 40.664 186.942 41.065 Z M 180.297 41.321 C 180.297 38.911 180.749 37.061 181.653 35.772 C 182.558 34.482 183.831 33.838 185.471 33.838 C 187.127 33.838 188.404 34.482 189.3 35.772 C 190.196 37.061 190.644 38.911 190.644 41.321 C 190.644 43.73 190.196 45.58 189.3 46.869 C 188.404 48.159 187.127 48.804 185.471 48.804 C 183.831 48.804 182.558 48.159 181.653 46.869 C 180.749 45.58 180.297 43.73 180.297 41.321 Z M 188.514 41.321 C 188.514 40.533 188.463 39.788 188.362 39.085 C 188.26 38.382 188.092 37.768 187.854 37.243 C 187.617 36.718 187.305 36.301 186.916 35.992 C 186.527 35.683 186.046 35.528 185.471 35.528 C 184.896 35.528 184.414 35.683 184.025 35.992 C 183.636 36.301 183.323 36.718 183.086 37.243 C 182.85 37.768 182.681 38.382 182.58 39.085 C 182.478 39.788 182.428 40.533 182.428 41.321 C 182.428 42.108 182.478 42.853 182.58 43.556 C 182.681 44.259 182.85 44.873 183.086 45.398 C 183.323 45.923 183.636 46.34 184.025 46.65 C 184.414 46.958 184.896 47.112 185.471 47.112 C 186.046 47.112 186.527 46.958 186.916 46.65 C 187.305 46.34 187.617 45.923 187.854 45.398 C 188.092 44.873 188.26 44.259 188.362 43.556 C 188.463 42.853 188.514 42.108 188.514 41.321 Z" style="white-space: pre; fill: rgb(240, 240, 240);"/>
  <path d="M 184.431 151.277 C 184.431 151.679 184.3 152.027 184.039 152.32 C 183.776 152.613 183.434 152.76 183.011 152.76 C 182.571 152.76 182.216 152.613 181.946 152.32 C 181.676 152.027 181.541 151.679 181.541 151.277 C 181.541 150.876 181.676 150.521 181.946 150.212 C 182.216 149.903 182.571 149.749 183.011 149.749 C 183.434 149.749 183.776 149.903 184.039 150.212 C 184.3 150.521 184.431 150.876 184.431 151.277 Z M 177.787 151.532 C 177.787 149.123 178.239 147.273 179.143 145.984 C 180.048 144.694 181.32 144.049 182.961 144.049 C 184.617 144.049 185.894 144.694 186.79 145.984 C 187.686 147.273 188.134 149.123 188.134 151.532 C 188.134 153.941 187.686 155.791 186.79 157.08 C 185.894 158.371 184.617 159.015 182.961 159.015 C 181.32 159.015 180.048 158.371 179.143 157.08 C 178.239 155.791 177.787 153.941 177.787 151.532 Z M 186.004 151.532 C 186.004 150.744 185.953 149.999 185.852 149.297 C 185.75 148.594 185.582 147.98 185.344 147.455 C 185.107 146.93 184.795 146.513 184.406 146.204 C 184.017 145.895 183.536 145.74 182.961 145.74 C 182.386 145.74 181.904 145.895 181.515 146.204 C 181.126 146.513 180.813 146.93 180.576 147.455 C 180.34 147.98 180.171 148.594 180.07 149.297 C 179.968 149.999 179.918 150.744 179.918 151.532 C 179.918 152.32 179.968 153.065 180.07 153.768 C 180.171 154.47 180.34 155.085 180.576 155.61 C 180.813 156.134 181.126 156.551 181.515 156.861 C 181.904 157.17 182.386 157.324 182.961 157.324 C 183.536 157.324 184.017 157.17 184.406 156.861 C 184.795 156.551 185.107 156.134 185.344 155.61 C 185.582 155.085 185.75 154.47 185.852 153.768 C 185.953 153.065 186.004 152.32 186.004 151.532 Z" style="white-space: pre; fill: rgb(240, 240, 240);"/>
  <path d="M 196.297 249.624 C 196.297 250.026 196.166 250.373 195.904 250.666 C 195.642 250.96 195.299 251.107 194.877 251.107 C 194.437 251.107 194.082 250.96 193.812 250.666 C 193.542 250.373 193.406 250.026 193.406 249.624 C 193.406 249.223 193.542 248.867 193.812 248.558 C 194.082 248.249 194.437 248.095 194.877 248.095 C 195.299 248.095 195.642 248.249 195.904 248.558 C 196.166 248.867 196.297 249.223 196.297 249.624 Z M 189.652 249.879 C 189.652 247.469 190.104 245.62 191.009 244.33 C 191.914 243.041 193.186 242.396 194.826 242.396 C 196.483 242.396 197.759 243.041 198.656 244.33 C 199.552 245.62 200 247.469 200 249.879 C 200 252.288 199.552 254.138 198.656 255.427 C 197.759 256.717 196.483 257.362 194.826 257.362 C 193.186 257.362 191.914 256.717 191.009 255.427 C 190.104 254.138 189.652 252.288 189.652 249.879 Z M 197.869 249.879 C 197.869 249.091 197.819 248.346 197.717 247.643 C 197.616 246.94 197.447 246.326 197.21 245.801 C 196.973 245.276 196.661 244.859 196.272 244.55 C 195.883 244.242 195.401 244.087 194.826 244.087 C 194.252 244.087 193.77 244.242 193.381 244.55 C 192.992 244.859 192.679 245.276 192.442 245.801 C 192.206 246.326 192.037 246.94 191.935 247.643 C 191.833 248.346 191.783 249.091 191.783 249.879 C 191.783 250.666 191.833 251.412 191.935 252.115 C 192.037 252.817 192.206 253.431 192.442 253.956 C 192.679 254.481 192.992 254.898 193.381 255.208 C 193.77 255.516 194.252 255.671 194.826 255.671 C 195.401 255.671 195.883 255.516 196.272 255.208 C 196.661 254.898 196.973 254.481 197.21 253.956 C 197.447 253.431 197.616 252.817 197.717 252.115 C 197.819 251.412 197.869 250.666 197.869 249.879 Z" style="white-space: pre; fill: rgb(240, 240, 240);"/>
</svg>