<?xml version="1.0" encoding="utf-8"?>
<svg width="0px" height="0px" viewBox="0 0 400 400" xmlns="http://www.w3.org/2000/svg" xmlns:bx="https://boxy-svg.com">
  <defs>
    <bx:grid x="0.007" y="0" width="100" height="100"/>
  </defs>
  <path id="math" d="M 176.223 26.714 L 21.922 26.531 C 21.83 26.549 21.758 26.625 21.741 26.722 L 21.741 177.412 L 176.065 177.603 L 176.223 26.714 Z M 147.839 115.423 L 47.275 115.423 L 47.275 94.996 L 147.839 94.996 L 147.839 115.423 Z M 22.42 225.279 L 22.42 375.977 L 176.744 376.16 L 176.902 225.271 L 22.6 225.096 C 22.509 225.108 22.436 225.183 22.42 225.279 Z M 47.954 294.351 L 88.593 294.351 L 88.593 251.369 L 107.887 251.369 L 107.887 294.351 L 148.518 294.351 L 148.518 314.769 L 107.887 314.769 L 107.887 357.767 L 88.593 357.767 L 88.593 314.769 L 47.954 314.769 L 47.954 294.351 Z M 222.002 225.295 L 222.002 375.977 L 376.305 376.16 L 376.478 225.271 L 222.184 225.12 C 222.094 225.131 222.021 225.202 222.002 225.295 Z M 250.251 277.027 L 350.815 277.027 L 350.815 297.454 L 250.251 297.454 L 250.251 277.027 Z M 250.251 312.919 L 350.815 312.919 L 350.815 333.337 L 250.251 333.337 L 250.251 312.919 Z M 375.799 26.722 L 221.505 26.539 C 221.41 26.55 221.334 26.629 221.323 26.73 L 221.323 177.428 L 375.626 177.603 L 375.799 26.722 Z M 335.722 129.017 L 340.681 134.249 L 335.736 139.505 L 332.013 143.437 L 327.055 148.701 L 322.095 143.437 L 298.316 118.281 L 274.545 143.437 L 269.586 148.701 L 264.634 143.437 L 260.919 139.505 L 255.937 134.257 L 260.919 129.017 L 284.682 103.852 L 260.919 78.696 L 255.937 73.448 L 260.919 68.2 L 264.634 64.26 L 269.586 59.004 L 274.545 64.26 L 298.316 89.416 L 322.095 64.26 L 327.055 59.004 L 332.013 64.26 L 335.736 68.2 L 340.681 73.464 L 335.722 78.696 L 311.965 103.852 L 335.722 129.017 Z" style=""/>
</svg>