<?xml version="1.0" encoding="utf-8"?>
<svg viewBox="0 0 200 500" xmlns="http://www.w3.org/2000/svg">
  <path style="fill: rgb(51, 51, 51); white-space: pre;"/>
  <path d="M 88.08 84.022 L 91.374 84.022 L 91.374 75.645 C 91.374 75.3 91.386 74.94 91.412 74.564 L 89.195 76.242 C 89.05 76.347 88.905 76.411 88.76 76.434 C 88.614 76.456 88.477 76.456 88.349 76.434 C 88.221 76.411 88.108 76.371 88.01 76.315 C 87.911 76.259 87.837 76.201 87.785 76.141 L 86.811 74.97 L 91.925 71.074 L 94.462 71.074 L 94.462 84.022 L 97.371 84.022 L 97.371 86.049 L 88.08 86.049 L 88.08 84.022 Z" style="white-space: pre; fill: rgb(240, 240, 240);"/>
  <path d="M 12.114 49.056 L 15.407 49.056 L 15.407 40.68 C 15.407 40.334 15.42 39.974 15.445 39.599 L 13.228 41.276 C 13.083 41.382 12.938 41.445 12.793 41.468 C 12.647 41.49 12.511 41.49 12.382 41.468 C 12.255 41.445 12.141 41.406 12.043 41.349 C 11.945 41.293 11.87 41.235 11.819 41.175 L 10.845 40.004 L 15.958 36.108 L 18.495 36.108 L 18.495 49.056 L 21.404 49.056 L 21.404 51.083 L 12.114 51.083 L 12.114 49.056 Z" style="white-space: pre; fill: rgb(240, 240, 240);"/>
  <path d="M 44.971 17.28 L 48.265 17.28 L 48.265 8.903 C 48.265 8.558 48.278 8.198 48.303 7.822 L 46.086 9.5 C 45.941 9.605 45.796 9.669 45.651 9.692 C 45.505 9.714 45.368 9.714 45.24 9.692 C 45.112 9.669 44.999 9.629 44.901 9.573 C 44.802 9.517 44.728 9.459 44.677 9.399 L 43.703 8.228 L 48.816 4.332 L 51.353 4.332 L 51.353 17.28 L 54.262 17.28 L 54.262 19.307 L 44.971 19.307 L 44.971 17.28 Z" style="white-space: pre; fill: rgb(240, 240, 240);"/>
  <path d="M 63.554 208.726 L 66.847 208.726 L 66.847 200.349 C 66.847 200.004 66.86 199.644 66.886 199.268 L 64.669 200.946 C 64.524 201.051 64.379 201.114 64.233 201.137 C 64.088 201.16 63.951 201.16 63.823 201.137 C 63.695 201.114 63.582 201.075 63.484 201.019 C 63.385 200.963 63.311 200.904 63.259 200.845 L 62.285 199.674 L 67.399 195.778 L 69.936 195.778 L 69.936 208.726 L 72.845 208.726 L 72.845 210.753 L 63.554 210.753 L 63.554 208.726 Z" style="white-space: pre; fill: rgb(240, 240, 240);"/>
  <path d="M 36.863 71.325 L 40.157 71.325 L 40.157 62.949 C 40.157 62.603 40.17 62.243 40.195 61.868 L 37.978 63.545 C 37.833 63.65 37.688 63.714 37.543 63.737 C 37.397 63.759 37.26 63.759 37.132 63.737 C 37.004 63.714 36.891 63.674 36.793 63.618 C 36.694 63.562 36.62 63.504 36.569 63.444 L 35.595 62.273 L 40.708 58.377 L 43.245 58.377 L 43.245 71.325 L 46.154 71.325 L 46.154 73.352 L 36.863 73.352 L 36.863 71.325 Z" style="white-space: pre; fill: rgb(240, 240, 240);"/>
  <path d="M 55.531 141.755 L 58.824 141.755 L 58.824 133.379 C 58.824 133.033 58.837 132.673 58.863 132.298 L 56.646 133.975 C 56.5 134.081 56.355 134.144 56.21 134.167 C 56.065 134.189 55.928 134.189 55.8 134.167 C 55.672 134.144 55.558 134.105 55.46 134.048 C 55.362 133.992 55.288 133.934 55.236 133.874 L 54.262 132.703 L 59.375 128.807 L 61.913 128.807 L 61.913 141.755 L 64.821 141.755 L 64.821 143.782 L 55.531 143.782 L 55.531 141.755 Z" style="white-space: pre; fill: rgb(240, 240, 240);"/>
  <path d="M 50.324 238.905 C 50.324 239.332 50.185 239.702 49.907 240.013 C 49.628 240.325 49.263 240.482 48.814 240.482 C 48.347 240.482 47.969 240.325 47.681 240.013 C 47.394 239.702 47.25 239.332 47.25 238.905 C 47.25 238.478 47.394 238.1 47.681 237.772 C 47.969 237.443 48.347 237.279 48.814 237.279 C 49.263 237.279 49.628 237.443 49.907 237.772 C 50.185 238.1 50.324 238.478 50.324 238.905 Z M 43.259 239.176 C 43.259 236.614 43.739 234.647 44.701 233.276 C 45.664 231.904 47.016 231.219 48.76 231.219 C 50.522 231.219 51.879 231.904 52.833 233.276 C 53.785 234.647 54.262 236.614 54.262 239.176 C 54.262 241.738 53.785 243.705 52.833 245.076 C 51.879 246.448 50.522 247.133 48.76 247.133 C 47.016 247.133 45.664 246.448 44.701 245.076 C 43.739 243.705 43.259 241.738 43.259 239.176 Z M 51.996 239.176 C 51.996 238.338 51.943 237.546 51.834 236.799 C 51.727 236.051 51.547 235.398 51.295 234.84 C 51.043 234.282 50.711 233.838 50.297 233.51 C 49.884 233.181 49.372 233.017 48.76 233.017 C 48.149 233.017 47.637 233.181 47.223 233.51 C 46.81 233.838 46.477 234.282 46.225 234.84 C 45.974 235.398 45.794 236.051 45.686 236.799 C 45.578 237.546 45.525 238.338 45.525 239.176 C 45.525 240.013 45.578 240.806 45.686 241.553 C 45.794 242.3 45.974 242.954 46.225 243.512 C 46.477 244.07 46.81 244.513 47.223 244.843 C 47.637 245.171 48.149 245.335 48.76 245.335 C 49.372 245.335 49.884 245.171 50.297 244.843 C 50.711 244.513 51.043 244.07 51.295 243.512 C 51.547 242.954 51.727 242.3 51.834 241.553 C 51.943 240.806 51.996 240.013 51.996 239.176 Z" style="white-space: pre; fill: rgb(240, 240, 240);"/>
  <path d="M 61.328 169.429 C 61.328 169.856 61.188 170.226 60.91 170.537 C 60.631 170.849 60.267 171.006 59.817 171.006 C 59.35 171.006 58.972 170.849 58.685 170.537 C 58.398 170.226 58.254 169.856 58.254 169.429 C 58.254 169.002 58.398 168.624 58.685 168.296 C 58.972 167.967 59.35 167.803 59.817 167.803 C 60.267 167.803 60.631 167.967 60.91 168.296 C 61.188 168.624 61.328 169.002 61.328 169.429 Z M 54.262 169.7 C 54.262 167.138 54.743 165.171 55.705 163.8 C 56.667 162.428 58.02 161.743 59.764 161.743 C 61.526 161.743 62.883 162.428 63.836 163.8 C 64.789 165.171 65.265 167.138 65.265 169.7 C 65.265 172.262 64.789 174.229 63.836 175.6 C 62.883 176.972 61.526 177.657 59.764 177.657 C 58.02 177.657 56.667 176.972 55.705 175.6 C 54.743 174.229 54.262 172.262 54.262 169.7 Z M 63 169.7 C 63 168.862 62.946 168.07 62.838 167.323 C 62.73 166.575 62.551 165.922 62.298 165.364 C 62.047 164.806 61.715 164.362 61.301 164.034 C 60.887 163.705 60.375 163.541 59.764 163.541 C 59.153 163.541 58.64 163.705 58.227 164.034 C 57.813 164.362 57.48 164.806 57.228 165.364 C 56.977 165.922 56.797 166.575 56.689 167.323 C 56.581 168.07 56.528 168.862 56.528 169.7 C 56.528 170.537 56.581 171.33 56.689 172.077 C 56.797 172.824 56.977 173.478 57.228 174.036 C 57.48 174.594 57.813 175.037 58.227 175.367 C 58.64 175.695 59.153 175.859 59.764 175.859 C 60.375 175.859 60.887 175.695 61.301 175.367 C 61.715 175.037 62.047 174.594 62.298 174.036 C 62.551 173.478 62.73 172.824 62.838 172.077 C 62.946 171.33 63 170.537 63 169.7 Z" style="white-space: pre; fill: rgb(240, 240, 240);"/>
  <path d="M 17.931 123.298 C 17.931 123.725 17.792 124.095 17.514 124.406 C 17.235 124.719 16.87 124.875 16.421 124.875 C 15.954 124.875 15.576 124.719 15.288 124.406 C 15.001 124.095 14.857 123.725 14.857 123.298 C 14.857 122.871 15.001 122.493 15.288 122.165 C 15.576 121.836 15.954 121.672 16.421 121.672 C 16.87 121.672 17.235 121.836 17.514 122.165 C 17.792 122.493 17.931 122.871 17.931 123.298 Z M 10.866 123.569 C 10.866 121.007 11.346 119.04 12.308 117.669 C 13.271 116.297 14.623 115.612 16.367 115.612 C 18.129 115.612 19.486 116.297 20.44 117.669 C 21.392 119.04 21.869 121.007 21.869 123.569 C 21.869 126.131 21.392 128.098 20.44 129.469 C 19.486 130.841 18.129 131.526 16.367 131.526 C 14.623 131.526 13.271 130.841 12.308 129.469 C 11.346 128.098 10.866 126.131 10.866 123.569 Z M 19.603 123.569 C 19.603 122.731 19.55 121.939 19.442 121.192 C 19.334 120.444 19.154 119.792 18.902 119.233 C 18.65 118.675 18.318 118.231 17.904 117.903 C 17.491 117.575 16.979 117.41 16.367 117.41 C 15.756 117.41 15.244 117.575 14.83 117.903 C 14.417 118.231 14.084 118.675 13.832 119.233 C 13.581 119.792 13.401 120.444 13.293 121.192 C 13.185 121.939 13.132 122.731 13.132 123.569 C 13.132 124.406 13.185 125.199 13.293 125.947 C 13.401 126.693 13.581 127.347 13.832 127.905 C 14.084 128.463 14.417 128.906 14.83 129.236 C 15.244 129.564 15.756 129.728 16.367 129.728 C 16.979 129.728 17.491 129.564 17.904 129.236 C 18.318 128.906 18.65 128.463 18.902 127.905 C 19.154 127.347 19.334 126.693 19.442 125.947 C 19.55 125.199 19.603 124.406 19.603 123.569 Z" style="white-space: pre; fill: rgb(240, 240, 240);"/>
  <path d="M 82.438 35.947 C 82.438 36.374 82.299 36.744 82.02 37.055 C 81.741 37.367 81.377 37.524 80.928 37.524 C 80.46 37.524 80.083 37.367 79.795 37.055 C 79.508 36.744 79.364 36.374 79.364 35.947 C 79.364 35.52 79.508 35.142 79.795 34.814 C 80.083 34.485 80.46 34.321 80.928 34.321 C 81.377 34.321 81.741 34.485 82.02 34.814 C 82.299 35.142 82.438 35.52 82.438 35.947 Z M 75.372 36.218 C 75.372 33.656 75.853 31.689 76.815 30.318 C 77.777 28.946 79.13 28.261 80.874 28.261 C 82.636 28.261 83.993 28.946 84.946 30.318 C 85.899 31.689 86.376 33.656 86.376 36.218 C 86.376 38.78 85.899 40.747 84.946 42.118 C 83.993 43.49 82.636 44.175 80.874 44.175 C 79.13 44.175 77.777 43.49 76.815 42.118 C 75.853 40.747 75.372 38.78 75.372 36.218 Z M 84.11 36.218 C 84.11 35.38 84.056 34.588 83.948 33.841 C 83.84 33.093 83.661 32.441 83.409 31.882 C 83.157 31.324 82.825 30.88 82.411 30.552 C 81.998 30.223 81.485 30.059 80.874 30.059 C 80.263 30.059 79.751 30.223 79.337 30.552 C 78.924 30.88 78.59 31.324 78.339 31.882 C 78.087 32.441 77.907 33.093 77.8 33.841 C 77.691 34.588 77.638 35.38 77.638 36.218 C 77.638 37.055 77.691 37.848 77.8 38.596 C 77.907 39.342 78.087 39.996 78.339 40.554 C 78.59 41.112 78.924 41.555 79.337 41.885 C 79.751 42.213 80.263 42.377 80.874 42.377 C 81.485 42.377 81.998 42.213 82.411 41.885 C 82.825 41.555 83.157 41.112 83.409 40.554 C 83.661 39.996 83.84 39.342 83.948 38.596 C 84.056 37.848 84.11 37.055 84.11 36.218 Z" style="white-space: pre; fill: rgb(240, 240, 240);"/>
  <path d="M 61.328 78.038 C 61.328 78.466 61.188 78.835 60.91 79.147 C 60.631 79.459 60.267 79.615 59.817 79.615 C 59.35 79.615 58.972 79.459 58.685 79.147 C 58.398 78.835 58.254 78.466 58.254 78.038 C 58.254 77.611 58.398 77.233 58.685 76.905 C 58.972 76.577 59.35 76.413 59.817 76.413 C 60.267 76.413 60.631 76.577 60.91 76.905 C 61.188 77.233 61.328 77.611 61.328 78.038 Z M 54.262 78.309 C 54.262 75.747 54.743 73.78 55.705 72.409 C 56.667 71.038 58.02 70.352 59.764 70.352 C 61.526 70.352 62.883 71.038 63.836 72.409 C 64.789 73.78 65.265 75.747 65.265 78.309 C 65.265 80.871 64.789 82.838 63.836 84.209 C 62.883 85.581 61.526 86.267 59.764 86.267 C 58.02 86.267 56.667 85.581 55.705 84.209 C 54.743 82.838 54.262 80.871 54.262 78.309 Z M 63 78.309 C 63 77.472 62.946 76.679 62.838 75.932 C 62.73 75.185 62.551 74.532 62.298 73.973 C 62.047 73.415 61.715 72.972 61.301 72.643 C 60.887 72.315 60.375 72.15 59.764 72.15 C 59.153 72.15 58.64 72.315 58.227 72.643 C 57.813 72.972 57.48 73.415 57.228 73.973 C 56.977 74.532 56.797 75.185 56.689 75.932 C 56.581 76.679 56.528 77.472 56.528 78.309 C 56.528 79.147 56.581 79.939 56.689 80.687 C 56.797 81.434 56.977 82.087 57.228 82.645 C 57.48 83.203 57.813 83.646 58.227 83.976 C 58.64 84.304 59.153 84.468 59.764 84.468 C 60.375 84.468 60.887 84.304 61.301 83.976 C 61.715 83.646 62.047 83.203 62.298 82.645 C 62.551 82.087 62.73 81.434 62.838 80.687 C 62.946 79.939 63 79.147 63 78.309 Z" style="white-space: pre; fill: rgb(240, 240, 240);"/>
  <path d="M 26.667 160.936 C 26.667 161.364 26.527 161.733 26.249 162.045 C 25.97 162.357 25.606 162.513 25.156 162.513 C 24.689 162.513 24.311 162.357 24.024 162.045 C 23.737 161.733 23.593 161.364 23.593 160.936 C 23.593 160.51 23.737 160.132 24.024 159.803 C 24.311 159.475 24.689 159.311 25.156 159.311 C 25.606 159.311 25.97 159.475 26.249 159.803 C 26.527 160.132 26.667 160.51 26.667 160.936 Z M 19.601 161.207 C 19.601 158.645 20.082 156.678 21.043 155.307 C 22.006 153.936 23.359 153.25 25.103 153.25 C 26.864 153.25 28.222 153.936 29.175 155.307 C 30.128 156.678 30.604 158.645 30.604 161.207 C 30.604 163.769 30.128 165.736 29.175 167.107 C 28.222 168.479 26.864 169.165 25.103 169.165 C 23.359 169.165 22.006 168.479 21.043 167.107 C 20.082 165.736 19.601 163.769 19.601 161.207 Z M 28.339 161.207 C 28.339 160.37 28.285 159.577 28.177 158.83 C 28.069 158.083 27.89 157.43 27.637 156.871 C 27.385 156.313 27.053 155.87 26.64 155.541 C 26.226 155.213 25.714 155.048 25.103 155.048 C 24.492 155.048 23.979 155.213 23.565 155.541 C 23.152 155.87 22.819 156.313 22.567 156.871 C 22.316 157.43 22.136 158.083 22.028 158.83 C 21.92 159.577 21.867 160.37 21.867 161.207 C 21.867 162.045 21.92 162.837 22.028 163.585 C 22.136 164.332 22.316 164.985 22.567 165.543 C 22.819 166.101 23.152 166.545 23.565 166.874 C 23.979 167.202 24.492 167.366 25.103 167.366 C 25.714 167.366 26.226 167.202 26.64 166.874 C 27.053 166.545 27.385 166.101 27.637 165.543 C 27.89 164.985 28.069 164.332 28.177 163.585 C 28.285 162.837 28.339 162.045 28.339 161.207 Z" style="white-space: pre; fill: rgb(240, 240, 240);"/>
  <path d="M 96.062 137.237 C 96.062 137.665 95.923 138.034 95.645 138.346 C 95.366 138.658 95.001 138.814 94.552 138.814 C 94.085 138.814 93.707 138.658 93.419 138.346 C 93.132 138.034 92.988 137.665 92.988 137.237 C 92.988 136.81 93.132 136.432 93.419 136.104 C 93.707 135.776 94.085 135.612 94.552 135.612 C 95.001 135.612 95.366 135.776 95.645 136.104 C 95.923 136.432 96.062 136.81 96.062 137.237 Z M 88.997 137.508 C 88.997 134.946 89.477 132.979 90.439 131.608 C 91.402 130.237 92.754 129.551 94.498 129.551 C 96.26 129.551 97.617 130.237 98.571 131.608 C 99.523 132.979 100 134.946 100 137.508 C 100 140.07 99.523 142.037 98.571 143.408 C 97.617 144.78 96.26 145.466 94.498 145.466 C 92.754 145.466 91.402 144.78 90.439 143.408 C 89.477 142.037 88.997 140.07 88.997 137.508 Z M 97.734 137.508 C 97.734 136.671 97.681 135.878 97.573 135.131 C 97.465 134.384 97.285 133.731 97.033 133.172 C 96.781 132.614 96.449 132.171 96.035 131.842 C 95.622 131.514 95.11 131.349 94.498 131.349 C 93.887 131.349 93.375 131.514 92.961 131.842 C 92.548 132.171 92.215 132.614 91.963 133.172 C 91.712 133.731 91.532 134.384 91.424 135.131 C 91.316 135.878 91.263 136.671 91.263 137.508 C 91.263 138.346 91.316 139.138 91.424 139.886 C 91.532 140.633 91.712 141.286 91.963 141.844 C 92.215 142.402 92.548 142.845 92.961 143.175 C 93.375 143.503 93.887 143.667 94.498 143.667 C 95.11 143.667 95.622 143.503 96.035 143.175 C 96.449 142.845 96.781 142.402 97.033 141.844 C 97.285 141.286 97.465 140.633 97.573 139.886 C 97.681 139.138 97.734 138.346 97.734 137.508 Z" style="white-space: pre; fill: rgb(240, 240, 240);"/>
  <path d="M 69.377 12.948 L 72.67 12.948 L 72.67 4.571 C 72.67 4.226 72.683 3.866 72.709 3.491 L 70.492 5.168 C 70.347 5.273 70.202 5.337 70.056 5.36 C 69.911 5.382 69.774 5.382 69.646 5.36 C 69.518 5.337 69.405 5.297 69.307 5.241 C 69.208 5.185 69.134 5.127 69.082 5.067 L 68.108 3.896 L 73.222 0 L 75.759 0 L 75.759 12.948 L 78.668 12.948 L 78.668 14.975 L 69.377 14.975 L 69.377 12.948 Z" style="white-space: pre; fill: rgb(240, 240, 240);"/>
  <path d="M 93.636 229.199 C 93.636 229.626 93.497 229.996 93.218 230.307 C 92.939 230.619 92.575 230.776 92.125 230.776 C 91.658 230.776 91.281 230.619 90.993 230.307 C 90.706 229.996 90.562 229.626 90.562 229.199 C 90.562 228.772 90.706 228.394 90.993 228.066 C 91.281 227.737 91.658 227.573 92.125 227.573 C 92.575 227.573 92.939 227.737 93.218 228.066 C 93.497 228.394 93.636 228.772 93.636 229.199 Z M 86.57 229.47 C 86.57 226.908 87.051 224.941 88.013 223.57 C 88.975 222.198 90.328 221.513 92.072 221.513 C 93.834 221.513 95.191 222.198 96.144 223.57 C 97.097 224.941 97.574 226.908 97.574 229.47 C 97.574 232.032 97.097 233.999 96.144 235.37 C 95.191 236.742 93.834 237.427 92.072 237.427 C 90.328 237.427 88.975 236.742 88.013 235.37 C 87.051 233.999 86.57 232.032 86.57 229.47 Z M 95.308 229.47 C 95.308 228.632 95.254 227.84 95.146 227.093 C 95.038 226.345 94.859 225.693 94.607 225.134 C 94.355 224.576 94.023 224.132 93.609 223.804 C 93.196 223.475 92.683 223.311 92.072 223.311 C 91.461 223.311 90.949 223.475 90.535 223.804 C 90.121 224.132 89.788 224.576 89.537 225.134 C 89.285 225.693 89.105 226.345 88.998 227.093 C 88.889 227.84 88.836 228.632 88.836 229.47 C 88.836 230.307 88.889 231.1 88.998 231.848 C 89.105 232.594 89.285 233.248 89.537 233.806 C 89.788 234.364 90.121 234.807 90.535 235.137 C 90.949 235.465 91.461 235.629 92.072 235.629 C 92.683 235.629 93.196 235.465 93.609 235.137 C 94.023 234.807 94.355 234.364 94.607 233.806 C 94.859 233.248 95.038 232.594 95.146 231.848 C 95.254 231.1 95.308 230.307 95.308 229.47 Z" style="white-space: pre; fill: rgb(240, 240, 240);"/>
  <path d="M 13.564 212.02 C 13.564 212.447 13.424 212.816 13.146 213.128 C 12.867 213.44 12.503 213.596 12.053 213.596 C 11.586 213.596 11.208 213.44 10.921 213.128 C 10.634 212.816 10.49 212.447 10.49 212.02 C 10.49 211.593 10.634 211.215 10.921 210.886 C 11.208 210.558 11.586 210.394 12.053 210.394 C 12.503 210.394 12.867 210.558 13.146 210.886 C 13.424 211.215 13.564 211.593 13.564 212.02 Z M 6.498 212.291 C 6.498 209.728 6.979 207.762 7.941 206.391 C 8.903 205.019 10.256 204.334 12 204.334 C 13.762 204.334 15.119 205.019 16.072 206.391 C 17.025 207.762 17.501 209.728 17.501 212.291 C 17.501 214.853 17.025 216.82 16.072 218.19 C 15.119 219.562 13.762 220.248 12 220.248 C 10.256 220.248 8.903 219.562 7.941 218.19 C 6.979 216.82 6.498 214.853 6.498 212.291 Z M 15.236 212.291 C 15.236 211.453 15.182 210.661 15.074 209.913 C 14.966 209.166 14.787 208.513 14.534 207.955 C 14.283 207.396 13.951 206.953 13.537 206.625 C 13.124 206.296 12.611 206.132 12 206.132 C 11.389 206.132 10.876 206.296 10.463 206.625 C 10.049 206.953 9.716 207.396 9.464 207.955 C 9.213 208.513 9.033 209.166 8.925 209.913 C 8.817 210.661 8.764 211.453 8.764 212.291 C 8.764 213.128 8.817 213.921 8.925 214.668 C 9.033 215.415 9.213 216.068 9.464 216.627 C 9.716 217.185 10.049 217.628 10.463 217.957 C 10.876 218.285 11.389 218.449 12 218.449 C 12.611 218.449 13.124 218.285 13.537 217.957 C 13.951 217.628 14.283 217.185 14.534 216.627 C 14.787 216.068 14.966 215.415 15.074 214.668 C 15.182 213.921 15.236 213.128 15.236 212.291 Z" style="white-space: pre; fill: rgb(240, 240, 240);"/>
  <path style="fill: rgb(51, 51, 51); white-space: pre;"/>
  <path d="M 179.082 330.649 L 182.376 330.649 L 182.376 322.272 C 182.376 321.927 182.388 321.567 182.414 321.191 L 180.197 322.869 C 180.052 322.974 179.907 323.038 179.762 323.061 C 179.616 323.083 179.479 323.083 179.351 323.061 C 179.223 323.038 179.11 322.998 179.012 322.942 C 178.913 322.886 178.839 322.828 178.787 322.768 L 177.813 321.597 L 182.927 317.701 L 185.464 317.701 L 185.464 330.649 L 188.373 330.649 L 188.373 332.676 L 179.082 332.676 L 179.082 330.649 Z" style="white-space: pre; fill: rgb(240, 240, 240);"/>
  <path d="M 103.116 295.683 L 106.409 295.683 L 106.409 287.307 C 106.409 286.961 106.422 286.601 106.447 286.226 L 104.23 287.903 C 104.085 288.009 103.94 288.072 103.795 288.095 C 103.649 288.117 103.513 288.117 103.384 288.095 C 103.257 288.072 103.143 288.033 103.045 287.976 C 102.947 287.92 102.872 287.862 102.821 287.802 L 101.847 286.631 L 106.96 282.735 L 109.497 282.735 L 109.497 295.683 L 112.406 295.683 L 112.406 297.71 L 103.116 297.71 L 103.116 295.683 Z" style="white-space: pre; fill: rgb(240, 240, 240);"/>
  <path d="M 121.342 227.891 L 124.636 227.891 L 124.636 219.514 C 124.636 219.169 124.649 218.809 124.674 218.433 L 122.457 220.111 C 122.312 220.216 122.167 220.28 122.022 220.303 C 121.876 220.325 121.739 220.325 121.611 220.303 C 121.483 220.28 121.37 220.24 121.272 220.184 C 121.173 220.128 121.099 220.07 121.048 220.01 L 120.074 218.839 L 125.187 214.943 L 127.724 214.943 L 127.724 227.891 L 130.633 227.891 L 130.633 229.918 L 121.342 229.918 L 121.342 227.891 Z" style="white-space: pre; fill: rgb(240, 240, 240);"/>
  <path d="M 154.556 455.353 L 157.849 455.353 L 157.849 446.976 C 157.849 446.631 157.862 446.271 157.888 445.895 L 155.671 447.573 C 155.526 447.678 155.381 447.741 155.235 447.764 C 155.09 447.787 154.953 447.787 154.825 447.764 C 154.697 447.741 154.584 447.702 154.486 447.646 C 154.387 447.59 154.313 447.531 154.261 447.472 L 153.287 446.301 L 158.401 442.405 L 160.938 442.405 L 160.938 455.353 L 163.847 455.353 L 163.847 457.38 L 154.556 457.38 L 154.556 455.353 Z" style="white-space: pre; fill: rgb(240, 240, 240);"/>
  <path d="M 127.865 317.952 L 131.159 317.952 L 131.159 309.576 C 131.159 309.23 131.172 308.87 131.197 308.495 L 128.98 310.172 C 128.835 310.277 128.69 310.341 128.545 310.364 C 128.399 310.386 128.262 310.386 128.134 310.364 C 128.006 310.341 127.893 310.301 127.795 310.245 C 127.696 310.189 127.622 310.131 127.571 310.071 L 126.597 308.9 L 131.71 305.004 L 134.247 305.004 L 134.247 317.952 L 137.156 317.952 L 137.156 319.979 L 127.865 319.979 L 127.865 317.952 Z" style="white-space: pre; fill: rgb(240, 240, 240);"/>
  <path d="M 146.533 388.382 L 149.826 388.382 L 149.826 380.006 C 149.826 379.66 149.839 379.3 149.865 378.925 L 147.648 380.602 C 147.502 380.708 147.357 380.771 147.212 380.794 C 147.067 380.816 146.93 380.816 146.802 380.794 C 146.674 380.771 146.56 380.732 146.462 380.675 C 146.364 380.619 146.29 380.561 146.238 380.501 L 145.264 379.33 L 150.377 375.434 L 152.915 375.434 L 152.915 388.382 L 155.823 388.382 L 155.823 390.409 L 146.533 390.409 L 146.533 388.382 Z" style="white-space: pre; fill: rgb(240, 240, 240);"/>
  <path d="M 141.326 485.532 C 141.326 485.959 141.187 486.329 140.909 486.64 C 140.63 486.952 140.265 487.109 139.816 487.109 C 139.349 487.109 138.971 486.952 138.683 486.64 C 138.396 486.329 138.252 485.959 138.252 485.532 C 138.252 485.105 138.396 484.727 138.683 484.399 C 138.971 484.07 139.349 483.906 139.816 483.906 C 140.265 483.906 140.63 484.07 140.909 484.399 C 141.187 484.727 141.326 485.105 141.326 485.532 Z M 134.261 485.803 C 134.261 483.241 134.741 481.274 135.703 479.903 C 136.666 478.531 138.018 477.846 139.762 477.846 C 141.524 477.846 142.881 478.531 143.835 479.903 C 144.787 481.274 145.264 483.241 145.264 485.803 C 145.264 488.365 144.787 490.332 143.835 491.703 C 142.881 493.075 141.524 493.76 139.762 493.76 C 138.018 493.76 136.666 493.075 135.703 491.703 C 134.741 490.332 134.261 488.365 134.261 485.803 Z M 142.998 485.803 C 142.998 484.965 142.945 484.173 142.836 483.426 C 142.729 482.678 142.549 482.025 142.297 481.467 C 142.045 480.909 141.713 480.465 141.299 480.137 C 140.886 479.808 140.374 479.644 139.762 479.644 C 139.151 479.644 138.639 479.808 138.225 480.137 C 137.812 480.465 137.479 480.909 137.227 481.467 C 136.976 482.025 136.796 482.678 136.688 483.426 C 136.58 484.173 136.527 484.965 136.527 485.803 C 136.527 486.64 136.58 487.433 136.688 488.18 C 136.796 488.927 136.976 489.581 137.227 490.139 C 137.479 490.697 137.812 491.14 138.225 491.47 C 138.639 491.798 139.151 491.962 139.762 491.962 C 140.374 491.962 140.886 491.798 141.299 491.47 C 141.713 491.14 142.045 490.697 142.297 490.139 C 142.549 489.581 142.729 488.927 142.836 488.18 C 142.945 487.433 142.998 486.64 142.998 485.803 Z" style="white-space: pre; fill: rgb(240, 240, 240);"/>
  <path d="M 152.33 416.056 C 152.33 416.483 152.19 416.853 151.912 417.164 C 151.633 417.476 151.269 417.633 150.819 417.633 C 150.352 417.633 149.974 417.476 149.687 417.164 C 149.4 416.853 149.256 416.483 149.256 416.056 C 149.256 415.629 149.4 415.251 149.687 414.923 C 149.974 414.594 150.352 414.43 150.819 414.43 C 151.269 414.43 151.633 414.594 151.912 414.923 C 152.19 415.251 152.33 415.629 152.33 416.056 Z M 145.264 416.327 C 145.264 413.765 145.745 411.798 146.707 410.427 C 147.669 409.055 149.022 408.37 150.766 408.37 C 152.528 408.37 153.885 409.055 154.838 410.427 C 155.791 411.798 156.267 413.765 156.267 416.327 C 156.267 418.889 155.791 420.856 154.838 422.227 C 153.885 423.599 152.528 424.284 150.766 424.284 C 149.022 424.284 147.669 423.599 146.707 422.227 C 145.745 420.856 145.264 418.889 145.264 416.327 Z M 154.002 416.327 C 154.002 415.489 153.948 414.697 153.84 413.95 C 153.732 413.202 153.553 412.549 153.3 411.991 C 153.049 411.433 152.717 410.989 152.303 410.661 C 151.889 410.332 151.377 410.168 150.766 410.168 C 150.155 410.168 149.642 410.332 149.229 410.661 C 148.815 410.989 148.482 411.433 148.23 411.991 C 147.979 412.549 147.799 413.202 147.691 413.95 C 147.583 414.697 147.53 415.489 147.53 416.327 C 147.53 417.164 147.583 417.957 147.691 418.704 C 147.799 419.451 147.979 420.105 148.23 420.663 C 148.482 421.221 148.815 421.664 149.229 421.994 C 149.642 422.322 150.155 422.486 150.766 422.486 C 151.377 422.486 151.889 422.322 152.303 421.994 C 152.717 421.664 153.049 421.221 153.3 420.663 C 153.553 420.105 153.732 419.451 153.84 418.704 C 153.948 417.957 154.002 417.164 154.002 416.327 Z" style="white-space: pre; fill: rgb(240, 240, 240);"/>
  <path d="M 108.933 369.925 C 108.933 370.352 108.794 370.722 108.516 371.033 C 108.237 371.346 107.872 371.502 107.423 371.502 C 106.956 371.502 106.578 371.346 106.29 371.033 C 106.003 370.722 105.859 370.352 105.859 369.925 C 105.859 369.498 106.003 369.12 106.29 368.792 C 106.578 368.463 106.956 368.299 107.423 368.299 C 107.872 368.299 108.237 368.463 108.516 368.792 C 108.794 369.12 108.933 369.498 108.933 369.925 Z M 101.868 370.196 C 101.868 367.634 102.348 365.667 103.31 364.296 C 104.273 362.924 105.625 362.239 107.369 362.239 C 109.131 362.239 110.488 362.924 111.442 364.296 C 112.394 365.667 112.871 367.634 112.871 370.196 C 112.871 372.758 112.394 374.725 111.442 376.096 C 110.488 377.468 109.131 378.153 107.369 378.153 C 105.625 378.153 104.273 377.468 103.31 376.096 C 102.348 374.725 101.868 372.758 101.868 370.196 Z M 110.605 370.196 C 110.605 369.358 110.552 368.566 110.444 367.819 C 110.336 367.071 110.156 366.419 109.904 365.86 C 109.652 365.302 109.32 364.858 108.906 364.53 C 108.493 364.202 107.981 364.037 107.369 364.037 C 106.758 364.037 106.246 364.202 105.832 364.53 C 105.419 364.858 105.086 365.302 104.834 365.86 C 104.583 366.419 104.403 367.071 104.295 367.819 C 104.187 368.566 104.134 369.358 104.134 370.196 C 104.134 371.033 104.187 371.826 104.295 372.574 C 104.403 373.32 104.583 373.974 104.834 374.532 C 105.086 375.09 105.419 375.533 105.832 375.863 C 106.246 376.191 106.758 376.355 107.369 376.355 C 107.981 376.355 108.493 376.191 108.906 375.863 C 109.32 375.533 109.652 375.09 109.904 374.532 C 110.156 373.974 110.336 373.32 110.444 372.574 C 110.552 371.826 110.605 371.033 110.605 370.196 Z" style="white-space: pre; fill: rgb(240, 240, 240);"/>
  <path d="M 173.44 282.574 C 173.44 283.001 173.301 283.371 173.022 283.682 C 172.743 283.994 172.379 284.151 171.93 284.151 C 171.462 284.151 171.085 283.994 170.797 283.682 C 170.51 283.371 170.366 283.001 170.366 282.574 C 170.366 282.147 170.51 281.769 170.797 281.441 C 171.085 281.112 171.462 280.948 171.93 280.948 C 172.379 280.948 172.743 281.112 173.022 281.441 C 173.301 281.769 173.44 282.147 173.44 282.574 Z M 166.374 282.845 C 166.374 280.283 166.855 278.316 167.817 276.945 C 168.779 275.573 170.132 274.888 171.876 274.888 C 173.638 274.888 174.995 275.573 175.948 276.945 C 176.901 278.316 177.378 280.283 177.378 282.845 C 177.378 285.407 176.901 287.374 175.948 288.745 C 174.995 290.117 173.638 290.802 171.876 290.802 C 170.132 290.802 168.779 290.117 167.817 288.745 C 166.855 287.374 166.374 285.407 166.374 282.845 Z M 175.112 282.845 C 175.112 282.007 175.058 281.215 174.95 280.468 C 174.842 279.72 174.663 279.068 174.411 278.509 C 174.159 277.951 173.827 277.507 173.413 277.179 C 173 276.85 172.487 276.686 171.876 276.686 C 171.265 276.686 170.753 276.85 170.339 277.179 C 169.926 277.507 169.592 277.951 169.341 278.509 C 169.089 279.068 168.909 279.72 168.802 280.468 C 168.693 281.215 168.64 282.007 168.64 282.845 C 168.64 283.682 168.693 284.475 168.802 285.223 C 168.909 285.969 169.089 286.623 169.341 287.181 C 169.592 287.739 169.926 288.182 170.339 288.512 C 170.753 288.84 171.265 289.004 171.876 289.004 C 172.487 289.004 173 288.84 173.413 288.512 C 173.827 288.182 174.159 287.739 174.411 287.181 C 174.663 286.623 174.842 285.969 174.95 285.223 C 175.058 284.475 175.112 283.682 175.112 282.845 Z" style="white-space: pre; fill: rgb(240, 240, 240);"/>
  <path d="M 152.33 324.665 C 152.33 325.093 152.19 325.462 151.912 325.774 C 151.633 326.086 151.269 326.242 150.819 326.242 C 150.352 326.242 149.974 326.086 149.687 325.774 C 149.4 325.462 149.256 325.093 149.256 324.665 C 149.256 324.238 149.4 323.86 149.687 323.532 C 149.974 323.204 150.352 323.04 150.819 323.04 C 151.269 323.04 151.633 323.204 151.912 323.532 C 152.19 323.86 152.33 324.238 152.33 324.665 Z M 145.264 324.936 C 145.264 322.374 145.745 320.407 146.707 319.036 C 147.669 317.665 149.022 316.979 150.766 316.979 C 152.528 316.979 153.885 317.665 154.838 319.036 C 155.791 320.407 156.267 322.374 156.267 324.936 C 156.267 327.498 155.791 329.465 154.838 330.836 C 153.885 332.208 152.528 332.894 150.766 332.894 C 149.022 332.894 147.669 332.208 146.707 330.836 C 145.745 329.465 145.264 327.498 145.264 324.936 Z M 154.002 324.936 C 154.002 324.099 153.948 323.306 153.84 322.559 C 153.732 321.812 153.553 321.159 153.3 320.6 C 153.049 320.042 152.717 319.599 152.303 319.27 C 151.889 318.942 151.377 318.777 150.766 318.777 C 150.155 318.777 149.642 318.942 149.229 319.27 C 148.815 319.599 148.482 320.042 148.23 320.6 C 147.979 321.159 147.799 321.812 147.691 322.559 C 147.583 323.306 147.53 324.099 147.53 324.936 C 147.53 325.774 147.583 326.566 147.691 327.314 C 147.799 328.061 147.979 328.714 148.23 329.272 C 148.482 329.83 148.815 330.273 149.229 330.603 C 149.642 330.931 150.155 331.095 150.766 331.095 C 151.377 331.095 151.889 330.931 152.303 330.603 C 152.717 330.273 153.049 329.83 153.3 329.272 C 153.553 328.714 153.732 328.061 153.84 327.314 C 153.948 326.566 154.002 325.774 154.002 324.936 Z" style="white-space: pre; fill: rgb(240, 240, 240);"/>
  <path d="M 117.669 407.563 C 117.669 407.991 117.529 408.36 117.251 408.672 C 116.972 408.984 116.608 409.14 116.158 409.14 C 115.691 409.14 115.313 408.984 115.026 408.672 C 114.739 408.36 114.595 407.991 114.595 407.563 C 114.595 407.137 114.739 406.759 115.026 406.43 C 115.313 406.102 115.691 405.938 116.158 405.938 C 116.608 405.938 116.972 406.102 117.251 406.43 C 117.529 406.759 117.669 407.137 117.669 407.563 Z M 110.603 407.834 C 110.603 405.272 111.084 403.305 112.045 401.934 C 113.008 400.563 114.361 399.877 116.105 399.877 C 117.866 399.877 119.224 400.563 120.177 401.934 C 121.13 403.305 121.606 405.272 121.606 407.834 C 121.606 410.396 121.13 412.363 120.177 413.734 C 119.224 415.106 117.866 415.792 116.105 415.792 C 114.361 415.792 113.008 415.106 112.045 413.734 C 111.084 412.363 110.603 410.396 110.603 407.834 Z M 119.341 407.834 C 119.341 406.997 119.287 406.204 119.179 405.457 C 119.071 404.71 118.892 404.057 118.639 403.498 C 118.387 402.94 118.055 402.497 117.642 402.168 C 117.228 401.84 116.716 401.675 116.105 401.675 C 115.494 401.675 114.981 401.84 114.567 402.168 C 114.154 402.497 113.821 402.94 113.569 403.498 C 113.318 404.057 113.138 404.71 113.03 405.457 C 112.922 406.204 112.869 406.997 112.869 407.834 C 112.869 408.672 112.922 409.464 113.03 410.212 C 113.138 410.959 113.318 411.612 113.569 412.17 C 113.821 412.728 114.154 413.172 114.567 413.501 C 114.981 413.829 115.494 413.993 116.105 413.993 C 116.716 413.993 117.228 413.829 117.642 413.501 C 118.055 413.172 118.387 412.728 118.639 412.17 C 118.892 411.612 119.071 410.959 119.179 410.212 C 119.287 409.464 119.341 408.672 119.341 407.834 Z" style="white-space: pre; fill: rgb(240, 240, 240);"/>
  <path d="M 187.064 383.864 C 187.064 384.292 186.925 384.661 186.647 384.973 C 186.368 385.285 186.003 385.441 185.554 385.441 C 185.087 385.441 184.709 385.285 184.421 384.973 C 184.134 384.661 183.99 384.292 183.99 383.864 C 183.99 383.437 184.134 383.059 184.421 382.731 C 184.709 382.403 185.087 382.239 185.554 382.239 C 186.003 382.239 186.368 382.403 186.647 382.731 C 186.925 383.059 187.064 383.437 187.064 383.864 Z M 179.999 384.135 C 179.999 381.573 180.479 379.606 181.441 378.235 C 182.404 376.864 183.756 376.178 185.5 376.178 C 187.262 376.178 188.619 376.864 189.573 378.235 C 190.525 379.606 191.002 381.573 191.002 384.135 C 191.002 386.697 190.525 388.664 189.573 390.035 C 188.619 391.407 187.262 392.093 185.5 392.093 C 183.756 392.093 182.404 391.407 181.441 390.035 C 180.479 388.664 179.999 386.697 179.999 384.135 Z M 188.736 384.135 C 188.736 383.298 188.683 382.505 188.575 381.758 C 188.467 381.011 188.287 380.358 188.035 379.799 C 187.783 379.241 187.451 378.798 187.037 378.469 C 186.624 378.141 186.112 377.976 185.5 377.976 C 184.889 377.976 184.377 378.141 183.963 378.469 C 183.55 378.798 183.217 379.241 182.965 379.799 C 182.714 380.358 182.534 381.011 182.426 381.758 C 182.318 382.505 182.265 383.298 182.265 384.135 C 182.265 384.973 182.318 385.765 182.426 386.513 C 182.534 387.26 182.714 387.913 182.965 388.471 C 183.217 389.029 183.55 389.472 183.963 389.802 C 184.377 390.13 184.889 390.294 185.5 390.294 C 186.112 390.294 186.624 390.13 187.037 389.802 C 187.451 389.472 187.783 389.029 188.035 388.471 C 188.287 387.913 188.467 387.26 188.575 386.513 C 188.683 385.765 188.736 384.973 188.736 384.135 Z" style="white-space: pre; fill: rgb(240, 240, 240);"/>
  <path d="M 160.379 259.575 L 163.672 259.575 L 163.672 251.198 C 163.672 250.853 163.685 250.493 163.711 250.118 L 161.494 251.795 C 161.349 251.9 161.204 251.964 161.058 251.987 C 160.913 252.009 160.776 252.009 160.648 251.987 C 160.52 251.964 160.407 251.924 160.309 251.868 C 160.21 251.812 160.136 251.754 160.084 251.694 L 159.11 250.523 L 164.224 246.627 L 166.761 246.627 L 166.761 259.575 L 169.67 259.575 L 169.67 261.602 L 160.379 261.602 L 160.379 259.575 Z" style="white-space: pre; fill: rgb(240, 240, 240);"/>
  <path d="M 184.638 475.826 C 184.638 476.253 184.499 476.623 184.22 476.934 C 183.941 477.246 183.577 477.403 183.127 477.403 C 182.66 477.403 182.283 477.246 181.995 476.934 C 181.708 476.623 181.564 476.253 181.564 475.826 C 181.564 475.399 181.708 475.021 181.995 474.693 C 182.283 474.364 182.66 474.2 183.127 474.2 C 183.577 474.2 183.941 474.364 184.22 474.693 C 184.499 475.021 184.638 475.399 184.638 475.826 Z M 177.572 476.097 C 177.572 473.535 178.053 471.568 179.015 470.197 C 179.977 468.825 181.33 468.14 183.074 468.14 C 184.836 468.14 186.193 468.825 187.146 470.197 C 188.099 471.568 188.576 473.535 188.576 476.097 C 188.576 478.659 188.099 480.626 187.146 481.997 C 186.193 483.369 184.836 484.054 183.074 484.054 C 181.33 484.054 179.977 483.369 179.015 481.997 C 178.053 480.626 177.572 478.659 177.572 476.097 Z M 186.31 476.097 C 186.31 475.259 186.256 474.467 186.148 473.72 C 186.04 472.972 185.861 472.32 185.609 471.761 C 185.357 471.203 185.025 470.759 184.611 470.431 C 184.198 470.102 183.685 469.938 183.074 469.938 C 182.463 469.938 181.951 470.102 181.537 470.431 C 181.123 470.759 180.79 471.203 180.539 471.761 C 180.287 472.32 180.107 472.972 180 473.72 C 179.891 474.467 179.838 475.259 179.838 476.097 C 179.838 476.934 179.891 477.727 180 478.475 C 180.107 479.221 180.287 479.875 180.539 480.433 C 180.79 480.991 181.123 481.434 181.537 481.764 C 181.951 482.092 182.463 482.256 183.074 482.256 C 183.685 482.256 184.198 482.092 184.611 481.764 C 185.025 481.434 185.357 480.991 185.609 480.433 C 185.861 479.875 186.04 479.221 186.148 478.475 C 186.256 477.727 186.31 476.934 186.31 476.097 Z" style="white-space: pre; fill: rgb(240, 240, 240);"/>
  <path d="M 104.566 458.647 C 104.566 459.074 104.426 459.443 104.148 459.755 C 103.869 460.067 103.505 460.223 103.055 460.223 C 102.588 460.223 102.21 460.067 101.923 459.755 C 101.636 459.443 101.492 459.074 101.492 458.647 C 101.492 458.22 101.636 457.842 101.923 457.513 C 102.21 457.185 102.588 457.021 103.055 457.021 C 103.505 457.021 103.869 457.185 104.148 457.513 C 104.426 457.842 104.566 458.22 104.566 458.647 Z M 97.5 458.918 C 97.5 456.355 97.981 454.389 98.943 453.018 C 99.905 451.646 101.258 450.961 103.002 450.961 C 104.764 450.961 106.121 451.646 107.074 453.018 C 108.027 454.389 108.503 456.355 108.503 458.918 C 108.503 461.48 108.027 463.447 107.074 464.817 C 106.121 466.189 104.764 466.875 103.002 466.875 C 101.258 466.875 99.905 466.189 98.943 464.817 C 97.981 463.447 97.5 461.48 97.5 458.918 Z M 106.238 458.918 C 106.238 458.08 106.184 457.288 106.076 456.54 C 105.968 455.793 105.789 455.14 105.536 454.582 C 105.285 454.023 104.953 453.58 104.539 453.252 C 104.126 452.923 103.613 452.759 103.002 452.759 C 102.391 452.759 101.878 452.923 101.465 453.252 C 101.051 453.58 100.718 454.023 100.466 454.582 C 100.215 455.14 100.035 455.793 99.927 456.54 C 99.819 457.288 99.766 458.08 99.766 458.918 C 99.766 459.755 99.819 460.548 99.927 461.295 C 100.035 462.042 100.215 462.695 100.466 463.254 C 100.718 463.812 101.051 464.255 101.465 464.584 C 101.878 464.912 102.391 465.076 103.002 465.076 C 103.613 465.076 104.126 464.912 104.539 464.584 C 104.953 464.255 105.285 463.812 105.536 463.254 C 105.789 462.695 105.968 462.042 106.076 461.295 C 106.184 460.548 106.238 459.755 106.238 458.918 Z" style="white-space: pre; fill: rgb(240, 240, 240);"/>
  <path d="M 2.903 296.193 L 6 296.193 L 6 288.316 C 6 287.991 6.012 287.653 6.036 287.3 L 3.951 288.877 C 3.815 288.976 3.678 289.036 3.542 289.057 C 3.405 289.078 3.276 289.078 3.156 289.057 C 3.036 289.036 2.929 288.999 2.837 288.946 C 2.744 288.893 2.674 288.838 2.626 288.782 L 1.71 287.681 L 6.518 284.017 L 8.905 284.017 L 8.905 296.193 L 11.64 296.193 L 11.64 298.1 L 2.903 298.1 L 2.903 296.193 Z" style="white-space: pre; fill: rgb(240, 240, 240);"/>
  <path d="M 69.286 368.853 L 72.383 368.853 L 72.383 360.975 C 72.383 360.65 72.395 360.312 72.419 359.959 L 70.334 361.536 C 70.198 361.635 70.061 361.695 69.925 361.716 C 69.788 361.738 69.659 361.738 69.539 361.716 C 69.418 361.695 69.312 361.658 69.22 361.605 C 69.127 361.552 69.057 361.497 69.009 361.441 L 68.093 360.34 L 72.901 356.676 L 75.287 356.676 L 75.287 368.853 L 78.023 368.853 L 78.023 370.759 L 69.286 370.759 L 69.286 368.853 Z" style="white-space: pre; fill: rgb(240, 240, 240);"/>
  <path d="M 30.818 379.466 L 33.915 379.466 L 33.915 371.588 C 33.915 371.264 33.927 370.925 33.951 370.572 L 31.866 372.15 C 31.73 372.248 31.593 372.308 31.457 372.33 C 31.32 372.351 31.191 372.351 31.071 372.33 C 30.951 372.308 30.844 372.271 30.752 372.218 C 30.659 372.165 30.589 372.111 30.541 372.054 L 29.625 370.953 L 34.433 367.289 L 36.82 367.289 L 36.82 379.466 L 39.555 379.466 L 39.555 381.372 L 30.818 381.372 L 30.818 379.466 Z" style="white-space: pre; fill: rgb(240, 240, 240);"/>
  <path d="M 58.333 451.572 L 61.43 451.572 L 61.43 443.694 C 61.43 443.369 61.442 443.031 61.466 442.678 L 59.382 444.255 C 59.245 444.354 59.109 444.414 58.972 444.435 C 58.835 444.457 58.707 444.457 58.586 444.435 C 58.466 444.414 58.359 444.377 58.267 444.324 C 58.174 444.271 58.105 444.216 58.056 444.16 L 57.14 443.059 L 61.949 439.395 L 64.335 439.395 L 64.335 451.572 L 67.07 451.572 L 67.07 453.478 L 58.333 453.478 L 58.333 451.572 Z" style="white-space: pre; fill: rgb(240, 240, 240);"/>
  <path d="M 11.099 430.974 L 14.197 430.974 L 14.197 423.097 C 14.197 422.772 14.209 422.433 14.233 422.08 L 12.148 423.658 C 12.011 423.757 11.875 423.817 11.738 423.838 C 11.601 423.859 11.473 423.859 11.352 423.838 C 11.232 423.817 11.125 423.78 11.033 423.727 C 10.94 423.674 10.871 423.619 10.822 423.563 L 9.906 422.462 L 14.715 418.798 L 17.101 418.798 L 17.101 430.974 L 19.836 430.974 L 19.836 432.881 L 11.099 432.881 L 11.099 430.974 Z" style="white-space: pre; fill: rgb(240, 240, 240);"/>
  <path d="M 40.748 488.309 L 43.845 488.309 L 43.845 480.431 C 43.845 480.106 43.857 479.768 43.881 479.415 L 41.796 480.992 C 41.66 481.091 41.524 481.151 41.387 481.172 C 41.25 481.193 41.121 481.193 41.001 481.172 C 40.881 481.151 40.774 481.114 40.682 481.061 C 40.589 481.008 40.52 480.953 40.471 480.897 L 39.555 479.796 L 44.364 476.132 L 46.75 476.132 L 46.75 488.309 L 49.485 488.309 L 49.485 490.215 L 40.748 490.215 L 40.748 488.309 Z" style="white-space: pre; fill: rgb(240, 240, 240);"/>
  <path d="M 20.527 482.919 C 20.527 483.321 20.395 483.668 20.134 483.961 C 19.871 484.254 19.529 484.401 19.106 484.401 C 18.667 484.401 18.312 484.254 18.041 483.961 C 17.771 483.668 17.636 483.321 17.636 482.919 C 17.636 482.517 17.771 482.162 18.041 481.853 C 18.312 481.544 18.667 481.39 19.106 481.39 C 19.529 481.39 19.871 481.544 20.134 481.853 C 20.395 482.162 20.527 482.517 20.527 482.919 Z M 13.882 483.174 C 13.882 480.764 14.334 478.914 15.238 477.625 C 16.144 476.335 17.416 475.691 19.056 475.691 C 20.713 475.691 21.989 476.335 22.885 477.625 C 23.781 478.914 24.229 480.764 24.229 483.174 C 24.229 485.583 23.781 487.433 22.885 488.722 C 21.989 490.012 20.713 490.657 19.056 490.657 C 17.416 490.657 16.144 490.012 15.238 488.722 C 14.334 487.433 13.882 485.583 13.882 483.174 Z M 22.099 483.174 C 22.099 482.386 22.049 481.641 21.947 480.938 C 21.845 480.235 21.677 479.621 21.439 479.096 C 21.203 478.571 20.89 478.154 20.501 477.845 C 20.113 477.536 19.631 477.382 19.056 477.382 C 18.481 477.382 17.999 477.536 17.61 477.845 C 17.222 478.154 16.908 478.571 16.671 479.096 C 16.435 479.621 16.266 480.235 16.165 480.938 C 16.063 481.641 16.013 482.386 16.013 483.174 C 16.013 483.961 16.063 484.707 16.165 485.409 C 16.266 486.112 16.435 486.726 16.671 487.251 C 16.908 487.776 17.222 488.193 17.61 488.503 C 17.999 488.811 18.481 488.965 19.056 488.965 C 19.631 488.965 20.113 488.811 20.501 488.503 C 20.89 488.193 21.203 487.776 21.439 487.251 C 21.677 486.726 21.845 486.112 21.947 485.409 C 22.049 484.707 22.099 483.961 22.099 483.174 Z" style="white-space: pre; fill: rgb(240, 240, 240);"/>
  <path d="M 6.645 442.987 C 6.645 443.389 6.514 443.736 6.252 444.029 C 5.99 444.322 5.647 444.469 5.224 444.469 C 4.785 444.469 4.43 444.322 4.159 444.029 C 3.889 443.736 3.754 443.389 3.754 442.987 C 3.754 442.585 3.889 442.23 4.159 441.921 C 4.43 441.612 4.785 441.458 5.224 441.458 C 5.647 441.458 5.99 441.612 6.252 441.921 C 6.514 442.23 6.645 442.585 6.645 442.987 Z M 0 443.242 C 0 440.832 0.452 438.982 1.357 437.693 C 2.262 436.403 3.534 435.759 5.174 435.759 C 6.831 435.759 8.107 436.403 9.003 437.693 C 9.899 438.982 10.348 440.832 10.348 443.242 C 10.348 445.651 9.899 447.501 9.003 448.79 C 8.107 450.08 6.831 450.725 5.174 450.725 C 3.534 450.725 2.262 450.08 1.357 448.79 C 0.452 447.501 0 445.651 0 443.242 Z M 8.217 443.242 C 8.217 442.454 8.167 441.709 8.065 441.006 C 7.963 440.303 7.795 439.689 7.558 439.164 C 7.321 438.639 7.008 438.222 6.619 437.913 C 6.231 437.604 5.749 437.45 5.174 437.45 C 4.599 437.45 4.117 437.604 3.728 437.913 C 3.34 438.222 3.026 438.639 2.79 439.164 C 2.553 439.689 2.384 440.303 2.283 441.006 C 2.181 441.709 2.131 442.454 2.131 443.242 C 2.131 444.029 2.181 444.775 2.283 445.477 C 2.384 446.18 2.553 446.794 2.79 447.319 C 3.026 447.844 3.34 448.261 3.728 448.571 C 4.117 448.879 4.599 449.033 5.174 449.033 C 5.749 449.033 6.231 448.879 6.619 448.571 C 7.008 448.261 7.321 447.844 7.558 447.319 C 7.795 446.794 7.963 446.18 8.065 445.477 C 8.167 444.775 8.217 444.029 8.217 443.242 Z" style="white-space: pre; fill: rgb(240, 240, 240);"/>
  <path d="M 9.269 363.021 C 9.269 363.423 9.138 363.77 8.876 364.063 C 8.613 364.357 8.271 364.504 7.848 364.504 C 7.409 364.504 7.054 364.357 6.783 364.063 C 6.513 363.77 6.378 363.423 6.378 363.021 C 6.378 362.62 6.513 362.264 6.783 361.955 C 7.054 361.646 7.409 361.492 7.848 361.492 C 8.271 361.492 8.613 361.646 8.876 361.955 C 9.138 362.264 9.269 362.62 9.269 363.021 Z M 2.624 363.276 C 2.624 360.866 3.076 359.017 3.981 357.727 C 4.886 356.437 6.158 355.793 7.798 355.793 C 9.455 355.793 10.731 356.437 11.627 357.727 C 12.523 359.017 12.972 360.866 12.972 363.276 C 12.972 365.685 12.523 367.535 11.627 368.824 C 10.731 370.114 9.455 370.759 7.798 370.759 C 6.158 370.759 4.886 370.114 3.981 368.824 C 3.076 367.535 2.624 365.685 2.624 363.276 Z M 10.841 363.276 C 10.841 362.488 10.791 361.743 10.689 361.04 C 10.587 360.337 10.419 359.723 10.181 359.198 C 9.945 358.673 9.632 358.256 9.243 357.947 C 8.855 357.638 8.373 357.484 7.798 357.484 C 7.223 357.484 6.741 357.638 6.352 357.947 C 5.964 358.256 5.65 358.673 5.414 359.198 C 5.177 359.723 5.008 360.337 4.907 361.04 C 4.805 361.743 4.755 362.488 4.755 363.276 C 4.755 364.063 4.805 364.809 4.907 365.511 C 5.008 366.214 5.177 366.828 5.414 367.353 C 5.65 367.878 5.964 368.295 6.352 368.605 C 6.741 368.913 7.223 369.067 7.798 369.067 C 8.373 369.067 8.855 368.913 9.243 368.605 C 9.632 368.295 9.945 367.878 10.181 367.353 C 10.419 366.828 10.587 366.214 10.689 365.511 C 10.791 364.809 10.841 364.063 10.841 363.276 Z" style="white-space: pre; fill: rgb(240, 240, 240);"/>
  <path d="M 35.852 318.171 C 35.852 318.573 35.721 318.92 35.459 319.213 C 35.197 319.507 34.854 319.654 34.432 319.654 C 33.992 319.654 33.637 319.507 33.367 319.213 C 33.097 318.92 32.961 318.573 32.961 318.171 C 32.961 317.77 33.097 317.414 33.367 317.105 C 33.637 316.796 33.992 316.642 34.432 316.642 C 34.854 316.642 35.197 316.796 35.459 317.105 C 35.721 317.414 35.852 317.77 35.852 318.171 Z M 29.207 318.426 C 29.207 316.016 29.659 314.167 30.564 312.877 C 31.469 311.588 32.741 310.943 34.381 310.943 C 36.038 310.943 37.314 311.588 38.211 312.877 C 39.107 314.167 39.555 316.016 39.555 318.426 C 39.555 320.835 39.107 322.685 38.211 323.974 C 37.314 325.264 36.038 325.909 34.381 325.909 C 32.741 325.909 31.469 325.264 30.564 323.974 C 29.659 322.685 29.207 320.835 29.207 318.426 Z M 37.424 318.426 C 37.424 317.638 37.374 316.893 37.272 316.19 C 37.171 315.487 37.002 314.873 36.765 314.348 C 36.528 313.823 36.216 313.406 35.827 313.097 C 35.438 312.789 34.956 312.634 34.381 312.634 C 33.807 312.634 33.325 312.789 32.936 313.097 C 32.547 313.406 32.234 313.823 31.997 314.348 C 31.761 314.873 31.591 315.487 31.49 316.19 C 31.388 316.893 31.338 317.638 31.338 318.426 C 31.338 319.213 31.388 319.959 31.49 320.662 C 31.591 321.364 31.761 321.978 31.997 322.504 C 32.234 323.028 32.547 323.445 32.936 323.755 C 33.325 324.063 33.807 324.218 34.381 324.218 C 34.956 324.218 35.438 324.063 35.827 323.755 C 36.216 323.445 36.528 323.028 36.765 322.504 C 37.002 321.978 37.171 321.364 37.272 320.662 C 37.374 319.959 37.424 319.213 37.424 318.426 Z" style="white-space: pre; fill: rgb(240, 240, 240);"/>
  <path d="M 69.281 293.755 C 69.281 294.158 69.149 294.505 68.888 294.798 C 68.625 295.091 68.283 295.238 67.86 295.238 C 67.42 295.238 67.065 295.091 66.795 294.798 C 66.525 294.505 66.39 294.158 66.39 293.755 C 66.39 293.354 66.525 292.999 66.795 292.69 C 67.065 292.381 67.42 292.227 67.86 292.227 C 68.283 292.227 68.625 292.381 68.888 292.69 C 69.149 292.999 69.281 293.354 69.281 293.755 Z M 62.636 294.011 C 62.636 291.601 63.088 289.751 63.992 288.462 C 64.897 287.172 66.17 286.528 67.81 286.528 C 69.466 286.528 70.743 287.172 71.639 288.462 C 72.535 289.751 72.983 291.601 72.983 294.011 C 72.983 296.42 72.535 298.27 71.639 299.559 C 70.743 300.849 69.466 301.494 67.81 301.494 C 66.17 301.494 64.897 300.849 63.992 299.559 C 63.088 298.27 62.636 296.42 62.636 294.011 Z M 70.853 294.011 C 70.853 293.223 70.802 292.478 70.701 291.775 C 70.599 291.072 70.431 290.458 70.193 289.933 C 69.956 289.408 69.644 288.991 69.255 288.682 C 68.866 288.373 68.385 288.218 67.81 288.218 C 67.235 288.218 66.753 288.373 66.364 288.682 C 65.975 288.991 65.662 289.408 65.425 289.933 C 65.189 290.458 65.02 291.072 64.919 291.775 C 64.817 292.478 64.767 293.223 64.767 294.011 C 64.767 294.798 64.817 295.543 64.919 296.246 C 65.02 296.949 65.189 297.563 65.425 298.088 C 65.662 298.613 65.975 299.03 66.364 299.34 C 66.753 299.648 67.235 299.802 67.81 299.802 C 68.385 299.802 68.866 299.648 69.255 299.34 C 69.644 299.03 69.956 298.613 70.193 298.088 C 70.431 297.563 70.599 296.949 70.701 296.246 C 70.802 295.543 70.853 294.798 70.853 294.011 Z" style="white-space: pre; fill: rgb(240, 240, 240);"/>
  <path d="M 66.77 403.967 C 66.77 404.369 66.639 404.717 66.378 405.01 C 66.115 405.303 65.773 405.45 65.35 405.45 C 64.91 405.45 64.555 405.303 64.285 405.01 C 64.015 404.717 63.88 404.369 63.88 403.967 C 63.88 403.566 64.015 403.211 64.285 402.902 C 64.555 402.593 64.91 402.439 65.35 402.439 C 65.773 402.439 66.115 402.593 66.378 402.902 C 66.639 403.211 66.77 403.566 66.77 403.967 Z M 60.126 404.222 C 60.126 401.813 60.578 399.963 61.482 398.674 C 62.387 397.384 63.659 396.739 65.3 396.739 C 66.956 396.739 68.233 397.384 69.129 398.674 C 70.025 399.963 70.473 401.813 70.473 404.222 C 70.473 406.631 70.025 408.481 69.129 409.77 C 68.233 411.061 66.956 411.705 65.3 411.705 C 63.659 411.705 62.387 411.061 61.482 409.77 C 60.578 408.481 60.126 406.631 60.126 404.222 Z M 68.343 404.222 C 68.343 403.434 68.292 402.689 68.191 401.987 C 68.089 401.284 67.921 400.67 67.683 400.145 C 67.446 399.62 67.134 399.203 66.745 398.894 C 66.356 398.585 65.875 398.43 65.3 398.43 C 64.725 398.43 64.243 398.585 63.854 398.894 C 63.465 399.203 63.152 399.62 62.915 400.145 C 62.679 400.67 62.51 401.284 62.409 401.987 C 62.307 402.689 62.257 403.434 62.257 404.222 C 62.257 405.01 62.307 405.755 62.409 406.458 C 62.51 407.16 62.679 407.775 62.915 408.3 C 63.152 408.824 63.465 409.241 63.854 409.551 C 64.243 409.86 64.725 410.014 65.3 410.014 C 65.875 410.014 66.356 409.86 66.745 409.551 C 67.134 409.241 67.446 408.824 67.683 408.3 C 67.921 407.775 68.089 407.16 68.191 406.458 C 68.292 405.755 68.343 405.01 68.343 404.222 Z" style="white-space: pre; fill: rgb(240, 240, 240);"/>
  <path d="M 47.449 263.961 L 50.546 263.961 L 50.546 256.083 C 50.546 255.758 50.558 255.42 50.582 255.067 L 48.497 256.644 C 48.361 256.743 48.225 256.803 48.088 256.824 C 47.951 256.845 47.822 256.845 47.702 256.824 C 47.582 256.803 47.475 256.766 47.383 256.713 C 47.29 256.66 47.221 256.605 47.172 256.549 L 46.256 255.448 L 51.065 251.784 L 53.451 251.784 L 53.451 263.961 L 56.186 263.961 L 56.186 265.867 L 47.449 265.867 L 47.449 263.961 Z" style="white-space: pre; fill: rgb(240, 240, 240);"/>
  <path d="M 27.228 258.571 C 27.228 258.973 27.096 259.32 26.835 259.613 C 26.572 259.906 26.23 260.053 25.807 260.053 C 25.368 260.053 25.013 259.906 24.742 259.613 C 24.472 259.32 24.337 258.973 24.337 258.571 C 24.337 258.169 24.472 257.814 24.742 257.505 C 25.013 257.196 25.368 257.042 25.807 257.042 C 26.23 257.042 26.572 257.196 26.835 257.505 C 27.096 257.814 27.228 258.169 27.228 258.571 Z M 20.583 258.826 C 20.583 256.416 21.035 254.566 21.939 253.277 C 22.845 251.987 24.117 251.343 25.757 251.343 C 27.414 251.343 28.69 251.987 29.586 253.277 C 30.482 254.566 30.93 256.416 30.93 258.826 C 30.93 261.235 30.482 263.085 29.586 264.374 C 28.69 265.664 27.414 266.309 25.757 266.309 C 24.117 266.309 22.845 265.664 21.939 264.374 C 21.035 263.085 20.583 261.235 20.583 258.826 Z M 28.8 258.826 C 28.8 258.038 28.75 257.293 28.648 256.59 C 28.546 255.887 28.378 255.273 28.14 254.748 C 27.904 254.223 27.591 253.806 27.202 253.497 C 26.814 253.188 26.332 253.034 25.757 253.034 C 25.182 253.034 24.7 253.188 24.311 253.497 C 23.923 253.806 23.609 254.223 23.372 254.748 C 23.136 255.273 22.967 255.887 22.866 256.59 C 22.764 257.293 22.714 258.038 22.714 258.826 C 22.714 259.613 22.764 260.359 22.866 261.061 C 22.967 261.764 23.136 262.378 23.372 262.903 C 23.609 263.428 23.923 263.845 24.311 264.155 C 24.7 264.463 25.182 264.617 25.757 264.617 C 26.332 264.617 26.814 264.463 27.202 264.155 C 27.591 263.845 27.904 263.428 28.14 262.903 C 28.378 262.378 28.546 261.764 28.648 261.061 C 28.75 260.359 28.8 259.613 28.8 258.826 Z" style="white-space: pre; fill: rgb(240, 240, 240);"/>
  <path d="M 85.337 277.966 C 85.337 278.368 85.206 278.715 84.944 279.008 C 84.682 279.302 84.339 279.449 83.917 279.449 C 83.477 279.449 83.122 279.302 82.852 279.008 C 82.582 278.715 82.446 278.368 82.446 277.966 C 82.446 277.565 82.582 277.209 82.852 276.9 C 83.122 276.591 83.477 276.437 83.917 276.437 C 84.339 276.437 84.682 276.591 84.944 276.9 C 85.206 277.209 85.337 277.565 85.337 277.966 Z M 78.692 278.221 C 78.692 275.811 79.144 273.962 80.049 272.672 C 80.954 271.383 82.226 270.738 83.866 270.738 C 85.523 270.738 86.799 271.383 87.696 272.672 C 88.592 273.962 89.04 275.811 89.04 278.221 C 89.04 280.63 88.592 282.48 87.696 283.769 C 86.799 285.059 85.523 285.704 83.866 285.704 C 82.226 285.704 80.954 285.059 80.049 283.769 C 79.144 282.48 78.692 280.63 78.692 278.221 Z M 86.909 278.221 C 86.909 277.433 86.859 276.688 86.757 275.985 C 86.656 275.282 86.487 274.668 86.25 274.143 C 86.013 273.618 85.701 273.201 85.312 272.892 C 84.923 272.584 84.441 272.429 83.866 272.429 C 83.292 272.429 82.81 272.584 82.421 272.892 C 82.032 273.201 81.719 273.618 81.482 274.143 C 81.246 274.668 81.077 275.282 80.975 275.985 C 80.873 276.688 80.823 277.433 80.823 278.221 C 80.823 279.008 80.873 279.754 80.975 280.457 C 81.077 281.159 81.246 281.773 81.482 282.298 C 81.719 282.823 82.032 283.24 82.421 283.55 C 82.81 283.858 83.292 284.013 83.866 284.013 C 84.441 284.013 84.923 283.858 85.312 283.55 C 85.701 283.24 86.013 282.823 86.25 282.298 C 86.487 281.773 86.656 281.159 86.757 280.457 C 86.859 279.754 86.909 279.008 86.909 278.221 Z" style="white-space: pre; fill: rgb(240, 240, 240);"/>
  <path d="M 113.006 56.703 L 116.299 56.703 L 116.299 48.327 C 116.299 47.981 116.312 47.621 116.337 47.246 L 114.12 48.923 C 113.975 49.029 113.83 49.092 113.685 49.115 C 113.539 49.137 113.403 49.137 113.274 49.115 C 113.147 49.092 113.033 49.053 112.935 48.996 C 112.837 48.94 112.762 48.882 112.711 48.822 L 111.737 47.651 L 116.85 43.755 L 119.387 43.755 L 119.387 56.703 L 122.296 56.703 L 122.296 58.73 L 113.006 58.73 L 113.006 56.703 Z" style="white-space: pre; fill: rgb(240, 240, 240);"/>
  <path d="M 145.863 24.927 L 149.157 24.927 L 149.157 16.55 C 149.157 16.205 149.17 15.845 149.195 15.469 L 146.978 17.147 C 146.833 17.252 146.688 17.316 146.543 17.339 C 146.397 17.361 146.26 17.361 146.132 17.339 C 146.004 17.316 145.891 17.276 145.793 17.22 C 145.694 17.164 145.62 17.106 145.569 17.046 L 144.595 15.875 L 149.708 11.979 L 152.245 11.979 L 152.245 24.927 L 155.154 24.927 L 155.154 26.954 L 145.863 26.954 L 145.863 24.927 Z" style="white-space: pre; fill: rgb(240, 240, 240);"/>
  <path d="M 164.446 216.373 L 167.739 216.373 L 167.739 207.996 C 167.739 207.651 167.752 207.291 167.778 206.915 L 165.561 208.593 C 165.416 208.698 165.271 208.761 165.125 208.784 C 164.98 208.807 164.843 208.807 164.715 208.784 C 164.587 208.761 164.474 208.722 164.376 208.666 C 164.277 208.61 164.203 208.551 164.151 208.492 L 163.177 207.321 L 168.291 203.425 L 170.828 203.425 L 170.828 216.373 L 173.737 216.373 L 173.737 218.4 L 164.446 218.4 L 164.446 216.373 Z" style="white-space: pre; fill: rgb(240, 240, 240);"/>
  <path d="M 137.755 78.972 L 141.049 78.972 L 141.049 70.596 C 141.049 70.25 141.062 69.89 141.087 69.515 L 138.87 71.192 C 138.725 71.297 138.58 71.361 138.435 71.384 C 138.289 71.406 138.152 71.406 138.024 71.384 C 137.896 71.361 137.783 71.321 137.685 71.265 C 137.586 71.209 137.512 71.151 137.461 71.091 L 136.487 69.92 L 141.6 66.024 L 144.137 66.024 L 144.137 78.972 L 147.046 78.972 L 147.046 80.999 L 137.755 80.999 L 137.755 78.972 Z" style="white-space: pre; fill: rgb(240, 240, 240);"/>
  <path d="M 156.423 149.402 L 159.716 149.402 L 159.716 141.026 C 159.716 140.68 159.729 140.32 159.755 139.945 L 157.538 141.622 C 157.392 141.728 157.247 141.791 157.102 141.814 C 156.957 141.836 156.82 141.836 156.692 141.814 C 156.564 141.791 156.45 141.752 156.352 141.695 C 156.254 141.639 156.18 141.581 156.128 141.521 L 155.154 140.35 L 160.267 136.454 L 162.805 136.454 L 162.805 149.402 L 165.713 149.402 L 165.713 151.429 L 156.423 151.429 L 156.423 149.402 Z" style="white-space: pre; fill: rgb(240, 240, 240);"/>
  <path d="M 151.216 246.552 C 151.216 246.979 151.077 247.349 150.799 247.66 C 150.52 247.972 150.155 248.129 149.706 248.129 C 149.239 248.129 148.861 247.972 148.573 247.66 C 148.286 247.349 148.142 246.979 148.142 246.552 C 148.142 246.125 148.286 245.747 148.573 245.419 C 148.861 245.09 149.239 244.926 149.706 244.926 C 150.155 244.926 150.52 245.09 150.799 245.419 C 151.077 245.747 151.216 246.125 151.216 246.552 Z M 144.151 246.823 C 144.151 244.261 144.631 242.294 145.593 240.923 C 146.556 239.551 147.908 238.866 149.652 238.866 C 151.414 238.866 152.771 239.551 153.725 240.923 C 154.677 242.294 155.154 244.261 155.154 246.823 C 155.154 249.385 154.677 251.352 153.725 252.723 C 152.771 254.095 151.414 254.78 149.652 254.78 C 147.908 254.78 146.556 254.095 145.593 252.723 C 144.631 251.352 144.151 249.385 144.151 246.823 Z M 152.888 246.823 C 152.888 245.985 152.835 245.193 152.726 244.446 C 152.619 243.698 152.439 243.045 152.187 242.487 C 151.935 241.929 151.603 241.485 151.189 241.157 C 150.776 240.828 150.264 240.664 149.652 240.664 C 149.041 240.664 148.529 240.828 148.115 241.157 C 147.702 241.485 147.369 241.929 147.117 242.487 C 146.866 243.045 146.686 243.698 146.578 244.446 C 146.47 245.193 146.417 245.985 146.417 246.823 C 146.417 247.66 146.47 248.453 146.578 249.2 C 146.686 249.947 146.866 250.601 147.117 251.159 C 147.369 251.717 147.702 252.16 148.115 252.49 C 148.529 252.818 149.041 252.982 149.652 252.982 C 150.264 252.982 150.776 252.818 151.189 252.49 C 151.603 252.16 151.935 251.717 152.187 251.159 C 152.439 250.601 152.619 249.947 152.726 249.2 C 152.835 248.453 152.888 247.66 152.888 246.823 Z" style="white-space: pre; fill: rgb(240, 240, 240);"/>
  <path d="M 162.22 177.076 C 162.22 177.503 162.08 177.873 161.802 178.184 C 161.523 178.496 161.159 178.653 160.709 178.653 C 160.242 178.653 159.864 178.496 159.577 178.184 C 159.29 177.873 159.146 177.503 159.146 177.076 C 159.146 176.649 159.29 176.271 159.577 175.943 C 159.864 175.614 160.242 175.45 160.709 175.45 C 161.159 175.45 161.523 175.614 161.802 175.943 C 162.08 176.271 162.22 176.649 162.22 177.076 Z M 155.154 177.347 C 155.154 174.785 155.635 172.818 156.597 171.447 C 157.559 170.075 158.912 169.39 160.656 169.39 C 162.418 169.39 163.775 170.075 164.728 171.447 C 165.681 172.818 166.157 174.785 166.157 177.347 C 166.157 179.909 165.681 181.876 164.728 183.247 C 163.775 184.619 162.418 185.304 160.656 185.304 C 158.912 185.304 157.559 184.619 156.597 183.247 C 155.635 181.876 155.154 179.909 155.154 177.347 Z M 163.892 177.347 C 163.892 176.509 163.838 175.717 163.73 174.97 C 163.622 174.222 163.443 173.569 163.19 173.011 C 162.939 172.453 162.607 172.009 162.193 171.681 C 161.779 171.352 161.267 171.188 160.656 171.188 C 160.045 171.188 159.532 171.352 159.119 171.681 C 158.705 172.009 158.372 172.453 158.12 173.011 C 157.869 173.569 157.689 174.222 157.581 174.97 C 157.473 175.717 157.42 176.509 157.42 177.347 C 157.42 178.184 157.473 178.977 157.581 179.724 C 157.689 180.471 157.869 181.125 158.12 181.683 C 158.372 182.241 158.705 182.684 159.119 183.014 C 159.532 183.342 160.045 183.506 160.656 183.506 C 161.267 183.506 161.779 183.342 162.193 183.014 C 162.607 182.684 162.939 182.241 163.19 181.683 C 163.443 181.125 163.622 180.471 163.73 179.724 C 163.838 178.977 163.892 178.184 163.892 177.347 Z" style="white-space: pre; fill: rgb(240, 240, 240);"/>
  <path d="M 118.823 130.945 C 118.823 131.372 118.684 131.742 118.406 132.053 C 118.127 132.366 117.762 132.522 117.313 132.522 C 116.846 132.522 116.468 132.366 116.18 132.053 C 115.893 131.742 115.749 131.372 115.749 130.945 C 115.749 130.518 115.893 130.14 116.18 129.812 C 116.468 129.483 116.846 129.319 117.313 129.319 C 117.762 129.319 118.127 129.483 118.406 129.812 C 118.684 130.14 118.823 130.518 118.823 130.945 Z M 111.758 131.216 C 111.758 128.654 112.238 126.687 113.2 125.316 C 114.163 123.944 115.515 123.259 117.259 123.259 C 119.021 123.259 120.378 123.944 121.332 125.316 C 122.284 126.687 122.761 128.654 122.761 131.216 C 122.761 133.778 122.284 135.745 121.332 137.116 C 120.378 138.488 119.021 139.173 117.259 139.173 C 115.515 139.173 114.163 138.488 113.2 137.116 C 112.238 135.745 111.758 133.778 111.758 131.216 Z M 120.495 131.216 C 120.495 130.378 120.442 129.586 120.334 128.839 C 120.226 128.091 120.046 127.439 119.794 126.88 C 119.542 126.322 119.21 125.878 118.796 125.55 C 118.383 125.222 117.871 125.057 117.259 125.057 C 116.648 125.057 116.136 125.222 115.722 125.55 C 115.309 125.878 114.976 126.322 114.724 126.88 C 114.473 127.439 114.293 128.091 114.185 128.839 C 114.077 129.586 114.024 130.378 114.024 131.216 C 114.024 132.053 114.077 132.846 114.185 133.594 C 114.293 134.34 114.473 134.994 114.724 135.552 C 114.976 136.11 115.309 136.553 115.722 136.883 C 116.136 137.211 116.648 137.375 117.259 137.375 C 117.871 137.375 118.383 137.211 118.796 136.883 C 119.21 136.553 119.542 136.11 119.794 135.552 C 120.046 134.994 120.226 134.34 120.334 133.594 C 120.442 132.846 120.495 132.053 120.495 131.216 Z" style="white-space: pre; fill: rgb(240, 240, 240);"/>
  <path d="M 183.33 43.594 C 183.33 44.021 183.191 44.391 182.912 44.702 C 182.633 45.014 182.269 45.171 181.82 45.171 C 181.352 45.171 180.975 45.014 180.687 44.702 C 180.4 44.391 180.256 44.021 180.256 43.594 C 180.256 43.167 180.4 42.789 180.687 42.461 C 180.975 42.132 181.352 41.968 181.82 41.968 C 182.269 41.968 182.633 42.132 182.912 42.461 C 183.191 42.789 183.33 43.167 183.33 43.594 Z M 176.264 43.865 C 176.264 41.303 176.745 39.336 177.707 37.965 C 178.669 36.593 180.022 35.908 181.766 35.908 C 183.528 35.908 184.885 36.593 185.838 37.965 C 186.791 39.336 187.268 41.303 187.268 43.865 C 187.268 46.427 186.791 48.394 185.838 49.765 C 184.885 51.137 183.528 51.822 181.766 51.822 C 180.022 51.822 178.669 51.137 177.707 49.765 C 176.745 48.394 176.264 46.427 176.264 43.865 Z M 185.002 43.865 C 185.002 43.027 184.948 42.235 184.84 41.488 C 184.732 40.74 184.553 40.088 184.301 39.529 C 184.049 38.971 183.717 38.527 183.303 38.199 C 182.89 37.87 182.377 37.706 181.766 37.706 C 181.155 37.706 180.643 37.87 180.229 38.199 C 179.816 38.527 179.482 38.971 179.231 39.529 C 178.979 40.088 178.799 40.74 178.692 41.488 C 178.583 42.235 178.53 43.027 178.53 43.865 C 178.53 44.702 178.583 45.495 178.692 46.243 C 178.799 46.989 178.979 47.643 179.231 48.201 C 179.482 48.759 179.816 49.202 180.229 49.532 C 180.643 49.86 181.155 50.024 181.766 50.024 C 182.377 50.024 182.89 49.86 183.303 49.532 C 183.717 49.202 184.049 48.759 184.301 48.201 C 184.553 47.643 184.732 46.989 184.84 46.243 C 184.948 45.495 185.002 44.702 185.002 43.865 Z" style="white-space: pre; fill: rgb(240, 240, 240);"/>
  <path d="M 162.22 85.685 C 162.22 86.113 162.08 86.482 161.802 86.794 C 161.523 87.106 161.159 87.262 160.709 87.262 C 160.242 87.262 159.864 87.106 159.577 86.794 C 159.29 86.482 159.146 86.113 159.146 85.685 C 159.146 85.258 159.29 84.88 159.577 84.552 C 159.864 84.224 160.242 84.06 160.709 84.06 C 161.159 84.06 161.523 84.224 161.802 84.552 C 162.08 84.88 162.22 85.258 162.22 85.685 Z M 155.154 85.956 C 155.154 83.394 155.635 81.427 156.597 80.056 C 157.559 78.685 158.912 77.999 160.656 77.999 C 162.418 77.999 163.775 78.685 164.728 80.056 C 165.681 81.427 166.157 83.394 166.157 85.956 C 166.157 88.518 165.681 90.485 164.728 91.856 C 163.775 93.228 162.418 93.914 160.656 93.914 C 158.912 93.914 157.559 93.228 156.597 91.856 C 155.635 90.485 155.154 88.518 155.154 85.956 Z M 163.892 85.956 C 163.892 85.119 163.838 84.326 163.73 83.579 C 163.622 82.832 163.443 82.179 163.19 81.62 C 162.939 81.062 162.607 80.619 162.193 80.29 C 161.779 79.962 161.267 79.797 160.656 79.797 C 160.045 79.797 159.532 79.962 159.119 80.29 C 158.705 80.619 158.372 81.062 158.12 81.62 C 157.869 82.179 157.689 82.832 157.581 83.579 C 157.473 84.326 157.42 85.119 157.42 85.956 C 157.42 86.794 157.473 87.586 157.581 88.334 C 157.689 89.081 157.869 89.734 158.12 90.292 C 158.372 90.85 158.705 91.293 159.119 91.623 C 159.532 91.951 160.045 92.115 160.656 92.115 C 161.267 92.115 161.779 91.951 162.193 91.623 C 162.607 91.293 162.939 90.85 163.19 90.292 C 163.443 89.734 163.622 89.081 163.73 88.334 C 163.838 87.586 163.892 86.794 163.892 85.956 Z" style="white-space: pre; fill: rgb(240, 240, 240);"/>
  <path d="M 127.559 168.583 C 127.559 169.011 127.419 169.38 127.141 169.692 C 126.862 170.004 126.498 170.16 126.048 170.16 C 125.581 170.16 125.203 170.004 124.916 169.692 C 124.629 169.38 124.485 169.011 124.485 168.583 C 124.485 168.157 124.629 167.779 124.916 167.45 C 125.203 167.122 125.581 166.958 126.048 166.958 C 126.498 166.958 126.862 167.122 127.141 167.45 C 127.419 167.779 127.559 168.157 127.559 168.583 Z M 120.493 168.854 C 120.493 166.292 120.974 164.325 121.935 162.954 C 122.898 161.583 124.251 160.897 125.995 160.897 C 127.756 160.897 129.114 161.583 130.067 162.954 C 131.02 164.325 131.496 166.292 131.496 168.854 C 131.496 171.416 131.02 173.383 130.067 174.754 C 129.114 176.126 127.756 176.812 125.995 176.812 C 124.251 176.812 122.898 176.126 121.935 174.754 C 120.974 173.383 120.493 171.416 120.493 168.854 Z M 129.231 168.854 C 129.231 168.017 129.177 167.224 129.069 166.477 C 128.961 165.73 128.782 165.077 128.529 164.518 C 128.277 163.96 127.945 163.517 127.532 163.188 C 127.118 162.86 126.606 162.695 125.995 162.695 C 125.384 162.695 124.871 162.86 124.457 163.188 C 124.044 163.517 123.711 163.96 123.459 164.518 C 123.208 165.077 123.028 165.73 122.92 166.477 C 122.812 167.224 122.759 168.017 122.759 168.854 C 122.759 169.692 122.812 170.484 122.92 171.232 C 123.028 171.979 123.208 172.632 123.459 173.19 C 123.711 173.748 124.044 174.192 124.457 174.521 C 124.871 174.849 125.384 175.013 125.995 175.013 C 126.606 175.013 127.118 174.849 127.532 174.521 C 127.945 174.192 128.277 173.748 128.529 173.19 C 128.782 172.632 128.961 171.979 129.069 171.232 C 129.177 170.484 129.231 169.692 129.231 168.854 Z" style="white-space: pre; fill: rgb(240, 240, 240);"/>
  <path d="M 170.269 20.595 L 173.562 20.595 L 173.562 12.218 C 173.562 11.873 173.575 11.513 173.601 11.138 L 171.384 12.815 C 171.239 12.92 171.094 12.984 170.948 13.007 C 170.803 13.029 170.666 13.029 170.538 13.007 C 170.41 12.984 170.297 12.944 170.199 12.888 C 170.1 12.832 170.026 12.774 169.974 12.714 L 169 11.543 L 174.114 7.647 L 176.651 7.647 L 176.651 20.595 L 179.56 20.595 L 179.56 22.622 L 170.269 22.622 L 170.269 20.595 Z" style="white-space: pre; fill: rgb(240, 240, 240);"/>
</svg>