<?xml version="1.0" encoding="utf-8"?>
<svg width="0px" height="0px" viewBox="0 0 400 400" version="1.1" xmlns="http://www.w3.org/2000/svg">
  <defs/>
  <path d="M 118.293 75 L 118.293 310 C 108.293 305 95.793 300 80.793 300 C 45.793 300 18.293 322.5 18.293 350 C 18.293 377.5 45.793 400 80.793 400 C 115.793 400 143.293 377.5 143.293 350 L 143.293 167.5 L 318.293 110 L 318.293 237.5 C 308.293 230 295.793 225 280.793 225 C 245.793 225 218.293 247.5 218.293 275 C 218.293 302.5 245.793 325 280.793 325 C 315.793 325 343.293 302.5 343.293 275 L 343.293 0 L 118.293 75 Z" style=""/>
</svg>